<svg width="18" height="18" viewBox="0 0 18 18" fill="none" xmlns="http://www.w3.org/2000/svg">
<g clip-path="url(#clip0)">
<path fill-rule="evenodd" clip-rule="evenodd" d="M3.34314 14.9706C2.95261 14.58 2.95261 13.9469 3.34314 13.5564L13.2426 3.65686C13.6332 3.26634 14.2663 3.26634 14.6568 3.65686C15.0474 4.04739 15.0474 4.68055 14.6568 5.07107L4.75735 14.9706C4.36683 15.3611 3.73366 15.3611 3.34314 14.9706Z" fill="#4D555C"/>
<path fill-rule="evenodd" clip-rule="evenodd" d="M3.34311 3.65686C3.73363 3.26633 4.3668 3.26633 4.75732 3.65686L14.6568 13.5564C15.0473 13.9469 15.0473 14.58 14.6568 14.9706C14.2663 15.3611 13.6331 15.3611 13.2426 14.9706L3.34311 5.07107C2.95258 4.68055 2.95258 4.04738 3.34311 3.65686Z" fill="#4D555C"/>
</g>
<defs>
<clipPath id="clip0">
<rect width="18" height="18" fill="white"/>
</clipPath>
</defs>
</svg>
