<svg width="24" height="24" viewBox="0 0 24 24" fill="none" xmlns="http://www.w3.org/2000/svg">
<path fill-rule="evenodd" clip-rule="evenodd" d="M9 3C9 2.44772 9.44772 2 10 2H14C14.5523 2 15 2.44772 15 3V7C15 7.55228 14.5523 8 14 8H13V11H20C20.5523 11 21 11.4477 21 12V16H22C22.5523 16 23 16.4477 23 17V21C23 21.5523 22.5523 22 22 22H18C17.4477 22 17 21.5523 17 21V17C17 16.4477 17.4477 16 18 16H19V13H13V16H14C14.5523 16 15 16.4477 15 17V21C15 21.5523 14.5523 22 14 22H10C9.44772 22 9 21.5523 9 21V17C9 16.4477 9.44772 16 10 16H11V13H5V16H6C6.55228 16 7 16.4477 7 17V21C7 21.5523 6.55228 22 6 22H2C1.44772 22 1 21.5523 1 21V17C1 16.4477 1.44772 16 2 16H3V12C3 11.4477 3.44772 11 4 11H11V8H10C9.44772 8 9 7.55228 9 7V3ZM11 6V4H13V6H11ZM13 18H11V20H13V18ZM5 20V18H3V20H5ZM21 20V18H19V20H21Z" fill="#4D555C"/>
</svg>
