<svg width="24" height="24" viewBox="0 0 24 24" fill="none" xmlns="http://www.w3.org/2000/svg">
<path d="M6 6L18 6L18 10H6L6 6Z" stroke="#00517D" stroke-width="2"/>
<path d="M2 2L22 2V22H2L2 2Z" stroke="#00517D" stroke-width="2"/>
<path d="M6 14L10 14V18H6L6 14Z" stroke="#00517D" stroke-width="2"/>
<mask id="path-4-inside-1" fill="white">
<path d="M13 14C13 13.4477 13.4477 13 14 13H18C18.5523 13 19 13.4477 19 14C19 14.5523 18.5523 15 18 15H14C13.4477 15 13 14.5523 13 14Z"/>
</mask>
<path d="M18 13H14V17H18V13ZM14 15H18V11H14V15ZM18 15C17.4477 15 17 14.5523 17 14H21C21 12.3431 19.6569 11 18 11V15ZM14 13C14.5523 13 15 13.4477 15 14H11C11 15.6569 12.3431 17 14 17V13ZM18 17C19.6569 17 21 15.6569 21 14H17C17 13.4477 17.4477 13 18 13V17ZM15 14C15 14.5523 14.5523 15 14 15V11C12.3431 11 11 12.3431 11 14H15Z" fill="#00517D" mask="url(#path-4-inside-1)"/>
<mask id="path-6-inside-2" fill="white">
<path d="M13 18C13 17.4477 13.4477 17 14 17H18C18.5523 17 19 17.4477 19 18C19 18.5523 18.5523 19 18 19H14C13.4477 19 13 18.5523 13 18Z"/>
</mask>
<path d="M18 17H14V21H18V17ZM14 19H18V15H14V19ZM18 19C17.4477 19 17 18.5523 17 18H21C21 16.3431 19.6569 15 18 15V19ZM14 17C14.5523 17 15 17.4477 15 18H11C11 19.6569 12.3431 21 14 21V17ZM18 21C19.6569 21 21 19.6569 21 18H17C17 17.4477 17.4477 17 18 17V21ZM15 18C15 18.5523 14.5523 19 14 19V15C12.3431 15 11 16.3431 11 18H15Z" fill="#00517D" mask="url(#path-6-inside-2)"/>
</svg>
