<svg width="24" height="24" viewBox="0 0 24 24" fill="none" xmlns="http://www.w3.org/2000/svg">
  <path d="M19.1213 9.17158L15.5858 12.7071C14.4142 13.8787 12.5147 13.8787 11.3432 12.7071C11.0952 12.4592 10.8998 12.1786 10.7568 11.8793L9.29257 13.3435C9.47466 13.6184 9.68679 13.8792 9.92895 14.1213C11.8816 16.074 15.0474 16.074 17 14.1213L20.5356 10.5858C22.4882 8.63318 22.4882 5.46735 20.5356 3.51473C18.5829 1.56211 15.4171 1.56211 13.4645 3.51473L10.5646 6.41459C11.3849 6.40627 12.2063 6.54124 12.9882 6.81949L14.8787 4.92894C16.0503 3.75737 17.9498 3.75737 19.1213 4.92894C20.2929 6.10052 20.2929 8.00001 19.1213 9.17158Z" fill="#4D555C"/>
  <path d="M4.9792 14.8284L8.51474 11.2929C9.68631 10.1213 11.5858 10.1213 12.7574 11.2929C13.0053 11.5408 13.2008 11.8214 13.3438 12.1207L14.808 10.6565C14.6259 10.3817 14.4138 10.1208 14.1716 9.87869C12.219 7.92607 9.05315 7.92607 7.10052 9.87869L3.56499 13.4142C1.61237 15.3668 1.61237 18.5327 3.56499 20.4853C5.51761 22.4379 8.68344 22.4379 10.6361 20.4853L13.5359 17.5854C12.7157 17.5937 11.8942 17.4588 11.1124 17.1805L9.22184 19.0711C8.05027 20.2426 6.15078 20.2427 4.9792 19.0711C3.80763 17.8995 3.80763 16 4.9792 14.8284Z" fill="#4D555C"/>
</svg>
