<svg width="24" height="24" viewBox="0 0 24 24" fill="none" xmlns="http://www.w3.org/2000/svg">
<path d="M16.6313 11.7563L13 15.3876L13 3.14286C13 2.51168 12.5523 2 12 2C11.4477 2 11 2.51167 11 3.14286L11 15.3876L7.36872 11.7563C7.02701 11.4146 6.47299 11.4146 6.13128 11.7563C5.78957 12.098 5.78957 12.652 6.13128 12.9937L12 18.8624L17.8687 12.9937C18.2104 12.652 18.2104 12.098 17.8687 11.7563C17.527 11.4146 16.973 11.4146 16.6313 11.7563Z" fill="#4D555C"/>
<path d="M20 22C20.5523 22 21 21.5523 21 21C21 20.4477 20.5523 20 20 20H4C3.44772 20 3 20.4477 3 21C3 21.5523 3.44772 22 4 22H20Z" fill="#4D555C"/>
</svg>
