<svg width="8" height="8" viewBox="0 0 8 8" fill="none" xmlns="http://www.w3.org/2000/svg">
<g clip-path="url(#clip0_6185_33667)">
<path fill-rule="evenodd" clip-rule="evenodd" d="M0.292893 5.94975C-0.0976309 6.34027 -0.0976312 6.97344 0.292893 7.36396C0.683417 7.75448 1.31658 7.75448 1.70711 7.36396L3.82839 5.24268L5.9499 7.36418C6.34042 7.7547 6.97359 7.7547 7.36411 7.36418C7.75464 6.97366 7.75464 6.34049 7.36411 5.94997L5.24261 3.82846L7.36396 1.70711C7.75449 1.31658 7.75449 0.683418 7.36396 0.292893C6.97344 -0.097631 6.34027 -0.0976311 5.94975 0.292893L3.82839 2.41425L1.70726 0.293115C1.31673 -0.0974089 0.683569 -0.0974091 0.293044 0.293115C-0.09748 0.683639 -0.0974799 1.3168 0.293044 1.70733L2.41418 3.82846L0.292893 5.94975Z" fill="white"/>
</g>
<defs>
<clipPath id="clip0_6185_33667">
<rect width="8.00002" height="8" fill="white"/>
</clipPath>
</defs>
</svg>
