<svg width="24" height="24" viewBox="0 0 24 24" fill="none" xmlns="http://www.w3.org/2000/svg">
<path fill-rule="evenodd" clip-rule="evenodd" d="M20 9.86623V7.12549V7C20 5.89543 19.1046 5 18 5H15.1338C15.2084 5.129 15.311 5.23978 15.4333 5.32405C15.5944 5.43502 15.7896 5.5 16 5.5H18.0858L16.5858 7H18V8.41418L19.5 6.91421V7.86264L19.5 9C19.5 9.2104 19.5649 9.40561 19.6759 9.56669C19.7602 9.68899 19.871 9.79161 20 9.86623ZM13.7573 7H6V19H18V11.2426L18.2539 10.9888C18.6987 11.4908 19.3094 11.8427 20 11.9585V19C20 20.1046 19.1046 21 18 21H6C4.89543 21 4 20.1046 4 19V7C4 5.89543 4.89543 5 6 5H13.0415C13.1573 5.69063 13.5091 6.30125 14.0112 6.74612L13.7573 7Z" fill="#4D555C"/>
<path d="M16 3.5C15.4477 3.5 15 3.94772 15 4.5C15 5.05228 15.4477 5.5 16 5.5H18.0858L12.7071 10.8787C12.3166 11.2692 12.3166 11.9024 12.7071 12.2929C13.0976 12.6834 13.7308 12.6834 14.1213 12.2929L19.5 6.91421V9C19.5 9.55229 19.9477 10 20.5 10C21.0523 10 21.5 9.55229 21.5 9V4.5C21.5 3.94772 21.0523 3.5 20.5 3.5H16Z" fill="#4D555C"/>
</svg>
