<svg width="24" height="24" viewBox="0 0 24 24" fill="none" xmlns="http://www.w3.org/2000/svg">
<g clip-path="url(#clip0)">
<path fill-rule="evenodd" clip-rule="evenodd" d="M4.22183 19.7782C8.51759 24.074 15.4824 24.074 19.7782 19.7782C24.0739 15.4824 24.0739 8.51761 19.7782 4.22184C15.4824 -0.0739282 8.51759 -0.0739282 4.22183 4.22184C-0.0739417 8.51761 -0.0739417 15.4824 4.22183 19.7782ZM17.618 19.0322L15.4769 16.8911C13.4022 18.3697 10.5978 18.3697 8.52313 16.8911L6.38199 19.0322C9.65785 21.6559 14.3422 21.6559 17.618 19.0322ZM4.96777 17.618L7.10891 15.4769C5.63036 13.4022 5.63036 10.5978 7.10891 8.52314L4.96777 6.382C2.34408 9.65786 2.34408 14.3422 4.96777 17.618ZM19.0322 17.618L16.8911 15.4769C18.3696 13.4022 18.3696 10.5978 16.8911 8.52314L19.0322 6.382C21.6559 9.65786 21.6559 14.3422 19.0322 17.618ZM17.618 4.96779C14.3422 2.34409 9.65785 2.34409 6.38199 4.96779L8.52313 7.10893C10.5978 5.63038 13.4022 5.63037 15.4769 7.10893L17.618 4.96779ZM9.17157 14.8284C10.7337 16.3905 13.2663 16.3905 14.8284 14.8284C16.3905 13.2663 16.3905 10.7337 14.8284 9.17159C13.2663 7.60949 10.7337 7.60949 9.17157 9.17159C7.60948 10.7337 7.60948 13.2663 9.17157 14.8284Z" fill="#4D555C"/>
</g>
<defs>
<clipPath id="clip0">
<rect width="24" height="24" fill="white"/>
</clipPath>
</defs>
</svg>
