<svg width="24" height="24" viewBox="0 0 24 24" fill="none" xmlns="http://www.w3.org/2000/svg">
<path d="M21.7 11.3C21.3 10.9 20.7 10.9 20.3 11.3C20.3 11.3 16.5 15 12 15C7.5 15 3.7 11.3 3.7 11.3C3.3 10.9 2.7 10.9 2.3 11.3C1.9 11.7 1.9 12.3 2.3 12.7C2.4 12.8 3.7 14.1 5.7 15.2L4.6 17.1C4.4 17.6 4.5 18.2 5 18.5C5.2 18.6 5.3 18.6 5.5 18.6C5.8 18.6 6.2 18.4 6.4 18.1L7.6 16.1C8.6 16.5 9.8 16.8 11 17V19C11 19.6 11.4 20 12 20C12.6 20 13 19.6 13 19V17C14.2 16.9 15.4 16.6 16.5 16.1L17.7 18.1C17.9 18.4 18.2 18.6 18.6 18.6C18.8 18.6 18.9 18.6 19.1 18.5C19.6 18.2 19.7 17.6 19.5 17.1L18.4 15.2C20.4 14.1 21.7 12.8 21.8 12.7C22.1 12.3 22.1 11.7 21.7 11.3Z" fill="#4D555C"/>
</svg>
