<svg width="24" height="24" viewBox="0 0 24 24" fill="none" xmlns="http://www.w3.org/2000/svg">
  <g clip-path="url(#clip0)">
    <path fill-rule="evenodd" clip-rule="evenodd" d="M19.9498 5.36395C20.3403 4.97343 20.3403 4.34026 19.9498 3.94974C19.5592 3.55921 18.9261 3.55921 18.5355 3.94974L15.7071 6.77817C15.7071 6.77817 15.7071 6.77817 15.7071 6.77817L12.1716 3.24264C11.7811 2.85212 11.1479 2.85212 10.7574 3.24264C10.3668 3.63317 10.3668 4.26633 10.7574 4.65686L19.2427 13.1421C19.6332 13.5327 20.2663 13.5327 20.6569 13.1421C21.0474 12.7516 21.0474 12.1185 20.6569 11.7279L17.1213 8.19238L19.9498 5.36395ZM9.41738 4.73107L19.1684 14.4821L13.6504 21.3797C12.9058 22.3105 11.5173 22.3874 10.6745 21.5445L2.35502 13.2251C1.51213 12.3822 1.58903 10.9938 2.51984 10.2491L9.41738 4.73107ZM9.26895 7.41107L3.76923 11.8108L5.10053 13.1421L6.86829 11.3744C7.25882 10.9838 7.89198 10.9838 8.28251 11.3744C8.67303 11.7649 8.67303 12.3981 8.28251 12.7886L6.51474 14.5564L12.0887 20.1303L16.4884 14.6306L9.26895 7.41107Z" fill="#4D555C"/>
  </g>
  <defs>
    <clipPath id="clip0">
      <rect width="24" height="24" fill="white"/>
    </clipPath>
  </defs>
</svg>
