<svg width="24" height="24" viewBox="0 0 24 24" fill="none" xmlns="http://www.w3.org/2000/svg">
<g clip-path="url(#clip0)">
<path d="M19.1213 9.17158L15.5858 12.7071C14.4142 13.8787 12.5147 13.8787 11.3431 12.7071C11.0952 12.4592 10.8997 12.1786 10.7567 11.8793L9.29255 13.3435C9.47464 13.6183 9.68677 13.8792 9.92893 14.1213C11.8816 16.0739 15.0474 16.0739 17 14.1213L20.5355 10.5858C22.4882 8.63317 22.4882 5.46734 20.5355 3.51472C18.5829 1.5621 15.4171 1.5621 13.4645 3.51472L10.5646 6.41458C11.3849 6.40626 12.2063 6.54123 12.9881 6.81948L14.8787 4.92893C16.0503 3.75736 17.9497 3.75736 19.1213 4.92893C20.2929 6.10051 20.2929 8 19.1213 9.17158Z" fill="#4D555C"/>
<path d="M4.97917 14.8284L8.51471 11.2929C9.68628 10.1213 11.5858 10.1213 12.7573 11.2929C13.0053 11.5408 13.2008 11.8214 13.3437 12.1207L14.8079 10.6565C14.6258 10.3817 14.4137 10.1208 14.1716 9.87868C12.2189 7.92606 9.05312 7.92606 7.10049 9.87868L3.56496 13.4142C1.61234 15.3668 1.61234 18.5327 3.56496 20.4853C5.51758 22.4379 8.68341 22.4379 10.636 20.4853L13.5359 17.5854C12.7156 17.5937 11.8942 17.4588 11.1124 17.1805L9.22181 19.0711C8.05024 20.2426 6.15075 20.2426 4.97917 19.0711C3.8076 17.8995 3.8076 16 4.97917 14.8284Z" fill="#4D555C"/>
</g>
<defs>
<clipPath id="clip0">
<rect width="24" height="24" fill="white"/>
</clipPath>
</defs>
</svg>
