<svg width="24" height="24" viewBox="0 0 24 24" fill="none" xmlns="http://www.w3.org/2000/svg">
<path fill-rule="evenodd" clip-rule="evenodd" d="M18.2929 7.29289C17.9023 7.68342 17.9023 8.31658 18.2929 8.70711L20.5858 11L18.2929 13.2929C17.9023 13.6834 17.9023 14.3166 18.2929 14.7071C18.6834 15.0976 19.3166 15.0976 19.7071 14.7071L23.4142 11L19.7071 7.29289C19.3166 6.90237 18.6834 6.90237 18.2929 7.29289Z" fill="#4D555C"/>
<path fill-rule="evenodd" clip-rule="evenodd" d="M5.70714 7.29289C6.09766 7.68342 6.09766 8.31658 5.70714 8.70711L3.41424 11L5.70714 13.2929C6.09766 13.6834 6.09766 14.3166 5.70714 14.7071C5.31661 15.0976 4.68345 15.0976 4.29292 14.7071L0.585815 11L4.29292 7.29289C4.68345 6.90237 5.31661 6.90237 5.70714 7.29289Z" fill="#4D555C"/>
<path d="M7 18C7 17.4477 7.44772 17 8 17H16C16.5523 17 17 17.4477 17 18C17 18.5523 16.5523 19 16 19H8C7.44772 19 7 18.5523 7 18Z" fill="#4D555C"/>
</svg>
