<svg width="24" height="24" viewBox="0 0 24 24" fill="none" xmlns="http://www.w3.org/2000/svg">
  <path fill-rule="evenodd" clip-rule="evenodd" d="M18 3.00001C18 2.52064 18.3402 2.1087 18.8109 2.01805C19.2816 1.9274 19.7504 2.18353 19.9285 2.62862L21.9285 7.62862C22.0346 7.89382 22.0222 8.19174 21.8944 8.44722L19.8944 12.4472C19.884 12.4681 19.8729 12.4885 19.8612 12.5084C19.9523 12.9916 20 13.4902 20 14V19C17.5367 19 15.1859 19.9077 13.3749 21.5093C12.8719 21.9542 12.4105 22.4526 12 23C11.5895 22.4526 11.1281 21.9542 10.6251 21.5093C8.81414 19.9077 6.46333 19 4 19V14C4 13.4902 4.04768 12.9916 4.13881 12.5084C4.12712 12.4885 4.11603 12.4681 4.10557 12.4472L2.10557 8.44722C1.97783 8.19174 1.96544 7.89382 2.07152 7.62862L4.07152 2.62862C4.24956 2.18353 4.71839 1.9274 5.18911 2.01805C5.65983 2.1087 6 2.52064 6 3.00001V6.27925L8.13837 6.99204C9.28327 6.35982 10.5996 6 12 6C13.4004 6 14.7167 6.35982 15.8616 6.99204L18 6.27925V3.00001ZM17.774 8.46276C18.2061 8.91324 18.586 9.41419 18.904 9.95588L19.9047 7.95445L19.7755 7.63135C19.6584 7.77526 19.5009 7.88713 19.3162 7.94869L17.774 8.46276ZM4.68377 7.94869L6.22599 8.46276C5.79387 8.91324 5.41396 9.41419 5.09597 9.95588L4.09526 7.95445L4.22449 7.63135C4.34162 7.77526 4.4991 7.88713 4.68377 7.94869ZM18 14V17.1677C15.7661 17.5452 13.6852 18.5483 12 20.0555C10.3148 18.5483 8.23394 17.5452 6 17.1677V14C6 10.6863 8.68629 8 12 8C15.3137 8 18 10.6863 18 14ZM11 13C11 12.4477 11.4477 12 12 12C12.5523 12 13 12.4477 13 13C13 13.5523 12.5523 14 12 14C11.4477 14 11 13.5523 11 13ZM12 10C10.3431 10 9 11.3431 9 13C9 14.6569 10.3431 16 12 16C13.6569 16 15 14.6569 15 13C15 11.3431 13.6569 10 12 10Z" fill="#4D555C"/>
</svg>
