<svg width="24" height="24" viewBox="0 0 24 24" fill="none" xmlns="http://www.w3.org/2000/svg">
<mask id="path-1-inside-1" fill="white">
<path fill-rule="evenodd" clip-rule="evenodd" d="M4 4V9H9V4H4ZM3 2C2.44772 2 2 2.44772 2 3V10C2 10.5523 2.44772 11 3 11H10C10.5523 11 11 10.5523 11 10V3C11 2.44772 10.5523 2 10 2H3Z"/>
</mask>
<path fill-rule="evenodd" clip-rule="evenodd" d="M4 4V9H9V4H4ZM3 2C2.44772 2 2 2.44772 2 3V10C2 10.5523 2.44772 11 3 11H10C10.5523 11 11 10.5523 11 10V3C11 2.44772 10.5523 2 10 2H3Z" fill="#4D555C"/>
<path d="M4 9H2V11H4V9ZM4 4V2H2V4H4ZM9 9V11H11V9H9ZM9 4H11V2H9V4ZM6 9V4H2V9H6ZM9 7H4V11H9V7ZM7 4V9H11V4H7ZM4 6H9V2H4V6ZM4 3C4 3.55228 3.55228 4 3 4V0C1.34315 0 0 1.34315 0 3H4ZM4 10V3H0V10H4ZM3 9C3.55228 9 4 9.44772 4 10H0C0 11.6569 1.34315 13 3 13V9ZM10 9H3V13H10V9ZM9 10C9 9.44772 9.44772 9 10 9V13C11.6569 13 13 11.6569 13 10H9ZM9 3V10H13V3H9ZM10 4C9.44772 4 9 3.55228 9 3H13C13 1.34315 11.6569 0 10 0V4ZM3 4H10V0H3V4Z" fill="#4D555C" mask="url(#path-1-inside-1)"/>
<mask id="path-3-inside-2" fill="white">
<path fill-rule="evenodd" clip-rule="evenodd" d="M15 4V9H20V4H15ZM14 2C13.4477 2 13 2.44772 13 3V10C13 10.5523 13.4477 11 14 11H21C21.5523 11 22 10.5523 22 10V3C22 2.44772 21.5523 2 21 2H14Z"/>
</mask>
<path fill-rule="evenodd" clip-rule="evenodd" d="M15 4V9H20V4H15ZM14 2C13.4477 2 13 2.44772 13 3V10C13 10.5523 13.4477 11 14 11H21C21.5523 11 22 10.5523 22 10V3C22 2.44772 21.5523 2 21 2H14Z" fill="#4D555C"/>
<path d="M15 9H13V11H15V9ZM15 4V2H13V4H15ZM20 9V11H22V9H20ZM20 4H22V2H20V4ZM17 9V4H13V9H17ZM20 7H15V11H20V7ZM18 4V9H22V4H18ZM15 6H20V2H15V6ZM15 3C15 3.55228 14.5523 4 14 4V0C12.3431 0 11 1.34315 11 3H15ZM15 10V3H11V10H15ZM14 9C14.5523 9 15 9.44772 15 10H11C11 11.6569 12.3431 13 14 13V9ZM21 9H14V13H21V9ZM20 10C20 9.44772 20.4477 9 21 9V13C22.6569 13 24 11.6569 24 10H20ZM20 3V10H24V3H20ZM21 4C20.4477 4 20 3.55228 20 3H24C24 1.34315 22.6569 0 21 0V4ZM14 4H21V0H14V4Z" fill="#4D555C" mask="url(#path-3-inside-2)"/>
<mask id="path-5-inside-3" fill="white">
<path fill-rule="evenodd" clip-rule="evenodd" d="M4 15V20H9V15H4ZM3 13C2.44772 13 2 13.4477 2 14V21C2 21.5523 2.44772 22 3 22H10C10.5523 22 11 21.5523 11 21V14C11 13.4477 10.5523 13 10 13H3Z"/>
</mask>
<path fill-rule="evenodd" clip-rule="evenodd" d="M4 15V20H9V15H4ZM3 13C2.44772 13 2 13.4477 2 14V21C2 21.5523 2.44772 22 3 22H10C10.5523 22 11 21.5523 11 21V14C11 13.4477 10.5523 13 10 13H3Z" fill="#4D555C"/>
<path d="M4 20H2V22H4V20ZM4 15V13H2V15H4ZM9 20V22H11V20H9ZM9 15H11V13H9V15ZM6 20V15H2V20H6ZM9 18H4V22H9V18ZM7 15V20H11V15H7ZM4 17H9V13H4V17ZM4 14C4 14.5523 3.55228 15 3 15V11C1.34315 11 0 12.3431 0 14H4ZM4 21V14H0V21H4ZM3 20C3.55228 20 4 20.4477 4 21H0C0 22.6569 1.34315 24 3 24V20ZM10 20H3V24H10V20ZM9 21C9 20.4477 9.44772 20 10 20V24C11.6569 24 13 22.6569 13 21H9ZM9 14V21H13V14H9ZM10 15C9.44772 15 9 14.5523 9 14H13C13 12.3431 11.6569 11 10 11V15ZM3 15H10V11H3V15Z" fill="#4D555C" mask="url(#path-5-inside-3)"/>
<mask id="path-7-inside-4" fill="white">
<path fill-rule="evenodd" clip-rule="evenodd" d="M15 15V20H20V15H15ZM14 13C13.4477 13 13 13.4477 13 14V21C13 21.5523 13.4477 22 14 22H21C21.5523 22 22 21.5523 22 21V14C22 13.4477 21.5523 13 21 13H14Z"/>
</mask>
<path fill-rule="evenodd" clip-rule="evenodd" d="M15 15V20H20V15H15ZM14 13C13.4477 13 13 13.4477 13 14V21C13 21.5523 13.4477 22 14 22H21C21.5523 22 22 21.5523 22 21V14C22 13.4477 21.5523 13 21 13H14Z" fill="#4D555C"/>
<path d="M15 20H13V22H15V20ZM15 15V13H13V15H15ZM20 20V22H22V20H20ZM20 15H22V13H20V15ZM17 20V15H13V20H17ZM20 18H15V22H20V18ZM18 15V20H22V15H18ZM15 17H20V13H15V17ZM15 14C15 14.5523 14.5523 15 14 15V11C12.3431 11 11 12.3431 11 14H15ZM15 21V14H11V21H15ZM14 20C14.5523 20 15 20.4477 15 21H11C11 22.6569 12.3431 24 14 24V20ZM21 20H14V24H21V20ZM20 21C20 20.4477 20.4477 20 21 20V24C22.6569 24 24 22.6569 24 21H20ZM20 14V21H24V14H20ZM21 15C20.4477 15 20 14.5523 20 14H24C24 12.3431 22.6569 11 21 11V15ZM14 15H21V11H14V15Z" fill="#4D555C" mask="url(#path-7-inside-4)"/>
</svg>
