<svg width="13" height="13" viewBox="0 0 13 13" fill="none" xmlns="http://www.w3.org/2000/svg">
<path d="M9.83862 4.57664C9.5784 4.31632 9.5784 3.89435 9.83862 3.63403L10.129 3.3435L8.84972 3.3435C8.61843 3.3435 8.40367 3.46338 8.28227 3.66024L6.42831 6.66667L8.28227 9.67309C8.40367 9.86996 8.61843 9.98984 8.84972 9.98984L10.129 9.98984L9.83862 9.69931C9.5784 9.43899 9.5784 9.01702 9.83862 8.75669V8.75669C10.099 8.49622 10.5212 8.49622 10.7816 8.75669L12.6667 10.6425L10.7816 12.5283C10.5212 12.7888 10.099 12.7888 9.83862 12.5283V12.5283C9.5784 12.268 9.5784 11.846 9.83862 11.5857L10.101 11.3232L8.84972 11.3232C8.15586 11.3232 7.51158 10.9635 7.14738 10.3729L5.64508 7.93678L4.13024 10.3933C3.76604 10.9839 3.12175 11.3435 2.42789 11.3435L1.17214 11.3435C0.803951 11.3435 0.505475 11.045 0.505475 10.6768V10.6768C0.505475 10.3086 0.803951 10.0102 1.17214 10.0102L2.42789 10.0102C2.65918 10.0102 2.87394 9.89029 2.99534 9.69343L4.86184 6.66667L2.99534 3.63991C2.87394 3.44304 2.65918 3.32317 2.42789 3.32317L1.17214 3.32317C0.803951 3.32317 0.505475 3.02469 0.505475 2.6565V2.6565C0.505475 2.28831 0.803952 1.98983 1.17214 1.98983L2.42789 1.98983C3.12175 1.98983 3.76604 2.34946 4.13024 2.94006L5.64508 5.39656L7.14738 2.96039C7.51158 2.3698 8.15586 2.01017 8.84972 2.01017L10.101 2.01017L9.83862 1.74764C9.5784 1.48732 9.5784 1.06535 9.83862 0.805026V0.805026C10.099 0.54455 10.5212 0.544549 10.7816 0.805026L12.6667 2.69083L10.7816 4.57664C10.5212 4.83712 10.099 4.83712 9.83862 4.57664V4.57664Z" fill="#4D555C"/>
</svg>
