<svg width="24" height="24" viewBox="0 0 24 24" fill="none" xmlns="http://www.w3.org/2000/svg">
<path fill-rule="evenodd" clip-rule="evenodd" d="M3.70037 8.71378C5.47939 6.96818 8.65845 6 12 6C15.3416 6 18.5206 6.96818 20.2996 8.71378C20.6938 9.10058 21.327 9.09458 21.7138 8.70037C22.1006 8.30616 22.0946 7.67303 21.7004 7.28622C19.4028 5.03182 15.6202 4 12 4C8.37984 4 4.59718 5.03182 2.29963 7.28622C1.90542 7.67303 1.89942 8.30616 2.28622 8.70037C2.67303 9.09458 3.30616 9.10058 3.70037 8.71378ZM12 12C10.2556 12 8.64619 12.6065 7.76223 13.6473C7.40472 14.0683 6.77364 14.1197 6.35269 13.7622C5.93173 13.4047 5.8803 12.7736 6.23781 12.3527C7.61861 10.7268 9.87685 10 12 10C14.1232 10 16.3814 10.7268 17.7622 12.3527C18.1197 12.7736 18.0683 13.4047 17.6474 13.7622C17.2264 14.1197 16.5953 14.0683 16.2378 13.6473C15.3538 12.6065 13.7445 12 12 12ZM14 18C14 19.1046 13.1046 20 12 20C10.8954 20 10 19.1046 10 18C10 16.8954 10.8954 16 12 16C13.1046 16 14 16.8954 14 18Z" fill="#4D555C"/>
</svg>
