<svg width="24" height="24" viewBox="0 0 24 24" fill="none" xmlns="http://www.w3.org/2000/svg">
  <path fill-rule="evenodd" clip-rule="evenodd"
        d="M5 2.5C5 1.94772 4.55228 1.5 4 1.5C3.44772 1.5 3 1.94772 3 2.5V8.5H9C9.55228 8.5 10 8.05228 10 7.5C10 6.94772 9.55228 6.5 9 6.5H6.19052C7.64981 4.95908 9.71235 4 12 4C16.4183 4 20 7.58172 20 12C20 16.4183 16.4183 20 12 20C8.45635 20 5.44835 17.6953 4.39821 14.5003C4.22576 13.9756 3.66063 13.69 3.13596 13.8625C2.61129 14.035 2.32576 14.6001 2.49821 15.1247C3.81009 19.1161 7.56697 22 12 22C17.5229 22 22 17.5228 22 12C22 6.47715 17.5229 2 12 2C9.27447 2 6.80279 3.09145 5 4.85862V2.5Z"
        fill="#4D555C" />
</svg>
