<svg width="24" height="24" viewBox="0 0 24 24" fill="none" xmlns="http://www.w3.org/2000/svg">
<path fill-rule="evenodd" clip-rule="evenodd" d="M17 5L7 5V12.3366L12 16.4182L17 12.3366V5ZM5 5V12.8112V16.4784C5 17.0887 5.27865 17.6656 5.75668 18.045L10.7567 22.0132C11.4848 22.5911 12.5152 22.5911 13.2433 22.0132L18.2433 18.045C18.7213 17.6656 19 17.0887 19 16.4784V12.8112V5V4C19 3.44772 18.5523 3 18 3H17H7H6C5.44772 3 5 3.44772 5 4V5ZM17 16.4784V14.9184L12.6324 18.4838C12.2643 18.7842 11.7357 18.7842 11.3676 18.4838L7 14.9184V16.4784L12 20.4467L17 16.4784ZM12 11C13.1046 11 14 10.1046 14 9C14 7.89543 13.1046 7 12 7C10.8954 7 10 7.89543 10 9C10 10.1046 10.8954 11 12 11Z" fill="#4D555C"/>
</svg>
