<svg width="24" height="24" viewBox="0 0 24 24" fill="none" xmlns="http://www.w3.org/2000/svg">
  <path fill-rule="evenodd" clip-rule="evenodd" d="M3 2C3.55228 2 4 2.44772 4 3V20H20V4H13L13 13.0858L15.2929 10.7929C15.6834 10.4024 16.3166 10.4024 16.7071 10.7929C17.0976 11.1834 17.0976 11.8166 16.7071 12.2071L12 16.9142L7.29289 12.2071C6.90237 11.8166 6.90237 11.1834 7.29289 10.7929C7.68342 10.4024 8.31658 10.4024 8.70711 10.7929L11 13.0858L11 3C11 2.44772 11.4477 2 12 2H20C21.1046 2 22 2.89543 22 4V20C22 21.1046 21.1046 22 20 22H4C2.89543 22 2 21.1046 2 20V3C2 2.44772 2.44772 2 3 2Z" fill="#4D555C"/>
</svg>
