<svg width="24" height="24" viewBox="0 0 24 24" fill="none" xmlns="http://www.w3.org/2000/svg">
<path fill-rule="evenodd" clip-rule="evenodd" d="M13.6667 8C16.1518 8 18.2399 6.3003 18.832 4H18.3333C15.8482 4 13.7601 5.6997 13.168 8H13.6667ZM13.6667 10C17.7168 10 21 6.71675 21 2.66667C21 2.29848 20.7015 2 20.3333 2H18.3333C14.517 2 11.3816 4.91513 11.0323 8.6401C11.0112 8.70942 11 8.78216 11 8.85714V9.33333V11.3369C10.0046 9.92345 8.36016 9 6.5 9H4.5C4.22386 9 4 9.22386 4 9.5C4 12.5376 6.46243 15 9.5 15H11V18H2C1.44772 18 1 18.4477 1 19C1 19.5523 1.44772 20 2 20H12H22C22.5523 20 23 19.5523 23 19C23 18.4477 22.5523 18 22 18H13V10H13.6667ZM9.66318 13C9.10145 11.8175 7.8962 11 6.5 11H6.33682C6.89855 12.1825 8.1038 13 9.5 13H9.66318Z" fill="#4D555C"/>
</svg>
