<svg width="24" height="24" viewBox="0 0 24 24" fill="none" xmlns="http://www.w3.org/2000/svg">
<path d="M7 15C7 14.4477 7.44772 14 8 14H9C9.55228 14 10 14.4477 10 15V16C10 16.5523 9.55228 17 9 17H8C7.44772 17 7 16.5523 7 16V15Z" fill="#4D555C"/>
<path d="M15 14C14.4477 14 14 14.4477 14 15V16C14 16.5523 14.4477 17 15 17H16C16.5523 17 17 16.5523 17 16V15C17 14.4477 16.5523 14 16 14H15Z" fill="#4D555C"/>
<path fill-rule="evenodd" clip-rule="evenodd" d="M9 3C9 2.44772 9.44772 2 10 2H14C14.5523 2 15 2.44772 15 3V7C15 7.55228 14.5523 8 14 8H13V10H20C20.5523 10 21 10.4477 21 11V13H22C22.5523 13 23 13.4477 23 14V18C23 18.5523 22.5523 19 22 19H21V21C21 21.5523 20.5523 22 20 22H4C3.44772 22 3 21.5523 3 21V19H2C1.44772 19 1 18.5523 1 18V14C1 13.4477 1.44772 13 2 13H3V11C3 10.4477 3.44772 10 4 10H11V8H10C9.44772 8 9 7.55228 9 7V3ZM11 6V4H13V6H11ZM5 20H19V12H5V20Z" fill="#4D555C"/>
</svg>
