<svg width="22" height="20" viewBox="0 0 22 20" fill="none" xmlns="http://www.w3.org/2000/svg">
<path d="M10.1339 0.499999C10.5188 -0.166667 11.4811 -0.166666 11.866 0.500001L21.3922 17C21.7771 17.6667 21.296 18.5 20.5262 18.5H1.47366C0.703858 18.5 0.222734 17.6667 0.607635 17L10.1339 0.499999Z" fill="#EB5757"/>
<path d="M11.8613 12.9443H10.2207L9.98828 6.04688H12.0938L11.8613 12.9443ZM11.041 14.0244C11.3737 14.0244 11.6403 14.1224 11.8408 14.3184C12.0459 14.5143 12.1484 14.765 12.1484 15.0703C12.1484 15.3711 12.0459 15.6195 11.8408 15.8154C11.6403 16.0114 11.3737 16.1094 11.041 16.1094C10.7129 16.1094 10.4463 16.0114 10.2412 15.8154C10.0407 15.6195 9.94043 15.3711 9.94043 15.0703C9.94043 14.7695 10.0407 14.5212 10.2412 14.3252C10.4463 14.1247 10.7129 14.0244 11.041 14.0244Z" fill="white"/>
</svg>
