<svg width="24" height="24" viewBox="0 0 24 24" fill="none" xmlns="http://www.w3.org/2000/svg">
<g clip-path="url(#clip0)">
<path d="M19 21C20.1046 21 21 20.1046 21 19V20C21 20.5523 20.5523 21 20 21H19ZM3 19C3 20.1046 3.89543 21 5 21H4C3.44772 21 3 20.5523 3 20V19ZM5 3C3.89543 3 3 3.89543 3 5V4C3 3.44772 3.44772 3 4 3H5Z" fill="#B9CCDF" stroke="#B9CCDF" stroke-width="2"/>
<path fill-rule="evenodd" clip-rule="evenodd" d="M22 9.00002C22 9.5523 21.5522 10 21 10C20.4477 10 20 9.5523 20 9.00002L20 5.41423L14.4142 11C14.0236 11.3905 13.3905 11.3905 13 11C12.6094 10.6095 12.6094 9.97633 13 9.5858L18.5857 4.00001L15 4.00002C14.4477 4.00002 14 3.5523 14 3.00002C14 2.44773 14.4477 2.00002 15 2.00002C14.9999 2.00002 15 2.00002 15 2.00002L21 2.00001C20.9998 2.00001 21.0001 2.00001 21 2.00001C21.552 2.00033 22 2.44793 22 3.00002L22 9.00002Z" fill="#B9CCDF"/>
</g>
<defs>
<clipPath id="clip0">
<rect width="24" height="24" fill="white"/>
</clipPath>
</defs>
</svg>
