<svg width="24" height="24" viewBox="0 0 24 24" fill="none" xmlns="http://www.w3.org/2000/svg">
<g clip-path="url(#clip0)">
<path d="M22.3903 5.97655C21.3172 4.13797 19.8617 2.68236 18.0232 1.60939C16.1845 0.536372 14.1772 0 11.9999 0C9.82282 0 7.81486 0.536537 5.97655 1.60939C4.13797 2.6823 2.68246 4.13797 1.60939 5.97655C0.536482 7.81508 0 9.82277 0 11.9996C0 14.6144 0.762885 16.9657 2.28904 19.0541C3.81503 21.1427 5.78638 22.5879 8.20293 23.3899C8.48422 23.4421 8.69245 23.4054 8.82785 23.2807C8.96329 23.1558 9.03093 22.9994 9.03093 22.8121C9.03093 22.7809 9.02825 22.4997 9.02305 21.9684C9.01769 21.4371 9.01517 20.9735 9.01517 20.578L8.65579 20.6402C8.42665 20.6822 8.13758 20.7 7.78859 20.6949C7.43977 20.69 7.07764 20.6535 6.70271 20.5855C6.32762 20.5182 5.97874 20.3619 5.6558 20.1171C5.33302 19.8723 5.10388 19.5519 4.96844 19.1563L4.81219 18.7968C4.70805 18.5574 4.54409 18.2915 4.32009 18C4.0961 17.7083 3.86959 17.5105 3.64045 17.4064L3.53105 17.328C3.45816 17.276 3.39051 17.2132 3.32796 17.1404C3.26546 17.0675 3.21867 16.9947 3.18742 16.9216C3.15612 16.8486 3.18206 16.7887 3.26552 16.7417C3.34898 16.6946 3.4998 16.6718 3.71865 16.6718L4.03103 16.7185C4.23937 16.7603 4.49708 16.885 4.80448 17.0934C5.11171 17.3017 5.36427 17.5725 5.56222 17.9057C5.80192 18.3329 6.09071 18.6584 6.42941 18.8824C6.76784 19.1064 7.10906 19.2182 7.45274 19.2182C7.79642 19.2182 8.09325 19.1921 8.34335 19.1403C8.59318 19.0882 8.82757 19.0099 9.04642 18.9058C9.14017 18.2076 9.39541 17.6712 9.81193 17.2963C9.21826 17.2339 8.68452 17.14 8.21042 17.015C7.7366 16.8899 7.24697 16.6869 6.74184 16.4054C6.23645 16.1242 5.81719 15.7751 5.48396 15.3587C5.15068 14.942 4.87715 14.3949 4.66378 13.718C4.45029 13.0408 4.34352 12.2597 4.34352 11.3743C4.34352 10.1137 4.75506 9.04095 5.57798 8.15548C5.19249 7.20773 5.22888 6.14527 5.68727 4.96822C5.98936 4.87436 6.43735 4.9448 7.03102 5.17908C7.6248 5.41347 8.05954 5.61426 8.33569 5.78074C8.61184 5.94716 8.8331 6.08819 8.9998 6.20257C9.96872 5.93184 10.9686 5.79645 11.9998 5.79645C13.0309 5.79645 14.0311 5.93184 15 6.20257L15.5938 5.82775C15.9998 5.57765 16.4792 5.34846 17.031 5.14011C17.5831 4.93188 18.0052 4.87453 18.297 4.96838C18.7656 6.14549 18.8074 7.20789 18.4217 8.15564C19.2446 9.04111 19.6563 10.1141 19.6563 11.3745C19.6563 12.2598 19.5492 13.0435 19.336 13.7259C19.1226 14.4083 18.8467 14.9548 18.5083 15.3665C18.1695 15.7781 17.7475 16.1245 17.2424 16.4055C16.7372 16.6868 16.2474 16.8899 15.7735 17.015C15.2995 17.1401 14.7658 17.2341 14.1721 17.2966C14.7136 17.7651 14.9843 18.5048 14.9843 19.5151V22.8117C14.9843 22.999 15.0495 23.1553 15.1798 23.2802C15.31 23.405 15.5156 23.4417 15.7969 23.3894C18.2138 22.5875 20.1851 21.1423 21.7111 19.0537C23.2368 16.9653 24 14.6139 24 11.9991C23.9995 9.82261 23.4627 7.81508 22.3903 5.97655Z" fill="#B9CCDF"/>
</g>
<defs>
<clipPath id="clip0">
<rect width="24" height="24" fill="white"/>
</clipPath>
</defs>
</svg>
