<svg width="24" height="24" viewBox="0 0 24 24" fill="none" xmlns="http://www.w3.org/2000/svg">
<path d="M22.9724 10.5517C22.931 10.1379 22.8483 9.68276 22.7241 9.18621C22.6 8.68966 22.3931 8.11035 22.1034 7.53104C21.8138 6.95172 21.4414 6.33103 20.9448 5.75172C20.7379 5.50345 20.531 5.29655 20.3241 5.08966C20.6552 3.76552 19.9103 2.6069 19.9103 2.6069C18.6276 2.52414 17.8 3.02069 17.5103 3.22759C17.469 3.18621 17.4276 3.18621 17.3448 3.14483C17.1379 3.06207 16.931 2.97931 16.6828 2.89655C16.4345 2.81379 16.2276 2.77241 15.9793 2.68966C15.731 2.64828 15.4828 2.56552 15.2345 2.56552C15.1931 2.56552 15.1517 2.56552 15.1103 2.56552C14.5724 0.744827 12.9586 0 12.9586 0C11.1793 1.15862 10.8069 2.73103 10.8069 2.73103C10.8069 2.73103 10.8069 2.77241 10.8069 2.81379C10.7241 2.85517 10.6 2.85517 10.5172 2.89655C10.3931 2.93793 10.2276 2.97931 10.1034 3.02069C9.97931 3.06207 9.81379 3.14483 9.68965 3.18621C9.4 3.31034 9.15172 3.43448 8.90345 3.6C8.65517 3.72414 8.4069 3.88966 8.15862 4.05517C8.11724 4.05517 8.07586 4.01379 8.07586 4.01379C5.5931 3.06207 3.35862 4.22069 3.35862 4.22069C3.15172 6.86897 4.35172 8.52414 4.6 8.85517C4.55862 9.02069 4.47586 9.18621 4.43448 9.35172C4.26897 9.93103 4.10345 10.5517 4.02069 11.2138C4.02069 11.2966 3.97931 11.3793 3.97931 11.5034C1.66207 12.6207 1 14.9793 1 14.9793C2.90345 17.1724 5.13793 17.3379 5.13793 17.3379C5.42759 17.8345 5.75862 18.331 6.13103 18.7862C6.29655 18.9931 6.46207 19.1586 6.62759 19.3241C5.92414 21.3103 6.71034 23.0069 6.71034 23.0069C8.86207 23.0897 10.269 22.0552 10.5586 21.8483C10.7655 21.931 10.9724 21.9724 11.2207 22.0552C11.8828 22.2207 12.5448 22.3034 13.2069 22.3448C13.3724 22.3448 13.5379 22.3448 13.7034 22.3448H13.7862H13.8276H13.9517H14.0759C15.069 23.7931 16.8483 24 16.8483 24C18.2552 22.5103 18.1724 21.0207 18.1724 21.0207L18.131 20.9793C18.4207 20.7724 18.669 20.5655 18.9172 20.3586C19.4138 19.9034 19.869 19.3655 20.2414 18.8276C20.2828 18.7862 20.3241 18.7034 20.3241 18.6621C21.731 18.7448 22.7655 17.7931 22.7655 17.7931C22.5172 16.1379 21.4828 15.4345 21.4828 15.4345H21.4414C21.4414 15.3517 21.4414 15.2276 21.4828 15.1448C21.4828 14.9793 21.4828 14.8138 21.4828 14.6483V14.5241V14.4828V14.4414C21.4828 14.4 21.4828 14.4 21.4828 14.4V14.3172V14.1931C21.4828 14.1517 21.4828 14.1103 21.4828 14.069C21.4828 14.0276 21.4828 13.9862 21.4828 13.9448V13.8207V13.6966C21.4414 13.531 21.4414 13.3655 21.4 13.2C21.2345 12.5793 20.9862 11.9586 20.6552 11.4207C20.3241 10.8828 19.9103 10.3862 19.4552 9.97241C19 9.55862 18.4621 9.22759 17.9241 8.97931C17.3862 8.73104 16.8069 8.56552 16.2276 8.52414C15.9379 8.48276 15.6483 8.48276 15.4 8.48276H15.2759H15.2345H15.1931H15.1517H15.0276C14.9862 8.48276 14.9448 8.48276 14.9034 8.48276C14.7793 8.48276 14.6138 8.52414 14.4897 8.52414C13.9103 8.64828 13.3724 8.81379 12.9172 9.10345C12.4621 9.3931 12.0483 9.72414 11.7172 10.1379C11.3862 10.5517 11.1379 10.9655 10.931 11.4207C10.7655 11.8759 10.6414 12.331 10.6414 12.7862C10.6414 12.9103 10.6414 13.0345 10.6414 13.1172C10.6414 13.1586 10.6414 13.1586 10.6414 13.2V13.2828C10.6414 13.3241 10.6414 13.4069 10.6414 13.4483C10.6828 13.6966 10.7241 13.9034 10.7655 14.1103C10.8897 14.5241 11.0966 14.9379 11.3448 15.269C11.5931 15.6 11.8828 15.8897 12.2138 16.0966C12.5448 16.3034 12.8759 16.469 13.2069 16.5517C13.5379 16.6345 13.869 16.6759 14.1586 16.6759C14.2 16.6759 14.2414 16.6759 14.2828 16.6759H14.3241H14.3655C14.4069 16.6759 14.4483 16.6759 14.4483 16.6759C14.4483 16.6759 14.4483 16.6759 14.4897 16.6759H14.531H14.5724C14.6138 16.6759 14.6552 16.6759 14.6965 16.6759C14.7379 16.6759 14.7793 16.6759 14.8207 16.6345C14.9034 16.6345 14.9448 16.5931 15.0276 16.5931C15.1517 16.5517 15.2759 16.5103 15.4 16.4276C15.5241 16.3862 15.6069 16.3034 15.731 16.2207C15.7724 16.1793 15.7724 16.1793 15.8138 16.1379C15.9379 16.0552 15.9379 15.8897 15.8552 15.8069C15.7724 15.7241 15.6483 15.6828 15.5655 15.7655C15.4828 15.6828 15.4828 15.7241 15.4414 15.7241C15.3586 15.7655 15.2759 15.8069 15.1517 15.8483C15.069 15.8897 14.9448 15.8897 14.8207 15.931C14.7793 15.931 14.6966 15.931 14.6552 15.931C14.6138 15.931 14.6138 15.931 14.5724 15.931C14.531 15.931 14.531 15.931 14.4897 15.931C14.4483 15.931 14.4483 15.931 14.4069 15.931C14.3655 15.931 14.3241 15.931 14.3241 15.931H14.2828H14.2414C14.2 15.931 14.2 15.931 14.1586 15.931C13.9103 15.8897 13.6621 15.8069 13.4552 15.7241C13.2069 15.6 13 15.4759 12.7931 15.269C12.5862 15.1034 12.4207 14.8552 12.2552 14.6069C12.131 14.3586 12.0069 14.069 11.9655 13.7793C11.9241 13.6552 11.9241 13.4897 11.9241 13.3241C11.9241 13.2828 11.9241 13.2414 11.9241 13.2V13.1586V13.1172C11.9241 13.0345 11.9241 12.9517 11.9655 12.869C12.0897 12.2483 12.3793 11.6276 12.8759 11.131C13 11.0069 13.1241 10.9241 13.2897 10.8C13.4138 10.7172 13.5793 10.6345 13.7448 10.5517C13.9103 10.469 14.0759 10.4276 14.2414 10.3862C14.4069 10.3448 14.5724 10.3034 14.7379 10.3034C14.8207 10.3034 14.9034 10.3034 14.9862 10.3034C15.0276 10.3034 15.0276 10.3034 15.0276 10.3034H15.1103H15.1517H15.2345C15.4414 10.3034 15.6069 10.3448 15.8138 10.3862C16.1862 10.469 16.5586 10.5931 16.8897 10.8C17.5517 11.1724 18.131 11.7517 18.5034 12.4552C18.669 12.7862 18.7931 13.2 18.8759 13.5724C18.8759 13.6552 18.9172 13.7793 18.9172 13.8621V13.9448V14.0276C18.9172 14.069 18.9172 14.069 18.9172 14.1103C18.9172 14.1517 18.9172 14.1517 18.9172 14.1931V14.2759V14.3586C18.9172 14.4 18.9172 14.4828 18.9172 14.5241C18.9172 14.6483 18.9172 14.731 18.8759 14.8552C18.8759 14.9793 18.8345 15.0621 18.8345 15.1862C18.7931 15.2276 18.7931 15.3103 18.7517 15.4345C18.7103 15.6414 18.6276 15.8483 18.5448 16.0552C18.3793 16.469 18.1724 16.8414 17.9241 17.1724C17.4276 17.8759 16.7241 18.4552 15.9379 18.7862C15.5241 18.9517 15.1103 19.0759 14.6965 19.1586C14.4897 19.2 14.2828 19.2 14.0345 19.2414H13.9931H13.9517H13.869H13.7448H13.7034C13.7448 19.2414 13.7034 19.2414 13.7034 19.2414H13.6621C13.5379 19.2414 13.4138 19.2414 13.331 19.2414C12.8759 19.2 12.4207 19.1172 11.9655 18.9931C11.5103 18.869 11.0966 18.7034 10.6828 18.4966C9.85517 18.0828 9.15172 17.4621 8.57241 16.7586C8.28276 16.3862 8.03448 16.0138 7.82759 15.6C7.62069 15.1862 7.45517 14.7724 7.33103 14.3586C7.2069 13.9448 7.12414 13.4897 7.12414 13.0345V12.9517V12.9103V12.869V12.7862V12.7448V12.7034V12.5793V12.5379C7.12414 12.4966 7.12414 12.4138 7.12414 12.3724C7.12414 12.1655 7.16552 11.9172 7.16552 11.7103C7.2069 11.5034 7.24828 11.2552 7.28965 11.0483C7.33103 10.8414 7.37241 10.5931 7.45517 10.3862C7.57931 9.93103 7.74483 9.51724 7.91034 9.10345C8.28276 8.27586 8.77931 7.57241 9.35862 6.9931C9.52414 6.86897 9.64827 6.70345 9.81379 6.57931C9.97931 6.45517 10.1448 6.33103 10.3103 6.2069C10.4759 6.08276 10.6414 6 10.8483 5.91724C10.931 5.87586 11.0138 5.83448 11.1379 5.7931C11.1793 5.7931 11.2207 5.75172 11.2621 5.75172C11.3034 5.71034 11.3448 5.71035 11.3862 5.71035C11.5517 5.62759 11.7586 5.54483 11.9655 5.50345C12.0069 5.50345 12.0483 5.46207 12.131 5.46207C12.1724 5.46207 12.2138 5.42069 12.2966 5.42069C12.3793 5.37931 12.5034 5.37931 12.5862 5.33793C12.6276 5.33793 12.669 5.29655 12.7517 5.29655C12.7931 5.29655 12.8345 5.25517 12.9172 5.25517C12.9586 5.25517 13 5.25517 13.0828 5.21379H13.1655H13.2483C13.2897 5.21379 13.331 5.21379 13.4138 5.17241C13.4552 5.17241 13.5379 5.17241 13.5793 5.13103C13.6207 5.13103 13.7034 5.13103 13.7448 5.13103C13.7862 5.13103 13.8276 5.13103 13.869 5.13103H13.9517H13.9931H14.0345C14.0759 5.13103 14.1586 5.13103 14.2 5.13103H14.2828C14.2828 5.13103 14.3241 5.13103 14.2828 5.13103H14.3241C14.3655 5.13103 14.4069 5.13103 14.4897 5.13103C14.6965 5.13103 14.8621 5.13103 15.069 5.13103C15.4414 5.13103 15.8138 5.17241 16.1862 5.25517C16.931 5.37931 17.5931 5.62759 18.2138 5.91724C18.8345 6.2069 19.4138 6.57931 19.869 6.9931C19.9103 7.03448 19.9103 7.03448 19.9517 7.07586C19.9931 7.11724 19.9931 7.11724 20.0345 7.15862C20.0759 7.2 20.1586 7.28276 20.2 7.32414C20.2414 7.36552 20.3241 7.44828 20.3655 7.48966C20.4069 7.53103 20.4897 7.61379 20.531 7.65517C20.7379 7.86207 20.9448 8.11035 21.1103 8.31724C21.4414 8.77241 21.731 9.18621 21.9379 9.64138C21.9379 9.68276 21.9793 9.68276 21.9793 9.72414C21.9793 9.76552 22.0207 9.76552 22.0207 9.8069C22.0621 9.84828 22.0621 9.93103 22.1034 9.97241C22.1448 10.0138 22.1448 10.0552 22.1862 10.1379C22.2276 10.1793 22.2276 10.2207 22.269 10.3034C22.3517 10.5103 22.4345 10.6759 22.4759 10.8828C22.5586 11.1724 22.6414 11.4207 22.7241 11.669C22.7655 11.7517 22.8483 11.8345 22.931 11.7931C23.0138 11.7931 23.0965 11.7103 23.0965 11.6276C23.0138 11.1724 23.0138 10.8828 22.9724 10.5517Z" fill="#B9CCDF"/>
</svg>
