<svg width="24" height="24" viewBox="0 0 24 24" fill="none" xmlns="http://www.w3.org/2000/svg">
<path d="M10.111 15.4455L8.90769 15.7803C9.01232 16.0837 9.09603 16.6278 9.09603 17.3603V20.9597H10.4458V17.151C10.6969 16.8476 10.969 16.7011 11.2619 16.7011C11.4084 16.7011 11.5235 16.7325 11.6491 16.8057L12.0153 15.5606C11.806 15.4664 11.7119 15.4455 11.5131 15.4455C11.3666 15.4455 11.1887 15.4769 11.0736 15.5292C10.8225 15.6547 10.5086 15.9373 10.3098 16.2093C10.3098 15.9059 10.2365 15.6652 10.111 15.4455ZM5.46526 13.6667H5.31877V20.9492H6.72085V17.7265H8.48916V16.5232H6.72085V14.8491H8.92862L9.01232 14.2108C7.68348 14.1166 6.4802 13.9074 5.46526 13.6667ZM2.19023 21.9223L2.83896 22.6756C3.46676 22.4245 4.25151 21.8595 4.46078 20.9597C4.53402 20.6667 4.55495 20.4783 4.55495 19.5262V13.6772H3.1424V19.6831C3.1424 20.4679 3.11101 20.7608 3.00637 21.0329C2.87035 21.3363 2.54599 21.6921 2.19023 21.9223ZM14.9241 18.2287C14.9241 19.5052 14.673 20.0493 14.0975 20.0493C13.8359 20.0493 13.5429 19.9029 13.4174 19.6099C13.3127 19.3378 13.25 18.8774 13.25 18.2496C13.25 17.716 13.3023 17.3393 13.386 17.0464C13.4906 16.7115 13.7522 16.5023 14.0766 16.5023C14.3172 16.5023 14.5265 16.6069 14.6521 16.7848C14.8404 17.0359 14.9241 17.5068 14.9241 18.2287ZM15.7507 20.3214C16.1902 19.7982 16.389 19.16 16.389 18.2392C16.389 17.3707 16.2111 16.7743 15.803 16.2721C15.3636 15.728 14.7985 15.4664 14.0661 15.4664C12.685 15.4664 11.7642 16.586 11.7642 18.281C11.7642 19.9761 12.6745 21.0643 14.0661 21.0643C14.8509 21.0747 15.3636 20.7818 15.7507 20.3214ZM19.5803 17.3079C19.5803 17.7997 19.2873 18.0718 18.7641 18.0718C18.2933 18.0718 17.9794 17.852 17.9794 17.3079C17.9794 16.8057 18.2724 16.5127 18.7746 16.5127C19.2768 16.5127 19.5803 16.8057 19.5803 17.3079ZM21.9555 16.157L21.4009 15.2676C21.087 15.5606 20.7103 15.728 20.3441 15.728C20.1767 15.728 20.0825 15.7071 19.7163 15.6129C19.3501 15.5083 19.0885 15.4769 18.7955 15.4769C17.4876 15.4769 16.6401 16.1884 16.6401 17.2975C16.6401 18.0927 16.9958 18.5949 17.7387 18.7937C17.4353 18.867 17.1109 19.0239 16.9645 19.2018C16.8598 19.3274 16.8075 19.4948 16.8075 19.6936C16.8075 19.861 16.8494 20.0075 16.9121 20.133C16.9854 20.2481 17.0795 20.3423 17.2051 20.3946C17.4458 20.4888 17.8329 20.5516 18.4293 20.562C18.7432 20.562 18.9316 20.5725 18.9943 20.5725C19.3606 20.5934 19.5489 20.6562 19.6954 20.7295C19.8314 20.8132 19.936 21.0015 19.936 21.2108C19.936 21.42 19.8105 21.6293 19.6117 21.7549C19.4338 21.8804 19.1408 21.9327 18.7641 21.9327C18.1468 21.9327 17.8015 21.7025 17.8015 21.2736C17.8015 21.0852 17.8224 21.0434 17.8643 20.9283H16.6296C16.5773 21.0329 16.5145 21.1794 16.5145 21.4724C16.5145 21.8386 16.6506 22.1525 16.9331 22.4245C17.3934 22.8744 18.1468 23 18.8688 23C19.664 23 20.4383 22.8117 20.8882 22.3094C21.1707 21.9955 21.2963 21.6502 21.2963 21.2003C21.2963 20.719 21.1602 20.3528 20.8568 20.0493C20.5011 19.704 20.093 19.5785 19.3082 19.568L18.5863 19.5576C18.4502 19.5576 18.3665 19.5052 18.3665 19.432C18.3665 19.2855 18.5549 19.16 18.9002 18.9925C19.0048 19.003 19.0362 19.003 19.099 19.003C20.1872 19.003 20.9824 18.3334 20.9824 17.4021C20.9824 17.0464 20.8777 16.7743 20.6789 16.5232C20.8463 16.5441 20.8987 16.5546 21.0242 16.5546C21.38 16.5546 21.6625 16.4395 21.9555 16.157ZM5.1095 7.3364C3.43537 7.74447 2.29487 8.55014 2.29487 9.47092C2.29487 10.0464 2.73433 10.5696 3.4563 10.9776C3.23657 10.6323 3.12147 10.2557 3.12147 9.87898C3.13193 8.92682 3.87483 8.03744 5.1095 7.3364ZM22.7716 10.9462C22.7716 10.3394 22.3949 9.78482 21.7671 9.32443C21.8194 9.51277 21.8613 9.70111 21.8613 9.88945C21.8613 11.6159 19.4443 13.1017 16.0123 13.719C16.3994 13.7609 16.797 13.7818 17.2156 13.7818C20.2813 13.7713 22.7716 12.5053 22.7716 10.9462ZM20.794 10.0045C20.794 9.36628 20.2499 8.78034 19.3187 8.29902C19.5384 8.56061 19.6535 8.84312 19.6535 9.13609C19.6535 10.6742 16.389 11.9193 12.3501 11.9193C8.32174 11.9193 5.04672 10.6742 5.04672 9.13609C5.04672 8.93729 5.09904 8.74895 5.20367 8.57107C4.55495 9.00006 4.18873 9.49184 4.18873 10.015C4.18873 11.6787 7.90321 13.0284 12.4861 13.0284C17.0691 13.0284 20.794 11.6577 20.794 10.0045ZM17.1737 9.92084C15.4787 11.009 10.2679 11.4276 8.02877 10.0255C6.27093 8.92682 6.8778 7.17945 1.84494 3.34987C1.18575 2.84763 1.9705 2.314 2.46228 2.65929C2.95406 3.00458 2.50413 3.08829 3.49815 4.0823C5.50711 6.09126 5.48618 4.2811 5.80008 4.97168C6.46973 6.40516 7.9346 7.8491 7.9346 7.8491C9.40993 8.81173 10.5818 9.02099 12.7582 7.54566C14.1394 6.61443 13.5743 9.03146 16.954 7.28408C18.1887 6.64582 18.1363 7.07481 19.3919 5.32744C19.9151 4.60547 20.9091 5.88199 19.7791 6.05987C19.3292 6.13311 18.5653 6.62489 18.241 7.39918C17.7701 8.56061 17.9689 9.4186 17.1737 9.92084ZM7.77765 6.97018C7.35912 6.78184 6.91966 6.07033 6.75224 5.78782C7.22309 5.32744 7.03475 4.56361 6.76271 4.14508C6.50112 3.72655 6.17676 3.84164 5.83147 3.4545C5.47572 3.06736 5.96749 2.06288 6.41742 2.83717C8.10201 5.73551 9.21113 4.53222 10.5818 4.35435C11.9002 4.18693 13.0721 4.9089 13.4278 2.86856C13.4906 2.53373 13.815 2.46049 13.8464 3.00458C13.8778 3.55913 14.087 4.89844 14.809 5.06585C15.531 5.24373 16.1169 4.89844 16.2843 4.7101C16.4517 4.52176 16.5459 4.54269 16.6192 5.024C16.6924 5.49485 16.8807 6.15404 17.8957 5.42161C19.9779 3.93581 19.3815 3.36033 20.1976 2.97319C20.658 2.75346 21.3904 3.46496 20.3336 3.99859C18.8269 4.76242 18.67 5.70412 17.7178 6.30053C16.1169 7.30501 16.6087 6.34238 14.0347 5.97616C13.0407 5.84014 12.7268 6.93879 11.9525 6.62489C10.1842 5.89246 8.93908 6.03894 7.77765 6.97018ZM13.3546 1.60249C13.4174 2.04195 13.4906 2.03149 13.6476 2.06288C13.8045 2.10473 14.0033 1.85361 14.0033 1.62342C14.0138 1.38276 13.8987 1.23628 13.6685 1.24674C13.4278 1.2572 13.3441 1.3723 13.3546 1.60249ZM21.0975 2.38724C21.2858 2.56512 21.788 2.45002 21.9031 2.314C22.2066 1.97917 22.217 1.78037 22.0601 1.55018C21.9031 1.33045 21.5788 1.36184 21.2544 1.60249C20.9301 1.84315 20.9928 2.29307 21.0975 2.38724ZM20.9614 4.60547C20.8045 4.81473 20.794 4.97168 20.9091 5.08678C21.0347 5.21234 21.2858 5.31697 21.4637 5.18095C21.6416 5.03446 21.6416 4.8252 21.4951 4.64732C21.3381 4.45898 21.1289 4.45898 20.9614 4.60547ZM5.07811 1.98964C5.31877 2.06288 5.43387 2.29307 5.63267 2.03149C5.7373 1.90593 5.74777 1.72805 5.61174 1.53971C5.52804 1.42462 5.13043 1.34091 4.96302 1.50832C4.7956 1.67574 4.95255 1.94778 5.07811 1.98964ZM0.170812 1.84315C0.610271 2.1152 0.892781 2.52327 1.22761 2.15705C1.3427 2.03149 1.47873 1.81176 1.23807 1.3723C1.06019 1.04794 0.484712 0.922376 0.285908 1.04794C0.076642 1.16303 -0.174478 1.63388 0.170812 1.84315ZM4.22012 3.92535C4.35614 4.07184 4.5968 4.06137 4.74329 3.97767C4.87931 3.89396 4.85838 3.67423 4.72236 3.48589C4.63865 3.37079 4.38753 3.30801 4.22012 3.48589C4.05271 3.66377 4.12595 3.82072 4.22012 3.92535Z" fill="#B9CCDF"/>
</svg>
