<svg width="24" height="24" viewBox="0 0 24 24" fill="none" xmlns="http://www.w3.org/2000/svg">
<path d="M12.0004 0C5.37305 0 0 5.37236 0 12C0 18.6273 5.37305 24 12.0004 24C18.6278 24 24.0007 18.6273 24.0007 12C24.0007 5.37226 18.6276 0 12.0004 0ZM12.0004 22.4592C10.1149 22.4592 8.58605 21.1996 8.58605 19.6463H15.4148C15.4148 21.1994 13.8861 22.4592 12.0004 22.4592V22.4592ZM17.6399 18.7147H6.36036V16.6694H17.6401V18.7146H17.6399V18.7147ZM17.5994 15.6167H6.39252C6.3552 15.5738 6.31714 15.5314 6.28114 15.4878C5.12658 14.0858 4.8546 13.354 4.59059 12.6081C4.58609 12.5836 5.9906 12.895 6.98653 13.1191C6.98653 13.1191 7.49898 13.2377 8.24826 13.3743C7.52889 12.5311 7.10166 11.4591 7.10166 10.3633C7.10166 7.95784 8.94671 5.85583 8.28107 4.15686C8.9289 4.20955 9.62173 5.52405 9.66861 7.57927C10.3573 6.62751 10.6455 4.88953 10.6455 3.82395C10.6455 2.72058 11.3726 1.4389 12.0998 1.39512C11.4515 2.46352 12.2676 3.37938 12.9933 5.65145C13.2653 6.50488 13.2306 7.94116 13.4406 8.85195C13.5104 6.96023 13.8356 4.19999 15.0358 3.24709C14.5063 4.44712 15.1141 5.94884 15.5298 6.67072C16.2005 7.8355 16.607 8.71789 16.607 10.3869C16.607 11.5059 16.1939 12.5594 15.497 13.383C16.2894 13.2343 16.8366 13.1002 16.8366 13.1002L19.4102 12.5982C19.4103 12.598 19.0364 14.1358 17.5994 15.6167V15.6167Z" fill="#B9CCDF"/>
</svg>
