<svg width="24" height="24" viewBox="0 0 24 24" fill="none" xmlns="http://www.w3.org/2000/svg">
<path d="M22.9044 12.7978C22.5702 11.7679 21.4647 11.2055 20.4348 11.5396L18.4603 12.1818C18.023 10.8342 17.5569 9.40145 17.1196 8.05667C18.32 7.66616 19.0942 7.41453 19.0942 7.41453C20.1241 7.08039 20.6864 5.97487 20.3523 4.94497C20.0182 3.91507 18.9126 3.35268 17.8827 3.68681L15.9082 4.32895C15.5177 3.12855 15.2661 2.35441 15.2661 2.35441C14.9333 1.32588 13.8278 0.762119 12.7979 1.09625C11.768 1.43038 11.2056 2.53591 11.5397 3.56581L12.1819 5.54036L8.05676 6.88101C7.66763 5.68061 7.416 4.90647 7.416 4.90647C7.08049 3.87657 5.97496 3.3128 4.94644 3.64831C3.91654 3.98244 3.35278 5.08797 3.68829 6.11649L4.33043 8.09242L2.29263 8.75518C1.33011 9.10306 0.789717 10.1412 1.0771 11.1395C1.37686 12.179 2.48101 12.8129 3.50266 12.4815C3.51091 12.4788 4.31255 12.2189 5.54045 11.8188L6.88111 15.9438L4.84331 16.6066C3.88217 16.9545 3.34178 17.9926 3.62778 18.9909C3.92754 20.0304 5.03169 20.6657 6.05334 20.333C6.06159 20.3302 6.86324 20.0703 8.09251 19.6702L8.75528 21.708C9.10316 22.6691 10.1413 23.2095 11.1396 22.9235C12.1791 22.6238 12.8144 21.5196 12.4816 20.498C12.4789 20.4897 12.219 19.6894 11.8202 18.4602C13.1678 18.0229 14.6005 17.5568 15.9453 17.1195L16.6081 19.1573C16.956 20.1184 17.9941 20.6588 18.9924 20.3728C20.0319 20.0731 20.6672 18.9689 20.3344 17.9473C20.3317 17.939 20.0718 17.1388 19.6717 15.9095C20.8721 15.519 21.6462 15.2673 21.6462 15.2673C22.6747 14.9332 23.2385 13.8277 22.9044 12.7978ZM10.6088 14.7338C10.1702 13.3863 9.70543 11.9535 9.26817 10.6087C10.6157 10.1715 12.0485 9.70533 13.3933 9.26807L14.7339 13.3932L10.6088 14.7338Z" fill="#B9CCDF"/>
</svg>
