<svg width="24" height="24" viewBox="0 0 24 24" fill="none" xmlns="http://www.w3.org/2000/svg">
<path d="M23.1491 5.13075C22.3341 5.49214 21.4584 5.73643 20.5392 5.84627C21.4774 5.28389 22.1979 4.39339 22.5372 3.33222C21.6591 3.85303 20.6867 4.23116 19.6516 4.43491C18.8227 3.55176 17.6417 2.99998 16.3347 2.99998C13.8251 2.99998 11.7906 5.03445 11.7906 7.54396C11.7906 7.90012 11.8308 8.24693 11.9082 8.57956C8.13165 8.38999 4.78329 6.58095 2.54208 3.83166C2.15093 4.50279 1.9268 5.28337 1.9268 6.11617C1.9268 7.69273 2.72901 9.08362 3.94833 9.89851C3.20344 9.87489 2.50276 9.67048 1.89016 9.33012C1.88973 9.34906 1.88973 9.3681 1.88973 9.38726C1.88973 11.5889 3.45612 13.4255 5.53485 13.843C5.1536 13.9468 4.7521 14.0025 4.33767 14.0025C4.04485 14.0025 3.7602 13.974 3.48268 13.9209C4.06098 15.7261 5.73912 17.0401 7.7276 17.0766C6.17241 18.2955 4.21304 19.0219 2.08401 19.0219C1.71721 19.0219 1.35551 19.0004 1 18.9582C3.01098 20.2477 5.39957 21 7.96575 21C16.324 21 20.8947 14.0757 20.8947 8.07082C20.8947 7.87381 20.8902 7.67785 20.8815 7.48292C21.7695 6.84228 22.5399 6.04198 23.1491 5.13075Z" fill="#B9CCDF"/>
</svg>
