<?xml version="1.0" encoding="utf-8"?>
<!-- Generator: Adobe Illustrator 26.1.0, SVG Export Plug-In . SVG Version: 6.00 Build 0)  -->
<svg version="1.1"
	 id="Layer_1" inkscape:version="0.92.3 (2405546, 2018-03-11)" sodipodi:docname="cilium-ar21.svg" xmlns:cc="http://creativecommons.org/ns#" xmlns:dc="http://purl.org/dc/elements/1.1/" xmlns:inkscape="http://www.inkscape.org/namespaces/inkscape" xmlns:rdf="http://www.w3.org/1999/02/22-rdf-syntax-ns#" xmlns:sodipodi="http://sodipodi.sourceforge.net/DTD/sodipodi-0.dtd" xmlns:svg="http://www.w3.org/2000/svg"
	 xmlns="http://www.w3.org/2000/svg" xmlns:xlink="http://www.w3.org/1999/xlink" x="0px" y="0px" viewBox="0 0 120 60"
	 style="enable-background:new 0 0 120 60;" xml:space="preserve">
<style type="text/css">
	.st0{fill:#FFFFFF;}
	.st1{fill:#E82429;}
	.st2{fill:#6289C6;}
	.st3{fill:#F9C515;}
	.st4{fill:#8061A9;}
	.st5{fill:#F17423;}
	.st6{fill:#97C93D;}
	.st7{fill:#CADD72;}
</style>
<sodipodi:namedview  bordercolor="#666666" borderopacity="1" gridtolerance="10" guidetolerance="10" id="namedview38" inkscape:current-layer="Layer_1" inkscape:cx="68.566448" inkscape:cy="19.341511" inkscape:pageopacity="0" inkscape:pageshadow="2" inkscape:window-height="1001" inkscape:window-maximized="1" inkscape:window-width="1920" inkscape:window-x="-9" inkscape:window-y="-9" inkscape:zoom="8" objecttolerance="10" pagecolor="#ffffff" showgrid="false">
	</sodipodi:namedview>
<g id="g882" transform="translate(-0.75717157)">
	<path id="path3509" inkscape:connector-curvature="0" class="st0" d="M30.3,24.4h-6.5l-3.3,5.7l3.3,5.6h6.5l3.3-5.6L30.3,24.4z
		 M29.4,34.1h-4.8L22.2,30l2.4-4.1h4.8l2.4,4.1L29.4,34.1z"/>
	<polygon id="polygon3511" class="st1" points="22.2,30.1 24.6,34.1 29.4,34.1 31.8,30.1 29.4,25.9 24.6,25.9 	"/>
	<path id="path3515" inkscape:connector-curvature="0" class="st0" d="M30.3,36.4h-6.5l-3.3,5.7l3.3,5.6h6.5l3.3-5.6L30.3,36.4z
		 M29.4,46.2h-4.8l-2.4-4.1l2.4-4.1h4.8l2.4,4.1L29.4,46.2z"/>
	<polygon id="polygon3517" class="st2" points="22.2,42.1 24.6,46.2 29.4,46.2 31.8,42.1 29.4,38 24.6,38 	"/>
	<path id="path3521" inkscape:connector-curvature="0" class="st0" d="M30.3,12.3h-6.5L20.5,18l3.3,5.6h6.5l3.3-5.6L30.3,12.3z
		 M29.4,22h-4.8L22.2,18l2.4-4.2h4.8l2.4,4.1L29.4,22z"/>
	<polygon id="polygon3523" class="st3" points="22.2,18 24.6,22 29.4,22 31.8,18 29.4,13.8 24.6,13.8 	"/>
	<path id="path3529" inkscape:connector-curvature="0" class="st0" d="M40.9,30.5h-6.5l-3.3,5.7l3.3,5.6H41l3.3-5.6L40.9,30.5z
		 M40,40.2h-4.8l-2.4-4.1l2.4-4.1H40l2.4,4.1L40,40.2z"/>
	<polygon id="polygon3531" class="st4" points="32.9,36.1 35.3,40.2 40,40.2 42.5,36.1 40,31.9 35.3,31.9 	"/>
	<path id="path3535" inkscape:connector-curvature="0" class="st0" d="M40.9,18.4h-6.5L31.2,24l3.3,5.6H41l3.3-5.6L40.9,18.4z
		 M40,28.1h-4.8L32.8,24l2.4-4.1H40l2.4,4.1L40,28.1z"/>
	<polygon id="polygon3537" class="st5" points="32.9,24 35.3,28.1 40,28.1 42.5,24 40,19.8 35.3,19.8 	"/>
	<path id="path3543" inkscape:connector-curvature="0" class="st0" d="M19.6,30.5h-6.5l-3.3,5.7l3.3,5.6h6.5l3.3-5.6L19.6,30.5z
		 M18.8,40.2H14l-2.4-4.1L14,32h4.8l2.4,4.1L18.8,40.2z"/>
	<polygon id="polygon3545" class="st6" points="11.6,36.1 14,40.2 18.8,40.2 21.2,36.1 18.8,31.9 14,31.9 	"/>
	<path id="path3549" inkscape:connector-curvature="0" class="st0" d="M19.6,18.4h-6.5L9.9,24l3.3,5.6h6.5l3.3-5.6L19.6,18.4z
		 M18.8,28.1H14L11.6,24l2.4-4.1h4.8l2.4,4.1L18.8,28.1z"/>
	<polygon id="polygon3551" class="st7" points="11.6,24 14,28.1 18.8,28.1 21.2,24 18.8,19.8 14,19.8 	"/>
	<g id="g3553" transform="matrix(0.15269312,0,0,0.15269312,54.514381,-25.340857)">
		<g id="g3555">
			<path id="path3557" inkscape:connector-curvature="0" class="st0" d="M23.8,341.2c3.8,0,7.3,0.5,10.6,1.2s6.1,1.9,8.8,3.3v10.4
				c-3.3-1.2-6.4-2.1-9.2-2.8c-3.1-0.7-5.9-1.2-9-1.2s-6.1,0.5-9.2,1.4s-5.7,2.6-8.3,5c-2.4,2.4-4.3,5.4-5.9,9.2
				c-1.4,3.8-2.1,8.5-2.1,14.2c0,4,0.5,7.8,1.7,11.4c1.2,3.5,2.8,6.4,5,9s5,4.5,8,5.9c3.3,1.4,7.1,2.1,11.4,2.1
				c3.1,0,6.1-0.2,9.5-0.9c3.1-0.7,6.1-1.7,9.2-2.8V417c-0.9,0.5-2.1,1.2-3.5,1.7c-1.4,0.5-3.1,0.9-5,1.4c-1.7,0.5-3.5,0.7-5.7,0.9
				c-1.9,0.2-4,0.5-5.9,0.5c-5.2,0-9.9-0.7-14.7-2.4c-4.5-1.7-8.5-4-12.1-7.1c-3.3-3.3-6.1-7.3-8-12.3s-3.1-10.6-3.1-17.5
				c0-5,0.5-9.5,1.7-13.5c0.9-4,2.4-7.6,4.3-10.6s4-5.7,6.4-7.8c2.4-2.1,5-3.8,7.8-5.2c2.8-1.4,5.7-2.4,8.5-3.1
				C18.1,341.7,20.9,341.2,23.8,341.2z"/>
			<path id="path3559" inkscape:connector-curvature="0" class="st0" d="M63.5,325.6v-14H76v14H63.5z M63.7,419.5v-76.2h12.5v76.2
				L63.7,419.5z"/>
			<path id="path3561" inkscape:connector-curvature="0" class="st0" d="M101.8,419.5V303.4h12.5v116.1H101.8z"/>
			<path id="path3563" inkscape:connector-curvature="0" class="st0" d="M139.7,325.6v-14h12.5v14H139.7z M139.9,419.5v-76.2h12.5
				v76.2L139.9,419.5z"/>
			<path id="path3565" inkscape:connector-curvature="0" class="st0" d="M207.6,421.4c-4,0-7.6-0.5-10.6-1.2
				c-3.1-0.9-5.9-2.1-8.3-3.5c-2.4-1.7-4.5-3.3-6.1-5.7c-1.7-2.1-3.1-4.5-4-7.1c-0.7-1.9-1.2-4-1.7-6.4c-0.2-2.4-0.5-4.7-0.5-7.6
				v-46.6h12.5v46.6c0,4.3,0.5,7.8,1.7,10.6c1.2,3.3,3.3,5.7,6.1,7.6s6.6,2.8,10.9,2.8c4.7,0,8.5-0.9,11.4-3.1
				c2.8-2.1,5-4.7,6.1-8.3c0.9-2.6,1.4-5.9,1.4-9.7v-46.6H239V390c0,2.6-0.2,5-0.5,7.1c-0.2,2.1-0.7,4.3-1.4,6.1
				c-0.9,2.6-2.4,5-4,7.3c-1.7,2.1-3.8,4-6.1,5.7c-2.4,1.7-5.2,2.8-8.5,3.8C215.1,420.9,211.6,421.4,207.6,421.4z"/>
			<path id="path3567" inkscape:connector-curvature="0" class="st0" d="M324.4,419.5h-12.5v-49c0-3.3-0.5-6.1-1.2-8.5
				s-1.7-4.3-3.1-5.7c-1.4-1.4-3.1-2.6-5-3.3c-1.9-0.7-4-0.9-6.4-0.9c-4.5,0-8.5,1.2-12.1,3.5c-3.5,2.4-6.9,5.7-9.7,9.9v54.2H262
				v-76.4h9.7l2.4,10.6h0.2c1.4-1.7,2.8-3.3,4.5-5c1.7-1.4,3.5-2.8,5.4-4s4.3-2.1,6.6-2.6c2.4-0.7,5-0.9,7.8-0.9
				c5.7,0,10.4,1.4,14.2,4c3.8,2.8,6.6,6.4,8.8,11.1h0.2c3.3-4.7,7.3-8.5,11.6-11.1c4.3-2.6,9.5-4,15.1-4c2.6,0,5.4,0.5,8.5,1.2
				s5.7,2.1,8.3,4c2.6,1.9,4.5,4.7,6.1,8.3c1.7,3.5,2.6,8,2.6,13.7v51.1h-12v-49.1c0-3.3-0.5-6.1-1.2-8.5s-1.7-4.3-3.1-5.7
				c-1.4-1.4-3.1-2.6-5-3.3c-1.9-0.7-4-0.9-6.4-0.9c-4.5,0-8.5,1.2-12.1,3.5c-3.5,2.4-6.9,5.7-9.9,9.9L324.4,419.5z"/>
		</g>
	</g>
</g>
</svg>
