<svg width="50" height="50" viewBox="0 0 50 50" fill="none" xmlns="http://www.w3.org/2000/svg">
<path d="M21.0615 23.1741L22.87 24.9725L21.0615 26.7705H8.3313V32.7616L0.567871 24.9725L8.3313 17.3141V23.1741H21.0615ZM26.6573 7.875H42.125V23.3431H26.6573V7.875Z" fill="#932279"/>
<path d="M26.8258 21.0615L25.0278 22.87L23.2298 21.0615V8.3313H17.2383L25.0278 0.567871L32.6859 8.3313H26.8258V21.0615ZM26.6572 26.6573H42.1249V42.1254H26.6572V26.6573Z" fill="#EFA724"/>
<path d="M28.9389 26.8258L27.1301 25.0278L28.9389 23.2298H41.6687V17.2383L49.4325 25.0278L41.6687 32.6859V26.8258H28.9389ZM7.875 26.6572H23.3427V42.1253H7.875V26.6572Z" fill="#262577"/>
<path d="M23.1741 28.9389L24.9721 27.1301L26.7705 28.9389V41.6691H32.7616L24.9721 49.4325L17.3144 41.6691H23.1741V28.9389ZM7.875 7.875H23.3427V23.3431H7.875V7.875Z" fill="#9CCD2A"/>
<path d="M7.32251 7.32251H23.8953V23.8953H7.32251V7.32251ZM8.4272 22.7906H22.7903V8.42755H8.4272V22.7906ZM26.105 7.32251H42.6778V23.8953H26.105V7.32251ZM27.2097 22.7906H41.5728V8.42755H27.2097V22.7906ZM26.105 26.105H42.6778V42.6782H26.105V26.105ZM27.2097 41.5728H41.5728V27.2097H27.2097V41.5728ZM7.32251 26.105H23.8953V42.6782H7.32251V26.105ZM8.4272 41.5728H22.7903V27.2097H8.4272V41.5728Z" fill="white"/>
<path d="M11.719 36.719L0 25L11.7187 13.2813L23.4377 25L11.719 36.719ZM1.56263 25L11.719 35.1564L21.8751 25L11.7187 14.8439L1.56263 25ZM25 23.4377L13.2813 11.719L25 0L36.7187 11.719L25 23.4377ZM14.8439 11.719L25 21.8751L35.1564 11.719L25 1.56263L14.8439 11.719ZM38.2813 36.719L26.5626 25L38.2813 13.2813L50 25L38.2813 36.719ZM28.1249 25L38.2813 35.1564L48.4374 25L38.2813 14.8439L28.1249 25ZM25 50L13.2813 38.2813L25 26.5626L36.7187 38.2813L25 50ZM14.8439 38.2813L25 48.4374L35.1564 38.2813L25 28.1253L14.8439 38.2813Z" fill="white"/>
</svg>
