<svg width="256" height="256" viewBox="0 0 256 256" fill="none" xmlns="http://www.w3.org/2000/svg">
<path d="M128 16C98.2958 16 69.8081 27.8 48.804 48.804C27.8 69.8081 16 98.2958 16 128C16 157.704 27.8 186.192 48.804 207.196C69.8081 228.2 98.2958 240 128 240C157.704 240 186.192 228.2 207.196 207.196C228.2 186.192 240 157.704 240 128C240 98.2958 228.2 69.8081 207.196 48.804C186.192 27.8 157.704 16 128 16V16ZM128 30C140.87 29.9999 153.613 32.5346 165.503 37.4595C177.393 42.3844 188.196 49.603 197.297 58.7032C206.397 67.8033 213.615 78.6068 218.54 90.4968C223.465 102.387 226 115.13 226 128C226 140.87 223.465 153.613 218.54 165.503C213.615 177.393 206.397 188.197 197.297 197.297C188.196 206.397 177.393 213.616 165.503 218.54C153.613 223.465 140.87 226 128 226C114.015 225.977 100.196 222.961 87.4734 217.154C74.7505 211.347 63.4178 202.885 54.2368 192.335C61.2979 187.228 72.877 188.532 87.1091 190.139C94.0441 190.949 101.942 191.855 110.117 192.037C132.941 192.182 157.524 187.967 172.676 181.339C182.479 177.079 188.735 174.243 192.654 170.678C194.064 169.51 194.796 167.614 195.558 165.574L196.093 164.225C196.727 162.571 197.657 159.086 198.067 157.176C198.231 156.334 198.424 155.511 197.728 154.973C197.092 154.481 195.63 155.363 195.63 155.363C188.976 159.367 172.344 166.952 156.793 167.276C137.486 167.665 98.3672 147.732 94.3142 145.626C91.6016 139.167 88.8901 132.705 86.1384 126.262C114.125 144.702 137.34 154.896 155.11 156.468C174.892 158.23 190.311 147.435 197.004 142.945C197.88 142.363 198.755 141.711 199.559 141.084H199.563C199.706 140.972 200.042 140.676 199.998 140.404C198.889 133.47 188.559 99.8459 180.74 91.7593C178.585 89.5566 176.86 87.3839 173.367 85.3403C145.082 68.8575 77.9774 58.91 74.8336 58.4546C74.8336 58.4546 74.5174 58.3897 74.2987 58.6033C74.1288 58.7692 74.0953 59.0886 74.0953 59.0886C74.0953 59.0886 73.8376 72.9918 73.7979 74.5464C71.2641 73.6951 62.8029 70.9518 50.8497 67.7583C59.9982 56.0195 71.7001 46.5185 85.0677 39.9762C98.4353 33.434 113.117 30.0223 128 30V30ZM148.426 86.8511C148.902 86.8432 149.38 86.8476 149.86 86.8631C165.677 87.4286 178.107 100.781 177.564 116.581C177.266 124.246 174.058 131.36 168.467 136.562C162.859 141.829 155.56 144.537 147.855 144.278C132.055 143.696 119.64 130.371 120.169 114.557C120.454 106.892 123.661 99.7784 129.266 94.5603C134.523 89.6521 141.281 86.9662 148.426 86.8511V86.8511ZM148.615 95.3088C143.621 95.3711 138.922 97.2495 135.277 100.668C131.389 104.315 129.097 109.256 128.935 114.605C128.563 125.659 137.216 134.956 148.245 135.362C153.608 135.524 158.72 133.627 162.631 129.981C166.536 126.317 168.783 121.378 168.954 116.049C169.326 104.998 160.672 95.7113 149.619 95.3191C149.283 95.307 148.948 95.3047 148.615 95.3089V95.3088ZM152.895 105.37C157.806 105.37 161.785 108.013 161.785 111.302C161.785 114.559 157.803 117.216 152.895 117.216C147.983 117.216 144.017 114.559 144.017 111.302C144.017 108.013 147.983 105.37 152.895 105.37Z" fill="#73BA25"/>
</svg>
