<svg width="51" height="50" viewBox="0 0 51 50" fill="none" xmlns="http://www.w3.org/2000/svg">
<path fill-rule="evenodd" clip-rule="evenodd" d="M25.8676 50C39.6752 50 50.8671 38.807 50.8671 24.9994C50.8671 11.1925 39.6752 0 25.8676 0C12.0601 0 0.866943 11.1926 0.866943 24.9994C0.866943 38.807 12.0599 50 25.8676 50ZM9.67694 28.2141C11.4534 28.2141 12.8925 26.7746 12.8925 24.9994C12.8925 23.2249 11.4534 21.7858 9.67694 21.7858C7.90263 21.7858 6.46347 23.2249 6.46347 24.9994C6.46347 26.7748 7.90263 28.2141 9.67694 28.2141ZM35.5697 41.8051C34.0323 42.6917 32.0673 42.1648 31.1796 40.6286C30.292 39.0914 30.8187 37.1264 32.3561 36.2386C33.8933 35.351 35.8585 35.8767 36.7461 37.4139C37.6337 38.9513 37.107 40.9174 35.5697 41.8051ZM35.5696 8.19597C37.1079 9.08268 37.6335 11.0482 36.7459 12.5858C35.8594 14.123 33.8933 14.6497 32.3559 13.7621C30.8185 12.8745 30.2918 10.9092 31.1794 9.37196C32.0673 7.83507 34.0332 7.30837 35.5696 8.19597ZM34.9977 24.1882C34.5872 19.505 30.6571 15.8337 25.8676 15.8337C24.4886 15.8337 23.1785 16.1397 22.0055 16.6847L19.7421 12.6202C21.5885 11.7052 23.6678 11.1909 25.8676 11.1909C27.1217 11.1909 28.3378 11.359 29.4938 11.673C29.6975 12.979 30.4678 14.1844 31.7012 14.8965C32.9336 15.6086 34.3622 15.6731 35.5934 15.1981C37.9193 17.5057 39.4286 20.6352 39.6495 24.1148L34.9977 24.1882ZM20.5985 17.4993C18.2414 19.1572 16.7008 21.899 16.7008 24.9994C16.7008 28.1019 18.2414 30.8427 20.5985 32.5018L18.2102 36.4942C15.4437 34.6456 13.3829 31.8275 12.5135 28.5235C13.5422 27.6948 14.2015 26.4248 14.2015 24.9996C14.2015 23.5752 13.5423 22.3052 12.5135 21.4767C13.3829 18.1726 15.4437 15.3544 18.2102 13.5069L20.5985 17.4993ZM22.0055 33.3149C23.1787 33.8611 24.4888 34.1669 25.8676 34.1669C30.6571 34.1669 34.5871 30.4946 34.9977 25.8127L39.6495 25.8849C39.4286 29.3645 37.9194 32.494 35.5934 34.8026C34.3622 34.3276 32.9336 34.3923 31.7012 35.1044C30.4677 35.8153 29.6974 37.0207 29.4938 38.3276C28.3378 38.6421 27.1215 38.809 25.8676 38.809C23.6677 38.809 21.5885 38.2951 19.7421 37.3795L22.0055 33.3149Z" fill="#E95420"/>
</svg>
