<?xml version="1.0" encoding="utf-8"?>
<!-- Generator: Adobe Illustrator 25.4.0, SVG Export Plug-In . SVG Version: 6.00 Build 0)  -->
<svg version="1.1" id="Layer_1" xmlns="http://www.w3.org/2000/svg" xmlns:xlink="http://www.w3.org/1999/xlink" x="0px" y="0px"
	 viewBox="0 0 719 131" style="enable-background:new 0 0 719 131;" xml:space="preserve">
<style type="text/css">
	.st0{fill:#814B99;}
	.st1{fill:#682A7A;}
</style>
<path class="st0" d="M78,31.7L51.8,41.8V0L78,9.1V31.7L78,31.7z"/>
<path class="st1" d="M41.6,35.8l-1.7-0.6V6.4l1.7-0.3l1.7-0.7l2.1-0.7v32.1l-2.1-0.7L41.6,35.8z M35.4,33.7l-1.3-0.3V8.2l1.4-0.3
	l1.4-0.3l1.3-0.3v27.7l-1.3-0.3L35.4,33.7z M30.3,32.5l-1.1-0.3V9.4l1-0.3l1-0.3l1.1-0.3v24.7l-0.9-0.3L30.3,32.5z M28.3,7.2v27.2
	l19.4,7.4V0.3L28.3,7.2z"/>
<path class="st0" d="M139,31.7l-26.2,10.1V0L139,9.1V31.7L139,31.7z"/>
<path class="st1" d="M102.6,35.8l-1.7-0.7V6.4l1.7-0.3l1.7-0.7l2-0.7v32.1l-2-0.7L102.6,35.8z M96.3,33.7L95,33.4V8.2l1.4-0.3
	l1.3-0.3l1.4-0.3v27.7l-1.4-0.3L96.3,33.7z M91.2,32.4l-1-0.3V9.4l1-0.3l1-0.3l1-0.3v24.7l-1-0.3L91.2,32.4z M89.2,7.1v27.4
	l19.4,7.4V0.3L89.2,7.1z"/>
<path class="st0" d="M78,114.8l-26.2,10.1V83L78,92.1V114.8L78,114.8z"/>
<path class="st1" d="M41.6,118.8l-1.7-0.7V89.4l1.7-0.3l1.7-0.7l2.1-0.7v32.2l-2.1-0.7L41.6,118.8z M35.4,116.8l-1.3-0.5V91.1
	l1.4-0.3l1.4-0.3l1.3-0.3v27.7l-1.3-0.3L35.4,116.8z M30.3,115.4l-1.1-0.3V92.5l1-0.3l1-0.3l1.1-0.3v24.6l-0.9-0.3L30.3,115.4z
	 M28.3,90.1v27.4l19.4,7.4V83.3L28.3,90.1z"/>
<path class="st0" d="M139,114.8l-26.2,10.1V83l26.2,9.1V114.8L139,114.8z"/>
<path class="st1" d="M102.6,118.8l-1.7-0.7V89.4l1.7-0.3l1.7-0.7l2.1-0.7v32.1l-2.1-0.7L102.6,118.8z M96.3,116.8l-1.4-0.3V91.1
	l1.4-0.3l1.3-0.3l1.4-0.3v27.7l-1.4-0.3L96.3,116.8z M91.2,115.4l-1-0.3V92.5l1-0.3l1-0.3l1-0.3v24.6l-1-0.3L91.2,115.4z M89.2,90.1
	v27.4l19.4,7.4V83.3L89.2,90.1z"/>
<path class="st0" d="M110.4,73.2L84.5,83V41.5l25.9,9.2V73.2z"/>
<path class="st1" d="M73.9,77.3l-1.7-0.7V47.9l1.7-0.3l1.7-0.7l2.1-0.7v32.1l-2-0.7L73.9,77.3z M67.7,75.2l-1.4-0.3V49.6l1.4-0.3
	l1.4-0.3l1.3-0.3v27.7L69.1,76L67.7,75.2z M62.6,73.6l-1.1-0.3V50.6l1-0.3l1-0.3l1-0.3v24.6l-1-0.3L62.6,73.6z M60.6,48.2v27.4
	l19.5,7.4V41.5L60.6,48.2z"/>
<path class="st0" d="M49.7,73.2L23.8,83V41.5l25.9,9.2V73.2z"/>
<path class="st1" d="M13.3,77.3l-1.7-0.7V47.9l1.7-0.3l1.7-0.7l2.1-0.7v32.1L15,77.6L13.3,77.3z M7.1,75.2l-1.4-0.3V49.6l1.4-0.3
	l1.4-0.3l1.3-0.2v27.6L8.5,76L7.1,75.2z M2,73.6l-1-0.3V50.6l1-0.3l1.1-0.4l1-0.3v24.6l-1-0.3L2,73.6z M0,48.2v27.4l19.4,7.4V41.5
	L0,48.2z"/>
<path class="st0" d="M170.3,73.2L144.5,83V41.5l25.8,9.2V73.2z M51.8,0v41.8L78,31.7V9.1L51.8,0z M112.8,0v41.8L139,31.7V9.1
	L112.8,0z M51.8,83v41.8L78,114.8V92.1L51.8,83z M112.8,83v41.8l26.2-10.1V92.1L112.8,83z M84.5,41.5V83l25.9-9.8V50.7L84.5,41.5z
	 M23.8,41.5V83l25.9-9.8V50.7L23.8,41.5z"/>
<path class="st0" d="M144.5,41.5V83l25.8-9.8V50.7L144.5,41.5z"/>
<path class="st1" d="M133.9,77.3l-1.7-0.7V47.9l1.7-0.3l1.7-0.7l2.1-0.7v32.1l-2.1-0.7L133.9,77.3z M127.8,75.2l-1.4-0.3V49.6
	l1.4-0.3l1.3-0.3l1.4-0.3v27.7l-1.4-0.3L127.8,75.2z M122.6,73.6l-1-0.3V50.6l1-0.3l1-0.3l1-0.3v24.6l-1-0.3L122.6,73.6z
	 M120.6,48.2v27.4l19.4,7.4V41.5L120.6,48.2z"/>
<path d="M216.7,8H227l15.5,43.8h-9.9l-2.9-9h-16.2l-3,9H201L216.7,8z M216.1,35.3h11.2L221.8,18L216.1,35.3z M245.6,26.3v-6.9h25.7
	v7.1l-15.9,18.4h16.5v7h-27.4v-6.6l16.1-18.9H245.6z M286.4,19.4V39c-0.1,1.4,0.1,2.8,0.7,4.2c0.4,0.8,1.1,1.5,1.9,1.9
	c0.8,0.4,1.7,0.6,2.7,0.5c1.2,0.1,2.5-0.2,3.5-0.8c1.1-0.6,1.9-1.6,2.4-2.7c0.6-1.6,0.9-3.3,0.8-5V19.4h8.6v32.4h-8.2v-4.6
	c-0.2,0.3-0.4,0.6-0.6,0.9c-0.3,0.5-0.7,0.9-1.1,1.3c-1.1,1.1-2.4,1.9-3.8,2.4c-1.4,0.5-2.9,0.7-4.4,0.7c-4.8,0-8-1.7-9.7-5.2
	c-1.1-2.7-1.5-5.5-1.4-8.4V19.4H286.4z M333.2,18.7c0.1,0,0.4,0,0.7,0v8.7c-0.5-0.1-1-0.1-1.4-0.1c-0.3,0-0.7,0-1,0
	c-1.3-0.2-2.7,0.1-3.9,0.7c-1.2,0.6-2.2,1.5-2.9,2.7c-0.8,1.8-1.1,3.8-1,5.8v15.5h-8.5V19.4h8.1v5.7c0.9-1.6,2.1-3.1,3.4-4.4
	c1.8-1.4,4-2.1,6.2-2C333,18.6,333.1,18.7,333.2,18.7z M360.1,20.1c2.3,1,4.2,2.7,5.6,4.8c1.4,2,2.2,4.3,2.6,6.7
	c0.3,2.1,0.4,4.3,0.3,6.4h-23.6c-0.1,1.3,0.2,2.7,0.8,3.9c0.6,1.2,1.5,2.2,2.6,3c1.4,0.8,3,1.3,4.7,1.2c1.3,0.1,2.7-0.2,3.8-0.9
	c1.2-0.7,2.1-1.7,2.7-2.9h8.7c-0.4,2.2-1.5,4.3-3.1,5.9c-1.6,1.6-3.5,2.9-5.6,3.7c-2.1,0.8-4.4,1.2-6.6,1c-4.2,0.1-8.2-1.4-11.4-4
	c-3.3-2.7-5-7-5-13c-0.2-2.3,0.2-4.7,0.9-6.9c0.8-2.2,2-4.3,3.5-6c1.5-1.5,3.3-2.7,5.3-3.5c2-0.8,4.1-1.1,6.3-1
	C355.1,18.5,357.7,19,360.1,20.1z M347.4,27.4c-1.3,1.4-2.1,3.1-2.3,5h14.6c0-1-0.2-1.9-0.6-2.8c-0.4-0.9-1-1.7-1.7-2.3
	c-1.4-1.2-3.2-1.8-5-1.7c-0.9-0.1-1.9,0.1-2.7,0.4C348.9,26.3,348.1,26.8,347.4,27.4z M390.6,8h9v18.1l17-18.1h11.8l-18,18
	l18.9,25.8h-11.8l-13.5-19.1l-4.4,4.5v14.7h-9V8z M442.3,19.4V39c-0.1,1.4,0.1,2.8,0.6,4.2c0.4,0.8,1.1,1.5,1.9,1.9
	c0.8,0.4,1.7,0.6,2.7,0.5c1.2,0.1,2.5-0.2,3.5-0.8c1.1-0.6,1.9-1.6,2.4-2.7c0.6-1.6,0.9-3.3,0.8-5V19.4h8.6v32.4h-8.2v-4.6
	c-0.2,0.3-0.4,0.6-0.6,0.9c-0.3,0.5-0.7,0.9-1.1,1.3c-1.1,1.1-2.4,1.9-3.8,2.4c-1.4,0.5-2.9,0.7-4.3,0.7c-4.8,0-8-1.7-9.7-5.2
	c-1.1-2.7-1.5-5.5-1.4-8.4V19.4H442.3z M498.8,23.3c2.5,3.4,3.8,7.6,3.6,11.9c0.2,4.5-1.1,8.8-3.6,12.5c-1.9,2.4-4.6,4.1-7.6,4.7
	c-3,0.6-6.2,0.1-8.9-1.3c-1.2-0.9-2.3-2-3.2-3.3v4.1h-8.4V8.1h8.5v15.6c0.9-1.4,2.2-2.6,3.6-3.5c1.8-1.1,3.8-1.6,5.9-1.5
	c1.9-0.1,3.8,0.3,5.6,1.1C496.1,20.6,497.6,21.8,498.8,23.3L498.8,23.3z M491.7,43.1c1.3-2.1,1.9-4.5,1.8-7c0.1-1.9-0.2-3.9-0.9-5.7
	c-0.4-1.3-1.3-2.4-2.4-3.2c-1.1-0.8-2.5-1.2-3.9-1.1c-1.4-0.1-2.7,0.3-3.9,1c-1.2,0.8-2,1.9-2.5,3.2c-0.7,1.8-1,3.8-0.9,5.8
	c-0.1,2.4,0.6,4.8,1.9,6.9c0.6,0.9,1.5,1.6,2.5,2.1c1,0.5,2.1,0.7,3.2,0.6c1,0,2-0.2,2.9-0.7C490.4,44.6,491.1,43.9,491.7,43.1z
	 M529.5,20.1c2.3,1,4.2,2.7,5.6,4.8c1.4,2,2.2,4.3,2.6,6.7c0.3,2.1,0.4,4.3,0.3,6.4h-23.6c-0.1,1.3,0.2,2.7,0.8,3.9
	c0.6,1.2,1.5,2.2,2.6,3c1.4,0.8,3,1.3,4.7,1.2c1.3,0.1,2.7-0.2,3.8-0.9c1.2-0.7,2.1-1.7,2.7-2.9h8.7c-0.4,2.2-1.5,4.3-3.1,5.9
	c-1.6,1.6-3.5,2.9-5.6,3.7c-2.1,0.8-4.4,1.2-6.6,1c-4.2,0.1-8.2-1.4-11.4-4c-3.3-2.7-5-7-5-13c-0.2-2.3,0.2-4.7,0.9-6.9
	c0.8-2.2,2-4.3,3.5-6c1.5-1.5,3.3-2.7,5.3-3.5c2-0.8,4.1-1.1,6.3-1C524.5,18.5,527.1,19,529.5,20.1z M516.8,27.4
	c-1.3,1.4-2.1,3.1-2.3,5h14.6c0-1-0.2-1.9-0.6-2.8c-0.4-0.9-1-1.7-1.7-2.3c-1.4-1.2-3.2-1.8-5-1.7c-0.9-0.1-1.9,0.1-2.7,0.4
	C518.2,26.3,517.4,26.8,516.8,27.4z M560.3,18.7c0.1,0,0.4,0,0.7,0v8.7c-0.5-0.1-1-0.1-1.4-0.1c-0.3,0-0.7,0-1,0
	c-1.3-0.2-2.7,0.1-3.9,0.7c-1.2,0.6-2.2,1.5-2.9,2.7c-0.8,1.8-1.1,3.8-1,5.8v15.5h-8.5V19.4h8.1v5.7c0.9-1.6,2.1-3.1,3.4-4.4
	c1.8-1.4,4-2.1,6.2-2C560,18.6,560.1,18.7,560.3,18.7z M592.1,21.3c1.2,1.1,2,2.5,2.6,4c0.6,1.5,0.8,3.1,0.6,4.7v21.8h-8.7V32.1
	c0.1-1.3-0.2-2.7-0.7-3.9c-0.4-0.8-1.1-1.5-2-2c-0.8-0.4-1.8-0.6-2.7-0.5c-1.2-0.1-2.5,0.2-3.5,0.9c-1.1,0.7-1.9,1.6-2.3,2.8
	c-0.6,1.6-0.9,3.3-0.8,4.9v17.5H566V19.5h8.2v4.7c0.8-1.4,1.9-2.6,3.1-3.6c1.9-1.4,4.3-2.1,6.6-2C586.9,18.5,589.8,19.5,592.1,21.3
	L592.1,21.3z M624.4,20.1c2.3,1,4.2,2.7,5.6,4.8c1.4,2,2.2,4.3,2.6,6.7c0.3,2.1,0.4,4.3,0.3,6.4h-23.6c-0.1,1.3,0.2,2.7,0.8,3.9
	c0.6,1.2,1.5,2.2,2.6,3c1.4,0.8,3,1.3,4.7,1.2c1.3,0.1,2.7-0.2,3.8-0.9c1.2-0.7,2.1-1.7,2.7-2.9h8.7c-0.4,2.2-1.5,4.3-3.1,5.9
	c-1.6,1.6-3.5,2.9-5.6,3.7c-2.1,0.8-4.4,1.2-6.6,1c-4.2,0.1-8.2-1.4-11.4-4c-3.3-2.7-5-7-5-13c-0.2-2.3,0.2-4.7,0.9-6.9
	c0.8-2.2,2-4.3,3.5-6c1.5-1.5,3.3-2.7,5.3-3.5c2-0.8,4.1-1.1,6.3-1C619.3,18.5,621.9,19,624.4,20.1L624.4,20.1z M611.7,27.4
	c-1.3,1.4-2.1,3.1-2.3,5H624c0-1-0.2-1.9-0.6-2.8c-0.4-0.9-1-1.7-1.7-2.3c-1.4-1.2-3.2-1.8-5-1.7c-0.9-0.1-1.9,0.1-2.7,0.4
	C613.1,26.3,612.3,26.8,611.7,27.4z M633.8,25.8v-6h4.5v-9h8.4v9h5.3v6h-5.3v17.1c-0.1,0.9,0.1,1.7,0.5,2.5c1,0.5,2,0.6,3.1,0.5
	c0.6,0,1.1,0,1.7-0.1v6.3l-4,0.1c-4,0.1-6.7-0.6-8.2-2.1c-1-1.3-1.6-2.9-1.4-4.5v-20H633.8z M678.6,20.1c2.3,1,4.2,2.7,5.6,4.8
	c1.4,2,2.2,4.3,2.6,6.7c0.3,2.1,0.4,4.3,0.3,6.4h-23.6c-0.1,1.3,0.2,2.7,0.8,3.9c0.6,1.2,1.5,2.2,2.6,3c1.4,0.8,3,1.3,4.7,1.2
	c1.3,0.1,2.7-0.2,3.8-0.9c1.2-0.7,2.1-1.7,2.7-2.9h8.7c-0.4,2.2-1.5,4.3-3.1,5.9c-1.6,1.6-3.5,2.9-5.6,3.7c-2.1,0.8-4.4,1.2-6.6,1
	c-4.2,0.1-8.2-1.4-11.4-4c-3.3-2.7-5-7-5-13c-0.2-2.3,0.2-4.7,0.9-6.9c0.8-2.2,2-4.3,3.5-6c1.5-1.5,3.3-2.7,5.3-3.5
	c2-0.8,4.1-1.1,6.3-1C673.6,18.5,676.2,19,678.6,20.1z M665.9,27.4c-1.3,1.4-2.1,3.1-2.3,5h14.6c0-1-0.2-1.9-0.6-2.8
	c-0.4-0.9-1-1.7-1.7-2.3c-1.4-1.2-3.2-1.8-5-1.7c-0.9-0.1-1.9,0.1-2.7,0.4C667.3,26.3,666.5,26.8,665.9,27.4z M697.9,41.5
	c0,1.2,0.5,2.3,1.2,3.2c0.8,0.7,1.8,1.1,2.8,1.4c1,0.3,2.1,0.4,3.1,0.3c1.4,0.1,2.7-0.2,4-0.7c0.4-0.2,0.8-0.5,1-0.9
	s0.4-0.8,0.4-1.3c0-0.5-0.1-0.9-0.3-1.3c-0.2-0.4-0.5-0.7-0.9-1c-2.9-1.1-5.8-2-8.9-2.6c-2.8-0.5-5.5-1.7-7.8-3.4
	c-0.8-0.7-1.4-1.7-1.8-2.7c-0.4-1-0.6-2.1-0.5-3.2c0-1.5,0.3-2.9,0.9-4.2c0.6-1.3,1.5-2.5,2.6-3.5c2.8-2.3,6.3-3.5,10-3.2
	c3.5-0.2,6.9,0.7,9.9,2.4c1.3,0.9,2.4,2.2,3.2,3.7c0.8,1.5,1.2,3.1,1.2,4.7h-8.5c-0.1-0.9-0.4-1.8-0.9-2.6c-0.6-0.6-1.4-1.1-2.2-1.4
	c-0.8-0.3-1.7-0.4-2.6-0.3c-1.4-0.1-2.8,0.2-4,0.9c-0.3,0.2-0.6,0.5-0.8,0.9c-0.2,0.4-0.3,0.8-0.3,1.2c0,0.4,0.1,0.9,0.3,1.2
	c0.2,0.4,0.6,0.7,0.9,0.9c2.9,1,5.8,1.8,8.9,2.3c2.8,0.5,5.4,1.8,7.6,3.6c0.8,0.8,1.5,1.7,1.9,2.8c0.4,1,0.6,2.2,0.6,3.3
	c0,1.5-0.3,3-0.9,4.4c-0.6,1.4-1.5,2.6-2.7,3.5c-3.2,2.3-7.2,3.4-11.1,3c-5.1,0-8.9-1.1-11.3-3.2c-1.2-1-2.1-2.3-2.8-3.7
	c-0.6-1.4-0.9-3-0.9-4.5L697.9,41.5z"/>
<path d="M209.7,105.4c0.1,1.6,0.7,3.2,1.7,4.5c1,1,2.2,1.7,3.6,2.2c1.3,0.5,2.8,0.6,4.2,0.5c1.8,0.1,3.6-0.2,5.3-0.7
	c1.1-0.3,2.1-0.9,2.8-1.8c0.7-0.9,1.1-2.1,1-3.2c0-0.7-0.2-1.3-0.5-1.9c-0.3-0.6-0.8-1.1-1.4-1.4c-1.9-1-3.9-1.7-6-2l-4.7-1
	c-3.3-0.5-6.6-1.7-9.5-3.3c-1.5-1.1-2.7-2.5-3.4-4.1c-0.8-1.6-1.1-3.5-1-5.3c0-1.8,0.3-3.7,1.1-5.3c0.7-1.7,1.8-3.2,3.2-4.4
	c3.6-2.8,8.1-4.2,12.6-3.9c4.2-0.1,8.4,1.2,11.9,3.6c1.6,1.2,2.9,2.8,3.8,4.7c0.9,1.8,1.3,3.9,1.3,5.9h-8.7c0-1.2-0.3-2.3-1-3.3
	c-0.6-1-1.5-1.8-2.6-2.3c-1.7-0.8-3.5-1.2-5.4-1.1c-2-0.1-4,0.4-5.7,1.4c-0.7,0.4-1.2,1-1.6,1.7c-0.4,0.7-0.6,1.5-0.5,2.3
	c0,0.7,0.2,1.4,0.5,2.1c0.4,0.6,0.9,1.1,1.6,1.4c1.8,0.8,3.8,1.4,5.8,1.8l7.6,1.8c2.7,0.5,5.3,1.6,7.5,3.2c1.3,1.1,2.3,2.4,3,4
	c0.7,1.5,1,3.2,0.9,4.9c0,1.9-0.4,3.8-1.2,5.5c-0.8,1.7-2,3.2-3.4,4.4c-3.7,2.8-8.3,4.2-13,3.9c-4.8,0.3-9.6-1.1-13.5-3.9
	c-1.6-1.3-2.9-2.9-3.7-4.7c-0.9-1.9-1.3-3.9-1.2-5.9H209.7z M263.7,87.3c2.3,1,4.2,2.7,5.6,4.8c1.3,2,2.2,4.3,2.6,6.6
	c0.3,2.1,0.3,4.3,0.3,6.4h-23.4c-0.1,1.3,0.2,2.6,0.8,3.8c0.6,1.2,1.5,2.2,2.6,3c1.4,0.8,3,1.3,4.6,1.2c1.3,0.1,2.6-0.2,3.8-0.9
	c1.1-0.7,2.1-1.6,2.6-2.8h8.6c-0.4,2.2-1.5,4.3-3.1,5.8c-1.6,1.6-3.4,2.9-5.5,3.7c-2.1,0.8-4.3,1.2-6.6,1c-4.1,0.1-8.1-1.3-11.3-4
	c-3.3-2.6-4.9-6.9-4.9-12.9c-0.2-2.3,0.2-4.7,0.9-6.9c0.8-2.2,2-4.2,3.5-6c1.5-1.5,3.3-2.7,5.3-3.4s4.1-1.1,6.2-1
	C258.7,85.8,261.3,86.3,263.7,87.3z M251.1,94.6c-1.3,1.4-2,3.1-2.2,5h14.5c0-1-0.2-1.9-0.6-2.8c-0.4-0.9-0.9-1.7-1.6-2.3
	c-1.4-1.2-3.2-1.8-5-1.7c-0.9-0.1-1.8,0.1-2.7,0.4C252.5,93.4,251.7,93.9,251.1,94.6z M294.1,85.9c0.1,0,0.3,0,0.7,0v8.6
	c-0.5-0.1-1-0.1-1.4-0.1c-0.3,0-0.7,0-1,0c-1.3-0.2-2.7,0.1-3.9,0.6c-1.2,0.6-2.2,1.5-2.9,2.7c-0.8,1.8-1.1,3.8-1,5.7v15.4h-8.5
	V86.6h8v5.6c0.9-1.6,2-3.1,3.4-4.4c1.7-1.4,3.9-2.1,6.1-2C293.9,85.9,294,85.9,294.1,85.9z M319.6,86.6h9L317,118.8h-8.9l-11.5-32.2
	h9.4l6.7,23.7L319.6,86.6z M342,82.8h-8.5V75h8.5V82.8z M333.5,86.6h8.5v32.2h-8.5V86.6z M369.3,98.2c-0.1-1.2-0.6-2.3-1.2-3.2
	c-0.5-0.7-1.2-1.2-2-1.5c-0.8-0.3-1.6-0.5-2.4-0.4c-1.3-0.1-2.6,0.3-3.6,1.1s-1.8,1.9-2.2,3.1c-0.6,1.9-0.9,3.9-0.8,5.9
	c-0.1,1.9,0.2,3.9,0.8,5.7c0.4,1.2,1.1,2.3,2.1,3c1,0.7,2.3,1.1,3.5,1c0.8,0.1,1.6,0,2.3-0.3c0.7-0.3,1.4-0.7,1.9-1.3
	c0.9-1.2,1.4-2.6,1.5-4.1h8.6c-0.2,2.6-1.2,5.1-2.8,7.3c-1.3,1.8-3.1,3.3-5.2,4.3c-2,1-4.3,1.4-6.6,1.3c-5.2,0-9-1.5-11.4-4.6
	c-2.6-3.4-3.8-7.7-3.7-11.9c-0.3-4.6,1.2-9.2,4-12.9c1.4-1.5,3.1-2.8,5.1-3.6c1.9-0.8,4-1.2,6.1-1c3.5-0.1,7,0.8,9.9,2.7
	c2.6,1.8,4.1,5,4.6,9.6H369.3z M404.6,87.3c2.3,1,4.2,2.7,5.5,4.8c1.3,2,2.2,4.3,2.6,6.6c0.3,2.1,0.4,4.3,0.3,6.4h-23.4
	c-0.1,1.3,0.2,2.6,0.8,3.8c0.6,1.2,1.5,2.2,2.6,3c1.4,0.8,3,1.3,4.6,1.2c1.3,0.1,2.6-0.2,3.8-0.9s2.1-1.6,2.6-2.8h8.6
	c-0.4,2.2-1.5,4.3-3.1,5.8c-1.6,1.6-3.4,2.9-5.5,3.7c-2.1,0.8-4.3,1.2-6.6,1c-4.1,0.1-8.1-1.3-11.3-4c-3.3-2.6-4.9-6.9-4.9-12.9
	c-0.2-2.3,0.2-4.7,0.9-6.9c0.8-2.2,2-4.2,3.5-6c1.5-1.5,3.3-2.7,5.3-3.4c2-0.8,4.1-1.1,6.2-1C399.7,85.8,402.2,86.3,404.6,87.3
	L404.6,87.3z M392.1,94.6c-1.3,1.4-2,3.1-2.2,5h14.5c0-1-0.2-1.9-0.6-2.8s-0.9-1.7-1.6-2.3c-1.4-1.2-3.2-1.8-5-1.7
	c-0.9-0.1-1.8,0.1-2.7,0.4C393.5,93.4,392.7,93.9,392.1,94.6L392.1,94.6z"/>
</svg>
