<svg width="719" height="131" viewBox="0 0 719 131" fill="none" xmlns="http://www.w3.org/2000/svg">
<rect width="719" height="131"/>
<path d="M77.9936 31.7164L51.7771 41.8409V0L77.9936 9.09337V31.7164V31.7164Z" fill="#814B99"/>
<path d="M41.5908 35.7787L39.8719 35.216V6.40582L41.5908 6.06191L43.309 5.37411L45.3712 4.68694V36.7785L43.2778 36.0595L41.5908 35.7787ZM35.4037 33.7472L34.1219 33.4033V8.18722L35.4975 7.84332L36.8718 7.49942L38.2162 7.15615V34.8102L36.8718 34.4663L35.4037 33.7472ZM30.3102 32.4973L29.2472 32.1534V9.43715L30.2789 9.09325L31.31 8.74935L32.373 8.40544V33.0913L31.4663 32.7474L30.3102 32.4973ZM28.2793 7.18678V34.435L47.6528 41.8408V0.28125L28.2793 7.18678Z" fill="#682A7A"/>
<path d="M138.989 31.7164L112.773 41.8409V0L138.989 9.09337V31.7164V31.7164Z" fill="#814B99"/>
<path d="M102.555 35.7787L100.836 35.0909V6.40582L102.555 6.06191L104.273 5.37411L106.242 4.68694V36.7785L104.273 36.0595L102.555 35.7787ZM96.3367 33.7472L94.9611 33.4033V8.18722L96.3367 7.84332L97.6798 7.49942L99.0554 7.15615V34.8102L97.6798 34.4663L96.3367 33.7472ZM91.2119 32.4035L90.1802 32.0596V9.43715L91.2119 9.09325L92.243 8.74935L93.2747 8.40544V33.0913L92.243 32.7474L91.2119 32.4035ZM89.243 7.06173V34.435L108.648 41.8408V0.28125L89.243 7.06173Z" fill="#682A7A"/>
<path d="M77.9936 114.773L51.7771 124.865V83.0251L77.9936 92.1492V114.773V114.773Z" fill="#814B99"/>
<path d="M41.5908 118.803L39.8719 118.116V89.4312L41.5908 89.0873L43.2778 88.3682L45.3405 87.681V119.835L43.2778 119.179L41.5908 118.803ZM35.4037 116.773L34.1219 116.304V91.1182L35.4975 90.7743L36.8718 90.4304L38.2162 90.0871V117.835L36.8718 117.491L35.4037 116.773ZM30.3102 115.429L29.2472 115.116V92.4932L30.2789 92.1493L31.31 91.8054L32.373 91.4615V116.085L31.4663 115.772L30.3102 115.429ZM28.2793 90.1184V117.491L47.6528 124.897V83.3379L28.2793 90.1184Z" fill="#682A7A"/>
<path d="M138.989 114.773L112.773 124.865V83.0251L138.989 92.1492V114.773V114.773Z" fill="#814B99"/>
<path d="M102.555 118.803L100.836 118.116V89.4312L102.555 89.0873L104.273 88.3995L106.335 87.7123V119.804L104.273 119.147L102.555 118.803ZM96.3367 116.773L94.9611 116.429V91.1182L96.3367 90.7743L97.6798 90.4304L99.0554 90.0871V117.835L97.6798 117.491L96.3367 116.773ZM91.2119 115.429L90.1802 115.085V92.4932L91.2119 92.1493L92.243 91.8054L93.2747 91.4615V116.085L92.243 115.741L91.2119 115.429ZM89.243 90.1184V117.491L108.648 124.897V83.3379L89.243 90.1184Z" fill="#682A7A"/>
<path d="M110.367 73.2448L84.4934 83.0253V41.4971L110.367 50.6523V73.2448Z" fill="#814B99"/>
<path d="M73.9006 77.2759L72.1817 76.5881V47.9036L73.9006 47.5597L75.6195 46.8719L77.6816 46.1848V78.2764L75.6507 77.5886L73.9006 77.2759ZM67.7135 75.2444L66.3385 74.9005V49.6213L67.7141 49.2774L69.0885 48.9335L70.4322 48.5902V76.338L69.0879 75.9941L67.7135 75.2444ZM62.62 73.5574L61.5577 73.2448V50.6211L62.5894 50.2772L63.6198 49.9339L64.6515 49.59V74.2133L63.6198 73.8694L62.62 73.5574ZM60.6204 48.2463V75.6196L80.119 83.0566V41.4658L60.6204 48.2463Z" fill="#682A7A"/>
<path d="M49.7462 73.2448L23.8417 83.0253V41.4971L49.7462 50.6523V73.2448Z" fill="#814B99"/>
<path d="M13.2802 77.2759L11.5613 76.5881V47.9036L13.2802 47.5597L14.9985 46.8719L17.0612 46.1848V78.2764L14.9985 77.5886L13.2802 77.2759ZM7.12438 75.2444L5.7494 74.9005V49.6213L7.12438 49.2774L8.49936 48.9335L9.81181 48.7465V76.3068L8.46747 75.9629L7.12438 75.2444ZM1.99963 73.5574L0.968553 73.2135V50.6211L2.00026 50.2772L3.09323 49.9027L4.12494 49.5588V74.1821L3.09323 73.9007L1.99963 73.5574ZM0 48.2463V75.6196L19.3735 83.0566V41.4658L0 48.2463Z" fill="#682A7A"/>
<path d="M170.299 73.2447L144.458 83.0252V41.497L170.299 50.6523V73.2447ZM51.7771 0V41.8409L77.9937 31.7164V9.09337L51.7771 0ZM112.773 0V41.8409L138.989 31.7164V9.09337L112.773 0ZM51.7771 83.0252V124.866L77.9937 114.773V92.1492L51.7771 83.0252ZM112.773 83.0252V124.866L138.989 114.773V92.1492L112.773 83.0252ZM84.4934 41.497V83.0252L110.367 73.2447V50.6523L84.4934 41.497ZM23.8417 41.497V83.0252L49.7462 73.2447V50.6523L23.8417 41.497Z" fill="#814B99"/>
<path d="M144.458 41.4971V83.0253L170.299 73.2448V50.6523L144.458 41.4971Z" fill="#814B99"/>
<path d="M133.927 77.2759L132.209 76.5881V47.9036L133.928 47.5597L135.646 46.8719L137.709 46.1848V78.2764L135.615 77.5886L133.927 77.2759ZM127.772 75.2444L126.396 74.9005V49.6213L127.772 49.2774L129.115 48.9335L130.49 48.5902V76.338L129.115 75.9941L127.772 75.2444ZM122.647 73.5574L121.615 73.2135V50.6211L122.647 50.2772L123.679 49.9339L124.709 49.59V74.2133L123.678 73.8694L122.647 73.5574ZM120.647 48.2463V75.6196L140.052 83.0566V41.4658L120.647 48.2463Z" fill="#682A7A"/>
<path d="M216.669 8H227.042L242.57 51.845H232.628L229.73 42.8311H213.57L210.594 51.845H201L216.669 8ZM216.062 35.2776H227.302L221.758 18.0222L216.062 35.2776ZM245.624 26.3221V19.4199H271.287V26.4736L255.363 44.8866H271.855V51.845H244.491V45.2414L260.58 26.3221H245.624ZM286.412 19.4221V38.9646C286.339 40.383 286.561 41.8013 287.064 43.1297C287.476 43.9557 288.131 44.6357 288.942 45.0776C289.752 45.5195 290.679 45.7021 291.597 45.6006C292.828 45.7055 294.061 45.4232 295.124 44.7931C296.186 44.163 297.025 43.2167 297.522 42.0868C298.134 40.4841 298.416 38.7746 298.352 37.0605V19.4221H306.958V51.845H298.709V47.2645C298.502 47.5551 298.304 47.8524 298.116 48.1559C297.806 48.6454 297.427 49.0871 296.99 49.4671C295.879 50.5226 294.572 51.351 293.143 51.9056C291.74 52.367 290.269 52.5879 288.792 52.559C284.002 52.559 280.776 50.8338 279.114 47.3835C278.044 44.712 277.568 41.8401 277.719 38.9667V19.4221H286.412ZM333.232 18.6627C333.341 18.6742 333.584 18.6886 333.962 18.7059V27.3931C333.426 27.3354 332.95 27.2965 332.533 27.2763C332.195 27.2578 331.857 27.2477 331.519 27.246C330.174 27.0808 328.809 27.3074 327.589 27.8985C326.369 28.4896 325.346 29.4201 324.643 30.5781C323.88 32.401 323.544 34.374 323.66 36.3465V51.845H315.114V19.4221H323.214V25.0737C324.116 23.426 325.271 21.93 326.638 20.6403C328.396 19.2555 330.595 18.549 332.832 18.6497C332.99 18.6497 333.124 18.6519 333.232 18.6627ZM360.082 20.0799C362.371 21.1123 364.317 22.7757 365.691 24.8746C367.053 26.8832 367.937 29.1758 368.277 31.5777C368.538 33.7129 368.631 35.8651 368.557 38.0147H344.916C344.846 39.3503 345.121 40.6814 345.716 41.8797C346.31 43.078 347.203 44.1032 348.31 44.8563C349.721 45.7002 351.345 46.1229 352.99 46.0744C354.316 46.1787 355.643 45.8794 356.796 45.2159C357.948 44.5524 358.873 43.5558 359.448 42.3572H368.111C367.72 44.5971 366.617 46.6517 364.966 48.2165C363.389 49.833 361.482 51.0919 359.376 51.9079C357.269 52.724 355.011 53.0781 352.756 52.9463C348.594 53.0016 344.546 51.5888 341.323 48.9565C338.023 46.2966 336.372 41.9692 336.372 35.9743C336.215 33.632 336.529 31.2818 337.297 29.0631C338.065 26.8443 339.27 24.802 340.842 23.0571C342.366 21.5535 344.182 20.3784 346.178 19.6047C348.174 18.8309 350.309 18.4749 352.448 18.5588C355.071 18.5189 357.675 19.0374 360.082 20.0799ZM347.389 27.4018C346.118 28.7907 345.326 30.5499 345.128 32.4216H359.747C359.738 31.4588 359.533 30.5079 359.145 29.6269C358.756 28.746 358.191 27.9535 357.486 27.298C356.082 26.1145 354.289 25.4918 352.453 25.5497C351.526 25.4927 350.598 25.6278 349.727 25.9465C348.856 26.2653 348.06 26.7607 347.389 27.4018ZM390.621 8H399.643V26.0668L416.6 8H428.449L410.439 26.0322L429.373 51.845H417.581L404.061 32.7072L399.643 37.1817V51.845H390.621V8ZM442.279 19.4221V38.9646C442.205 40.3829 442.426 41.8011 442.928 43.1297C443.34 43.9561 443.995 44.6363 444.807 45.0782C445.618 45.5202 446.545 45.7025 447.463 45.6006C448.694 45.7055 449.927 45.4232 450.99 44.7931C452.052 44.163 452.891 43.2167 453.389 42.0868C454.001 40.4841 454.283 38.7746 454.218 37.0605V19.4221H462.822V51.845H454.575V47.2645C454.368 47.5551 454.17 47.8524 453.982 48.1559C453.672 48.6455 453.292 49.0873 452.854 49.4671C451.743 50.5226 450.436 51.351 449.007 51.9056C447.605 52.3668 446.135 52.5877 444.659 52.559C439.868 52.559 436.641 50.8338 434.978 47.3835C433.908 44.712 433.432 41.8401 433.583 38.9667V19.4221H442.279ZM498.781 23.3189C501.323 26.7513 502.608 30.9515 502.422 35.217C502.595 39.6676 501.337 44.0565 498.831 47.7405C496.922 50.164 494.213 51.8319 491.188 52.4472C488.163 53.0625 485.017 52.5854 482.311 51.1007C481.062 50.189 479.988 49.0603 479.139 47.7686V51.845H470.773V8.05844H479.258V23.6456C480.202 22.2671 481.415 21.0933 482.825 20.1946C484.597 19.1412 486.637 18.6248 488.698 18.7081C490.624 18.6207 492.544 18.9932 494.297 19.7946C496.051 20.5961 497.588 21.8035 498.781 23.3167V23.3189ZM491.687 43.0712C492.995 40.9929 493.635 38.5635 493.519 36.1107C493.578 34.1673 493.273 32.2299 492.62 30.3985C492.186 29.0914 491.334 27.9634 490.194 27.189C489.055 26.4146 487.692 26.037 486.316 26.1144C484.938 26.0271 483.57 26.3893 482.416 27.1463C481.263 27.9034 480.387 29.0144 479.92 30.312C479.26 32.161 478.954 34.1181 479.019 36.0803C478.925 38.5166 479.574 40.924 480.882 42.9825C481.511 43.8892 482.364 44.6177 483.358 45.097C484.353 45.5763 485.454 45.7901 486.556 45.7174C487.567 45.7542 488.57 45.53 489.47 45.0665C490.369 44.603 491.131 43.9158 491.687 43.0712ZM529.465 20.0799C531.753 21.1123 533.699 22.7757 535.074 24.8746C536.435 26.8832 537.32 29.1758 537.66 31.5777C537.919 33.7129 538.012 35.8651 537.937 38.0147H514.301C514.23 39.3503 514.506 40.6814 515.1 41.8797C515.695 43.078 516.588 44.1032 517.694 44.8563C519.105 45.6998 520.728 46.1225 522.372 46.0744C523.699 46.1792 525.026 45.8801 526.179 45.2166C527.332 44.5531 528.257 43.5562 528.832 42.3572H537.495C537.104 44.5971 536.002 46.6517 534.35 48.2165C532.773 49.833 530.867 51.0919 528.76 51.9079C526.654 52.724 524.396 53.0781 522.14 52.9463C517.978 53.0016 513.93 51.5888 510.708 48.9565C507.407 46.2966 505.757 41.9692 505.757 35.9743C505.599 33.632 505.914 31.2818 506.681 29.0631C507.449 26.8443 508.655 24.802 510.227 23.0571C511.75 21.5535 513.566 20.3784 515.563 19.6047C517.559 18.8309 519.693 18.4749 521.833 18.5588C524.456 18.5189 527.058 19.0374 529.465 20.0799ZM516.769 27.4018C515.499 28.791 514.707 30.5502 514.511 32.4216H529.129C529.121 31.4588 528.916 30.5079 528.527 29.6269C528.138 28.746 527.574 27.9535 526.868 27.298C525.464 26.1145 523.671 25.4918 521.835 25.5497C520.908 25.4924 519.98 25.6273 519.108 25.946C518.236 26.2648 517.44 26.7605 516.769 27.4018ZM560.258 18.6627C560.367 18.6742 560.609 18.6886 560.986 18.7059V27.3931C560.452 27.3354 559.975 27.2965 559.557 27.2763C559.22 27.2579 558.883 27.2478 558.545 27.246C557.2 27.0804 555.834 27.3068 554.614 27.8979C553.394 28.489 552.371 29.4197 551.667 30.5781C550.905 32.4012 550.569 34.3741 550.686 36.3465V51.845H542.14V19.4221H550.24V25.0737C551.142 23.4262 552.296 21.9302 553.662 20.6403C555.42 19.2555 557.619 18.549 559.856 18.6497C560.014 18.6497 560.148 18.6519 560.258 18.6627ZM592.126 21.2807C593.28 22.4037 594.165 23.7716 594.717 25.2828C595.269 26.7941 595.474 28.4101 595.317 30.0112V51.845H586.621V32.123C586.689 30.7804 586.457 29.4397 585.941 28.1981C585.493 27.3573 584.804 26.6697 583.961 26.2239C583.118 25.7782 582.162 25.5946 581.214 25.6968C579.971 25.6033 578.731 25.9077 577.673 26.566C576.616 27.2243 575.795 28.2022 575.332 29.3578C574.729 30.9321 574.448 32.6108 574.504 34.2953V51.845H566.019V19.4805H574.236V24.2125C575.057 22.8499 576.099 21.6332 577.32 20.6121C579.246 19.2451 581.571 18.5543 583.932 18.6475C586.891 18.5218 589.797 19.4556 592.129 21.2807H592.126ZM624.352 20.0799C626.64 21.1123 628.586 22.7757 629.961 24.8746C631.322 26.8832 632.207 29.1758 632.547 31.5777C632.808 33.7128 632.902 35.865 632.828 38.0147H609.19C609.12 39.3503 609.395 40.6814 609.99 41.8797C610.584 43.078 611.477 44.1032 612.584 44.8563C613.995 45.6998 615.618 46.1225 617.261 46.0744C618.588 46.1792 619.915 45.8801 621.068 45.2166C622.222 44.5531 623.147 43.5562 623.722 42.3572H632.384C631.994 44.5971 630.891 46.6517 629.24 48.2165C627.663 49.833 625.756 51.0919 623.65 51.9079C621.543 52.724 619.285 53.0781 617.03 52.9463C612.868 53.0016 608.819 51.5888 605.597 48.9565C602.295 46.2966 600.645 41.9692 600.646 35.9743C600.489 33.632 600.803 31.2818 601.571 29.0631C602.339 26.8443 603.544 24.802 605.116 23.0571C606.64 21.5535 608.456 20.3784 610.452 19.6047C612.448 18.8309 614.582 18.4749 616.722 18.5588C619.345 18.5189 621.947 19.0374 624.354 20.0799H624.352ZM611.661 27.4018C610.389 28.7904 609.596 30.5497 609.398 32.4216H624.018C624.01 31.4588 623.805 30.5079 623.416 29.6269C623.028 28.746 622.463 27.9535 621.757 27.298C620.353 26.1145 618.56 25.4918 616.724 25.5497C615.798 25.4924 614.869 25.6273 613.998 25.946C613.126 26.2648 612.332 26.7605 611.661 27.4018ZM633.783 25.7596V19.7207H638.31V10.6765H646.706V19.7207H651.977V25.7574H646.706V42.8938C646.59 43.7545 646.769 44.6291 647.213 45.3756C648.177 45.8321 649.252 46.0026 650.31 45.8667C650.866 45.8672 651.422 45.847 651.977 45.8062V52.1436L647.956 52.2907C643.948 52.4306 641.209 51.7368 639.739 50.2092C638.689 48.9583 638.176 47.3443 638.31 45.7174V25.7596H633.783ZM678.572 20.0799C680.86 21.1121 682.806 22.7755 684.181 24.8746C685.542 26.8832 686.427 29.1759 686.767 31.5777C687.027 33.7129 687.121 35.8651 687.046 38.0147H663.408C663.337 39.3506 663.613 40.682 664.207 41.8805C664.802 43.079 665.696 44.1039 666.804 44.8563C668.215 45.6999 669.838 46.1226 671.481 46.0744C672.808 46.1781 674.134 45.8786 675.287 45.2151C676.439 44.5517 677.364 43.5554 677.939 42.3572H686.602C686.211 44.5975 685.108 46.6522 683.455 48.2165C681.879 49.8327 679.972 51.0914 677.866 51.9074C675.76 52.7235 673.503 53.0778 671.248 52.9463C667.085 53.0018 663.037 51.589 659.815 48.9565C656.514 46.2966 654.864 41.9692 654.864 35.9743C654.706 33.632 655.021 31.2818 655.789 29.0631C656.556 26.8443 657.762 24.802 659.334 23.0571C660.857 21.5535 662.673 20.3784 664.67 19.6047C666.666 18.8309 668.8 18.4749 670.94 18.5588C673.563 18.5194 676.165 19.0379 678.572 20.0799ZM665.877 27.4018C664.606 28.7908 663.813 30.55 663.616 32.4216H678.236C678.228 31.4588 678.023 30.5078 677.635 29.6268C677.246 28.7458 676.681 27.9533 675.975 27.298C674.571 26.1147 672.778 25.492 670.942 25.5497C670.016 25.4926 669.087 25.6277 668.216 25.9464C667.344 26.2652 666.547 26.7607 665.877 27.4018ZM697.918 41.4939C697.965 42.6588 698.372 43.7805 699.083 44.7048C699.899 45.3619 700.838 45.8504 701.845 46.142C702.852 46.4335 703.906 46.5224 704.948 46.4033C706.318 46.4628 707.684 46.2082 708.941 45.659C709.357 45.4743 709.714 45.1797 709.974 44.807C710.234 44.4343 710.387 43.9977 710.416 43.5444C710.446 43.0911 710.351 42.6383 710.142 42.235C709.933 41.8316 709.617 41.4931 709.229 41.2559C706.358 40.1245 703.386 39.2682 700.352 38.6984C697.523 38.1807 694.854 37.0092 692.558 35.2776C691.778 34.529 691.172 33.6193 690.781 32.6121C690.39 31.6049 690.224 30.5245 690.295 29.4465C690.288 27.9806 690.601 26.5308 691.211 25.1977C691.822 23.8646 692.715 22.6802 693.829 21.7264C696.617 19.4277 700.175 18.2751 703.783 18.5026C707.252 18.3525 710.693 19.1931 713.701 20.9259C715.047 21.8732 716.147 23.1265 716.913 24.5824C717.678 26.0383 718.085 27.655 718.102 29.2993H709.617C709.557 28.367 709.238 27.4699 708.694 26.7094C708.079 26.0807 707.33 25.599 706.502 25.3004C705.674 25.0018 704.79 24.894 703.915 24.985C702.539 24.8702 701.161 25.1709 699.958 25.8483C699.61 26.0625 699.321 26.3589 699.116 26.7114C698.91 27.0639 698.795 27.4615 698.78 27.8692C698.757 28.3061 698.864 28.7401 699.087 29.1164C699.311 29.4926 699.641 29.7942 700.036 29.9831C702.917 31.0139 705.88 31.8 708.894 32.3329C711.7 32.8449 714.321 34.0858 716.495 35.9311C717.313 36.7182 717.958 37.6668 718.388 38.7166C718.819 39.7663 719.026 40.8942 718.996 42.0283C719.037 43.5269 718.733 45.0149 718.11 46.3786C717.487 47.7424 716.561 48.946 715.401 49.8977C712.168 52.1825 708.235 53.2614 704.287 52.9463C699.176 52.9463 695.403 51.8702 692.967 49.7181C691.785 48.7044 690.844 47.4407 690.212 46.0186C689.58 44.5965 689.272 43.0517 689.311 41.4961L697.918 41.4939Z" fill="black"/>
<path d="M209.676 105.386C209.81 106.995 210.382 108.536 211.331 109.842C212.344 110.83 213.562 111.583 214.899 112.046C216.235 112.51 217.657 112.674 219.064 112.525C220.866 112.58 222.666 112.342 224.391 111.819C225.518 111.55 226.518 110.902 227.225 109.984C227.931 109.065 228.302 107.932 228.274 106.773C228.29 106.096 228.122 105.428 227.787 104.84C227.451 104.252 226.962 103.767 226.372 103.437C224.479 102.45 222.443 101.764 220.339 101.402L215.638 100.367C212.292 99.817 209.068 98.689 206.108 97.0339C204.631 95.9741 203.451 94.5515 202.682 92.9031C201.913 91.2547 201.581 89.4358 201.717 87.6216C201.678 85.7866 202.043 83.9654 202.785 82.2875C203.528 80.6095 204.631 79.116 206.016 77.913C209.596 75.0993 214.095 73.7211 218.635 74.0472C222.881 73.9257 227.048 75.2056 230.495 77.6898C232.126 78.9217 233.442 80.5226 234.336 82.3614C235.231 84.2003 235.678 86.2249 235.641 88.2698H226.919C226.915 87.105 226.584 85.9649 225.964 84.9791C225.344 83.9933 224.461 83.2013 223.414 82.6932C221.72 81.9127 219.868 81.5387 218.005 81.6007C215.994 81.5011 213.998 81.9936 212.263 83.0173C211.59 83.429 211.037 84.0115 210.66 84.7058C210.284 85.4 210.097 86.1815 210.119 86.9712C210.096 87.6943 210.284 88.4085 210.659 89.0267C211.035 89.6449 211.581 90.1404 212.233 90.4528C214.082 91.2734 216.018 91.8784 218.005 92.2558L225.629 94.0546C228.328 94.561 230.89 95.6365 233.143 97.2099C234.447 98.2766 235.479 99.6381 236.154 101.182C236.83 102.727 237.129 104.409 237.028 106.092C237.06 107.984 236.663 109.859 235.866 111.575C235.068 113.291 233.892 114.802 232.425 115.996C228.704 118.833 224.087 120.231 219.42 119.935C214.613 120.208 209.855 118.84 205.926 116.054C204.318 114.795 203.033 113.171 202.179 111.316C201.324 109.46 200.924 107.427 201.012 105.386H209.676ZM263.651 87.2996C265.917 88.3236 267.843 89.9738 269.204 92.0562C270.552 94.0489 271.427 96.3233 271.764 98.706C272.021 100.824 272.113 102.959 272.038 105.092H248.639C248.569 106.417 248.842 107.738 249.431 108.927C250.02 110.116 250.905 111.133 252.001 111.879C253.398 112.716 255.005 113.135 256.632 113.088C257.945 113.19 259.258 112.893 260.399 112.235C261.54 111.577 262.455 110.589 263.025 109.4H271.601C271.214 111.622 270.121 113.661 268.486 115.213C266.925 116.816 265.038 118.065 262.953 118.874C260.867 119.684 258.633 120.035 256.4 119.905C252.28 119.96 248.272 118.558 245.083 115.947C241.815 113.308 240.182 109.015 240.182 103.068C240.025 100.744 240.337 98.4122 241.097 96.211C241.858 94.0098 243.052 91.9839 244.609 90.2532C246.116 88.7617 247.914 87.596 249.89 86.8284C251.866 86.0608 253.978 85.7076 256.096 85.7906C258.693 85.7515 261.268 86.2659 263.651 87.2996ZM251.083 94.5633C249.825 95.941 249.041 97.6865 248.847 99.5432H263.319C263.311 98.588 263.108 97.6446 262.723 96.7706C262.338 95.8966 261.779 95.1105 261.081 94.4603C259.69 93.2864 257.916 92.6687 256.098 92.7259C255.181 92.6693 254.262 92.8033 253.399 93.1195C252.536 93.4357 251.747 93.9273 251.083 94.5633ZM294.136 85.8937C294.243 85.9044 294.483 85.9194 294.856 85.9366V94.5547C294.327 94.4975 293.856 94.4588 293.441 94.4388C293.108 94.4205 292.774 94.4105 292.44 94.4088C291.107 94.2445 289.756 94.469 288.548 95.0554C287.34 95.6419 286.327 96.5652 285.631 97.7144C284.876 99.5228 284.543 101.48 284.66 103.437V118.812H276.2V86.6471H284.218V92.2537C285.111 90.6196 286.254 89.1355 287.605 87.8555C289.346 86.4823 291.523 85.7814 293.737 85.8808C293.87 85.8789 294.003 85.8832 294.136 85.8937ZM319.573 86.6471H328.591L316.988 118.812H308.133L296.61 86.6471H306.043L312.732 110.374L319.573 86.6471ZM341.986 82.8113H333.47V75.0496H341.986V82.8113ZM333.47 86.6471H341.986V118.812H333.47V86.6471ZM369.338 98.1866C369.196 97.024 368.781 95.9114 368.129 94.9389C367.613 94.2758 366.94 93.751 366.172 93.4113C365.403 93.0716 364.563 92.9276 363.726 92.9921C362.423 92.9371 361.139 93.3238 360.083 94.0896C359.027 94.8554 358.259 95.9555 357.905 97.2121C357.289 99.1315 357.009 101.143 357.077 103.158C357.011 105.086 357.291 107.011 357.905 108.84C358.264 110.048 359.019 111.101 360.048 111.829C361.076 112.556 362.32 112.916 363.578 112.851C364.353 112.931 365.135 112.829 365.864 112.552C366.592 112.276 367.246 111.833 367.773 111.259C368.655 110.051 369.177 108.619 369.28 107.127H377.856C377.632 109.759 376.671 112.275 375.084 114.386C373.751 116.216 371.979 117.68 369.932 118.644C367.886 119.609 365.63 120.042 363.372 119.905C358.198 119.905 354.392 118.37 351.953 115.301C349.396 111.863 348.104 107.646 348.296 103.364C348.01 98.7181 349.449 94.1304 352.337 90.4828C353.739 88.9359 355.467 87.7203 357.396 86.924C359.325 86.1277 361.406 85.7707 363.49 85.8786C366.991 85.7287 370.452 86.678 373.388 88.5939C375.955 90.4056 377.475 93.6031 377.946 98.1866H369.338ZM404.63 87.2996C406.894 88.324 408.82 89.9741 410.18 92.0562C411.528 94.0489 412.403 96.3233 412.74 98.706C412.999 100.824 413.092 102.959 413.019 105.092H389.616C389.546 106.417 389.818 107.738 390.407 108.927C390.996 110.116 391.881 111.133 392.977 111.879C394.374 112.716 395.981 113.135 397.608 113.088C398.921 113.19 400.234 112.893 401.375 112.235C402.516 111.577 403.432 110.589 404.001 109.4H412.577C412.19 111.622 411.098 113.661 409.462 115.213C407.901 116.816 406.013 118.065 403.928 118.875C401.842 119.684 399.608 120.035 397.375 119.905C393.255 119.959 389.248 118.558 386.059 115.947C382.79 113.308 381.156 109.015 381.158 103.068C381.002 100.744 381.313 98.4124 382.073 96.2113C382.833 94.0101 384.026 91.984 385.583 90.2532C387.091 88.7614 388.889 87.5956 390.865 86.828C392.841 86.0603 394.954 85.7073 397.072 85.7906C399.669 85.7515 402.244 86.2659 404.627 87.2996H404.63ZM392.062 94.5633C390.804 95.941 390.02 97.6865 389.826 99.5432H404.297C404.289 98.588 404.087 97.6446 403.702 96.7706C403.317 95.8966 402.758 95.1105 402.059 94.4603C400.669 93.2864 398.894 92.6687 397.077 92.7259C396.159 92.669 395.239 92.8028 394.376 93.1191C393.513 93.4353 392.724 93.927 392.06 94.5633H392.062ZM436.188 86.2908C438.034 82.1635 440.317 78.2466 442.997 74.6074H449.335L447.534 77.913C445.088 82.3784 443.349 87.1965 442.378 92.1957C441.726 95.7181 441.41 99.2945 441.434 102.877C441.374 108.523 442.261 114.139 444.059 119.49C445.541 123.472 447.356 127.322 449.483 131H443.263L441.169 128.139C439.432 125.737 437.979 123.141 436.838 120.405C434.208 114.745 432.81 108.589 432.739 102.346C432.769 96.8135 433.943 91.3468 436.188 86.2908ZM467.241 75.3157H477.513L492.885 118.812H483.04L480.173 109.87H464.175L461.229 118.812H451.732L467.241 75.3157ZM466.643 102.377H477.77L472.281 85.2583L466.643 102.377ZM498.56 75.3157H507.489V93.2389L524.276 75.3157H536.003L518.176 93.2046L536.919 118.812H525.247L511.863 99.8265L507.489 104.265V118.812H498.56V75.3157ZM548.545 105.386C548.68 106.995 549.253 108.536 550.203 109.842C551.216 110.83 552.434 111.583 553.771 112.046C555.107 112.51 556.529 112.674 557.936 112.525C559.737 112.58 561.536 112.341 563.261 111.819C564.388 111.55 565.389 110.903 566.096 109.984C566.803 109.066 567.174 107.932 567.146 106.773C567.162 106.096 566.993 105.427 566.658 104.84C566.322 104.252 565.833 103.767 565.242 103.437C563.349 102.451 561.315 101.764 559.211 101.402L554.508 100.367C551.163 99.8167 547.939 98.6888 544.98 97.0339C543.503 95.9743 542.322 94.5519 541.553 92.9034C540.784 91.255 540.451 89.436 540.587 87.6216C540.548 85.7866 540.912 83.9654 541.655 82.2875C542.398 80.6095 543.501 79.116 544.886 77.913C548.467 75.0988 552.966 73.7206 557.507 74.0472C561.752 73.9257 565.92 75.2056 569.367 77.6898C570.998 78.9217 572.314 80.5226 573.208 82.3614C574.103 84.2003 574.55 86.2249 574.513 88.2698H565.789C565.784 87.105 565.453 85.9649 564.834 84.9791C564.214 83.9933 563.331 83.2013 562.284 82.6932C560.591 81.9131 558.739 81.539 556.877 81.6007C554.865 81.5007 552.868 81.9932 551.133 83.0173C550.46 83.429 549.907 84.0115 549.53 84.7058C549.154 85.4 548.967 86.1815 548.989 86.9712C548.966 87.6943 549.154 88.4085 549.529 89.0267C549.904 89.6449 550.451 90.1404 551.103 90.4528C552.952 91.2736 554.889 91.8786 556.877 92.2558L564.5 94.0546C567.2 94.5612 569.76 95.6368 572.013 97.2099C573.317 98.2763 574.35 99.6378 575.025 101.182C575.701 102.726 576.001 104.409 575.9 106.092C575.932 107.984 575.534 109.859 574.737 111.575C573.939 113.291 572.762 114.803 571.295 115.996C567.575 118.832 562.958 120.231 558.292 119.935C553.484 120.209 548.725 118.841 544.796 116.054C543.188 114.795 541.903 113.171 541.049 111.316C540.194 109.46 539.794 107.427 539.882 105.386H548.545ZM591.559 86.2908C593.799 91.348 594.971 96.8143 595 102.346C594.929 108.588 593.535 114.743 590.912 120.405C589.772 123.141 588.32 125.736 586.585 128.139L584.497 131H578.288C580.406 127.322 582.213 123.472 583.691 119.493C585.481 114.139 586.365 108.524 586.306 102.879C586.329 99.296 586.014 95.719 585.363 92.1957C584.397 87.1976 582.664 82.3795 580.224 77.913L578.434 74.6074H584.758C587.435 78.2488 589.715 82.1641 591.559 86.2908Z" fill="black"/>
</svg>
