<?xml version="1.0" encoding="utf-8"?>
<!-- Generator: Adobe Illustrator 16.0.0, SVG Export Plug-In . SVG Version: 6.00 Build 0)  -->
<!DOCTYPE svg PUBLIC "-//W3C//DTD SVG 1.1//EN" "http://www.w3.org/Graphics/SVG/1.1/DTD/svg11.dtd">
<svg version="1.1" id="Ebene_1" xmlns="http://www.w3.org/2000/svg" xmlns:xlink="http://www.w3.org/1999/xlink" x="0px" y="0px"
   width="566.929px" height="99.213px" viewBox="0 0 566.929 99.213" enable-background="new 0 0 566.929 99.213"
   xml:space="preserve">
<path fill="#373c41" d="M27.489,12.209c-5.748,1.165-11.921,5.771-14.487,10.806c-2.565,5.035-2.661,6.27-2.661,27.456
  c0,11.304,0.192,20.613,0.477,22.085c1.686,8.622,8.429,15.366,17.05,17.051c2.613,0.474,36.62,0.715,36.62,0.189
  c0-0.382-2.896-11.778-3.039-11.924c-0.048-0.091-6.079-1.421-13.394-2.988c-17.053-3.704-16.528-3.563-17.955-5.272l-1.235-1.477
  v-34.48l1.235-1.494c1.426-1.711,0.902-1.568,17.955-5.272c7.315-1.567,13.346-2.898,13.394-2.994
  c0.144-0.141,3.039-11.541,3.039-11.921C64.488,11.522,29.768,11.736,27.489,12.209z"/>
<path fill="#373c41" d="M82.538,12.283c0.048,0.854,2.707,11.304,2.992,11.589c0.096,0.141,6.602,1.613,14.392,3.276
  s14.724,3.372,15.342,3.704c0.836,0.486,1.54,1.172,2.043,1.996c0.759,1.331,0.854,2.755,0.854,18.048s-0.096,16.72-0.854,18.051
  c-0.519,0.811-1.216,1.496-2.043,1.99c-0.618,0.332-7.505,1.996-15.342,3.709c-7.837,1.709-14.296,3.135-14.392,3.277
  c-0.285,0.281-2.943,10.734-2.992,11.591c0,0.524,3.419,0.614,18.429,0.474c20.709-0.192,20.946-0.241,26.218-3.8
  c3.788-2.611,6.648-6.351,8.17-10.685c1.094-3.186,1.094-3.469,1.094-24.608c0-21.135,0-21.419-1.094-24.602
  c-1.521-4.339-4.382-8.082-8.17-10.688c-5.271-3.563-5.508-3.609-26.218-3.8C85.958,11.666,82.538,11.736,82.538,12.283z"/>
<path fill="#373c41" d="M200.569,69.233c-4.322-15.629-9.833-31.018-14.487-40.66l-2.47-4.987h-10.354l-2.326,4.844
  c-3.279,6.839-6.557,15.293-9.929,25.552c-2.28,6.885-6.744,22.277-6.744,23.134c1.263,0.122,2.53,0.171,3.8,0.142h3.752
  l0.521-2.042c0.333-1.094,1.139-4.036,1.852-6.507l1.283-4.516h26.076l1.328,4.754c0.713,2.609,1.522,5.559,1.807,6.506l0.474,1.805
  h3.752c2.089,0,3.8-0.051,3.8-0.142C202.706,77.021,201.756,73.508,200.569,69.233z M178.481,56.361
  c-5.745,0-10.447-0.191-10.447-0.383c0-0.807,4.795-13.585,7.124-19.045c1.805-4.227,2.707-5.748,3.324-5.748
  c0.618,0,1.568,1.759,3.708,6.746c2.326,5.461,6.743,17.434,6.743,18.239C188.932,56.262,184.23,56.361,178.481,56.361z"/>
<polygon fill="#373c41" points="207.456,50.422 207.456,77.258 215.056,77.258 215.056,23.587 207.456,23.587 "/>
<path fill="#373c41" d="M224.554,24.205c-0.89,0.594-1.61,1.413-2.089,2.373c-0.761,1.615-0.807,1.996-0.189,3.563
  c0.819,2.384,3.384,3.687,5.794,2.943c2.374-0.759,3.371-2.137,3.371-4.607c0-1.804-0.237-2.329-1.567-3.515
  C228.213,23.492,226.502,23.207,224.554,24.205z"/>
<path fill="#373c41" d="M269.581,56.453c-0.141-10.592-0.189-11.35-1.187-13.25c-1.852-3.42-4.654-5.083-9.83-5.793
  c-2.757-0.38-9.596,0-11.685,0.663c-0.903,0.285-0.95,0.096-0.95-7.076v-7.409h-7.6v26.739v26.79l5.844,0.423
  c3.18,0.192,8.17,0.434,11.017,0.434c4.798,0,5.464-0.101,7.98-1.38c2.969-1.352,5.194-3.942,6.081-7.076
  C269.535,68.377,269.677,63.342,269.581,56.453z M262.076,67.949c-0.71,1.95-3.039,2.848-7.598,2.848
  c-2.096,0.025-4.193-0.102-6.269-0.379l-2.281-0.332V45.528l2.754-0.474c4.228-0.713,9.405-0.665,11.257,0.144
  c0.927,0.337,1.693,1.018,2.136,1.897C262.694,48.711,262.694,66.381,262.076,67.949z"/>
<path fill="#373c41" d="M344.53,45.34c-1.28-4.466-4.984-7.268-10.634-7.931c-2.854-0.333-10.313,0.045-11.829,0.663
  c-0.479,0.144-0.62-1.472-0.62-7.124v-7.361h-7.601v26.788v26.792l4.657,0.232c2.52,0.191,6.885,0.429,9.687,0.619
  c6.512,0.379,10.595-0.664,13.255-3.467c3.417-3.513,3.518-3.945,3.66-15.91C345.246,49.948,345.15,47.335,344.53,45.34z
   M337.313,68.447c-0.807,2.086-7.218,2.994-13.584,1.945l-2.282-0.332V45.528l2.757-0.474c3.8-0.618,9.167-0.665,10.972-0.071
  c0.807,0.286,1.714,0.903,1.945,1.376C337.646,47.31,337.787,67.168,337.313,68.447z"/>
<path fill="#373c41" d="M410.648,24.061c-4.752,0.854-7.171,1.997-9.641,4.466c-3.801,3.8-4.037,5.176-4.037,22.37
  c0,17.199,0.236,18.57,4.088,22.42c1.99,2.041,3.034,2.661,5.937,3.559c3.034,0.952,4.506,1.098,10.877,1.098
  c5.503,0,8.355-0.241,11.209-0.907c1.512-0.302,3.003-0.715,4.465-1.229c0.378-0.242,0.333-1.099-0.242-3.377
  c-0.263-1.148-0.63-2.277-1.089-3.371c-0.191-0.187-1.381-0.045-2.61,0.332c-4.233,1.285-11.643,1.811-16.249,1.235
  c-4.606-0.569-6.314-1.331-7.791-3.185c-0.948-1.23-0.998-1.754-0.998-16.575c0-14.817,0.05-15.342,0.998-16.577
  c1.477-1.852,3.134-2.565,7.791-3.18c4.657-0.62,12.016-0.047,16.249,1.235c1.28,0.379,2.419,0.711,2.561,0.711
  c0.383,0,2.046-6.603,1.759-6.887c-0.146-0.141-1.9-0.666-3.992-1.234C425.754,23.872,414.591,23.347,410.648,24.061z"/>
<polygon fill="#373c41" points="440.667,50.422 440.667,77.258 447.789,77.258 447.789,23.587 440.667,23.587 "/>
<path fill="#373c41" d="M548.487,23.587v7.125v7.124l-2.708-0.285c-1.521-0.141-3.229-0.333-3.799-0.474
  c-1.618-0.287-7.6,0.663-9.309,1.519c-2.214,1.175-4.032,2.976-5.228,5.177c-0.952,1.756-1.043,2.754-1.184,12.443
  c-0.191,12.968,0.187,14.868,3.653,18.239c3.089,2.994,6.749,3.991,12.969,3.563c2.418-0.146,6.411-0.428,8.834-0.568l4.37-0.283
  V23.587H548.487z M548.487,70.086l-1.76,0.332c-3.038,0.62-8.835,0.479-10.497-0.236c-0.853-0.383-1.755-1.049-1.997-1.521
  c-0.231-0.475-0.475-5.51-0.475-11.209c0-11.303,0.102-11.684,2.617-12.493c1.517-0.473,9.878-0.284,11.304,0.24
  c0.757,0.33,0.808,1.376,0.808,12.636V70.086z"/>
<path fill="#373c41" d="M305.683,61.129l-0.142-15.956l-1.33-2.233c-2.661-4.488-8.981-6.577-16.959-5.556
  c-2.126,0.285-4.234,0.681-6.318,1.188c-2.565,0.617-3.183,0.949-2.992,1.566c0.141,0.429,0.474,1.807,0.807,3.135
  c0.333,1.331,0.665,2.518,0.854,2.661c0.191,0.141,2.232-0.096,4.561-0.57c7.931-1.663,13.298-0.904,14.059,1.946
  c0.242,1.27,0.363,2.558,0.384,3.848l0.045,2.664l-4.511-0.242c-12.066-0.617-19.333,3.896-19.429,12.016
  c-0.048,3.85,1.187,6.844,3.752,9.212c2.993,2.763,6.173,3.567,12.299,3.187c2.661-0.142,7.127-0.424,9.93-0.57l5.13-0.333
  L305.683,61.129z M298.273,70.111c-0.242,0-2.661,0.236-5.418,0.523c-7.934,0.756-10.828-0.434-10.828-4.516
  c0-1.754,0.237-2.277,1.423-3.326c1.089-0.797,2.365-1.301,3.705-1.472c1.235-0.142,2.565-0.378,2.943-0.474
  c0.856-0.191,7.696,0.262,8.22,0.595v-0.025C298.793,61.704,298.747,70.111,298.273,70.111z"/>
<path fill="#373c41" d="M381.2,61.392c-0.141-15.103-0.19-15.815-1.189-17.667c-2.701-5.08-8.829-7.361-17.004-6.411
  c-2.122,0.305-4.234,0.716-6.315,1.235c-3.181,0.758-3.468,0.95-3.23,1.852c0.141,0.521,0.523,2.137,0.856,3.515
  c0.524,2.374,0.615,2.518,1.754,2.233c6.371-1.663,12.494-2.139,14.919-1.235c2.232,0.854,2.706,1.804,2.706,5.413v3.42h-5.791
  c-7.459,0-10.881,0.952-14.157,3.896c-2.848,2.565-4.037,5.655-3.659,9.495c0.812,7.793,6.315,11.502,16.198,10.881
  c2.656-0.146,7.122-0.428,9.924-0.568l5.131-0.333L381.2,61.392z M373.696,70.086l-2.706,0.332
  c-5.227,0.666-10.308,0.52-11.638-0.378c-2.661-1.759-2.565-6.365,0.141-7.792c1.85-0.947,6.271-1.612,9.219-1.33
  c1.33,0.096,2.943,0.191,3.699,0.191h1.285V70.086z"/>
<path fill="#373c41" d="M484.742,56.74c-0.142-9.785-0.233-10.735-1.186-12.54c-1.405-2.59-3.578-4.682-6.225-5.985
  c-2.419-1.094-9.545-1.567-12.871-0.854c-2.752,0.57-5.791,2.422-7.358,4.463c-2.425,3.183-2.661,4.75-2.661,16.15
  c0,11.683,0.332,13.063,3.468,16.34c3.039,3.185,4.561,3.658,11.732,3.658c7.357,0,9.021-0.574,12.065-4.086
  C484.601,70.463,484.932,68.755,484.742,56.74z M475.337,69.899c-1.471,1.331-8.164,1.663-10.589,0.474
  c-2.848-1.33-3.18-2.712-3.18-12.826c0-9.69,0.281-10.972,2.751-12.3c1.805-0.998,8.693-0.998,10.594,0
  c2.419,1.234,2.803,2.943,2.803,12.3C477.716,66.432,477.383,68.095,475.337,69.899z"/>
<polygon fill="#373c41" points="223.13,57.547 223.13,77.258 230.255,77.258 230.255,37.835 223.13,37.835 "/>
<path fill="#373c41" d="M490.729,38.452c-0.141,0.38-0.191,7.505-0.09,15.818c0.141,13.679,0.23,15.296,1.037,16.813
  c2.803,5.271,7.557,7.454,15.297,6.934c2.475-0.146,6.507-0.428,8.976-0.568l4.517-0.283V37.835h-7.127v32.251l-2.232,0.332
  c-4.133,0.666-9.258,0.43-10.923-0.428c-0.855-0.474-1.616-0.902-1.662-0.947c-0.051-0.051-0.241-7.031-0.382-15.533L497.9,38.072
  l-3.468-0.141C491.822,37.835,490.92,37.931,490.729,38.452z"/>
<g>
  <g>
    <path fill="#373c41" d="M73.515,49.236c-9.929,0-11.97,0.093-12.162,0.665c-0.151,0.506-0.184,1.042-0.093,1.568
      c0.141,0.805,0.998,0.854,12.159,0.994l11.97,0.097v-3.324H73.515z"/>
  </g>
</g>
</svg>
