<?xml version="1.0" encoding="utf-8"?>
<!-- Generator: Adobe Illustrator 24.2.1, SVG Export Plug-In . SVG Version: 6.00 Build 0)  -->
<svg version="1.1" id="Ebene_1" xmlns="http://www.w3.org/2000/svg" xmlns:xlink="http://www.w3.org/1999/xlink" x="0px" y="0px"
	 viewBox="0 0 198.4 81.2" style="enable-background:new 0 0 198.4 81.2;" xml:space="preserve">
<style type="text/css">
	.st0{fill:#003CA6;}
</style>
<path class="st0" d="M154.9,51.3c0,3.2,2.3,3.8,4.5,3.8c2,0,4.2-0.5,6.2-3.1v-5h-4.3C157,47.1,154.9,48,154.9,51.3z"/>
<path class="st0" d="M93.4,35.4c-3.1,0-5.3,1.1-5.3,3.6v3.5h10.1c0.1-0.7,0.3-2.1,0.2-3.4C98.3,36.3,96.3,35.4,93.4,35.4z"/>
<path class="st0" d="M30.7,51.3c0,3.2,2.3,3.8,4.5,3.8c2,0,4.2-0.5,6.2-3.1v-5H37C32.9,47.1,30.7,48,30.7,51.3z"/>
<path class="st0" d="M0,0v81.2h198.4V0H0z M47.2,59.6h-5.4l-0.4-0.4l0.1-3.2h-0.2c0,0-2.6,4.3-8.2,4.3c-4.2,0-8.2-1.7-8.2-8.5
	c0-6.9,5.2-9.2,10.6-9.2h5.9v-2.7c0-2.7-2-4.3-5.4-4.3c-3.8,0-8.5,0.6-8.5,0.6l-0.4-0.4V31c0,0,4.9-0.6,9.9-0.6
	c4.6,0,10.2,1.2,10.2,8.1V59.6z M76.2,59.6h-5.9V39.3c0-3.2-1.8-3.9-4.1-3.9c-2.1,0-4.1,0.9-6.5,3.7v20.5h-5.9V31h5.5l0.4,0.4
	l-0.1,3.2h0.2c0,0,2.5-4.3,8.2-4.3c4.6,0,8.2,1.8,8.2,8.6V59.6z M104,46.5l-0.6,0.6H88.1v3c0,4.4,2.9,4.9,6.3,4.9
	c3.8,0,7.7-0.6,7.7-0.6l0.4,0.4v4.8c0,0-4.5,0.6-9.5,0.6c-5.1,0-10.8-1.6-10.8-8.4V39.4c0-7.1,5.8-9.1,11.2-9.1
	c5.4,0,11.2,1.8,11.2,9.1C104.6,42.6,104.1,46.2,104,46.5z M126.2,59.6l-5.6-9.6l-7.7,13.1h-7.1l11-18L108.1,31h7l5.5,9.5L126,31h7
	l-8.7,14.2l9,14.5H126.2z M143.6,59.6h-5.9V31h5.9V59.6z M145,26l-1.8-0.2l0,1.8l-1.5-1l-0.9,1.6l-0.9-1.6l-1.5,1l0-1.8l-1.8,0.2
	l0.8-1.6l-1.7-0.7l1.5-1.1l-1.2-1.4l1.8-0.3l-0.4-1.8l1.7,0.6l0.5-1.8l1.2,1.3L142,18l0.5,1.8l1.7-0.6l-0.4,1.8l1.8,0.3l-1.2,1.4
	l1.5,1.1l-1.7,0.7L145,26z M171.4,59.6h-5.4l-0.4-0.4l0.1-3.2h-0.2c0,0-2.6,4.3-8.2,4.3c-4.2,0-8.2-1.7-8.2-8.5
	c0-6.9,5.2-9.2,10.6-9.2h5.9v-2.7c0-2.7-2-4.3-5.4-4.3c-3.8,0-8.5,0.6-8.5,0.6l-0.4-0.4V31c0,0,4.9-0.6,9.9-0.6
	c4.6,0,10.2,1.2,10.2,8.1V59.6z"/>
</svg>
