<?xml version="1.0" standalone="no"?>
<!DOCTYPE svg PUBLIC "-//W3C//DTD SVG 20010904//EN"
  "http://www.w3.org/TR/2001/REC-SVG-20010904/DTD/svg10.dtd">

<svg version="1.0" xmlns="http://www.w3.org/2000/svg"
     width="2250" height="750" viewBox="0 0 1772 750"
     preserveAspectRatio="xMidYMid meet">

  <g transform="translate(-500, 900) scale(0.15, -0.15)"
     fill="#00519e"
     stroke="none">

    <path d="M12453 5629 c-6 -6 -9 -18 -6 -25 3 -8 0 -14 -6 -14 -6 0 -8 -6 -5
-14 3 -8 1 -17 -5 -20 -6 -4 -8 -13 -5 -20 3 -8 1 -17 -5 -20 -6 -4 -8 -13 -4
-21 5 -16 -8 -20 -21 -7 -4 4 -11 7 -14 8 -28 2 -72 17 -72 24 0 5 -7 7 -15 4
-8 -4 -15 -2 -15 3 0 5 -7 10 -15 10 -11 0 -12 -4 -4 -14 6 -7 9 -19 6 -28 -4
-8 -2 -17 4 -21 6 -3 8 -12 5 -20 -3 -7 -1 -16 4 -19 5 -3 8 -19 8 -36 -1 -27
-4 -30 -24 -25 -12 3 -26 1 -29 -5 -4 -5 -17 -9 -28 -8 -12 1 -34 -1 -49 -5
l-27 -8 30 -25 c16 -14 28 -28 25 -30 -3 -3 8 -16 25 -30 16 -14 29 -30 29
-36 0 -5 -3 -7 -7 -4 -3 4 -13 -2 -20 -13 -8 -11 -18 -18 -23 -15 -4 3 -10 -2
-14 -10 -3 -8 -12 -15 -20 -15 -7 0 -16 -7 -20 -15 -3 -8 -10 -14 -15 -13 -5
2 -11 -1 -12 -6 -2 -5 7 -11 21 -13 13 -2 27 -7 30 -11 3 -4 14 -9 25 -10 11
-2 22 -8 23 -13 2 -5 8 -7 13 -3 5 3 9 1 9 -5 0 -6 7 -8 15 -5 19 8 19 -10 0
-29 -8 -8 -11 -17 -8 -21 4 -3 1 -6 -6 -6 -7 0 -9 -4 -6 -10 3 -5 1 -10 -5
-10 -6 0 -8 -4 -5 -10 3 -5 1 -10 -5 -10 -6 0 -8 -4 -5 -10 3 -5 1 -10 -5 -10
-6 0 -8 -4 -5 -10 3 -5 0 -10 -7 -11 -7 0 -3 -4 10 -10 15 -6 30 -5 42 1 11 6
40 9 65 8 l46 -3 -7 -67 c-8 -83 -2 -95 37 -68 16 12 29 18 29 13 0 -4 5 0 11
10 6 9 14 15 19 12 4 -3 11 2 14 11 3 8 10 12 16 9 5 -3 10 -1 10 5 0 6 5 8
10 5 6 -4 8 -11 5 -16 -4 -5 -1 -9 5 -9 6 0 8 -4 5 -10 -3 -5 -2 -10 2 -10 12
0 44 -56 36 -64 -3 -3 -1 -6 5 -6 7 0 11 -3 9 -7 -1 -5 2 -9 7 -11 6 -1 11 5
12 15 2 10 10 23 18 29 9 6 13 14 9 17 -3 4 -1 7 6 7 7 0 9 5 6 10 -3 6 -1 10
4 10 6 0 10 3 9 8 0 4 2 15 6 24 8 17 10 17 37 1 16 -10 29 -21 29 -26 0 -4 5
-5 10 -2 6 3 13 -1 16 -9 3 -9 10 -13 15 -10 5 3 12 -1 15 -9 2 -7 11 -14 18
-14 11 0 13 17 9 76 l-6 77 48 2 c26 1 55 -3 65 -8 10 -6 25 -7 34 -4 13 5 11
15 -14 65 -30 58 -39 96 -21 85 5 -4 11 -1 13 4 2 6 13 12 26 13 12 0 22 5 22
10 0 4 4 6 9 3 5 -4 11 -1 13 4 2 6 13 12 26 13 12 0 22 7 22 15 0 7 -4 11 -9
7 -5 -3 -17 5 -25 17 -9 12 -16 18 -16 13 -1 -6 -9 0 -20 13 -10 13 -22 22
-27 22 -4 -1 -10 7 -14 17 -6 13 2 27 29 51 20 19 30 31 22 26 -8 -4 -5 4 7
17 21 24 22 25 4 36 -10 7 -28 9 -40 6 -12 -3 -27 -1 -34 5 -7 6 -22 9 -33 6
-15 -4 -20 0 -22 20 -1 14 2 27 7 31 5 3 7 14 4 24 -3 10 0 22 6 25 5 4 8 13
5 20 -3 8 -1 17 5 21 16 9 13 22 -4 22 -8 0 -15 -4 -15 -8 0 -8 -57 -23 -63
-17 -2 2 -11 -3 -20 -11 -10 -7 -17 -10 -17 -5 0 5 -4 3 -9 -5 -11 -17 -34 -4
-27 15 3 8 0 14 -5 14 -6 0 -9 9 -6 20 3 11 1 20 -5 20 -6 0 -8 7 -5 15 4 8 2
17 -4 21 -6 3 -8 12 -5 20 10 25 -8 14 -65 -40 l-57 -54 -46 47 c-25 25 -45
50 -45 54 1 15 -7 17 -18 6z"/>
    <path d="M2947 4527 c-12 -4 -51 -8 -87 -8 -61 1 -101 -2 -245 -15 -33 -3 -82
-8 -110 -10 -27 -3 -60 -6 -72 -7 l-23 -2 0 -205 1 -205 24 -18 c26 -19 47
-20 130 -11 256 28 393 37 600 36 216 0 215 0 215 -13 0 -6 8 -8 20 -4 11 4
20 2 20 -4 0 -6 7 -8 15 -5 8 4 15 1 15 -5 0 -6 3 -10 8 -10 23 4 44 -3 62
-21 11 -11 21 -20 23 -19 1 0 23 -20 50 -45 26 -25 44 -46 40 -46 -4 0 1 -6
11 -13 9 -7 18 -22 19 -35 0 -12 5 -22 10 -22 5 0 7 -7 3 -15 -3 -8 -1 -15 5
-15 7 0 9 -10 5 -24 -3 -14 -2 -28 4 -31 6 -4 10 -67 10 -156 l0 -150 -327 0
c-181 0 -350 -3 -378 -6 -27 -2 -61 -6 -75 -7 -14 -2 -33 -6 -42 -10 -9 -4
-22 -5 -28 -1 -5 3 -10 1 -10 -6 0 -6 -8 -9 -20 -6 -11 3 -20 1 -20 -5 0 -6
-7 -8 -15 -5 -8 4 -17 2 -20 -4 -4 -5 -10 -7 -15 -4 -5 3 -11 1 -15 -5 -4 -6
-11 -8 -16 -5 -5 4 -9 1 -9 -5 0 -7 -7 -10 -15 -6 -8 3 -15 1 -15 -5 0 -6 -4
-7 -10 -4 -5 3 -10 2 -10 -3 0 -10 -60 -38 -72 -34 -5 1 -8 -3 -8 -9 0 -5 -4
-8 -9 -5 -5 3 -12 -1 -15 -10 -3 -8 -10 -13 -15 -10 -5 3 -12 -1 -15 -10 -4
-9 -9 -14 -13 -11 -3 4 -14 -5 -25 -18 -11 -14 -23 -23 -27 -20 -10 5 -73 -59
-66 -67 3 -3 -5 -15 -19 -26 -14 -10 -23 -22 -19 -25 3 -4 -2 -9 -11 -13 -9
-3 -14 -9 -11 -14 2 -4 -4 -16 -15 -27 -10 -12 -16 -24 -13 -27 4 -3 1 -6 -5
-6 -7 0 -11 -3 -10 -7 3 -15 -14 -63 -23 -63 -5 0 -6 -7 -3 -15 4 -8 1 -15 -5
-15 -6 0 -8 -6 -5 -14 3 -8 1 -17 -5 -20 -6 -4 -8 -13 -5 -20 3 -8 1 -17 -5
-20 -6 -4 -8 -13 -5 -21 3 -8 2 -20 -2 -27 -11 -16 -14 -59 -14 -178 0 -85 2
-114 14 -210 2 -14 7 -33 11 -42 4 -9 4 -22 0 -28 -3 -5 -1 -10 5 -10 6 0 10
-6 9 -12 0 -7 2 -22 5 -33 4 -11 6 -24 6 -29 -1 -5 3 -12 10 -16 6 -4 12 -17
13 -28 1 -12 6 -22 11 -22 5 0 6 -3 3 -7 -4 -3 0 -11 8 -17 7 -6 15 -18 17
-26 2 -8 12 -22 23 -32 11 -9 17 -17 14 -18 -9 0 84 -94 94 -95 4 0 12 -7 17
-15 5 -8 10 -10 10 -5 0 6 7 1 16 -10 8 -11 16 -18 17 -16 4 8 47 -11 47 -20
0 -6 5 -7 10 -4 6 3 10 1 10 -5 0 -6 4 -9 9 -5 5 3 12 1 16 -5 4 -6 10 -8 15
-5 5 3 11 1 15 -4 3 -6 12 -8 20 -4 8 3 15 0 15 -6 0 -6 7 -8 15 -5 8 4 21 1
29 -5 7 -6 16 -8 19 -5 3 4 14 3 24 -1 52 -22 282 -21 336 0 10 4 21 5 24 1 3
-3 12 -1 19 5 8 6 21 9 29 5 8 -3 15 -1 15 5 0 5 6 9 13 8 6 0 21 2 32 5 11 4
24 6 29 6 5 -1 12 3 16 10 4 6 17 12 28 13 12 1 22 5 22 10 0 4 5 5 10 2 6 -3
10 -1 10 5 0 6 5 8 10 5 6 -3 10 -1 10 6 0 7 3 10 6 6 3 -3 14 3 25 14 11 11
24 17 28 14 5 -2 12 2 15 11 4 9 9 14 13 11 3 -4 12 1 19 11 7 9 17 17 22 17
5 0 21 15 36 33 16 17 33 29 38 25 6 -3 8 -1 5 4 -4 6 12 28 36 49 23 21 41
42 39 47 -1 4 5 10 13 13 8 3 12 10 9 15 -3 5 5 9 17 9 21 0 22 -2 14 -62 -11
-85 -9 -236 3 -251 8 -9 74 -11 256 -9 l246 3 2 997 c2 548 -1 1003 -6 1009
-4 7 -5 24 -2 38 4 16 2 25 -5 25 -6 0 -9 9 -6 20 3 11 1 23 -5 26 -5 3 -7 12
-4 20 3 8 1 14 -5 14 -6 0 -9 6 -7 12 3 7 -2 19 -9 27 -8 7 -12 20 -9 27 3 8
2 14 -3 14 -7 0 -24 29 -31 55 -2 6 -10 15 -19 22 -9 7 -13 13 -10 13 3 0 -22
28 -55 62 -34 34 -65 61 -69 60 -4 -1 -10 5 -13 13 -3 8 -9 13 -14 10 -4 -2
-16 4 -27 15 -12 10 -24 16 -27 13 -3 -4 -6 -1 -6 6 0 7 -4 9 -10 6 -5 -3 -10
-2 -10 2 0 5 -10 9 -22 10 -11 1 -24 7 -28 13 -4 7 -11 11 -16 11 -22 -2 -74
12 -74 20 0 5 -6 6 -14 3 -8 -3 -17 -1 -20 5 -4 6 -13 8 -21 4 -9 -3 -21 0
-29 6 -7 6 -16 8 -19 5 -3 -4 -14 -3 -24 1 -26 12 -60 13 -356 17 -148 2 -278
-1 -290 -5z m654 -564 c13 -16 12 -17 -3 -4 -17 13 -22 21 -14 21 2 0 10 -8
17 -17z m99 -1146 c0 -221 0 -225 -22 -241 -13 -9 -16 -14 -8 -10 8 4 -9 -18
-39 -49 -30 -31 -57 -54 -60 -52 -2 3 -11 -4 -18 -15 -8 -11 -18 -18 -23 -15
-4 3 -11 -2 -14 -11 -3 -8 -10 -12 -16 -9 -5 3 -10 1 -10 -5 0 -6 -4 -8 -10
-5 -5 3 -10 2 -10 -4 0 -9 -40 -27 -49 -22 -2 2 -7 -2 -10 -8 -4 -6 -16 -12
-26 -14 -11 -1 -26 -6 -32 -10 -7 -5 -17 -5 -23 -2 -5 3 -10 1 -10 -5 0 -8 -9
-10 -24 -6 -14 3 -27 3 -29 -1 -4 -7 -233 -9 -247 -3 -3 1 -13 2 -22 1 -10 -1
-18 1 -18 6 0 4 -12 9 -27 10 -15 0 -29 6 -31 12 -2 6 -8 9 -13 5 -5 -3 -9 0
-9 6 0 6 -5 8 -10 5 -6 -3 -13 1 -16 9 -3 9 -9 14 -14 11 -4 -2 -20 9 -35 25
-16 17 -26 30 -22 30 4 0 -2 9 -13 20 -11 11 -20 27 -20 35 0 25 -1 29 -12 42
-5 7 -7 17 -3 23 4 6 1 17 -5 25 -8 9 -10 37 -6 82 3 37 5 78 6 91 0 12 5 22
10 22 5 0 7 7 4 15 -4 8 -1 15 7 15 7 0 10 3 6 6 -8 9 21 64 34 64 6 0 8 4 5
9 -3 4 6 19 19 31 14 13 25 19 25 14 0 -5 5 -1 11 9 6 9 14 15 20 12 5 -4 9
-1 9 6 0 7 3 10 6 6 4 -3 13 1 21 9 9 8 22 13 29 10 8 -3 14 -1 14 5 0 6 7 9
15 6 8 -4 17 -2 21 4 3 6 12 8 20 5 7 -3 16 0 20 5 3 6 19 8 35 5 15 -3 31 -2
33 3 3 4 136 9 296 10 l290 2 0 -224z"/>
    <path d="M5934 4527 c-9 -5 -22 -6 -29 -3 -8 3 -17 0 -21 -5 -3 -6 -15 -9 -25
-6 -11 3 -19 1 -19 -5 0 -5 -6 -8 -12 -6 -7 3 -24 -1 -37 -8 -14 -7 -28 -11
-33 -8 -4 3 -8 0 -8 -6 0 -7 -7 -10 -15 -6 -8 3 -15 1 -15 -5 0 -6 -4 -7 -10
-4 -5 3 -10 1 -10 -5 0 -6 -4 -8 -10 -5 -5 3 -10 1 -10 -5 0 -6 -4 -8 -10 -5
-5 3 -10 1 -10 -5 0 -6 -4 -8 -10 -5 -5 3 -10 1 -10 -5 0 -6 -4 -9 -9 -6 -5 3
-12 -1 -15 -10 -3 -8 -10 -13 -15 -10 -5 3 -12 -1 -15 -10 -3 -8 -10 -13 -15
-10 -5 3 -12 -1 -15 -9 -3 -8 -9 -14 -14 -13 -4 2 -23 -13 -41 -32 -18 -19
-29 -28 -25 -20 4 8 -9 -1 -29 -19 -39 -36 -46 -47 -24 -36 6 4 -3 -7 -21 -24
-18 -17 -29 -31 -25 -31 5 -1 -2 -9 -14 -19 -12 -10 -19 -21 -16 -25 4 -3 -2
-6 -11 -6 -17 0 -18 8 -12 98 3 53 8 115 12 137 4 32 1 46 -16 67 l-21 27
-247 3 -247 3 3 -1277 2 -1277 263 -3 262 -3 -3 914 -2 914 33 31 c18 17 24
24 13 16 -12 -8 1 9 29 38 50 53 67 66 45 35 -7 -10 4 0 24 22 20 22 40 39 46
38 5 -2 14 6 20 17 6 11 15 18 19 15 5 -3 12 2 15 11 3 8 10 13 15 10 5 -3 12
1 15 10 3 8 10 12 16 9 5 -3 10 -1 10 5 0 6 5 8 10 5 6 -3 10 -1 10 5 0 6 5 8
10 5 6 -3 10 -1 10 5 0 6 4 9 9 6 5 -4 11 -2 13 4 1 5 12 11 23 13 11 1 26 6
33 10 6 5 17 5 22 2 6 -3 10 -1 10 4 0 12 6 13 145 13 136 0 145 -1 145 -12 0
-5 7 -7 15 -4 8 4 15 1 15 -5 0 -6 3 -10 8 -9 14 4 52 -13 52 -23 0 -6 4 -8 9
-5 4 3 19 -6 31 -19 13 -14 19 -25 14 -25 -5 0 -1 -5 9 -11 9 -6 15 -14 12
-20 -4 -5 -1 -9 5 -9 6 0 9 -4 6 -9 -4 -5 -1 -11 4 -13 6 -2 13 -17 15 -33 2
-17 5 -32 6 -35 10 -22 12 -166 15 -987 l4 -933 255 0 255 0 2 968 c1 532 0
976 -1 987 -1 11 -4 36 -5 55 -2 19 -6 43 -11 53 -4 9 -5 24 -1 32 3 8 0 15
-5 15 -6 0 -9 9 -6 20 3 11 1 23 -5 26 -5 3 -7 12 -4 20 3 8 1 14 -5 14 -6 0
-9 6 -6 14 3 8 1 16 -4 18 -5 2 -11 13 -12 26 0 12 -5 22 -10 22 -4 0 -5 5 -2
10 3 6 1 10 -5 10 -6 0 -8 5 -5 10 3 6 1 10 -5 10 -6 0 -9 4 -6 9 3 5 -1 12
-10 15 -8 3 -13 10 -10 15 3 5 -1 12 -9 15 -8 3 -14 9 -13 13 1 4 -19 29 -45
54 -26 26 -47 44 -47 40 -1 -3 -9 4 -19 16 -10 12 -21 19 -25 16 -3 -4 -6 -1
-6 5 0 7 -3 11 -7 10 -13 -4 -73 24 -73 33 0 5 -7 6 -15 3 -8 -4 -15 -1 -15 5
0 6 -7 8 -15 5 -8 -4 -15 -1 -15 5 0 6 -6 8 -14 5 -8 -3 -17 0 -21 5 -3 6 -11
9 -16 6 -5 -4 -15 -3 -21 2 -17 10 -37 12 -211 15 -82 2 -155 -1 -163 -5z"/>
    <path d="M8144 4527 c-9 -5 -26 -6 -39 -3 -13 3 -27 1 -30 -5 -4 -5 -17 -9
-28 -8 -12 1 -30 -2 -41 -6 -10 -4 -31 -8 -47 -9 -16 -1 -29 -5 -29 -10 0 -4
-6 -6 -14 -3 -7 3 -18 1 -22 -3 -5 -5 -18 -11 -29 -13 -11 -1 -26 -6 -32 -10
-7 -5 -13 -5 -13 0 0 4 -4 2 -9 -5 -4 -7 -18 -14 -29 -15 -12 -1 -22 -5 -22
-10 0 -4 -4 -5 -10 -2 -5 3 -10 1 -10 -6 0 -7 -3 -10 -6 -6 -3 3 -15 -3 -27
-13 -11 -11 -24 -17 -29 -14 -4 3 -8 0 -8 -7 0 -7 -3 -10 -6 -6 -4 3 -15 -4
-25 -16 -10 -12 -18 -18 -19 -13 0 5 -9 -3 -21 -18 -11 -14 -24 -24 -28 -21
-10 6 -63 -49 -55 -57 3 -4 -6 -14 -20 -23 -14 -10 -23 -21 -20 -26 3 -5 -2
-12 -10 -15 -9 -3 -14 -9 -11 -14 2 -4 -4 -16 -15 -27 -10 -12 -16 -24 -13
-27 4 -3 1 -6 -6 -6 -7 0 -9 -4 -6 -10 3 -5 2 -10 -2 -10 -5 0 -10 -10 -10
-22 -1 -13 -7 -24 -12 -26 -5 -2 -7 -10 -4 -18 3 -8 0 -14 -6 -14 -6 0 -8 -6
-5 -14 3 -8 0 -17 -5 -21 -6 -3 -9 -11 -6 -16 4 -5 3 -14 -1 -21 -15 -24 -16
-74 -20 -757 -2 -485 0 -699 8 -708 5 -7 8 -19 5 -28 -4 -8 -2 -17 4 -21 6 -3
8 -12 5 -20 -3 -7 -1 -16 5 -20 6 -3 8 -12 5 -19 -3 -8 0 -15 5 -17 5 -2 11
-13 12 -26 0 -12 4 -22 8 -22 7 0 31 -53 31 -67 0 -4 6 -12 14 -16 8 -5 12
-12 9 -17 -3 -4 2 -10 10 -14 8 -3 15 -9 15 -14 0 -12 92 -106 103 -107 5 0
14 -8 21 -17 7 -10 16 -15 19 -11 4 3 9 -2 13 -11 3 -9 10 -13 15 -10 5 3 9 0
9 -5 0 -6 3 -10 8 -9 12 4 72 -24 72 -34 0 -5 5 -6 10 -3 6 3 10 1 10 -4 0 -6
3 -10 8 -10 4 1 9 0 12 -1 3 -1 13 -3 23 -5 10 -2 26 -7 35 -11 9 -4 20 -8 24
-8 3 -1 9 -4 13 -8 4 -4 13 -4 20 -2 7 3 16 1 19 -5 4 -6 13 -8 21 -4 9 3 21
0 29 -6 7 -6 16 -8 19 -5 3 4 14 3 24 -1 10 -5 32 -9 48 -10 17 -2 68 -6 115
-11 102 -9 189 -9 375 1 238 12 354 20 455 31 25 3 65 6 89 8 23 2 47 8 52 13
5 5 10 103 11 218 4 262 11 252 -167 229 -38 -5 -67 -8 -190 -20 -223 -21
-568 -23 -580 -3 -3 4 -12 6 -20 2 -9 -3 -21 0 -29 6 -7 6 -16 8 -19 5 -3 -3
-12 -2 -19 2 -7 5 -22 10 -33 11 -11 2 -22 8 -23 13 -2 6 -8 8 -13 4 -5 -3 -9
0 -9 6 0 6 -4 9 -9 5 -6 -3 -14 3 -20 12 -6 10 -11 14 -11 8 0 -5 -18 8 -40
30 -21 21 -37 42 -34 47 3 4 0 8 -7 8 -7 0 -10 3 -6 6 3 4 -1 13 -9 21 -8 8
-12 19 -9 24 4 5 1 9 -5 9 -7 0 -10 7 -6 15 3 8 0 15 -5 15 -6 0 -9 9 -6 20 3
11 1 22 -4 26 -5 3 -9 19 -9 37 0 18 -3 105 -6 195 l-6 162 694 0 695 0 22 24
c13 14 25 41 27 63 2 21 6 56 8 78 20 178 24 254 28 473 2 107 0 196 -5 199
-4 3 -7 15 -6 26 1 12 -1 29 -5 38 -4 9 -8 27 -10 41 -1 13 -6 29 -10 36 -4 7
-4 12 0 12 3 0 1 7 -6 15 -7 8 -9 15 -4 15 5 0 5 4 -1 8 -10 7 -47 80 -43 85
1 1 -9 15 -22 30 -14 16 -23 30 -20 31 3 2 -10 15 -27 30 -18 15 -32 33 -30
39 1 7 -3 11 -10 10 -6 -2 -23 11 -37 28 -14 17 -26 27 -26 22 -1 -4 -8 1 -18
13 -9 11 -21 21 -27 22 -5 1 -17 8 -27 16 -9 8 -19 12 -22 9 -3 -4 -6 -1 -6 6
0 7 -4 9 -10 6 -5 -3 -10 -1 -10 5 0 6 -4 8 -10 5 -5 -3 -10 -1 -10 5 0 6 -4
8 -10 5 -5 -3 -10 -2 -10 2 0 5 -10 10 -22 10 -13 1 -24 7 -26 12 -2 5 -10 7
-18 4 -8 -3 -14 0 -14 6 0 6 -7 8 -15 5 -8 -4 -15 -1 -15 5 0 6 -6 8 -14 5 -8
-3 -17 -1 -20 5 -4 6 -13 8 -20 5 -8 -3 -17 -1 -20 5 -4 6 -13 8 -21 5 -8 -3
-20 -2 -27 2 -6 4 -23 9 -37 10 -15 2 -44 5 -66 8 -71 9 -416 11 -431 3z m361
-450 c27 -3 51 -10 53 -16 2 -5 10 -7 18 -4 8 3 14 0 14 -6 0 -6 3 -10 8 -9
13 4 52 -13 52 -23 0 -5 4 -8 8 -7 4 2 24 -14 45 -34 21 -21 34 -38 30 -38 -4
0 1 -6 11 -13 9 -7 18 -22 19 -35 0 -12 5 -22 10 -22 5 0 7 -7 4 -15 -4 -8 -2
-17 2 -20 5 -2 7 -69 5 -147 -2 -79 -4 -157 -4 -175 0 -18 -5 -35 -10 -38 -6
-4 -8 -11 -5 -16 4 -6 -165 -8 -447 -7 l-453 3 0 165 c1 179 8 253 24 258 6 2
9 8 5 13 -3 5 0 9 6 9 6 0 8 5 5 10 -3 6 -1 10 4 10 6 0 11 6 11 13 0 15 60
76 60 61 0 -5 5 -1 11 9 6 9 14 15 20 12 5 -4 9 -1 9 5 0 6 5 8 10 5 6 -3 10
-1 10 5 0 6 4 9 9 6 5 -4 11 -1 13 5 2 6 16 12 31 12 15 1 27 6 27 11 0 4 9 6
20 3 11 -3 23 -1 26 5 3 5 17 7 29 4 13 -3 27 -1 30 5 7 10 181 8 280 -4z"/>
    <path d="M14037 4527 c-12 -4 -51 -8 -87 -8 -61 1 -100 -2 -255 -15 -33 -3
-78 -7 -100 -9 -90 -7 -84 10 -87 -227 -2 -160 0 -212 10 -220 16 -13 81 -18
88 -6 3 5 22 9 42 9 20 -1 64 2 97 5 33 3 85 8 115 10 207 19 537 27 545 14 3
-6 17 -7 30 -4 12 3 26 1 30 -5 3 -6 11 -9 16 -6 5 4 15 3 22 -2 6 -4 21 -9
32 -10 11 -2 22 -8 23 -13 2 -6 8 -8 13 -4 5 3 9 0 9 -6 0 -6 5 -8 10 -5 6 3
10 1 10 -5 0 -6 5 -8 10 -5 6 3 13 -1 16 -9 3 -9 9 -14 13 -11 4 2 25 -14 46
-35 22 -22 36 -40 32 -40 -4 0 2 -9 13 -20 18 -18 25 -39 21 -62 0 -5 4 -8 10
-8 5 0 9 -8 8 -17 -1 -10 0 -22 1 -28 1 -5 2 -83 3 -173 l2 -163 -330 0 c-355
-1 -391 -2 -417 -14 -10 -4 -25 -5 -33 -2 -8 4 -17 1 -21 -4 -3 -6 -15 -9 -25
-6 -10 3 -22 1 -25 -5 -3 -5 -12 -7 -20 -4 -7 3 -16 1 -20 -5 -3 -6 -12 -8
-20 -5 -8 3 -14 1 -14 -5 0 -6 -6 -9 -14 -6 -8 3 -16 2 -18 -3 -2 -4 -12 -10
-23 -12 -11 -1 -23 -7 -26 -11 -3 -4 -16 -9 -27 -10 -12 -1 -22 -5 -22 -10 0
-4 -4 -5 -10 -2 -5 3 -10 1 -10 -6 0 -7 -3 -10 -6 -6 -3 3 -15 -3 -27 -13 -11
-11 -23 -17 -27 -15 -5 3 -11 -2 -14 -11 -4 -9 -9 -14 -13 -10 -3 3 -13 -3
-20 -14 -8 -11 -17 -19 -21 -18 -4 2 -33 -23 -66 -56 -32 -32 -52 -55 -45 -52
8 4 3 -2 -10 -13 -13 -12 -19 -21 -15 -21 5 0 2 -6 -7 -13 -9 -7 -17 -15 -18
-19 -7 -25 -45 -104 -52 -106 -4 -2 -5 -10 -2 -18 3 -8 0 -14 -6 -14 -6 0 -8
-7 -5 -15 4 -8 1 -15 -5 -15 -6 0 -8 -6 -5 -14 3 -8 1 -17 -4 -20 -6 -3 -8
-15 -5 -25 3 -10 0 -22 -6 -25 -5 -4 -8 -13 -4 -21 3 -8 2 -23 -2 -32 -4 -10
-6 -79 -5 -153 2 -151 4 -187 15 -212 4 -9 4 -21 1 -27 -4 -5 -1 -13 5 -16 5
-4 8 -13 5 -21 -3 -7 -1 -16 5 -20 6 -3 8 -12 5 -19 -3 -8 -1 -15 4 -17 4 -2
10 -12 12 -23 1 -11 5 -22 8 -25 11 -11 42 -79 39 -84 -2 -3 5 -12 16 -20 11
-9 16 -16 11 -16 -5 0 3 -9 18 -21 14 -11 24 -24 21 -28 -6 -10 29 -43 37 -35
3 3 15 -6 26 -20 10 -14 22 -23 25 -19 4 3 9 -2 13 -11 3 -9 9 -14 14 -11 4 2
17 -5 28 -16 12 -11 22 -18 22 -15 0 3 14 0 30 -5 17 -6 30 -15 30 -20 0 -4 7
-6 15 -3 8 4 15 1 15 -5 0 -6 6 -8 14 -5 8 3 17 1 20 -5 4 -6 13 -8 20 -5 8 3
17 1 20 -5 4 -6 13 -8 21 -4 8 3 23 2 33 -2 49 -21 298 -21 330 -1 7 4 19 5
27 2 8 -3 17 -1 21 5 3 6 12 8 20 5 7 -3 16 -1 20 5 3 6 12 8 20 5 8 -3 14 -1
14 5 0 6 7 9 15 5 8 -3 15 -1 15 5 0 6 7 9 15 5 8 -3 15 -1 15 5 0 6 5 7 10 4
6 -3 10 -2 10 3 0 9 78 46 93 43 4 0 7 4 7 10 0 5 4 8 9 5 5 -3 12 1 15 10 3
8 10 13 15 10 5 -3 12 1 15 10 3 8 10 13 15 10 5 -3 16 5 25 19 9 14 20 24 24
23 4 -1 34 25 67 57 33 32 53 55 45 51 -8 -4 -1 5 15 20 17 15 28 30 26 33 -3
3 2 7 10 9 11 2 15 -18 17 -101 2 -57 -1 -121 -6 -144 -15 -65 -7 -67 281 -73
l247 -5 -4 985 c-4 972 -5 1038 -21 1073 -4 10 -5 21 -1 24 3 3 1 12 -4 19 -6
6 -10 16 -9 20 1 5 -2 18 -5 29 -4 11 -6 24 -6 29 1 5 -3 12 -10 16 -6 4 -12
17 -13 28 -1 12 -6 22 -11 22 -5 0 -6 3 -3 7 4 3 0 11 -8 17 -7 6 -15 18 -17
26 -2 8 -10 20 -18 27 -8 6 -15 15 -15 20 -1 11 -77 87 -88 88 -5 0 -14 8 -21
17 -7 10 -16 15 -19 11 -4 -3 -9 2 -13 11 -3 9 -10 13 -15 10 -5 -3 -9 0 -9 5
0 6 -3 10 -7 10 -13 -3 -73 22 -73 30 0 4 -10 8 -22 8 -13 1 -24 7 -26 12 -2
5 -10 7 -18 4 -8 -3 -14 -1 -14 3 0 5 -15 10 -32 11 -18 2 -34 7 -36 12 -2 5
-11 7 -21 4 -10 -3 -22 0 -25 6 -4 5 -13 8 -21 4 -8 -3 -23 -2 -32 2 -28 12
-72 14 -351 17 -145 2 -273 -1 -285 -5z m735 -1717 l3 -231 -33 -25 c-18 -14
-30 -29 -27 -34 2 -4 -3 -14 -13 -21 -16 -13 -16 -12 -3 6 7 11 -5 0 -27 -25
-23 -25 -42 -40 -42 -35 0 6 -5 2 -11 -8 -6 -9 -14 -15 -19 -12 -4 3 -11 -2
-14 -11 -3 -8 -10 -12 -16 -9 -5 3 -10 1 -10 -5 0 -6 -4 -8 -10 -5 -5 3 -10 1
-10 -5 0 -6 -4 -8 -10 -5 -5 3 -10 1 -10 -5 0 -6 -4 -8 -10 -5 -5 3 -10 1 -10
-5 0 -7 -7 -10 -15 -6 -8 3 -15 1 -15 -5 0 -6 -7 -9 -15 -5 -8 3 -15 1 -15 -5
0 -6 -7 -9 -15 -6 -8 4 -17 1 -21 -4 -3 -6 -15 -9 -25 -6 -10 3 -21 2 -23 -2
-6 -9 -228 -7 -243 2 -6 4 -18 4 -26 1 -8 -3 -18 -1 -21 5 -4 6 -13 8 -21 4
-8 -3 -15 0 -15 6 0 6 -3 10 -7 9 -14 -4 -53 13 -53 23 0 5 -3 8 -8 7 -4 -2
-24 14 -45 35 -21 20 -34 37 -30 37 4 0 -1 6 -11 13 -9 7 -18 22 -19 35 0 12
-5 22 -10 22 -5 0 -7 7 -4 15 4 8 3 16 -1 19 -6 3 -8 201 -2 201 1 0 3 13 5
30 2 16 9 31 15 33 5 2 8 8 4 13 -3 5 0 9 6 9 6 0 8 5 5 10 -3 6 -1 10 6 10 7
0 9 3 5 7 -8 9 65 84 76 77 4 -3 8 -1 8 5 0 10 38 27 53 23 4 -1 7 2 7 6 0 11
80 36 88 28 3 -3 11 -1 19 5 7 6 21 9 32 6 10 -2 24 -1 31 3 6 4 137 8 290 9
l279 2 3 -231z m-1271 -757 c13 -16 12 -17 -3 -4 -10 7 -18 15 -18 17 0 8 8 3
21 -13z"/>
    <path d="M9663 4465 c0 -8 7 -17 14 -19 8 -3 11 -10 8 -16 -3 -5 -1 -10 5 -10
6 0 9 -4 6 -9 -3 -5 1 -12 10 -15 9 -4 14 -9 11 -12 -3 -3 3 -14 14 -25 11
-11 17 -24 14 -28 -2 -5 2 -12 11 -15 8 -3 12 -10 9 -16 -3 -5 -1 -10 5 -10 6
0 9 -4 6 -9 -3 -5 1 -12 10 -15 9 -4 14 -9 11 -12 -3 -4 3 -15 13 -27 11 -11
17 -23 15 -27 -3 -5 2 -11 11 -14 9 -4 14 -9 11 -12 -3 -3 1 -13 9 -22 8 -10
14 -20 14 -24 0 -5 9 -17 20 -28 12 -12 18 -25 15 -29 -2 -5 2 -12 11 -15 9
-4 14 -9 11 -12 -3 -3 2 -14 11 -25 9 -11 16 -22 15 -24 -2 -3 6 -14 17 -25
12 -12 18 -25 15 -29 -2 -5 2 -12 11 -15 9 -4 14 -9 11 -12 -3 -3 2 -14 11
-25 9 -11 16 -22 15 -24 -2 -3 6 -14 17 -25 12 -12 18 -25 15 -29 -2 -5 2 -12
11 -15 9 -4 14 -9 11 -12 -3 -4 3 -15 13 -27 11 -11 17 -23 15 -27 -3 -5 2
-11 11 -14 8 -3 12 -10 9 -16 -3 -5 -1 -10 5 -10 6 0 9 -4 6 -9 -3 -5 1 -12
10 -15 9 -4 14 -9 11 -12 -3 -4 3 -15 13 -27 11 -11 17 -23 15 -27 -3 -5 2
-11 11 -14 8 -3 12 -10 9 -16 -3 -5 -1 -10 5 -10 6 0 9 -4 6 -9 -3 -5 1 -12
10 -15 9 -4 14 -9 11 -12 -3 -3 3 -14 14 -25 11 -11 17 -24 14 -28 -2 -5 2
-12 11 -15 8 -3 12 -10 9 -16 -3 -5 -1 -10 5 -10 6 0 9 -4 6 -9 -3 -5 1 -12
10 -15 9 -4 14 -9 11 -12 -3 -4 3 -15 13 -27 11 -11 17 -23 15 -27 -3 -5 2
-11 11 -14 9 -4 14 -9 11 -12 -3 -4 3 -15 13 -27 11 -11 17 -23 15 -27 -3 -5
2 -10 10 -14 19 -7 19 -30 0 -50 -9 -8 -16 -19 -15 -23 0 -4 -6 -15 -14 -25
-8 -9 -12 -19 -9 -22 3 -3 -2 -8 -11 -12 -9 -3 -13 -10 -11 -15 3 -4 -3 -17
-15 -29 -11 -11 -19 -22 -17 -25 1 -2 -6 -13 -15 -24 -9 -11 -14 -22 -11 -25
3 -3 -2 -8 -11 -12 -9 -3 -13 -10 -10 -15 3 -5 0 -9 -6 -9 -6 0 -8 -5 -5 -10
3 -6 -1 -13 -9 -16 -9 -3 -13 -10 -11 -15 3 -4 -3 -17 -15 -29 -11 -11 -19
-22 -17 -25 1 -2 -6 -13 -15 -24 -9 -11 -14 -22 -11 -25 3 -3 -2 -8 -11 -12
-9 -3 -13 -10 -10 -15 3 -5 0 -9 -6 -9 -6 0 -8 -5 -5 -10 3 -6 -1 -13 -9 -16
-9 -3 -13 -10 -11 -15 3 -4 -3 -17 -15 -29 -11 -11 -20 -23 -20 -27 0 -5 -6
-15 -14 -25 -8 -9 -12 -19 -9 -22 3 -3 -2 -8 -11 -12 -9 -3 -13 -10 -10 -15 3
-5 0 -9 -6 -9 -6 0 -8 -5 -5 -10 3 -6 -1 -13 -9 -16 -9 -3 -13 -10 -11 -15 3
-4 -3 -17 -15 -29 -11 -11 -19 -22 -17 -25 1 -2 -6 -13 -15 -24 -9 -11 -14
-22 -11 -25 3 -3 -2 -8 -11 -12 -9 -3 -13 -10 -10 -15 3 -5 0 -9 -6 -9 -6 0
-8 -5 -5 -10 3 -6 -1 -13 -9 -16 -9 -3 -13 -10 -11 -15 3 -4 -3 -17 -15 -29
-11 -11 -20 -23 -20 -27 0 -5 -6 -15 -14 -25 -8 -9 -12 -19 -9 -22 3 -3 -2 -8
-11 -12 -9 -3 -13 -10 -10 -15 3 -5 0 -9 -6 -9 -6 0 -8 -5 -5 -10 3 -6 -1 -13
-9 -16 -9 -3 -13 -10 -11 -15 3 -4 -3 -17 -15 -29 -11 -11 -19 -22 -17 -25 1
-2 -6 -13 -15 -24 -9 -11 -14 -22 -11 -25 3 -3 -2 -8 -11 -12 -9 -3 -13 -10
-10 -15 3 -5 0 -9 -6 -9 -6 0 -8 -5 -5 -10 3 -6 -1 -13 -9 -16 -9 -3 -13 -10
-11 -15 3 -4 -3 -17 -14 -28 -11 -11 -17 -22 -14 -25 3 -3 -2 -8 -11 -12 -9
-3 -13 -10 -10 -15 3 -5 0 -9 -6 -9 -6 0 -8 -5 -5 -10 3 -6 -1 -13 -9 -16 -9
-3 -13 -10 -10 -15 3 -5 0 -9 -6 -9 -6 0 -8 -5 -5 -10 3 -6 -1 -13 -9 -16 -9
-3 -14 -9 -11 -14 2 -4 -4 -16 -15 -27 -10 -12 -16 -23 -13 -27 3 -3 -2 -8
-11 -12 -9 -3 -13 -10 -10 -15 3 -5 0 -9 -6 -9 -6 0 -8 -5 -5 -10 3 -6 -1 -13
-9 -16 -9 -3 -13 -10 -10 -15 3 -5 0 -9 -6 -9 -6 0 -8 -5 -5 -10 3 -6 -1 -13
-9 -16 -9 -3 -14 -10 -11 -14 3 -5 1 -11 -5 -15 -33 -20 17 -25 304 -27 173
-2 312 0 309 5 -2 4 1 7 7 7 6 0 8 5 5 10 -3 6 1 13 9 16 9 3 13 10 10 15 -3
5 0 9 6 9 6 0 9 4 6 8 -3 5 2 18 12 28 9 11 18 26 20 34 2 8 10 20 17 26 8 6
12 14 8 17 -3 4 -1 7 6 7 7 0 10 4 7 8 -3 5 2 18 12 28 9 11 18 26 20 34 2 8
8 20 15 25 7 6 13 17 15 25 2 8 10 20 17 26 8 6 12 14 8 17 -3 4 -1 7 6 7 7 0
10 4 7 8 -3 5 2 18 12 28 9 11 18 26 20 34 2 8 10 20 17 26 8 6 12 14 8 17 -3
4 -1 7 6 7 7 0 9 5 6 10 -3 6 1 13 9 16 9 3 13 10 10 15 -3 5 0 9 6 9 6 0 9 4
6 8 -3 5 2 18 12 28 9 11 18 26 20 34 2 8 10 20 17 26 8 6 12 14 8 17 -3 4 -1
7 6 7 7 0 9 5 6 10 -3 6 1 13 9 16 9 3 13 10 10 15 -3 5 0 9 6 9 6 0 9 4 6 8
-3 5 2 18 12 28 9 11 18 26 20 34 2 8 10 20 17 26 8 6 12 14 8 17 -3 4 -1 7 6
7 7 0 10 4 7 8 -3 5 2 18 12 28 9 11 18 26 20 34 2 8 8 20 15 25 7 6 13 17 15
25 2 8 10 20 17 26 8 6 12 14 8 17 -3 4 -1 7 6 7 7 0 10 4 7 8 -3 5 4 19 15
30 10 12 19 25 19 29 0 5 5 15 12 24 7 8 14 22 16 30 2 8 10 19 17 25 8 6 12
13 9 16 -2 3 3 9 13 12 9 4 14 4 11 0 -4 -3 2 -15 12 -27 11 -11 17 -24 14
-29 -3 -4 0 -8 7 -8 7 0 9 -3 6 -7 -4 -3 0 -11 8 -17 7 -6 15 -18 17 -26 2 -8
11 -23 20 -34 10 -10 15 -23 12 -28 -3 -4 0 -8 7 -8 7 0 9 -3 6 -7 -4 -3 0
-11 8 -17 7 -6 15 -18 17 -26 2 -8 11 -23 20 -34 10 -10 15 -23 12 -28 -3 -4
0 -8 7 -8 7 0 10 -3 6 -6 -3 -3 3 -14 14 -25 11 -11 17 -24 14 -29 -4 -6 -1
-10 5 -10 6 0 9 -4 6 -9 -3 -5 1 -12 10 -15 8 -3 12 -10 9 -16 -3 -5 -1 -10 6
-10 7 0 9 -3 6 -7 -4 -3 0 -11 8 -17 7 -6 15 -18 17 -26 2 -8 11 -23 20 -34
10 -10 15 -23 12 -28 -3 -4 0 -8 7 -8 7 0 10 -3 6 -6 -3 -3 3 -15 13 -27 11
-11 17 -24 14 -29 -3 -4 0 -8 7 -8 7 0 9 -3 6 -7 -4 -3 0 -11 8 -17 7 -6 15
-18 17 -26 2 -8 11 -23 20 -34 10 -10 15 -23 12 -28 -3 -4 0 -8 7 -8 7 0 9 -3
6 -7 -4 -3 0 -11 8 -17 7 -6 15 -18 17 -26 2 -8 11 -23 20 -34 10 -10 16 -22
14 -25 -2 -3 137 -5 310 -3 327 3 330 3 291 44 -10 10 -15 23 -12 27 2 5 -2
12 -11 15 -9 4 -14 9 -11 12 3 4 -3 15 -13 27 -11 11 -17 23 -15 27 3 5 -2 11
-11 14 -8 3 -12 10 -9 16 3 5 1 10 -5 10 -6 0 -9 4 -6 9 3 5 -1 12 -10 15 -9
4 -14 9 -11 12 3 4 -3 15 -13 27 -11 11 -17 23 -15 27 3 5 -2 11 -11 14 -8 3
-12 10 -9 16 3 5 1 10 -5 10 -6 0 -9 4 -6 9 3 5 -1 12 -10 15 -9 4 -14 9 -11
12 3 3 -3 14 -14 25 -11 11 -17 24 -14 28 2 5 -2 12 -11 15 -9 4 -14 9 -11 12
3 4 -3 15 -13 27 -11 11 -17 23 -15 27 3 5 -2 11 -11 14 -8 3 -12 10 -9 16 3
5 1 10 -5 10 -6 0 -9 4 -6 9 3 5 -1 12 -10 15 -9 4 -14 9 -11 12 3 3 -3 14
-14 25 -11 11 -17 24 -14 28 2 5 -2 12 -11 15 -8 3 -12 10 -9 16 3 5 1 10 -5
10 -6 0 -9 4 -6 9 3 5 -1 12 -10 15 -9 4 -14 9 -11 12 3 3 -3 14 -14 25 -11
11 -17 24 -14 28 2 5 -2 12 -11 15 -9 4 -14 9 -11 12 3 4 -3 15 -13 27 -11 11
-17 23 -15 27 3 5 -2 11 -11 14 -8 3 -12 10 -9 16 3 5 1 10 -5 10 -6 0 -9 4
-6 9 3 5 -1 12 -10 15 -9 4 -14 9 -11 12 3 4 -3 15 -13 27 -11 11 -17 23 -15
27 3 5 -2 11 -11 14 -8 3 -12 10 -9 16 3 5 1 10 -5 10 -6 0 -9 4 -6 9 3 5 -1
12 -10 15 -9 4 -14 9 -11 12 3 3 -3 14 -14 25 -11 11 -17 24 -14 28 2 5 -2 12
-11 15 -9 4 -14 9 -11 12 3 3 -1 13 -9 22 -8 10 -14 20 -14 25 0 4 -9 16 -20
27 -12 12 -18 25 -15 29 2 5 -2 12 -11 15 -9 4 -14 9 -11 12 3 4 0 13 -8 21
-19 19 -19 42 0 49 8 4 12 10 9 15 -3 5 2 12 10 15 9 3 13 10 10 15 -3 5 0 9
6 9 6 0 8 5 5 10 -3 6 1 13 9 16 9 3 13 10 11 15 -3 4 3 17 15 29 11 11 20 23
20 28 0 4 6 14 14 24 8 9 12 19 9 22 -3 3 2 8 11 12 9 3 13 10 11 15 -3 4 3
17 14 28 11 11 17 22 14 25 -3 3 2 8 11 12 9 3 13 10 10 15 -3 5 0 9 6 9 6 0
8 5 5 10 -3 6 1 13 9 16 9 3 14 9 11 14 -2 4 4 16 15 27 10 12 16 23 13 27 -3
3 2 8 11 12 9 3 13 10 10 15 -3 5 0 9 6 9 6 0 8 5 5 10 -3 6 1 13 9 16 9 3 14
9 11 14 -2 4 4 16 15 27 10 12 16 23 13 27 -3 3 2 8 11 12 9 3 13 10 10 15 -3
5 0 9 6 9 6 0 8 5 5 10 -3 6 1 13 9 16 9 3 14 9 11 14 -2 4 4 16 15 27 10 12
16 23 13 27 -3 3 2 8 11 12 9 3 13 10 11 15 -3 4 3 17 15 29 11 11 20 23 20
28 0 4 6 14 14 24 8 9 12 19 9 22 -3 3 2 8 11 12 9 3 13 10 11 15 -3 4 3 17
14 28 11 11 17 22 14 25 -3 3 2 8 11 12 9 3 13 10 10 15 -3 5 0 9 6 9 6 0 8 5
5 10 -3 6 1 13 9 16 9 3 13 10 11 15 -3 4 3 17 14 28 11 11 17 22 14 25 -3 3
2 8 11 12 9 3 13 10 10 15 -3 5 0 9 6 9 6 0 8 5 5 10 -3 6 1 13 9 16 9 3 13
10 11 15 -3 4 3 17 14 28 11 11 17 22 14 25 -3 3 2 8 11 12 9 3 13 10 10 15
-3 5 0 9 6 9 6 0 8 5 5 10 -3 6 0 13 8 16 7 2 14 11 14 19 0 13 -45 15 -309
15 -169 0 -308 -4 -308 -8 0 -5 -9 -18 -20 -30 -11 -12 -20 -24 -20 -27 0 -3
0 -9 0 -13 0 -5 -9 -18 -20 -30 -12 -12 -18 -22 -15 -22 3 0 -2 -13 -12 -30
-9 -16 -21 -30 -26 -30 -4 0 -5 -4 -2 -10 3 -5 1 -10 -5 -10 -6 0 -9 -4 -6 -8
3 -5 -3 -18 -14 -29 -10 -12 -16 -24 -13 -27 4 -3 1 -6 -6 -6 -7 0 -10 -4 -7
-8 3 -5 -3 -18 -14 -29 -10 -12 -16 -24 -13 -27 4 -3 1 -6 -6 -6 -7 0 -10 -4
-7 -8 3 -5 -3 -18 -14 -29 -10 -12 -16 -24 -13 -27 4 -3 1 -6 -6 -6 -7 0 -10
-4 -7 -8 3 -5 -3 -18 -14 -29 -10 -12 -16 -24 -13 -27 4 -3 1 -6 -6 -6 -7 0
-10 -4 -7 -8 3 -5 -3 -18 -14 -29 -10 -12 -16 -24 -13 -27 4 -3 1 -6 -6 -6 -7
0 -10 -4 -7 -8 3 -5 -3 -18 -14 -29 -10 -12 -16 -24 -13 -27 4 -3 1 -6 -6 -6
-7 0 -10 -4 -7 -8 3 -5 -3 -18 -14 -29 -10 -12 -16 -24 -13 -27 4 -3 1 -6 -6
-6 -7 0 -10 -4 -6 -10 3 -5 -3 -18 -14 -29 -11 -11 -17 -22 -14 -25 4 -3 1 -6
-6 -6 -7 0 -10 -4 -6 -10 3 -5 -3 -18 -15 -30 -11 -11 -20 -23 -19 -26 0 -3
-3 -9 -7 -12 -4 -4 -4 -1 0 6 4 6 2 12 -4 12 -6 0 -9 4 -6 9 3 5 -1 12 -10 15
-8 3 -12 10 -9 16 3 5 1 10 -6 10 -7 0 -10 3 -6 6 3 3 -3 15 -13 27 -11 11
-17 24 -14 29 3 4 0 8 -7 8 -7 0 -10 3 -7 6 4 3 -2 14 -13 25 -11 11 -17 24
-14 29 4 6 1 10 -6 10 -7 0 -10 3 -7 6 4 3 -2 14 -13 25 -11 11 -17 24 -14 29
4 6 2 10 -2 10 -5 0 -17 14 -26 30 -10 17 -15 30 -12 30 3 0 -3 10 -14 22 -11
11 -18 25 -15 30 3 4 0 8 -7 8 -7 0 -10 3 -7 6 4 3 -2 14 -13 25 -11 11 -17
24 -14 29 4 6 1 10 -6 10 -7 0 -10 3 -7 6 4 3 -2 14 -13 25 -11 11 -17 24 -14
29 4 6 1 10 -6 10 -7 0 -9 3 -6 7 4 3 0 11 -8 17 -7 6 -15 18 -17 26 -2 8 -11
23 -20 34 -10 10 -15 23 -12 28 3 4 0 8 -7 8 -7 0 -10 3 -6 6 3 3 -3 15 -13
27 -11 11 -17 24 -14 29 3 4 0 8 -7 8 -7 0 -10 3 -6 6 3 3 -3 14 -14 25 -11
11 -17 24 -14 29 4 6 1 10 -6 10 -7 0 -10 3 -6 6 3 3 -3 14 -14 25 -18 18 -37
19 -322 19 -259 0 -304 -2 -304 -15z"/>
    <path d="M12292 3208 l3 -1273 263 -3 262 -2 0 1275 0 1275 -265 0 -265 0 2
-1272z"/>
  </g>
</svg>
