<svg width="2500" height="700" viewBox="0 0 2500 700" fill="none" xmlns="http://www.w3.org/2000/svg">
<path d="M348.986 10.0458C342.773 10.3584 336.685 11.8967 331.08 14.5707L86.7364 131.155C80.4122 134.171 74.8554 138.559 70.4787 143.994C66.1019 149.429 63.0177 155.77 61.4552 162.548L1.17391 424.426C-0.218076 430.459 -0.373858 436.708 0.71578 442.803C1.80542 448.897 4.11834 454.713 7.51766 459.906C8.34191 461.176 9.22839 462.405 10.1739 463.589L179.299 673.571C183.677 679.005 189.234 683.392 195.558 686.406C201.883 689.421 208.811 690.986 215.83 690.984L487.049 690.922C494.065 690.927 500.992 689.367 507.316 686.358C513.641 683.349 519.199 678.968 523.58 673.54L692.643 463.526C697.023 458.09 700.109 451.746 701.673 444.966C703.236 438.186 703.237 431.144 701.674 424.363L641.299 162.485C639.736 155.708 636.652 149.366 632.275 143.932C627.899 138.497 622.342 134.108 616.018 131.093L371.643 14.5707C364.592 11.2071 356.802 9.65122 348.986 10.0458V10.0458Z" fill="#326CE5"/>
<path d="M351.408 99.1663C343.331 99.1671 336.782 106.432 336.783 115.393C336.783 115.531 336.811 115.662 336.814 115.799C336.802 117.016 336.743 118.483 336.783 119.544C336.975 124.712 338.104 128.668 338.783 133.43C340.013 143.622 341.044 152.071 340.408 159.924C339.789 162.885 337.605 165.593 335.658 167.475L335.314 173.654C326.537 174.38 317.702 175.71 308.876 177.711C270.902 186.321 238.206 205.854 213.314 232.227C211.699 231.127 208.873 229.102 208.033 228.482C205.421 228.835 202.782 229.639 199.345 227.64C192.8 223.241 186.839 217.168 179.626 209.853C176.321 206.353 173.928 203.021 170.001 199.648C169.11 198.882 167.749 197.846 166.751 197.058C163.681 194.614 160.061 193.34 156.564 193.22C152.068 193.066 147.74 194.822 144.908 198.369C139.872 204.675 141.484 214.314 148.501 219.901C148.573 219.958 148.648 220.002 148.72 220.057C149.684 220.837 150.865 221.838 151.751 222.491C155.918 225.563 159.725 227.136 163.876 229.575C172.623 234.969 179.875 239.441 185.626 244.834C187.872 247.225 188.265 251.438 188.564 253.26L193.251 257.441C168.158 295.151 156.544 341.731 163.408 389.192L157.283 390.97C155.668 393.052 153.387 396.327 151.001 397.305C143.476 399.672 135.007 400.541 124.783 401.611C119.982 402.01 115.84 401.772 110.751 402.735C109.631 402.947 108.071 403.353 106.845 403.64C106.802 403.649 106.763 403.661 106.72 403.671C106.653 403.686 106.565 403.719 106.501 403.733C97.8812 405.813 92.3436 413.725 94.1263 421.52C95.9095 429.318 104.329 434.059 113.001 432.193C113.064 432.179 113.155 432.176 113.22 432.162C113.318 432.139 113.404 432.092 113.501 432.068C114.71 431.803 116.225 431.508 117.283 431.226C122.286 429.888 125.909 427.922 130.408 426.201C140.084 422.736 148.099 419.84 155.908 418.712C159.169 418.457 162.605 420.721 164.314 421.677L170.689 420.584C185.359 466.003 216.103 502.713 255.033 525.747L252.376 532.113C253.334 534.585 254.39 537.93 253.677 540.371C250.838 547.722 245.976 555.48 240.439 564.13C237.758 568.127 235.014 571.228 232.595 575.801C232.016 576.896 231.279 578.577 230.72 579.733C226.961 587.764 229.718 597.014 236.939 600.485C244.205 603.978 253.223 600.294 257.126 592.247C257.132 592.235 257.152 592.227 257.158 592.215C257.162 592.206 257.154 592.193 257.158 592.184C257.713 591.043 258.501 589.544 258.97 588.471C261.042 583.731 261.732 579.668 263.189 575.084C267.058 565.377 269.184 555.193 274.511 548.847C275.97 547.109 278.348 546.441 280.814 545.782L284.126 539.79C318.064 552.798 356.053 556.289 394.001 547.685C402.658 545.722 411.016 543.182 419.095 540.133C420.026 541.782 421.756 544.952 422.22 545.75C424.726 546.564 427.46 546.985 429.689 550.275C433.674 557.074 436.4 565.118 439.72 574.834C441.177 579.419 441.898 583.481 443.97 588.221C444.442 589.302 445.226 590.822 445.783 591.966C449.677 600.039 458.725 603.736 466.001 600.235C473.221 596.762 475.981 587.514 472.22 579.484C471.661 578.327 470.893 576.646 470.314 575.552C467.894 570.978 465.151 567.908 462.47 563.912C456.933 555.262 452.34 548.077 449.501 540.726C448.314 536.935 449.702 534.577 450.626 532.113C450.072 531.48 448.887 527.899 448.189 526.216C488.646 502.361 518.487 464.282 532.501 420.304C534.394 420.601 537.683 421.182 538.751 421.396C540.951 419.947 542.973 418.057 546.939 418.369C554.747 419.497 562.762 422.393 572.439 425.858C576.937 427.579 580.56 429.576 585.564 430.914C586.621 431.196 588.136 431.46 589.345 431.725C589.442 431.749 589.528 431.796 589.626 431.818C589.692 431.833 589.782 431.835 589.845 431.85C598.517 433.714 606.939 428.975 608.72 421.177C610.501 413.381 604.966 405.468 596.345 403.39C595.091 403.105 593.313 402.622 592.095 402.392C587.006 401.429 582.864 401.666 578.064 401.268C567.839 400.198 559.37 399.328 551.845 396.962C548.777 395.773 546.594 392.127 545.532 390.627L539.626 388.911C542.688 366.788 541.863 343.764 536.564 320.726C531.215 297.475 521.763 276.209 509.157 257.473C510.673 256.097 513.534 253.567 514.345 252.823C514.582 250.202 514.378 247.455 517.095 244.553C522.846 239.16 530.098 234.688 538.845 229.294C542.997 226.855 546.835 225.283 551.001 222.21C551.943 221.515 553.23 220.415 554.22 219.62C561.235 214.032 562.851 204.393 557.814 198.088C552.777 191.783 543.017 191.189 536.001 196.778C535.003 197.567 533.648 198.597 532.751 199.368C528.825 202.741 526.4 206.072 523.095 209.572C515.882 216.887 509.921 222.991 503.376 227.39C500.54 229.039 496.386 228.469 494.501 228.358L488.939 232.321C457.22 199.107 414.034 177.873 367.533 173.748C367.403 171.802 367.232 168.284 367.189 167.226C365.285 165.407 362.985 163.854 362.408 159.924C361.771 152.071 362.834 143.622 364.064 133.43C364.743 128.668 365.871 124.712 366.064 119.544C366.108 118.369 366.037 116.664 366.033 115.393C366.032 106.432 359.485 99.1654 351.408 99.1663H351.408ZM333.095 212.443L328.751 289.053L328.439 289.209C328.148 296.062 322.499 301.535 315.564 301.535C312.723 301.535 310.101 300.624 307.97 299.07L307.845 299.132L244.939 254.602C264.273 235.617 289.002 221.588 317.501 215.126C322.707 213.946 327.911 213.07 333.095 212.443ZM369.751 212.443C403.025 216.529 433.796 231.574 457.376 254.633L394.876 298.882L394.658 298.789C389.11 302.835 381.294 301.831 376.97 296.417C375.199 294.199 374.269 291.592 374.158 288.959L374.095 288.928L369.751 212.443ZM222.126 283.217L279.564 334.519L279.501 334.831C284.686 339.332 285.45 347.142 281.126 352.556C279.355 354.774 276.984 356.262 274.439 356.956L274.376 357.206L200.751 378.426C197.004 344.209 205.08 310.948 222.126 283.217ZM480.283 283.248C488.817 297.061 495.279 312.489 499.126 329.214C502.927 345.739 503.881 362.234 502.314 378.176L428.314 356.894L428.251 356.582C421.625 354.773 417.552 348.042 419.095 341.291C419.727 338.525 421.197 336.185 423.189 334.457L423.158 334.301L480.283 283.248H480.283ZM339.626 338.482H363.158L377.783 356.738L372.533 379.518L351.408 389.66L330.22 379.486L324.97 356.706L339.626 338.482ZM415.064 400.956C416.064 400.906 417.059 400.996 418.033 401.174L418.158 401.018L494.314 413.875C483.168 445.144 461.841 472.232 433.345 490.36L403.783 419.055L403.876 418.93C401.161 412.629 403.878 405.24 410.126 402.235C411.726 401.466 413.397 401.04 415.064 400.956H415.064ZM287.158 401.268C292.969 401.349 298.182 405.377 299.533 411.285C300.165 414.051 299.857 416.791 298.814 419.211L299.033 419.492L269.783 490.079C242.435 472.556 220.653 446.317 209.001 414.125L284.501 401.331L284.626 401.487C285.471 401.331 286.327 401.256 287.158 401.268V401.268ZM350.939 432.193C352.963 432.119 355.018 432.533 356.97 433.472C359.53 434.703 361.507 436.641 362.751 438.965H363.033L400.251 506.119C395.421 507.736 390.455 509.118 385.376 510.269C356.912 516.723 328.538 514.768 302.845 506.025L339.97 438.996H340.033C342.26 434.837 346.485 432.356 350.939 432.193Z" fill="white" stroke="white" stroke-width="0.25"/>
<path d="M975.28 372.16C980.8 366.4 986.68 360.28 992.92 353.8C999.16 347.08 1005.28 340.48 1011.28 334C1017.28 327.28 1022.92 320.92 1028.2 314.92C1033.72 308.68 1038.4 303.28 1042.24 298.72H1093.72C1081.72 312.16 1069 326.08 1055.56 340.48C1042.36 354.88 1029.04 368.92 1015.6 382.6C1022.8 388.6 1030.36 395.92 1038.28 404.56C1046.2 412.96 1053.88 421.96 1061.32 431.56C1068.76 441.16 1075.72 450.76 1082.2 460.36C1088.68 469.96 1094.08 478.84 1098.4 487H1048C1043.68 479.56 1038.64 471.76 1032.88 463.6C1027.36 455.44 1021.36 447.52 1014.88 439.84C1008.4 432.16 1001.8 424.96 995.08 418.24C988.36 411.28 981.76 405.4 975.28 400.6V487H931.72V214.84L975.28 207.64V372.16ZM1284.44 481.24C1276.04 483.4 1265.12 485.56 1251.68 487.72C1238.24 490.12 1223.48 491.32 1207.4 491.32C1192.28 491.32 1179.56 489.16 1169.24 484.84C1159.16 480.52 1151 474.52 1144.76 466.84C1138.76 459.16 1134.44 450.04 1131.8 439.48C1129.16 428.68 1127.84 416.92 1127.84 404.2V298.72H1171.4V397.36C1171.4 417.52 1174.28 431.92 1180.04 440.56C1186.04 449.2 1196.36 453.52 1211 453.52C1216.28 453.52 1221.8 453.28 1227.56 452.8C1233.56 452.32 1238 451.72 1240.88 451V298.72H1284.44V481.24ZM1464.8 392.32C1464.8 373.84 1461.08 359.2 1453.64 348.4C1446.44 337.6 1434.92 332.2 1419.08 332.2C1411.88 332.2 1405.04 333.28 1398.56 335.44C1392.32 337.6 1387.28 340 1383.44 342.64V451C1386.56 451.72 1390.52 452.44 1395.32 453.16C1400.36 453.64 1406.36 453.88 1413.32 453.88C1429.4 453.88 1442 448.48 1451.12 437.68C1460.24 426.64 1464.8 411.52 1464.8 392.32ZM1509.44 393.04C1509.44 408.16 1507.16 421.84 1502.6 434.08C1498.28 446.08 1491.92 456.4 1483.52 465.04C1475.36 473.68 1465.4 480.28 1453.64 484.84C1441.88 489.4 1428.56 491.68 1413.68 491.68C1399.28 491.68 1385.48 490.6 1372.28 488.44C1359.32 486.28 1348.52 483.88 1339.88 481.24V214.84L1383.44 207.64V305.2C1388.48 302.56 1394.6 300.16 1401.8 298C1409.24 295.84 1417.4 294.76 1426.28 294.76C1439.48 294.76 1451.24 297.16 1461.56 301.96C1472.12 306.52 1480.88 313.12 1487.84 321.76C1494.8 330.4 1500.08 340.84 1503.68 353.08C1507.52 365.08 1509.44 378.4 1509.44 393.04ZM1543.9 393.76C1543.9 377.2 1546.3 362.68 1551.1 350.2C1556.14 337.72 1562.74 327.4 1570.9 319.24C1579.06 310.84 1588.42 304.6 1598.98 300.52C1609.54 296.2 1620.34 294.04 1631.38 294.04C1657.3 294.04 1677.46 302.08 1691.86 318.16C1706.5 334.24 1713.82 358.24 1713.82 390.16C1713.82 392.56 1713.7 395.32 1713.46 398.44C1713.46 401.32 1713.34 403.96 1713.1 406.36H1588.9C1590.1 421.48 1595.38 433.24 1604.74 441.64C1614.34 449.8 1628.14 453.88 1646.14 453.88C1656.7 453.88 1666.3 452.92 1674.94 451C1683.82 449.08 1690.78 447.04 1695.82 444.88L1701.58 480.52C1699.18 481.72 1695.82 483.04 1691.5 484.48C1687.42 485.68 1682.62 486.76 1677.1 487.72C1671.82 488.92 1666.06 489.88 1659.82 490.6C1653.58 491.32 1647.22 491.68 1640.74 491.68C1624.18 491.68 1609.78 489.28 1597.54 484.48C1585.3 479.44 1575.22 472.6 1567.3 463.96C1559.38 455.08 1553.5 444.76 1549.66 433C1545.82 421 1543.9 407.92 1543.9 393.76ZM1670.26 374.32C1670.26 368.32 1669.42 362.68 1667.74 357.4C1666.06 351.88 1663.54 347.2 1660.18 343.36C1657.06 339.28 1653.1 336.16 1648.3 334C1643.74 331.6 1638.22 330.4 1631.74 330.4C1625.02 330.4 1619.14 331.72 1614.1 334.36C1609.06 336.76 1604.74 340 1601.14 344.08C1597.78 348.16 1595.14 352.84 1593.22 358.12C1591.3 363.4 1589.98 368.8 1589.26 374.32H1670.26ZM1927.76 487C1924.4 477.16 1920.92 467.44 1917.32 457.84C1913.72 448.24 1910.24 438.4 1906.88 428.32H1801.76C1798.4 438.4 1794.92 448.36 1791.32 458.2C1787.96 467.8 1784.6 477.4 1781.24 487H1734.08C1743.44 460.36 1752.32 435.76 1760.72 413.2C1769.12 390.64 1777.28 369.28 1785.2 349.12C1793.36 328.96 1801.4 309.76 1809.32 291.52C1817.24 273.28 1825.4 255.28 1833.8 237.52H1876.64C1885.04 255.28 1893.2 273.28 1901.12 291.52C1909.04 309.76 1916.96 328.96 1924.88 349.12C1933.04 369.28 1941.32 390.64 1949.72 413.2C1958.36 435.76 1967.36 460.36 1976.72 487H1927.76ZM1854.32 285.76C1848.8 298.48 1842.44 313.96 1835.24 332.2C1828.28 350.44 1820.96 370.24 1813.28 391.6H1895.36C1887.68 370.24 1880.24 350.32 1873.04 331.84C1865.84 313.36 1859.6 298 1854.32 285.76ZM2035.37 392.32C2035.37 411.52 2039.93 426.64 2049.05 437.68C2058.17 448.48 2070.77 453.88 2086.85 453.88C2093.81 453.88 2099.69 453.64 2104.49 453.16C2109.53 452.44 2113.61 451.72 2116.73 451V343C2112.89 340.36 2107.73 337.96 2101.25 335.8C2095.01 333.4 2088.29 332.2 2081.09 332.2C2065.25 332.2 2053.61 337.6 2046.17 348.4C2038.97 359.2 2035.37 373.84 2035.37 392.32ZM2160.29 481.24C2151.65 483.88 2140.73 486.28 2127.53 488.44C2114.57 490.6 2100.89 491.68 2086.49 491.68C2071.61 491.68 2058.29 489.4 2046.53 484.84C2034.77 480.28 2024.69 473.8 2016.29 465.4C2008.13 456.76 2001.77 446.44 1997.21 434.44C1992.89 422.2 1990.73 408.52 1990.73 393.4C1990.73 378.52 1992.53 365.08 1996.13 353.08C1999.97 340.84 2005.49 330.4 2012.69 321.76C2019.89 313.12 2028.65 306.52 2038.97 301.96C2049.29 297.16 2061.17 294.76 2074.61 294.76C2083.73 294.76 2091.77 295.84 2098.73 298C2105.69 300.16 2111.69 302.56 2116.73 305.2V214.84L2160.29 207.64V481.24ZM2322.91 388C2322.91 368.32 2320.39 354.16 2315.35 345.52C2310.55 336.64 2301.43 332.2 2287.99 332.2C2283.19 332.2 2277.91 332.56 2272.15 333.28C2266.39 334 2262.07 334.6 2259.19 335.08V487H2215.63V304.84C2224.03 302.44 2234.95 300.16 2248.39 298C2262.07 295.84 2276.47 294.76 2291.59 294.76C2304.55 294.76 2315.11 296.44 2323.27 299.8C2331.67 303.16 2338.63 307.6 2344.15 313.12C2346.79 311.2 2350.15 309.16 2354.23 307C2358.31 304.84 2362.87 302.92 2367.91 301.24C2372.95 299.32 2378.23 297.76 2383.75 296.56C2389.51 295.36 2395.27 294.76 2401.03 294.76C2415.67 294.76 2427.67 296.92 2437.03 301.24C2446.63 305.32 2454.07 311.2 2459.35 318.88C2464.87 326.32 2468.59 335.44 2470.51 346.24C2472.67 356.8 2473.75 368.44 2473.75 381.16V487H2430.19V388C2430.19 368.32 2427.79 354.16 2422.99 345.52C2418.19 336.64 2408.95 332.2 2395.27 332.2C2388.31 332.2 2381.71 333.4 2375.47 335.8C2369.23 337.96 2364.55 340.12 2361.43 342.28C2363.35 348.28 2364.67 354.64 2365.39 361.36C2366.11 368.08 2366.47 375.28 2366.47 382.96V487H2322.91V388Z" fill="black"/>
</svg>
