<svg width="628" height="150" viewBox="0 0 628 150" fill="none" xmlns="http://www.w3.org/2000/svg">
<path d="M191.471 79.4216C193.022 77.7384 194.626 75.9852 196.282 74.1618C197.937 72.3385 199.54 70.5323 201.092 68.7432C202.642 66.9541 204.105 65.2533 205.479 63.6407C206.853 62.0276 208.033 60.6246 209.02 59.4319H227.771C224.03 63.7278 220.379 67.8287 216.817 71.7344C213.254 75.6411 209.356 79.6713 205.123 83.825C207.456 85.9594 209.648 88.2433 211.684 90.6622C213.941 93.3139 216.129 96.0528 218.246 98.8789C220.362 101.707 222.302 104.533 224.066 107.359C225.829 110.186 227.31 112.766 228.511 115.097H210.38C209.252 113.258 207.967 111.225 206.523 108.997C205.08 106.77 203.548 104.543 201.928 102.315C200.308 100.089 198.6 97.9498 196.806 95.8986C195.181 94.0147 193.396 92.2752 191.471 90.6995V115.097H175.703V35.5153L191.471 32.9741V79.4216Z" fill="#326CE5"/>
<path d="M283.436 113.193C280.025 114.125 276.562 114.849 273.064 115.362C268.653 116.046 264.194 116.382 259.73 116.368C255.711 116.488 251.706 115.841 247.93 114.462C245.021 113.36 242.449 111.518 240.469 109.118C238.576 106.706 237.239 103.906 236.554 100.917C235.748 97.4837 235.357 93.966 235.39 90.4395V59.4319H251.158V88.5351C251.158 93.6143 251.828 97.2828 253.169 99.5405C254.508 101.8 257.012 102.929 260.682 102.927C261.81 102.927 263.01 102.874 264.281 102.768C265.55 102.662 266.679 102.539 267.667 102.398V59.4319H283.436L283.436 113.193Z" fill="#326CE5"/>
<path d="M350 87.2647C350.056 91.3696 349.393 95.4525 348.042 99.329C346.835 102.767 344.904 105.907 342.381 108.536C339.815 111.138 336.708 113.144 333.279 114.409C329.348 115.843 325.187 116.543 321.004 116.474C319.099 116.474 317.105 116.386 315.024 116.209C312.942 116.032 310.896 115.802 308.886 115.521C306.875 115.238 304.953 114.902 303.118 114.515C301.283 114.129 299.66 113.724 298.25 113.299V35.5153L314.018 32.9741V60.7025C315.789 59.9234 317.632 59.3205 319.521 58.9025C321.538 58.4672 323.597 58.2542 325.66 58.2673C329.26 58.1967 332.833 58.9008 336.137 60.332C339.106 61.6587 341.717 63.6717 343.756 66.2053C345.893 68.9222 347.475 72.0325 348.413 75.3593C349.513 79.2305 350.048 83.2405 350 87.2647V87.2647ZM333.914 86.8412C333.914 76.6813 330.175 71.6016 322.696 71.6021C321.07 71.6025 319.452 71.8161 317.881 72.2374C316.52 72.5664 315.218 73.1014 314.018 73.8241V102.504C314.794 102.646 315.781 102.769 316.981 102.874C318.18 102.98 319.486 103.033 320.897 103.033C322.761 103.152 324.625 102.808 326.323 102.032C328.022 101.257 329.502 100.073 330.633 98.5877C332.966 95.129 334.117 91.0082 333.914 86.8411L333.914 86.8412Z" fill="#326CE5"/>
<path d="M359.524 87.6881C359.432 83.2598 360.204 78.8561 361.799 74.7239C363.154 71.2687 365.187 68.1201 367.779 65.4639C370.2 63.0252 373.101 61.1154 376.298 59.8553C379.445 58.5968 382.803 57.95 386.193 57.9495C394.093 57.9495 400.337 60.366 404.924 65.1992C409.51 70.0324 411.803 77.1404 411.803 86.5233C411.803 87.442 411.766 88.4464 411.698 89.5394C411.626 90.634 411.555 91.6041 411.486 92.4495H375.715C375.855 93.9939 376.336 95.4881 377.123 96.8242C377.91 98.1603 378.984 99.305 380.267 100.176C383.479 102.23 387.253 103.229 391.061 103.033C393.919 103.036 396.771 102.77 399.58 102.239C401.92 101.841 404.21 101.184 406.406 100.282L408.523 113.087C407.431 113.603 406.298 114.028 405.135 114.356C403.587 114.812 402.015 115.183 400.427 115.468C398.697 115.786 396.845 116.05 394.87 116.262C392.902 116.473 390.924 116.579 388.944 116.58C384.486 116.676 380.05 115.922 375.874 114.356C372.397 113.026 369.254 110.949 366.667 108.271C364.21 105.658 362.367 102.531 361.27 99.117C360.081 95.4252 359.491 91.5666 359.524 87.6881V87.6881ZM396.564 81.656C396.494 80.3275 396.263 79.0124 395.875 77.7399C395.504 76.5038 394.893 75.353 394.077 74.3533C393.232 73.34 392.187 72.5116 391.008 71.9196C389.571 71.2406 387.993 70.914 386.405 70.9667C384.84 70.927 383.286 71.2343 381.854 71.8667C380.638 72.4252 379.556 73.2369 378.679 74.2474C377.817 75.2615 377.153 76.4282 376.721 77.687C376.266 78.9767 375.929 80.3052 375.715 81.656L396.564 81.656Z" fill="#326CE5"/>
<path d="M443.974 57.9495C447.915 57.8468 451.846 58.3832 455.615 59.5377C458.436 60.4219 460.998 61.9841 463.076 64.0875C464.976 66.1199 466.34 68.5932 467.045 71.2843C467.853 74.3577 468.244 77.5256 468.209 80.703V113.511C465.951 114.004 462.811 114.586 458.79 115.256C453.957 115.985 449.073 116.321 444.186 116.262C440.898 116.293 437.617 115.974 434.397 115.309C431.696 114.769 429.127 113.708 426.831 112.187C424.734 110.766 423.054 108.811 421.962 106.526C420.758 103.833 420.179 100.902 420.269 97.9539C420.179 95.0772 420.854 92.2281 422.227 89.6983C423.489 87.4859 425.291 85.6293 427.465 84.3015C429.785 82.9093 432.326 81.925 434.979 81.3913C437.867 80.7847 440.811 80.4831 443.762 80.4913C445.583 80.4809 447.402 80.5693 449.212 80.756C450.516 80.8814 451.808 81.1116 453.075 81.4442V79.9618C453.13 78.7769 452.942 77.5934 452.523 76.4834C452.105 75.3735 451.465 74.3605 450.642 73.5062C449.018 71.8853 446.196 71.0741 442.176 71.0725C439.519 71.0716 436.866 71.2663 434.238 71.6548C431.93 71.9698 429.661 72.5191 427.465 73.2944L425.454 60.5965C426.37 60.3147 427.517 60.0147 428.894 59.6965C430.271 59.3789 431.77 59.0965 433.392 58.8495C435.013 58.6035 436.724 58.3917 438.525 58.2142C440.323 58.0398 442.14 57.9516 443.974 57.9495ZM445.245 104.092C446.796 104.092 448.277 104.057 449.689 103.986C450.823 103.943 451.953 103.837 453.075 103.668V91.7101C452.131 91.5212 451.177 91.3799 450.218 91.2865C449.059 91.1516 447.893 91.0809 446.725 91.0748C445.328 91.0697 443.932 91.1581 442.546 91.3394C441.352 91.483 440.19 91.8223 439.107 92.3438C438.166 92.797 437.363 93.4911 436.777 94.3555C436.184 95.3053 435.889 96.4113 435.932 97.5304C435.827 98.5326 436.004 99.5441 436.444 100.451C436.883 101.358 437.567 102.124 438.418 102.663C440.533 103.719 442.884 104.211 445.245 104.092L445.245 104.092Z" fill="#326CE5"/>
<path d="M531.6 113.299C530.188 113.721 528.565 114.126 526.731 114.515C524.897 114.904 522.975 115.24 520.964 115.521C518.954 115.801 516.908 116.031 514.826 116.209C512.744 116.384 510.751 116.472 508.847 116.474C504.668 116.541 500.51 115.86 496.571 114.462C493.149 113.235 490.041 111.265 487.47 108.695C484.946 106.106 483.015 103.001 481.808 99.5935C480.453 95.7364 479.79 91.6702 479.849 87.5823C479.796 83.4459 480.367 79.3252 481.544 75.3593C482.537 71.9808 484.191 68.8332 486.411 66.0994C488.51 63.5738 491.175 61.5796 494.19 60.279C497.523 58.8863 501.108 58.2012 504.719 58.2673C506.696 58.2439 508.668 58.4572 510.594 58.9026C512.389 59.349 514.142 59.9513 515.832 60.7025V35.5153L531.6 32.9741L531.6 113.299ZM495.936 86.8412C495.732 91.0083 496.883 95.1294 499.216 98.5878C500.347 100.074 501.828 101.257 503.526 102.033C505.225 102.808 507.089 103.152 508.953 103.033C510.363 103.033 511.669 102.98 512.869 102.874C514.068 102.769 515.055 102.645 515.832 102.504V73.8241C514.632 73.1016 513.33 72.5665 511.969 72.2374C510.399 71.8162 508.78 71.6026 507.154 71.6021C499.674 71.6021 495.934 76.6818 495.935 86.8412H495.936Z" fill="#326CE5"/>
<path d="M576.998 85.572C576.998 80.4913 576.345 76.8929 575.04 74.7768C574.31 73.6915 573.3 72.8235 572.117 72.2646C570.934 71.7058 569.623 71.4768 568.321 71.6019C567.33 71.6019 566.307 71.6549 565.252 71.7608C564.193 71.8666 563.17 71.9902 562.183 72.1313V115.097H546.414V61.3361C547.753 60.9842 549.323 60.6141 551.123 60.2259C552.923 59.8382 554.828 59.4853 556.837 59.1671C558.849 58.8495 560.913 58.6024 563.028 58.426C565.146 58.2516 567.227 58.1634 569.272 58.1613C572.603 58.0475 575.925 58.5686 579.061 59.6966C581.31 60.5681 583.402 61.8015 585.252 63.3479C589.934 60.1258 595.446 58.3247 601.127 58.1613C604.865 58.0364 608.59 58.6666 612.079 60.0142C614.778 61.1254 617.134 62.9329 618.906 65.2522C620.655 67.6387 621.849 70.3867 622.398 73.2945C623.063 76.711 623.382 80.1857 623.351 83.6662V115.097H607.582V85.572C607.582 80.4913 606.93 76.8929 605.625 74.7768C604.895 73.6914 603.885 72.8234 602.702 72.2646C601.519 71.7058 600.207 71.4768 598.905 71.6019C597.701 71.6623 596.509 71.8758 595.359 72.2372C594.035 72.5779 592.769 73.1125 591.602 73.8239C592.103 75.4959 592.423 77.2171 592.555 78.9576C592.695 80.756 592.766 82.6785 592.767 84.725V115.097H576.998V85.572Z" fill="#326CE5"/>
<path d="M53.8599 110.958C38.9443 89.5672 27.7156 66.7297 26.0992 40.1495C25.6782 33.226 26.5789 26.4405 29.4875 20.0379C31.5249 15.5532 34.2348 11.1869 39.003 9.7943C44.93 8.06328 48.0176 2.64851 53.4788 0.928186C55.7732 0.151379 58.2596 0.151379 60.554 0.928186C61.6638 1.2421 62.7303 1.69298 63.7287 2.27043C68.195 5.18177 70.435 10.0637 69.5289 14.9713C69.047 17.4145 67.8522 19.6601 66.0952 21.4248C64.3383 23.1895 62.0979 24.3941 59.6569 24.8867C54.787 25.932 49.7658 23.7522 46.8657 19.3338C44.3835 15.552 42.92 15.3483 39.6334 18.7828C34.5314 24.1143 33.4816 30.9468 33.4166 37.8813C33.2761 52.8658 37.6871 66.8491 43.598 80.4002C47.9759 90.5188 53.4904 100.107 60.0352 108.979C62.332 112.076 62.5789 111.414 65.5397 115.855C67.4385 115.651 64.4067 117.138 65.8769 116.724C67.8192 118.853 69.8145 121.098 71.8782 123.277C72.7676 124.216 74.0704 125.117 72.3528 126.254C71.1013 127.082 69.8746 129.634 68.067 127.402" fill="#75C5F0"/>
<g opacity="0.49">
<path opacity="0.49" d="M76.0115 46.6756C65.3151 46.9708 54.3514 47.8834 43.5337 50.2846C42.1037 50.6021 39.8694 52.8565 39.0296 49.2948C38.3435 46.3848 39.7124 45.3745 42.3128 44.7325C59.4114 40.5112 76.7468 39.6194 94.2098 41.1498C108.289 42.3836 122.025 45.2421 134.85 51.4923C142.716 55.3259 149.752 60.1752 154.339 67.9322C155.645 69.9507 156.524 72.2152 156.922 74.5864C157.76 81.1342 157.43 86.9188 157.349 94.3699C156.885 100.525 151.498 105.944 145.125 105.812C141.887 105.742 138.805 104.411 136.534 102.102C134.263 99.7926 132.983 96.6882 132.967 93.4496C132.912 86.7327 138.067 80.9843 145.002 81.2014C150.005 81.3579 149.811 78.7648 149.115 75.6246C147.947 70.3499 144.377 66.6102 140.25 63.4851C129.934 55.6718 117.896 51.9741 105.429 49.5007C95.8437 47.5991 86.1216 46.8577 76.0115 46.6756Z" fill="#75C5F0"/>
</g>
<g opacity="0.75">
<path opacity="0.75" d="M93.7476 122.165C85.3568 131.715 76.252 140.463 64.5641 145.835C53.6623 150.845 42.7719 152.683 33.2383 142.736C32.0981 141.547 30.7316 141.588 29.3315 141.336C27.6329 141.064 26.0109 140.436 24.5714 139.494C23.1318 138.552 21.9071 137.317 20.9773 135.87C20.0475 134.423 19.4334 132.796 19.1752 131.095C18.917 129.394 19.0204 127.658 19.4788 126C21.4498 118.895 28.8643 114.834 35.6706 117.671C41.8906 120.263 46.688 128.268 42.1481 134.951C39.0866 139.458 41.9495 140.263 45.025 141.3C50.0286 142.988 54.8265 141.577 59.5066 139.88C65.5864 137.674 70.8712 134.05 75.7609 129.918C96.9468 112.012 110.669 89.1986 119.498 63.1675C120.008 61.6637 119.079 58.5063 122.862 59.5819C126.442 60.5997 125.538 62.7181 124.829 65.1274C119.452 83.4137 110.673 99.9627 99.2969 115.177" fill="#75C5F0"/>
</g>
<g opacity="0.49">
<path opacity="0.49" d="M0.0747462 78.1154C0.497746 67.4204 7.49278 61.2651 15.431 55.7731C16.439 54.9899 17.5504 54.3499 18.7337 53.8712C19.9247 53.4717 21.2795 50.9695 22.4788 53.5349C23.3369 55.3705 23.7444 57.3535 21.0318 58.6861C17.321 60.5575 13.9253 62.9969 10.9672 65.9162C3.33428 73.287 2.8828 82.0536 9.8096 90.1343C13.2867 94.1098 17.5347 97.3379 22.2963 99.6231C24.3526 100.643 25.5934 102.116 24.5053 104.076C23.3142 106.222 21.6162 104.127 20.5073 103.561C13.3242 99.8916 6.89837 95.2804 2.67621 88.1271C0.937015 85.0794 0.0392043 81.6242 0.0747462 78.1154Z" fill="#75C5F0"/>
</g>
<g opacity="0.75">
<path opacity="0.75" d="M129.114 38.3481C129.129 39.0253 129.673 42.835 127.17 42.824C124.141 42.8107 123.459 40.8182 123.599 37.939C123.899 33.3101 123.243 28.669 121.673 24.3044C118.543 15.9653 112.039 12.1587 103.278 13.4166C97.586 14.2963 92.1692 16.4609 87.4387 19.7462C85.4947 21.0511 83.6426 21.2889 82.5526 19.3719C81.366 17.2851 83.948 16.8957 85.0543 16.1654C90.6814 12.451 96.6829 9.59487 103.502 8.76507C114.663 7.40679 124.103 13.5559 127.102 24.3868C128.322 28.9446 128.998 33.6311 129.114 38.3481V38.3481Z" fill="#75C5F0"/>
</g>
<path d="M128.517 119.999C128.675 124.951 127.848 129.885 126.084 134.514C121.626 145.727 111.555 150.833 99.8474 147.792C94.9107 146.491 90.1997 144.449 85.8748 141.737C84.9401 141.157 82.3705 140.956 84.1424 138.917C85.2411 137.653 86.4718 135.671 88.8984 137.344C92.4982 139.715 96.4449 141.511 100.597 142.668C110.489 145.664 118.847 141.427 122.216 131.657C123.869 126.816 124.579 121.702 124.309 116.593C124.209 114.448 124.069 111.913 126.944 112.022C129.474 112.119 128.111 114.73 128.458 116.187C128.746 117.394 128.517 118.724 128.517 119.999Z" fill="#75C5F0"/>
<g opacity="0.75">
<path opacity="0.75" d="M33.7906 88.2815C36.0014 89.7037 35.526 91.4521 35.0082 93.1401C33.047 99.2275 31.6819 105.491 30.9322 111.843C30.8268 112.852 31.0242 114.494 29.4094 114.27C27.8409 114.053 28.4788 112.474 28.5752 111.516C29.3281 103.582 31.0805 95.7757 33.7906 88.2815V88.2815Z" fill="#75C5F0"/>
</g>
<path d="M91.783 35.4079C89.7195 36.4966 88.468 35.7866 87.2929 34.5131C82.647 29.4779 77.7795 24.6836 72.1491 20.7244C71.4137 20.2073 70.2928 19.627 71.0324 18.5166C71.8004 17.3636 72.7242 18.2555 73.455 18.7642C80.2269 23.5356 86.3829 29.1259 91.783 35.4079V35.4079Z" fill="#75C5F0"/>
<g opacity="0.49">
<path opacity="0.49" d="M108.302 112.029C108.552 109.03 110.37 108.726 112.086 108.336C118.33 106.986 124.433 105.048 130.312 102.548C131.319 102.107 132.837 100.852 133.56 102.682C134.202 104.309 132.276 104.225 131.446 104.609C124.193 107.963 116.591 110.23 108.302 112.029Z" fill="#75C5F0"/>
</g>
<g opacity="0.75">
<path opacity="0.75" d="M43.6823 71.68C42.1194 65.2522 48.5322 54.017 54.1146 53.381C50.9559 58.7283 47.112 65.874 43.6823 71.68Z" fill="#75C5F0"/>
</g>
<path d="M111.64 70.3072L102.789 54.5244C108.253 54.9754 114.065 64.707 111.64 70.3072Z" fill="#75C5F0"/>
<g opacity="0.75">
<path opacity="0.75" d="M63.3628 35.5228C65.8932 32.836 68.0921 30.576 70.2005 28.2345C71.4627 26.8327 72.5632 26.9656 73.7858 28.2316C75.3491 29.8504 73.5788 30.5119 72.8106 31.2075C70.3334 33.4506 68.5239 37.094 63.3628 35.5228Z" fill="#75C5F0"/>
</g>
<path d="M122.24 87.4159C124.004 90.4303 124.494 93.7627 125.473 96.926C125.919 98.3683 125.63 99.3912 124.077 99.8986C122.222 100.504 121.843 99.2317 121.617 97.9326C121.022 94.5084 118.471 91.0251 122.24 87.4159Z" fill="#75C5F0"/>
<g opacity="0.49">
<path opacity="0.49" d="M48.4056 112.734C44.6435 111.798 41.3082 110.94 37.9574 110.147C36.354 109.768 35.9683 108.857 36.444 107.37C36.9196 105.884 37.9456 105.985 39.0867 106.381C42.5238 107.576 46.8567 107.304 48.4056 112.734Z" fill="#75C5F0"/>
</g>
<path d="M104.609 83.8621C104.474 83.8308 104.28 83.7773 104.147 83.7528C103.642 83.6829 103.133 83.6419 102.623 83.63C101.66 83.567 100.705 83.4103 99.7716 83.1621C99.4837 82.9999 99.2464 82.761 99.086 82.472L98.4441 82.2852C99.1303 77.2713 97.9521 72.18 95.133 67.9773C95.2973 67.8281 95.6084 67.5528 95.6962 67.4718C95.6743 67.1442 95.7814 66.8211 95.9945 66.5715C96.7269 65.9423 97.5188 65.386 98.359 64.9103C98.8139 64.6791 99.255 64.4217 99.6801 64.1396C99.7825 64.0635 99.9227 63.9429 100.03 63.857C100.219 63.7367 100.38 63.5779 100.504 63.3911C100.628 63.2043 100.71 62.9936 100.747 62.7726C100.784 62.5517 100.774 62.3255 100.718 62.1087C100.662 61.8918 100.561 61.6892 100.421 61.514C100.282 61.3388 100.107 61.1949 99.9082 61.0916C99.7094 60.9883 99.4912 60.9279 99.2676 60.9144C99.044 60.9009 98.8201 60.9346 98.6103 61.0132C98.4006 61.0919 98.2097 61.2137 98.0501 61.3709C97.9417 61.4564 97.794 61.5686 97.6975 61.6523C97.3261 62.002 96.9753 62.3731 96.6469 62.7635C95.9971 63.4779 95.2792 64.1273 94.5036 64.7027C94.1982 64.8269 93.8642 64.8632 93.5392 64.8074L92.9343 65.2395C89.4529 61.586 84.7638 59.3204 79.738 58.8633C79.7233 58.652 79.7052 58.2693 79.6996 58.1536C79.4297 57.9665 79.2435 57.6813 79.1809 57.3588C79.1473 56.3939 79.2076 55.4281 79.3609 54.4749C79.4622 53.9757 79.5345 53.4711 79.5775 52.9636C79.5824 52.8355 79.5749 52.6494 79.5749 52.5112C79.5973 52.2889 79.5728 52.0644 79.503 51.8522C79.4332 51.64 79.3197 51.4447 79.1698 51.2791C79.02 51.1134 78.837 50.9811 78.6328 50.8905C78.4286 50.7999 78.2076 50.7532 77.9842 50.7533C77.7608 50.7534 77.5399 50.8003 77.3358 50.8911C77.1317 50.9819 76.9489 51.1144 76.7991 51.2802C76.6494 51.446 76.5361 51.6413 76.4665 51.8536C76.397 52.0659 76.3727 52.2904 76.3952 52.5127C76.3952 52.5277 76.3986 52.5421 76.399 52.5571C76.3975 52.689 76.3911 52.8487 76.3952 52.9639C76.4387 53.4718 76.5111 53.9768 76.6122 54.4764C76.7647 55.4294 76.8239 56.395 76.7893 57.3596C76.699 57.6771 76.52 57.9623 76.2732 58.1815L76.2355 58.8543C75.2683 58.9341 74.3079 59.0818 73.3614 59.2961C69.385 60.1948 65.7679 62.2613 62.9745 65.2306C62.7811 65.0972 62.5895 64.9614 62.3996 64.823C62.0851 64.9171 61.7463 64.8842 61.4557 64.7315C60.6799 64.1572 59.9621 63.5086 59.3123 62.7949C58.9852 62.4047 58.6359 62.0337 58.2662 61.6836C58.1694 61.6008 58.0214 61.4877 57.9129 61.4015C57.5977 61.1473 57.2093 61.0007 56.8047 60.9834C56.5643 60.9707 56.3243 61.0149 56.1042 61.1124C55.8841 61.2098 55.6901 61.3578 55.5379 61.5443C55.2802 61.9073 55.1766 62.3576 55.2499 62.7968C55.3231 63.236 55.5673 63.6283 55.9289 63.888L55.9534 63.9053C56.0573 63.9905 56.1854 64.0993 56.2818 64.1698C56.706 64.452 57.1461 64.7096 57.5999 64.9412C58.4401 65.4169 59.2319 65.9736 59.964 66.6032C60.1541 66.873 60.2649 67.1906 60.2838 67.5201L60.7927 67.9751C57.9816 72.1929 56.8265 77.3 57.549 82.3169L56.8834 82.5105C56.7097 82.788 56.4763 83.0231 56.2001 83.1987C55.2677 83.4476 54.3133 83.6049 53.3504 83.6685C52.8401 83.6801 52.3308 83.7211 51.8252 83.7913C51.7032 83.8139 51.5336 83.8568 51.4007 83.89L51.3867 83.893L51.3641 83.8998C51.1439 83.9287 50.9321 84.0032 50.7423 84.1187C50.5526 84.2342 50.389 84.388 50.2621 84.5703C50.1352 84.7526 50.0478 84.9594 50.0054 85.1775C49.963 85.3955 49.9666 85.62 50.016 85.8366C50.0654 86.0531 50.1594 86.257 50.2921 86.4352C50.4248 86.6133 50.5933 86.7618 50.7866 86.8711C50.98 86.9803 51.1941 87.0481 51.4152 87.0699C51.6362 87.0917 51.8594 87.0671 52.0704 86.9977L52.0941 86.9939C52.1047 86.9916 52.1137 86.9864 52.1243 86.9845C52.2553 86.9547 52.4203 86.923 52.5356 86.8918C53.021 86.7369 53.4971 86.5544 53.9618 86.3452C54.857 85.9842 55.7853 85.711 56.7334 85.5297C57.0622 85.5498 57.3788 85.6616 57.6473 85.8525L58.3404 85.7339C59.8963 90.541 63.1576 94.6125 67.5091 97.1804L67.2194 97.8735C67.3541 98.1528 67.4035 98.4655 67.3614 98.7727C66.9652 99.6784 66.4833 100.544 65.9225 101.358C65.6141 101.765 65.3295 102.189 65.07 102.629C65.0067 102.748 64.9265 102.932 64.8659 103.057C64.7511 103.248 64.6776 103.461 64.6501 103.682C64.6226 103.903 64.6416 104.128 64.7061 104.341C64.7705 104.554 64.8789 104.752 65.0242 104.921C65.1696 105.09 65.3486 105.226 65.5499 105.322C65.7512 105.417 65.9703 105.469 66.1931 105.475C66.4158 105.481 66.6373 105.44 66.8432 105.355C67.0492 105.27 67.2351 105.143 67.389 104.982C67.5428 104.821 67.6613 104.629 67.7366 104.419L67.7393 104.416V104.412C67.7995 104.288 67.885 104.125 67.9359 104.009C68.1169 103.532 68.2701 103.046 68.3947 102.552C68.6692 101.547 69.0836 100.585 69.6257 99.6955C69.8153 99.5177 70.0541 99.4011 70.3109 99.361L70.6714 98.7094C75.3909 100.524 80.6134 100.537 85.342 98.7467C85.443 98.9267 85.6313 99.271 85.6811 99.358C86.0058 99.4099 86.2973 99.5871 86.4928 99.8515C86.9429 100.705 87.3085 101.6 87.5845 102.525C87.7102 103.019 87.8643 103.505 88.0459 103.982C88.0975 104.099 88.1815 104.264 88.2426 104.389C88.3177 104.599 88.436 104.791 88.5897 104.952C88.7434 105.113 88.9292 105.241 89.1351 105.326C89.341 105.411 89.5625 105.453 89.7853 105.447C90.0081 105.442 90.2273 105.39 90.4288 105.294C90.6303 105.199 90.8096 105.063 90.9552 104.894C91.1008 104.725 91.2095 104.528 91.2743 104.315C91.3391 104.102 91.3586 103.877 91.3314 103.656C91.3043 103.435 91.2312 103.222 91.1167 103.03C91.0561 102.905 90.9725 102.722 90.9095 102.602C90.6501 102.164 90.3655 101.741 90.0571 101.335C89.5062 100.542 89.0341 99.6966 88.6475 98.8115C88.5636 98.4949 88.6074 98.158 88.7696 97.8735C88.6678 97.6655 88.5793 97.4512 88.5047 97.232C92.8702 94.6433 96.1317 90.5402 97.6689 85.7033C97.8746 85.7361 98.2328 85.7986 98.3492 85.8223C98.591 85.6004 98.9101 85.4818 99.2382 85.492C100.187 85.6732 101.115 85.9463 102.011 86.3075C102.475 86.5184 102.952 86.7023 103.437 86.8582C103.552 86.8884 103.716 86.917 103.848 86.946C103.859 86.949 103.869 86.9539 103.879 86.9565L103.902 86.9599C104.113 87.0292 104.336 87.0537 104.557 87.0318C104.778 87.0099 104.992 86.9422 105.185 86.833C105.378 86.7237 105.547 86.5753 105.679 86.3973C105.812 86.2193 105.906 86.0155 105.955 85.7991C106.005 85.5827 106.009 85.3583 105.966 85.1403C105.924 84.9224 105.837 84.7157 105.71 84.5333C105.583 84.351 105.42 84.1971 105.231 84.0816C105.041 83.966 104.83 83.8912 104.609 83.862L104.609 83.8621ZM89.5041 67.6692L82.7097 72.486L82.686 72.475C82.4812 72.6244 82.2398 72.7155 81.9874 72.7386C81.735 72.7617 81.4811 72.7159 81.2526 72.6062C81.0241 72.4965 80.8297 72.327 80.6898 72.1156C80.55 71.9042 80.4701 71.6588 80.4586 71.4056L80.4511 71.4023L79.9791 63.0759C83.5716 63.5219 86.918 65.1358 89.5038 67.6692L89.5041 67.6692ZM76.7049 76.7957H79.2619L80.8515 78.7831L80.2816 81.2621L77.9853 82.367L75.6822 81.2595L75.1111 78.7797L76.7049 76.7957ZM74.2994 63.3674C74.8594 63.2413 75.4256 63.144 75.9956 63.0758L75.5228 71.4147L75.4882 71.4312C75.4775 71.6844 75.3983 71.93 75.2591 72.1418C75.1199 72.3536 74.9259 72.5236 74.6977 72.6339C74.4695 72.7441 74.2156 72.7904 73.9632 72.7678C73.7108 72.7452 73.4692 72.6546 73.2642 72.5056L73.251 72.5131L66.4126 67.6643C68.5896 65.5249 71.3213 64.0366 74.2994 63.3674V63.3674ZM63.9328 70.7811L70.1761 76.3648L70.1693 76.399C70.3606 76.5655 70.5031 76.7809 70.5816 77.022C70.6601 77.2631 70.6717 77.521 70.6152 77.7682C70.5587 78.0154 70.4361 78.2427 70.2606 78.4257C70.0851 78.6088 69.8632 78.7407 69.6186 78.8076L69.6122 78.8348L61.6094 81.1442C61.2106 77.5278 62.0281 73.8815 63.9328 70.7814L63.9328 70.7811ZM72.292 85.6152L69.1123 93.2982C66.0604 91.3445 63.7385 88.4384 62.5067 85.0306L70.7121 83.6372L70.7261 83.6553C70.8167 83.6379 70.9088 83.6297 71.0011 83.6308C71.2312 83.6342 71.4569 83.6943 71.6583 83.8056C71.8597 83.917 72.0306 84.0762 72.1558 84.2693C72.2811 84.4623 72.3569 84.6833 72.3765 84.9126C72.3961 85.1418 72.3589 85.3724 72.2683 85.584L72.292 85.6152ZM81.6776 95.4958C78.7025 96.178 75.5962 96.0183 72.7067 95.0347L76.7422 87.7374H76.749C76.869 87.5145 77.0471 87.3281 77.2644 87.1982C77.4817 87.0682 77.7301 86.9995 77.9833 86.9992C78.2365 86.999 78.4851 87.0673 78.7026 87.1969C78.9201 87.3264 79.0986 87.5125 79.219 87.7352H79.2491L83.2948 95.0445C82.7697 95.2198 82.2306 95.3704 81.6776 95.4962V95.4958ZM86.8914 93.3291L83.679 85.5673L83.6887 85.5534C83.5463 85.2214 83.5374 84.8472 83.6639 84.5087C83.7904 84.1703 84.0426 83.8937 84.3679 83.7366C84.5357 83.6545 84.7182 83.6071 84.9047 83.5972C85.0126 83.5922 85.1208 83.6002 85.2268 83.6209L85.2407 83.6036L93.5193 85.0026C92.2972 88.4379 89.965 91.3679 86.8914 93.3294L86.8914 93.3291ZM94.3887 81.1171L86.3456 78.8004L86.3381 78.7665C86.0938 78.6991 85.8723 78.5668 85.6971 78.3836C85.522 78.2004 85.3997 77.9733 85.3433 77.7262C85.2869 77.4791 85.2985 77.2213 85.3768 76.9803C85.4551 76.7393 85.5973 76.524 85.7881 76.3572L85.7851 76.341L91.9937 70.7844C93.8949 73.8764 94.7357 77.5041 94.3883 81.1171L94.3887 81.1171Z" fill="#326CE5"/>
</svg>
