<?xml version="1.0" encoding="utf-8"?>
<!-- Generator: Adobe Illustrator 25.4.0, SVG Export Plug-In . SVG Version: 6.00 Build 0)  -->
<svg version="1.1" id="Layer_1" xmlns="http://www.w3.org/2000/svg" xmlns:xlink="http://www.w3.org/1999/xlink" x="0px" y="0px"
	 viewBox="0 0 702 131" style="enable-background:new 0 0 702 131;" xml:space="preserve">
<style type="text/css">
	.st0{fill:#157CFF;}
	.st1{fill:#3A52DD;}
	.st2{fill:#3C54DF;}
</style>
<path class="st0" d="M0,63.5c0-10.5,0-21.1,0-31.6c0-1.2,0.5-2,1.5-2.6c7.8-4.5,15.5-8.9,23.3-13.4l16.8-9.7c3.3-1.9,6.6-3.9,10-5.7
	c0.5-0.3,1.5-0.5,1.9-0.3c0.5,0.3,0.8,1.2,0.8,1.9c0.1,3.3,0,6.6,0,10c0,5.1,0,10.1,0,15.2c0,1.5-0.5,2.5-1.9,3.2
	c-8.2,4.7-16.4,9.4-24.6,14.1c-0.9,0.5-1.3,1.2-1.3,2.3c0,11.1,0,22.2,0,33.3c0,1.1,0.4,1.8,1.3,2.3c9.5,5.5,19.1,11,28.6,16.5
	c1.1,0.6,1.9,0.7,3.1,0c7.8-4.5,15.5-9,23.3-13.5c3.5-2,2.5-1.9,5.7-0.1c7,4,13.9,8.1,20.9,12c1.8,1,1.4,2.4,0,3.2
	c-14.3,8.2-28.7,16.5-43,24.8c-2.4,1.4-4.8,2.7-7.2,4.2c-0.8,0.5-1.5,0.5-2.4,0c-6-3.5-12-6.9-18-10.4c-11.2-6.5-22.5-13-33.7-19.4
	c-1.2-0.7-2.5-1.5-3.7-2.1c-1-0.5-1.4-1.3-1.4-2.4C0,84.7,0,74.1,0,63.5L0,63.5z"/>
<path class="st1" d="M115.7,60.7v28.1c0,0.4,0,0.8,0,1.2c-0.1,1.3-1.1,1.9-2.2,1.2c-3-1.7-6-3.4-9-5.1c-4.5-2.6-9-5.2-13.5-7.8
	c-1.1-0.6-1.6-1.3-1.5-2.6c0.1-9.6,0-19.1,0-28.7c0-1.2-0.3-1.9-1.4-2.5c-6.1-3.5-12.2-7-18.3-10.5c-2.4-1.4-4.7-2.7-7.1-4.1
	c-0.7-0.4-1-1-1-1.8c0-8.8,0-17.6,0-26.3c0-1.7,1-2.2,2.5-1.4C69.6,3.5,75,6.6,80.4,9.8c11.2,6.5,22.4,12.9,33.6,19.4
	c1.3,0.7,1.7,1.5,1.7,3C115.7,41.7,115.7,51.2,115.7,60.7L115.7,60.7z"/>
<path class="st2" d="M51.2,60c0.3-0.3,0.7-0.5,0.9-0.8c4.5-4.6,9-9.2,13.5-13.8c0.4-0.4,0.9-0.6,1.5-0.7c1.9-0.1,3.7,0,6,0
	c-1.2,1.3-2.2,2.4-3.3,3.4c-4.2,4.4-8.5,8.7-12.7,13.1c-0.6,0.6-0.6,1,0,1.6c5.4,6,10.8,12.1,16.2,18.1c0.2,0.3,0.4,0.5,0.8,1
	c-2.3,0-4.2,0-6.2,0c-0.4,0-0.7-0.4-1-0.8c-4.9-5.5-9.9-11-14.8-16.6c-0.3-0.3-0.6-0.6-1.1-1.2c-0.1,0.5-0.2,1.1-0.2,1.6
	c0,5.2,0,10.4,0,15.6c0,1.1-0.3,1.5-1.4,1.4c-0.8-0.1-1.6-0.1-2.4,0c-1.1,0.1-1.5-0.3-1.4-1.4c0.1-6.6,0-13.3,0-19.9
	c0-4.9,0-9.8,0-14.7c0-1,0.3-1.4,1.3-1.3c0.8,0.1,1.7,0.1,2.5,0c1.1-0.1,1.5,0.3,1.4,1.4c-0.1,4.1,0,8.3,0,12.4c0,0.5,0,0.9,0.1,1.4
	L51.2,60z"/>
<path d="M150.5,52V7.6h32.9v7.5h-23.9V25h22.3v7.5h-22.3v12.1h24.8V52H150.5z"/>
<path d="M191.8,52V7.6h8.5V52H191.8z"/>
<path d="M215.4,29.7l-7.7-1.4c0.9-3.1,2.4-5.4,4.5-6.9c2.1-1.5,5.3-2.2,9.4-2.2c3.8,0,6.6,0.5,8.5,1.4c1.9,0.9,3.2,2,3.9,3.4
	c0.8,1.4,1.1,3.9,1.1,7.6l-0.1,9.9c0,2.8,0.1,4.9,0.4,6.3c0.3,1.3,0.8,2.8,1.5,4.3h-8.4c-0.2-0.6-0.5-1.4-0.8-2.5
	c-0.1-0.5-0.2-0.8-0.3-1c-1.5,1.4-3,2.5-4.7,3.2c-1.7,0.7-3.4,1.1-5.3,1.1c-3.3,0-5.9-0.9-7.8-2.7c-1.9-1.8-2.8-4.1-2.8-6.8
	c0-1.8,0.4-3.4,1.3-4.8c0.9-1.4,2.1-2.5,3.6-3.3c1.6-0.8,3.8-1.4,6.8-2c4-0.7,6.7-1.4,8.3-2.1v-0.8c0-1.6-0.4-2.8-1.2-3.5
	c-0.8-0.7-2.3-1.1-4.6-1.1c-1.5,0-2.7,0.3-3.5,0.9C216.6,27.1,215.9,28.2,215.4,29.7z M226.8,36.6c-1.1,0.4-2.8,0.8-5.2,1.3
	c-2.4,0.5-3.9,1-4.6,1.5c-1.1,0.8-1.7,1.8-1.7,3c0,1.2,0.4,2.2,1.3,3.1c0.9,0.9,2,1.3,3.4,1.3c1.5,0,3-0.5,4.4-1.5
	c1-0.8,1.7-1.7,2-2.8c0.2-0.7,0.3-2.1,0.3-4.1V36.6z"/>
<path d="M240.6,42.8l8.5-1.3c0.4,1.7,1.1,2.9,2.2,3.8c1.1,0.8,2.7,1.3,4.7,1.3c2.2,0,3.9-0.4,5-1.2c0.7-0.6,1.1-1.3,1.1-2.3
	c0-0.6-0.2-1.2-0.6-1.6c-0.4-0.4-1.4-0.8-2.8-1.1c-6.9-1.5-11.2-2.9-13-4.1c-2.5-1.7-3.8-4.1-3.8-7.2c0-2.8,1.1-5.1,3.3-7
	c2.2-1.9,5.6-2.8,10.2-2.8c4.4,0,7.7,0.7,9.8,2.1c2.1,1.4,3.6,3.6,4.4,6.4l-8,1.5c-0.3-1.3-1-2.2-2-2.9c-0.9-0.7-2.3-1-4.1-1
	c-2.2,0-3.8,0.3-4.8,0.9c-0.6,0.4-1,1-1,1.7c0,0.6,0.3,1.1,0.8,1.5c0.8,0.6,3.4,1.4,7.9,2.4c4.5,1,7.7,2.3,9.5,3.8
	c1.8,1.5,2.7,3.6,2.7,6.3c0,2.9-1.2,5.5-3.7,7.6c-2.5,2.1-6.1,3.2-10.9,3.2c-4.4,0-7.9-0.9-10.4-2.7C243,48.3,241.4,45.9,240.6,42.8
	z"/>
<path d="M292.8,19.8v6.8H287v13c0,2.6,0,4.2,0.2,4.6c0.1,0.4,0.4,0.8,0.8,1.1c0.4,0.3,0.9,0.4,1.5,0.4c0.8,0,1.9-0.3,3.4-0.8
	l0.7,6.6c-2,0.8-4.2,1.3-6.7,1.3c-1.5,0-2.9-0.3-4.1-0.8c-1.2-0.5-2.1-1.2-2.7-2c-0.6-0.8-1-1.9-1.2-3.3c-0.2-1-0.3-3-0.3-6v-14
	h-3.9v-6.8h3.9v-6.4l8.5-5v11.4H292.8z"/>
<path d="M298.7,15.5V7.6h8.5v7.9H298.7z M298.7,52V19.8h8.5V52H298.7z"/>
<path d="M344,29.4l-8.4,1.5c-0.3-1.7-0.9-2.9-1.9-3.8c-1-0.8-2.3-1.3-3.9-1.3c-2.1,0-3.8,0.7-5.1,2.2c-1.3,1.5-1.9,3.9-1.9,7.3
	c0,3.8,0.6,6.5,1.9,8.1c1.3,1.6,3,2.4,5.2,2.4c1.6,0,2.9-0.5,4-1.4c1-0.9,1.8-2.5,2.2-4.8l8.4,1.4c-0.9,3.8-2.5,6.7-5,8.7
	c-2.5,2-5.8,2.9-9.9,2.9c-4.7,0-8.5-1.5-11.3-4.5c-2.8-3-4.2-7.1-4.2-12.3c0-5.3,1.4-9.4,4.2-12.4c2.8-3,6.6-4.5,11.4-4.5
	c3.9,0,7,0.8,9.3,2.5C341.3,23.3,343,25.9,344,29.4z"/>
<path d="M367.9,52V7.6h9v19.7L395,7.6h12l-16.7,17.3L408,52h-11.6l-12.2-20.8l-7.3,7.4V52H367.9z"/>
<path d="M433.7,52v-4.8c-1.2,1.7-2.7,3.1-4.6,4.1c-1.9,1-3.9,1.5-6,1.5c-2.2,0-4.1-0.5-5.8-1.4s-3-2.3-3.7-4
	c-0.8-1.7-1.1-4.1-1.1-7.1V19.8h8.5v14.8c0,4.5,0.2,7.3,0.5,8.3c0.3,1,0.9,1.8,1.7,2.4c0.8,0.6,1.9,0.9,3.1,0.9
	c1.5,0,2.8-0.4,3.9-1.2c1.2-0.8,1.9-1.8,2.4-3c0.4-1.2,0.6-4.1,0.6-8.7V19.8h8.5V52H433.7z"/>
<path d="M450.1,52V7.6h8.5v16c2.6-3,5.7-4.5,9.3-4.5c3.9,0,7.2,1.4,9.7,4.3c2.6,2.8,3.8,6.9,3.8,12.2c0,5.5-1.3,9.7-3.9,12.7
	c-2.6,3-5.8,4.5-9.5,4.5c-1.8,0-3.7-0.5-5.4-1.4c-1.8-0.9-3.3-2.3-4.6-4.1V52H450.1z M458.5,35.2c0,3.3,0.5,5.8,1.6,7.4
	c1.5,2.3,3.4,3.4,5.9,3.4c1.9,0,3.5-0.8,4.8-2.4c1.3-1.6,2-4.1,2-7.6c0-3.7-0.7-6.3-2-7.9c-1.3-1.6-3-2.5-5.1-2.5
	c-2,0-3.7,0.8-5.1,2.4C459.2,29.6,458.5,32,458.5,35.2z"/>
<path d="M507,41.8l8.5,1.4c-1.1,3.1-2.8,5.5-5.2,7.1c-2.3,1.6-5.3,2.4-8.8,2.4c-5.6,0-9.7-1.8-12.4-5.5c-2.1-2.9-3.2-6.6-3.2-11.1
	c0-5.3,1.4-9.5,4.2-12.5c2.8-3,6.3-4.5,10.6-4.5c4.8,0,8.6,1.6,11.3,4.8c2.8,3.1,4.1,8,4,14.5h-21.3c0.1,2.5,0.7,4.5,2.1,5.9
	c1.3,1.4,2.9,2.1,4.9,2.1c1.3,0,2.5-0.4,3.4-1.1S506.5,43.4,507,41.8z M507.5,33.2c-0.1-2.5-0.7-4.3-1.9-5.6
	c-1.2-1.3-2.7-1.9-4.4-1.9c-1.9,0-3.4,0.7-4.6,2c-1.2,1.4-1.8,3.2-1.8,5.5H507.5z"/>
<path d="M531,52h-8.5V19.8h7.9v4.6c1.4-2.2,2.6-3.6,3.6-4.3c1.1-0.7,2.3-1,3.7-1c1.9,0,3.8,0.5,5.6,1.6l-2.6,7.4
	c-1.4-0.9-2.8-1.4-4-1.4c-1.2,0-2.2,0.3-3,1c-0.8,0.6-1.5,1.8-2,3.5c-0.5,1.7-0.7,5.3-0.7,10.8V52z"/>
<path d="M576.3,52h-8.5V35.6c0-3.5-0.2-5.7-0.5-6.7c-0.4-1-1-1.8-1.8-2.4c-0.8-0.6-1.8-0.8-2.9-0.8c-1.5,0-2.8,0.4-4,1.2
	c-1.2,0.8-2,1.9-2.4,3.2c-0.4,1.3-0.6,3.8-0.6,7.4V52H547V19.8h7.9v4.7c2.8-3.6,6.3-5.4,10.6-5.4c1.9,0,3.6,0.3,5.1,1
	c1.6,0.7,2.7,1.5,3.5,2.6c0.8,1,1.4,2.2,1.7,3.6c0.3,1.3,0.5,3.2,0.5,5.7V52z"/>
<path d="M603.6,41.8l8.5,1.4c-1.1,3.1-2.8,5.5-5.2,7.1c-2.3,1.6-5.3,2.4-8.8,2.4c-5.6,0-9.7-1.8-12.4-5.5c-2.1-2.9-3.2-6.6-3.2-11.1
	c0-5.3,1.4-9.5,4.2-12.5c2.8-3,6.3-4.5,10.6-4.5c4.8,0,8.6,1.6,11.3,4.8c2.8,3.1,4.1,8,4,14.5h-21.3c0.1,2.5,0.7,4.5,2.1,5.9
	c1.3,1.4,2.9,2.1,4.9,2.1c1.3,0,2.5-0.4,3.4-1.1C602.4,44.6,603.1,43.4,603.6,41.8z M604,33.2c-0.1-2.5-0.7-4.3-1.9-5.6
	c-1.2-1.3-2.7-1.9-4.4-1.9c-1.9,0-3.4,0.7-4.6,2c-1.2,1.4-1.8,3.2-1.8,5.5H604z"/>
<path d="M634.2,19.8v6.8h-5.8v13c0,2.6,0,4.2,0.2,4.6c0.1,0.4,0.4,0.8,0.8,1.1c0.4,0.3,0.9,0.4,1.5,0.4c0.8,0,1.9-0.3,3.4-0.8
	l0.7,6.6c-2,0.8-4.2,1.3-6.7,1.3c-1.5,0-2.9-0.3-4.1-0.8c-1.2-0.5-2.1-1.2-2.7-2c-0.6-0.8-1-1.9-1.2-3.3c-0.2-1-0.3-3-0.3-6v-14
	h-3.9v-6.8h3.9v-6.4l8.5-5v11.4H634.2z"/>
<path d="M658.7,41.8l8.5,1.4c-1.1,3.1-2.8,5.5-5.2,7.1c-2.3,1.6-5.3,2.4-8.8,2.4c-5.6,0-9.7-1.8-12.4-5.5c-2.1-2.9-3.2-6.6-3.2-11.1
	c0-5.3,1.4-9.5,4.2-12.5c2.8-3,6.3-4.5,10.6-4.5c4.8,0,8.6,1.6,11.3,4.8c2.8,3.1,4.1,8,4,14.5h-21.3c0.1,2.5,0.7,4.5,2.1,5.9
	c1.3,1.4,2.9,2.1,4.9,2.1c1.3,0,2.5-0.4,3.4-1.1C657.6,44.6,658.2,43.4,658.7,41.8z M659.2,33.2c-0.1-2.5-0.7-4.3-1.9-5.6
	c-1.2-1.3-2.7-1.9-4.4-1.9c-1.9,0-3.4,0.7-4.6,2c-1.2,1.4-1.8,3.2-1.8,5.5H659.2z"/>
<path d="M671.6,42.8l8.5-1.3c0.4,1.7,1.1,2.9,2.2,3.8c1.1,0.8,2.7,1.3,4.7,1.3c2.2,0,3.9-0.4,5-1.2c0.7-0.6,1.1-1.3,1.1-2.3
	c0-0.6-0.2-1.2-0.6-1.6c-0.4-0.4-1.4-0.8-2.8-1.1c-6.9-1.5-11.2-2.9-13-4.1c-2.5-1.7-3.8-4.1-3.8-7.2c0-2.8,1.1-5.1,3.3-7
	c2.2-1.9,5.6-2.8,10.2-2.8c4.4,0,7.7,0.7,9.8,2.1c2.1,1.4,3.6,3.6,4.4,6.4l-8,1.5c-0.3-1.3-1-2.2-2-2.9c-0.9-0.7-2.3-1-4.1-1
	c-2.2,0-3.8,0.3-4.8,0.9c-0.6,0.4-1,1-1,1.7c0,0.6,0.3,1.1,0.8,1.5c0.8,0.6,3.4,1.4,7.9,2.4c4.5,1,7.7,2.3,9.5,3.8
	c1.8,1.5,2.7,3.6,2.7,6.3c0,2.9-1.2,5.5-3.7,7.6c-2.5,2.1-6.1,3.2-10.9,3.2c-4.4,0-7.9-0.9-10.4-2.7
	C674.1,48.3,672.4,45.9,671.6,42.8z"/>
<path d="M148.2,102.7l8.7-0.8c0.5,2.9,1.6,5.1,3.2,6.4c1.6,1.4,3.8,2.1,6.5,2.1c2.9,0,5.1-0.6,6.5-1.8c1.5-1.2,2.2-2.7,2.2-4.3
	c0-1-0.3-1.9-0.9-2.7c-0.6-0.7-1.7-1.4-3.2-1.9c-1.1-0.4-3.4-1-7.2-1.9c-4.8-1.2-8.2-2.7-10.1-4.4c-2.7-2.4-4.1-5.4-4.1-8.9
	c0-2.3,0.6-4.4,1.9-6.3c1.3-2,3.1-3.5,5.5-4.5c2.4-1,5.3-1.5,8.7-1.5c5.6,0,9.8,1.2,12.6,3.7c2.8,2.4,4.3,5.7,4.5,9.8l-9,0.4
	c-0.4-2.3-1.2-3.9-2.5-4.9c-1.3-1-3.1-1.5-5.7-1.5c-2.6,0-4.6,0.5-6.1,1.6c-0.9,0.7-1.4,1.6-1.4,2.8c0,1,0.4,1.9,1.3,2.7
	c1.1,0.9,3.9,1.9,8.2,3c4.4,1,7.6,2.1,9.7,3.2c2.1,1.1,3.7,2.6,4.9,4.5c1.2,1.9,1.8,4.2,1.8,7.1c0,2.5-0.7,4.9-2.1,7.1
	c-1.4,2.2-3.4,3.9-6,5c-2.6,1.1-5.8,1.6-9.7,1.6c-5.6,0-9.9-1.3-12.9-3.9C150.6,111.4,148.8,107.7,148.2,102.7z"/>
<path d="M210.4,106.9l8.5,1.4c-1.1,3.1-2.8,5.5-5.2,7.1c-2.3,1.6-5.3,2.4-8.8,2.4c-5.6,0-9.7-1.8-12.4-5.5
	c-2.1-2.9-3.2-6.6-3.2-11.1c0-5.3,1.4-9.5,4.2-12.5c2.8-3,6.3-4.5,10.6-4.5c4.8,0,8.6,1.6,11.3,4.8c2.8,3.1,4.1,8,4,14.5H198
	c0.1,2.5,0.7,4.5,2.1,5.9c1.3,1.4,2.9,2.1,4.9,2.1c1.3,0,2.5-0.4,3.4-1.1C209.3,109.7,210,108.5,210.4,106.9z M210.9,98.3
	c-0.1-2.5-0.7-4.3-1.9-5.6c-1.2-1.3-2.7-1.9-4.4-1.9c-1.9,0-3.4,0.7-4.6,2c-1.2,1.4-1.8,3.2-1.8,5.5H210.9z"/>
<path d="M234.5,117.1H226V85h7.9v4.6c1.4-2.2,2.6-3.6,3.6-4.3c1.1-0.7,2.3-1,3.7-1c1.9,0,3.8,0.5,5.6,1.6l-2.6,7.4
	c-1.4-0.9-2.8-1.4-4-1.4c-1.2,0-2.2,0.3-3,1c-0.8,0.6-1.5,1.8-2,3.5c-0.5,1.7-0.7,5.3-0.7,10.8V117.1z"/>
<path d="M259.3,117.1l-13-32.2h8.9l6.1,16.4l1.8,5.5c0.5-1.4,0.8-2.3,0.9-2.8c0.3-0.9,0.6-1.8,0.9-2.7L271,85h8.7L267,117.1H259.3z"
	/>
<path d="M285,80.6v-7.9h8.5v7.9H285z M285,117.1V85h8.5v32.2H285z"/>
<path d="M330.3,94.5l-8.4,1.5c-0.3-1.7-0.9-2.9-1.9-3.8c-1-0.8-2.3-1.3-3.9-1.3c-2.1,0-3.8,0.7-5.1,2.2c-1.3,1.5-1.9,3.9-1.9,7.3
	c0,3.8,0.6,6.5,1.9,8.1c1.3,1.6,3,2.4,5.2,2.4c1.6,0,2.9-0.5,4-1.4c1-0.9,1.8-2.5,2.2-4.8l8.4,1.4c-0.9,3.8-2.5,6.7-5,8.7
	c-2.5,2-5.8,2.9-9.9,2.9c-4.7,0-8.5-1.5-11.3-4.4c-2.8-3-4.2-7.1-4.2-12.3c0-5.3,1.4-9.4,4.2-12.4c2.8-3,6.6-4.5,11.4-4.5
	c3.9,0,7,0.8,9.3,2.5C327.6,88.5,329.3,91,330.3,94.5z"/>
<path d="M355.4,106.9l8.5,1.4c-1.1,3.1-2.8,5.5-5.2,7.1c-2.3,1.6-5.3,2.4-8.8,2.4c-5.6,0-9.7-1.8-12.4-5.5
	c-2.1-2.9-3.2-6.6-3.2-11.1c0-5.3,1.4-9.5,4.2-12.5c2.8-3,6.3-4.5,10.6-4.5c4.8,0,8.6,1.6,11.3,4.8c2.8,3.1,4.1,8,4,14.5H343
	c0.1,2.5,0.7,4.5,2.1,5.9c1.3,1.4,2.9,2.1,4.9,2.1c1.3,0,2.5-0.4,3.4-1.1C354.2,109.7,354.9,108.5,355.4,106.9z M355.9,98.3
	c-0.1-2.5-0.7-4.3-1.9-5.6c-1.2-1.3-2.7-1.9-4.4-1.9c-1.9,0-3.4,0.7-4.6,2c-1.2,1.4-1.8,3.2-1.8,5.5H355.9z"/>
</svg>
