<svg width="702" height="131" viewBox="0 0 702 131" fill="none" xmlns="http://www.w3.org/2000/svg">
<rect width="702" height="131"/>
<path d="M0.0378744 63.5302C0.0378744 52.9821 0.0573514 42.4337 0.0122001 31.8858C0.00666687 30.6384 0.471239 29.912 1.50286 29.3197C9.26342 24.8636 17.0148 20.392 24.7571 15.9049L41.5886 6.18652C44.9023 4.27157 48.1975 2.32321 51.5405 0.461158C52.0878 0.156165 53.0477 -0.0824284 53.4439 0.19025C53.928 0.522245 54.2294 1.4235 54.2429 2.08594C54.3093 5.40368 54.2495 8.72363 54.2491 12.0429C54.2491 17.0957 54.2214 22.1488 54.2903 27.2007C54.3113 28.7473 53.7666 29.6654 52.3897 30.4454C44.1562 35.1097 35.9823 39.8763 27.7761 44.5884C26.8511 45.1196 26.4293 45.7895 26.4321 46.8902C26.4616 57.9917 26.4616 69.0931 26.4321 80.1946C26.4293 81.2922 26.8173 81.9456 27.763 82.4885C37.3107 87.9695 46.8447 93.4747 56.3648 99.0041C57.4245 99.6194 58.2939 99.6969 59.4192 99.0369C67.171 94.4934 74.9481 89.993 82.7504 85.5357C86.284 83.5081 85.2515 83.6217 88.4506 85.451C95.42 89.4349 102.337 93.5105 109.315 97.4783C111.134 98.5123 110.67 99.8996 109.277 100.698C94.9277 108.92 80.5978 117.175 66.287 125.463C63.8967 126.842 61.4906 128.197 59.1239 129.616C58.2981 130.112 57.6027 130.133 56.7654 129.647C50.7775 126.172 44.7693 122.731 38.7713 119.273C27.5447 112.798 16.3199 106.32 5.09703 99.8399C3.8536 99.1223 2.62721 98.3733 1.36541 97.6899C0.385805 97.1587 -0.00373563 96.4283 2.69753e-05 95.2858C0.0356611 84.7007 0.0210533 74.1156 0.0210533 63.5305L0.0378744 63.5302Z" fill="#157CFF"/>
<path d="M115.704 60.7045V88.8034C115.704 89.2089 115.717 89.6159 115.688 90.0207C115.592 91.337 114.613 91.902 113.45 91.2522C110.427 89.5626 107.416 87.851 104.418 86.1174C99.9192 83.5232 95.449 80.8785 90.929 78.3221C89.8361 77.7042 89.3766 76.9915 89.3837 75.7011C89.4346 66.1507 89.395 56.6004 89.4308 47.0493C89.4353 45.8853 89.0893 45.1399 88.0531 44.5483C81.9419 41.0608 75.8611 37.5199 69.7692 33.9986C67.4098 32.6347 65.0549 31.2636 62.6831 29.9208C61.9574 29.5098 61.6807 28.9454 61.6823 28.1183C61.698 19.3421 61.6838 10.5668 61.6938 1.78953C61.6958 0.116279 62.7152 -0.455416 64.1642 0.381211C69.5882 3.51214 75.0091 6.64839 80.4271 9.78995C91.6208 16.2631 102.82 22.7266 114.025 29.1804C115.282 29.9002 115.746 30.7298 115.738 32.1644C115.683 41.6778 115.709 51.1917 115.709 60.7056L115.704 60.7045Z" fill="#3A52DD"/>
<path d="M51.2173 60.0138C51.534 59.7354 51.8702 59.4758 52.1644 59.1754C56.6747 54.57 61.1692 49.9493 65.7043 45.3684C66.1144 44.9856 66.644 44.756 67.2038 44.7182C69.0751 44.6413 70.9515 44.6878 73.1697 44.6878C71.9387 45.9744 70.9232 47.049 69.894 48.1096C65.6592 52.4713 61.4195 56.8273 57.1746 61.1776C56.5841 61.7798 56.5587 62.178 57.1412 62.8249C62.5642 68.8481 67.9679 74.8885 73.3523 80.9463C73.5821 81.2035 73.7835 81.4861 74.1675 81.9711C71.9139 81.9711 69.9401 82.0096 67.9702 81.9357C67.6161 81.9224 67.2248 81.4946 66.9408 81.1774C61.9996 75.6632 57.0666 70.1417 52.1418 64.6131C51.8559 64.2926 51.5597 63.9812 51.0394 63.4179C50.9481 63.9468 50.8841 64.4801 50.8477 65.0157C50.8395 70.2143 50.8174 75.4131 50.8721 80.6112C50.8836 81.7214 50.5757 82.1521 49.4407 82.022C48.6332 81.9343 47.8186 81.9337 47.0109 82.0202C45.9025 82.1338 45.5548 81.7535 45.5637 80.6126C45.6155 73.9764 45.5885 67.3396 45.5882 60.703C45.5882 55.7993 45.6148 50.8952 45.5661 45.9921C45.5561 44.974 45.8554 44.5873 46.8784 44.6743C47.7236 44.7526 48.5742 44.753 49.4195 44.6757C50.5261 44.565 50.8853 44.9428 50.8676 46.0791C50.803 50.2076 50.8371 54.3376 50.8415 58.4669C50.8415 58.9317 50.8911 59.3945 50.9176 59.8582L51.2173 60.0138Z" fill="#3C54DF"/>
<path d="M150.511 52V7.61914H183.418V15.127H159.472V24.9658H181.753V32.4434H159.472V44.5225H184.266V52H150.511Z" fill="black"/>
<path d="M191.804 52V7.61914H200.311V52H191.804Z" fill="black"/>
<path d="M215.417 29.6582L207.697 28.2656C208.565 25.1576 210.059 22.8568 212.178 21.3633C214.297 19.8698 217.445 19.123 221.623 19.123C225.417 19.123 228.243 19.5771 230.1 20.4854C231.956 21.3734 233.258 22.5137 234.005 23.9062C234.772 25.2786 235.155 27.8115 235.155 31.5049L235.064 41.4346C235.064 44.2601 235.196 46.349 235.458 47.7012C235.741 49.0332 236.255 50.4661 237.002 52H228.586C228.364 51.4349 228.091 50.5973 227.769 49.4873C227.627 48.9827 227.526 48.6497 227.466 48.4883C226.013 49.901 224.459 50.9606 222.804 51.667C221.149 52.3734 219.383 52.7266 217.506 52.7266C214.196 52.7266 211.582 51.8285 209.665 50.0322C207.768 48.236 206.819 45.9655 206.819 43.2207C206.819 41.4043 207.253 39.7897 208.121 38.377C208.989 36.944 210.2 35.8542 211.754 35.1074C213.328 34.3405 215.589 33.6745 218.535 33.1094C222.511 32.3626 225.266 31.6663 226.8 31.0205V30.1729C226.8 28.5381 226.396 27.3776 225.589 26.6914C224.782 25.985 223.258 25.6318 221.018 25.6318C219.504 25.6318 218.323 25.9346 217.476 26.54C216.628 27.1253 215.942 28.1647 215.417 29.6582ZM226.8 36.5605C225.71 36.9238 223.984 37.3577 221.623 37.8623C219.262 38.3669 217.718 38.8613 216.991 39.3457C215.881 40.1328 215.326 41.1318 215.326 42.3428C215.326 43.5335 215.77 44.5628 216.658 45.4307C217.546 46.2985 218.676 46.7324 220.049 46.7324C221.583 46.7324 223.046 46.2279 224.438 45.2188C225.468 44.4518 226.144 43.5133 226.467 42.4033C226.689 41.6768 226.8 40.2943 226.8 38.2559V36.5605Z" fill="black"/>
<path d="M240.574 42.8271L249.111 41.5254C249.475 43.1803 250.211 44.4417 251.321 45.3096C252.431 46.1572 253.985 46.5811 255.983 46.5811C258.183 46.5811 259.838 46.1774 260.948 45.3701C261.695 44.805 262.068 44.0482 262.068 43.0996C262.068 42.4538 261.867 41.9189 261.463 41.4951C261.039 41.0915 260.09 40.7181 258.617 40.375C251.755 38.8613 247.406 37.4788 245.569 36.2275C243.026 34.4919 241.755 32.0801 241.755 28.9922C241.755 26.207 242.855 23.8659 245.055 21.9688C247.255 20.0716 250.665 19.123 255.287 19.123C259.687 19.123 262.956 19.8395 265.096 21.2725C267.235 22.7054 268.708 24.8245 269.516 27.6299L261.493 29.1133C261.15 27.862 260.494 26.9033 259.525 26.2373C258.577 25.5713 257.215 25.2383 255.438 25.2383C253.198 25.2383 251.594 25.5511 250.625 26.1768C249.979 26.6208 249.656 27.196 249.656 27.9023C249.656 28.5078 249.939 29.0225 250.504 29.4463C251.271 30.0114 253.915 30.8086 258.436 31.8379C262.977 32.8672 266.145 34.1286 267.941 35.6221C269.717 37.1357 270.605 39.2448 270.605 41.9492C270.605 44.8958 269.374 47.4287 266.912 49.5479C264.45 51.667 260.807 52.7266 255.983 52.7266C251.604 52.7266 248.132 51.8385 245.569 50.0625C243.026 48.2865 241.361 45.8747 240.574 42.8271Z" fill="black"/>
<path d="M292.826 19.8496V26.6309H287.014V39.5879C287.014 42.2116 287.064 43.7454 287.165 44.1895C287.286 44.6133 287.538 44.9665 287.922 45.249C288.326 45.5316 288.81 45.6729 289.375 45.6729C290.162 45.6729 291.302 45.4004 292.796 44.8555L293.522 51.4551C291.545 52.3027 289.304 52.7266 286.802 52.7266C285.268 52.7266 283.885 52.4743 282.654 51.9697C281.423 51.445 280.515 50.779 279.93 49.9717C279.365 49.1442 278.971 48.0342 278.749 46.6416C278.567 45.6527 278.477 43.6546 278.477 40.6475V26.6309H274.571V19.8496H278.477V13.4619L287.014 8.49707V19.8496H292.826Z" fill="black"/>
<path d="M298.729 15.4902V7.61914H307.236V15.4902H298.729ZM298.729 52V19.8496H307.236V52H298.729Z" fill="black"/>
<path d="M344.019 29.3555L335.633 30.8691C335.35 29.194 334.704 27.9326 333.695 27.085C332.706 26.2373 331.415 25.8135 329.82 25.8135C327.701 25.8135 326.006 26.5501 324.734 28.0234C323.483 29.4766 322.857 31.9186 322.857 35.3496C322.857 39.1641 323.493 41.8584 324.765 43.4326C326.056 45.0068 327.782 45.7939 329.941 45.7939C331.556 45.7939 332.878 45.3398 333.907 44.4316C334.937 43.5033 335.663 41.9189 336.087 39.6787L344.442 41.1016C343.575 44.9362 341.91 47.8324 339.447 49.79C336.985 51.7477 333.685 52.7266 329.548 52.7266C324.845 52.7266 321.091 51.2432 318.286 48.2764C315.501 45.3096 314.108 41.2025 314.108 35.9551C314.108 30.6471 315.511 26.5199 318.316 23.5732C321.122 20.6064 324.916 19.123 329.699 19.123C333.615 19.123 336.723 19.9707 339.023 21.666C341.344 23.3411 343.009 25.9043 344.019 29.3555Z" fill="black"/>
<path d="M367.935 52V7.61914H376.896V27.3271L394.999 7.61914H407.048L390.337 24.9053L407.956 52H396.361L384.161 31.1719L376.896 38.5889V52H367.935Z" fill="black"/>
<path d="M433.719 52V47.1865C432.548 48.902 431.004 50.2542 429.087 51.2432C427.19 52.2321 425.182 52.7266 423.062 52.7266C420.903 52.7266 418.965 52.2523 417.25 51.3037C415.535 50.3551 414.293 49.0231 413.526 47.3076C412.759 45.5921 412.376 43.2207 412.376 40.1934V19.8496H420.883V34.623C420.883 39.1439 421.034 41.9189 421.337 42.9482C421.66 43.9574 422.235 44.7646 423.062 45.3701C423.89 45.9554 424.939 46.248 426.211 46.248C427.664 46.248 428.966 45.8545 430.116 45.0674C431.267 44.2601 432.054 43.2712 432.478 42.1006C432.901 40.9098 433.113 38.0137 433.113 33.4121V19.8496H441.62V52H433.719Z" fill="black"/>
<path d="M450.097 52V7.61914H458.604V23.6035C461.227 20.6165 464.335 19.123 467.928 19.123C471.843 19.123 475.082 20.5459 477.646 23.3916C480.209 26.2171 481.49 30.2839 481.49 35.5918C481.49 41.0814 480.178 45.3096 477.555 48.2764C474.951 51.2432 471.783 52.7266 468.049 52.7266C466.212 52.7266 464.396 52.2725 462.6 51.3643C460.824 50.4359 459.29 49.0736 457.998 47.2773V52H450.097ZM458.543 35.2285C458.543 38.5586 459.068 41.0208 460.117 42.6152C461.59 44.8757 463.548 46.0059 465.99 46.0059C467.867 46.0059 469.462 45.2087 470.773 43.6143C472.105 41.9997 472.771 39.4668 472.771 36.0156C472.771 32.3424 472.105 29.6986 470.773 28.084C469.441 26.4492 467.736 25.6318 465.657 25.6318C463.619 25.6318 461.924 26.429 460.571 28.0234C459.219 29.5977 458.543 31.9993 458.543 35.2285Z" fill="black"/>
<path d="M506.98 41.7676L515.457 43.1904C514.367 46.2985 512.642 48.6699 510.28 50.3047C507.939 51.9193 505.003 52.7266 501.471 52.7266C495.88 52.7266 491.743 50.9001 489.059 47.2471C486.939 44.3206 485.88 40.6273 485.88 36.167C485.88 30.8389 487.272 26.6712 490.058 23.6641C492.843 20.6367 496.365 19.123 500.623 19.123C505.406 19.123 509.18 20.7074 511.945 23.876C514.71 27.0244 516.032 31.8581 515.911 38.377H494.599C494.659 40.8997 495.345 42.8675 496.657 44.2803C497.969 45.6729 499.604 46.3691 501.562 46.3691C502.894 46.3691 504.014 46.0059 504.922 45.2793C505.83 44.5527 506.516 43.3822 506.98 41.7676ZM507.465 33.1699C507.404 30.7077 506.769 28.8408 505.558 27.5693C504.347 26.2777 502.873 25.6318 501.138 25.6318C499.281 25.6318 497.747 26.3079 496.536 27.6602C495.325 29.0124 494.73 30.849 494.75 33.1699H507.465Z" fill="black"/>
<path d="M531.018 52H522.511V19.8496H530.412V24.4209C531.764 22.2614 532.975 20.8385 534.045 20.1523C535.135 19.4661 536.366 19.123 537.738 19.123C539.676 19.123 541.543 19.6579 543.339 20.7275L540.705 28.1445C539.272 27.2161 537.94 26.752 536.709 26.752C535.518 26.752 534.509 27.085 533.682 27.751C532.854 28.3968 532.198 29.5775 531.714 31.293C531.25 33.0085 531.018 36.6009 531.018 42.0703V52Z" fill="black"/>
<path d="M576.276 52H567.77V35.5918C567.77 32.1204 567.588 29.8802 567.225 28.8711C566.861 27.8418 566.266 27.0446 565.438 26.4795C564.631 25.9144 563.652 25.6318 562.502 25.6318C561.029 25.6318 559.707 26.0355 558.536 26.8428C557.366 27.6501 556.558 28.7197 556.114 30.0518C555.69 31.3838 555.479 33.846 555.479 37.4385V52H546.972V19.8496H554.873V24.5723C557.678 20.9395 561.21 19.123 565.469 19.123C567.346 19.123 569.061 19.4661 570.615 20.1523C572.169 20.8184 573.34 21.6761 574.127 22.7256C574.934 23.7751 575.489 24.9658 575.792 26.2979C576.115 27.6299 576.276 29.5371 576.276 32.0195V52Z" fill="black"/>
<path d="M603.553 41.7676L612.029 43.1904C610.939 46.2985 609.214 48.6699 606.853 50.3047C604.511 51.9193 601.575 52.7266 598.043 52.7266C592.452 52.7266 588.315 50.9001 585.631 47.2471C583.512 44.3206 582.452 40.6273 582.452 36.167C582.452 30.8389 583.845 26.6712 586.63 23.6641C589.415 20.6367 592.937 19.123 597.195 19.123C601.979 19.123 605.753 20.7074 608.518 23.876C611.283 27.0244 612.604 31.8581 612.483 38.377H591.171C591.231 40.8997 591.918 42.8675 593.229 44.2803C594.541 45.6729 596.176 46.3691 598.134 46.3691C599.466 46.3691 600.586 46.0059 601.494 45.2793C602.402 44.5527 603.089 43.3822 603.553 41.7676ZM604.037 33.1699C603.977 30.7077 603.341 28.8408 602.13 27.5693C600.919 26.2777 599.446 25.6318 597.71 25.6318C595.853 25.6318 594.319 26.3079 593.108 27.6602C591.897 29.0124 591.302 30.849 591.322 33.1699H604.037Z" fill="black"/>
<path d="M634.189 19.8496V26.6309H628.377V39.5879C628.377 42.2116 628.427 43.7454 628.528 44.1895C628.649 44.6133 628.902 44.9665 629.285 45.249C629.689 45.5316 630.173 45.6729 630.738 45.6729C631.525 45.6729 632.666 45.4004 634.159 44.8555L634.886 51.4551C632.908 52.3027 630.668 52.7266 628.165 52.7266C626.631 52.7266 625.249 52.4743 624.018 51.9697C622.786 51.445 621.878 50.779 621.293 49.9717C620.728 49.1442 620.334 48.0342 620.112 46.6416C619.931 45.6527 619.84 43.6546 619.84 40.6475V26.6309H615.935V19.8496H619.84V13.4619L628.377 8.49707V19.8496H634.189Z" fill="black"/>
<path d="M658.711 41.7676L667.188 43.1904C666.098 46.2985 664.372 48.6699 662.011 50.3047C659.67 51.9193 656.733 52.7266 653.201 52.7266C647.611 52.7266 643.473 50.9001 640.789 47.2471C638.67 44.3206 637.61 40.6273 637.61 36.167C637.61 30.8389 639.003 26.6712 641.788 23.6641C644.573 20.6367 648.095 19.123 652.354 19.123C657.137 19.123 660.911 20.7074 663.676 23.876C666.441 27.0244 667.763 31.8581 667.642 38.377H646.329C646.39 40.8997 647.076 42.8675 648.388 44.2803C649.7 45.6729 651.334 46.3691 653.292 46.3691C654.624 46.3691 655.744 46.0059 656.652 45.2793C657.561 44.5527 658.247 43.3822 658.711 41.7676ZM659.195 33.1699C659.135 30.7077 658.499 28.8408 657.288 27.5693C656.077 26.2777 654.604 25.6318 652.868 25.6318C651.011 25.6318 649.478 26.3079 648.267 27.6602C647.056 29.0124 646.46 30.849 646.48 33.1699H659.195Z" fill="black"/>
<path d="M671.607 42.8271L680.145 41.5254C680.508 43.1803 681.244 44.4417 682.354 45.3096C683.465 46.1572 685.019 46.5811 687.017 46.5811C689.216 46.5811 690.871 46.1774 691.981 45.3701C692.728 44.805 693.102 44.0482 693.102 43.0996C693.102 42.4538 692.9 41.9189 692.496 41.4951C692.072 41.0915 691.124 40.7181 689.65 40.375C682.788 38.8613 678.439 37.4788 676.603 36.2275C674.06 34.4919 672.788 32.0801 672.788 28.9922C672.788 26.207 673.888 23.8659 676.088 21.9688C678.288 20.0716 681.699 19.123 686.32 19.123C690.72 19.123 693.99 19.8395 696.129 21.2725C698.268 22.7054 699.742 24.8245 700.549 27.6299L692.526 29.1133C692.183 27.862 691.527 26.9033 690.559 26.2373C689.61 25.5713 688.248 25.2383 686.472 25.2383C684.231 25.2383 682.627 25.5511 681.658 26.1768C681.012 26.6208 680.689 27.196 680.689 27.9023C680.689 28.5078 680.972 29.0225 681.537 29.4463C682.304 30.0114 684.948 30.8086 689.469 31.8379C694.01 32.8672 697.178 34.1286 698.975 35.6221C700.751 37.1357 701.639 39.2448 701.639 41.9492C701.639 44.8958 700.408 47.4287 697.945 49.5479C695.483 51.667 691.84 52.7266 687.017 52.7266C682.637 52.7266 679.166 51.8385 676.603 50.0625C674.06 48.2865 672.395 45.8747 671.607 42.8271Z" fill="black"/>
<path d="M148.24 102.697L156.959 101.85C157.484 104.776 158.543 106.925 160.138 108.298C161.752 109.67 163.922 110.356 166.646 110.356C169.533 110.356 171.702 109.751 173.155 108.54C174.629 107.309 175.365 105.876 175.365 104.241C175.365 103.192 175.052 102.304 174.427 101.577C173.821 100.83 172.752 100.185 171.218 99.6396C170.168 99.2764 167.777 98.6305 164.043 97.7021C159.24 96.5114 155.869 95.0482 153.932 93.3125C151.207 90.8704 149.845 87.8936 149.845 84.3818C149.845 82.1214 150.48 80.0124 151.752 78.0547C153.044 76.0768 154.89 74.5732 157.292 73.5439C159.714 72.5146 162.63 72 166.041 72C171.611 72 175.799 73.221 178.604 75.6631C181.43 78.1051 182.913 81.3646 183.055 85.4414L174.094 85.835C173.71 83.5544 172.883 81.9196 171.611 80.9307C170.36 79.9215 168.473 79.417 165.95 79.417C163.347 79.417 161.308 79.9518 159.835 81.0215C158.886 81.7077 158.412 82.626 158.412 83.7764C158.412 84.8258 158.856 85.724 159.744 86.4707C160.874 87.4193 163.619 88.4082 167.979 89.4375C172.338 90.4668 175.557 91.5365 177.636 92.6465C179.735 93.7363 181.369 95.2399 182.54 97.1572C183.731 99.0544 184.326 101.406 184.326 104.211C184.326 106.754 183.62 109.135 182.207 111.355C180.794 113.576 178.796 115.23 176.213 116.32C173.63 117.39 170.41 117.925 166.556 117.925C160.945 117.925 156.636 116.633 153.629 114.05C150.622 111.446 148.826 107.662 148.24 102.697Z" fill="black"/>
<path d="M210.422 106.905L218.898 108.328C217.809 111.436 216.083 113.808 213.722 115.442C211.381 117.057 208.444 117.864 204.912 117.864C199.322 117.864 195.184 116.038 192.5 112.385C190.381 109.458 189.321 105.765 189.321 101.305C189.321 95.9766 190.714 91.8089 193.499 88.8018C196.284 85.7744 199.806 84.2607 204.064 84.2607C208.848 84.2607 212.622 85.8451 215.387 89.0137C218.152 92.1621 219.474 96.9958 219.353 103.515H198.04C198.101 106.037 198.787 108.005 200.099 109.418C201.41 110.811 203.045 111.507 205.003 111.507C206.335 111.507 207.455 111.144 208.363 110.417C209.271 109.69 209.958 108.52 210.422 106.905ZM210.906 98.3076C210.846 95.8454 210.21 93.9785 208.999 92.707C207.788 91.4154 206.315 90.7695 204.579 90.7695C202.722 90.7695 201.188 91.4456 199.978 92.7979C198.767 94.1501 198.171 95.9867 198.191 98.3076H210.906Z" fill="black"/>
<path d="M234.459 117.138H225.952V84.9873H233.854V89.5586C235.206 87.3991 236.417 85.9762 237.486 85.29C238.576 84.6038 239.807 84.2607 241.18 84.2607C243.117 84.2607 244.984 84.7956 246.78 85.8652L244.146 93.2822C242.714 92.3538 241.382 91.8896 240.15 91.8896C238.96 91.8896 237.951 92.2227 237.123 92.8887C236.296 93.5345 235.64 94.7152 235.155 96.4307C234.691 98.1462 234.459 101.739 234.459 107.208V117.138Z" fill="black"/>
<path d="M259.313 117.138L246.356 84.9873H255.287L261.342 101.396L263.098 106.875C263.562 105.482 263.854 104.564 263.976 104.12C264.258 103.212 264.561 102.304 264.884 101.396L270.999 84.9873H279.748L266.973 117.138H259.313Z" fill="black"/>
<path d="M284.985 80.6279V72.7568H293.492V80.6279H284.985ZM284.985 117.138V84.9873H293.492V117.138H284.985Z" fill="black"/>
<path d="M330.274 94.4932L321.889 96.0068C321.606 94.3317 320.96 93.0703 319.951 92.2227C318.962 91.375 317.671 90.9512 316.076 90.9512C313.957 90.9512 312.262 91.6878 310.99 93.1611C309.739 94.6143 309.113 97.0563 309.113 100.487C309.113 104.302 309.749 106.996 311.021 108.57C312.312 110.145 314.038 110.932 316.197 110.932C317.812 110.932 319.134 110.478 320.163 109.569C321.192 108.641 321.919 107.057 322.343 104.816L330.698 106.239C329.83 110.074 328.165 112.97 325.703 114.928C323.241 116.885 319.941 117.864 315.804 117.864C311.101 117.864 307.347 116.381 304.542 113.414C301.757 110.447 300.364 106.34 300.364 101.093C300.364 95.7848 301.767 91.6576 304.572 88.7109C307.378 85.7441 311.172 84.2607 315.955 84.2607C319.87 84.2607 322.979 85.1084 325.279 86.8037C327.6 88.4788 329.265 91.042 330.274 94.4932Z" fill="black"/>
<path d="M355.371 106.905L363.848 108.328C362.758 111.436 361.032 113.808 358.671 115.442C356.33 117.057 353.393 117.864 349.861 117.864C344.271 117.864 340.133 116.038 337.449 112.385C335.33 109.458 334.271 105.765 334.271 101.305C334.271 95.9766 335.663 91.8089 338.448 88.8018C341.233 85.7744 344.755 84.2607 349.014 84.2607C353.797 84.2607 357.571 85.8451 360.336 89.0137C363.101 92.1621 364.423 96.9958 364.302 103.515H342.989C343.05 106.037 343.736 108.005 345.048 109.418C346.36 110.811 347.994 111.507 349.952 111.507C351.284 111.507 352.404 111.144 353.312 110.417C354.221 109.69 354.907 108.52 355.371 106.905ZM355.855 98.3076C355.795 95.8454 355.159 93.9785 353.948 92.707C352.737 91.4154 351.264 90.7695 349.528 90.7695C347.672 90.7695 346.138 91.4456 344.927 92.7979C343.716 94.1501 343.12 95.9867 343.141 98.3076H355.855Z" fill="black"/>
<path d="M402.628 130.186H396.785C393.697 125.523 391.346 120.68 389.731 115.654C388.117 110.629 387.31 105.765 387.31 101.062C387.31 95.2298 388.309 89.71 390.307 84.5029C392.042 79.9821 394.242 75.8145 396.906 72H402.719C399.954 78.1152 398.047 83.3223 396.997 87.6211C395.968 91.8997 395.453 96.4408 395.453 101.244C395.453 104.554 395.756 107.945 396.361 111.416C396.987 114.887 397.835 118.187 398.904 121.315C399.611 123.374 400.852 126.331 402.628 130.186Z" fill="black"/>
<path d="M409.228 117.138V72.7568H442.135V80.2646H418.188V90.1035H440.47V97.5811H418.188V109.66H442.982V117.138H409.228Z" fill="black"/>
<path d="M450.702 117.138V72.7568H459.663V92.4648L477.767 72.7568H489.815L473.104 90.043L490.724 117.138H479.129L466.929 96.3096L459.663 103.727V117.138H450.702Z" fill="black"/>
<path d="M493.115 102.697L501.834 101.85C502.359 104.776 503.418 106.925 505.013 108.298C506.627 109.67 508.797 110.356 511.521 110.356C514.408 110.356 516.577 109.751 518.03 108.54C519.504 107.309 520.24 105.876 520.24 104.241C520.24 103.192 519.927 102.304 519.302 101.577C518.696 100.83 517.627 100.185 516.093 99.6396C515.043 99.2764 512.652 98.6305 508.918 97.7021C504.115 96.5114 500.744 95.0482 498.807 93.3125C496.082 90.8704 494.72 87.8936 494.72 84.3818C494.72 82.1214 495.355 80.0124 496.627 78.0547C497.919 76.0768 499.765 74.5732 502.167 73.5439C504.589 72.5146 507.505 72 510.916 72C516.486 72 520.674 73.221 523.479 75.6631C526.305 78.1051 527.788 81.3646 527.93 85.4414L518.969 85.835C518.585 83.5544 517.758 81.9196 516.486 80.9307C515.235 79.9215 513.348 79.417 510.825 79.417C508.222 79.417 506.183 79.9518 504.71 81.0215C503.761 81.7077 503.287 82.626 503.287 83.7764C503.287 84.8258 503.731 85.724 504.619 86.4707C505.749 87.4193 508.494 88.4082 512.854 89.4375C517.213 90.4668 520.432 91.5365 522.511 92.6465C524.61 93.7363 526.244 95.2399 527.415 97.1572C528.606 99.0544 529.201 101.406 529.201 104.211C529.201 106.754 528.495 109.135 527.082 111.355C525.669 113.576 523.671 115.23 521.088 116.32C518.505 117.39 515.285 117.925 511.431 117.925C505.82 117.925 501.511 116.633 498.504 114.05C495.497 111.446 493.701 107.662 493.115 102.697Z" fill="black"/>
<path d="M534.317 130.186C535.993 126.593 537.173 123.838 537.859 121.921C538.546 120.004 539.181 117.794 539.767 115.291C540.352 112.788 540.786 110.417 541.068 108.177C541.351 105.916 541.492 103.605 541.492 101.244C541.492 96.4408 540.978 91.8997 539.948 87.6211C538.919 83.3223 537.022 78.1152 534.257 72H540.039C543.087 76.3392 545.448 80.9408 547.123 85.8047C548.818 90.6686 549.666 95.6032 549.666 100.608C549.666 104.826 549 109.347 547.668 114.171C546.154 119.58 543.662 124.918 540.19 130.186H534.317Z" fill="black"/>
</svg>
