<?xml version="1.0" encoding="utf-8"?>
<!-- Generator: Adobe Illustrator 25.2.1, SVG Export Plug-In . SVG Version: 6.00 Build 0)  -->
<svg version="1.1" id="Layer_1" xmlns="http://www.w3.org/2000/svg" xmlns:xlink="http://www.w3.org/1999/xlink" x="0px" y="0px"
	 viewBox="0 0 216.7 50" style="enable-background:new 0 0 216.7 50;" xml:space="preserve">
<style type="text/css">
	.st0{fill:#ED1C24;}
	.st1{fill:#707073;}
</style>
<polygon class="st0" points="71.1,6.5 71.1,19 68.3,20 68.3,5.5 59.7,2.5 59.7,23 56.8,24 56.8,1.5 52.5,0 48.2,1.5 48.2,24 
	45.4,23 45.4,2.5 36.8,5.5 36.8,20 33.9,19 33.9,6.5 31,7.5 31,21.1 39.6,24.1 39.6,7.5 42.5,6.5 42.5,25.1 51.1,28.1 51.1,3.5 
	52.5,3 54,3.5 54,28.1 62.5,25.1 62.5,6.5 65.4,7.5 65.4,24.1 74,21.1 74,7.5 "/>
<g>
	<polygon points="1.5,44.4 6.6,44.4 6.6,43 1.5,43 1.5,40 9.1,40 9.1,38.6 0,38.6 0,49.2 9.4,49.2 9.4,47.8 1.5,47.8 	"/>
	<g>
		<path d="M41.8,45c0,1.9-1.2,3.1-3.1,3.1c-1.8,0-2.9-1.3-2.9-3.1v-6.3h-1.5v6.4c0,2.9,2.1,4.4,4.4,4.4c3.5,0,4.6-2.4,4.6-4.4v-6.4
			h-1.5V45z"/>
	</g>
	<rect x="51.8" y="38.6" width="1.5" height="10.5"/>
	<polygon points="71.4,46.9 63.9,38.6 62.4,38.6 62.4,49.2 63.9,49.2 63.9,40.8 71.4,49.2 72.9,49.2 72.9,38.6 71.4,38.6 	"/>
	<rect x="82" y="38.6" width="1.5" height="10.5"/>
	<polygon points="98.3,43.5 102.7,38.6 100.8,38.6 97.3,42.4 93.9,38.6 92,38.6 96.2,43.5 90.9,49.2 92.8,49.2 97.2,44.5 
		101.3,49.2 103.4,49.2 	"/>
	<path d="M20.9,38.2c-3.1,0-5.6,2.4-5.6,5.7v0c0,3.3,2.5,5.6,5.6,5.6c0.8,0,1.7-0.2,2.5-0.6l0.9,1l1.8,0l-1.5-1.7
		c1.2-0.9,2-2.5,2-4.4v0C26.5,40.5,24,38.2,20.9,38.2 M25,43.9c0,1.5-0.5,2.5-1.4,3.3l-0.8-0.9l-1.8,0l1.4,1.7
		c-0.4,0.2-1,0.3-1.5,0.3c-2.3,0-4.1-1.8-4.1-4.3l0,0c0-2.5,1.7-4.3,4-4.3C23.2,39.5,25,41.4,25,43.9L25,43.9z"/>
</g>
<path class="st0" d="M79.5,20.1c1.4,0,2.6-1.2,2.6-2.6v0c0-1.4-1.1-2.6-2.6-2.6c-1.4,0-2.6,1.2-2.6,2.6v0C76.9,19,78,20.1,79.5,20.1
	 M79.5,19.8c-1.3,0-2.3-1-2.3-2.3v0c0-1.3,1-2.3,2.3-2.3c1.3,0,2.3,1,2.3,2.3v0C81.8,18.8,80.8,19.8,79.5,19.8 M78.4,18.8h0.7V18
	h0.4l0.6,0.8h0.8l-0.7-1c0.4-0.1,0.6-0.4,0.6-0.8c0-0.6-0.5-0.9-1.1-0.9h-1.3V18.8z M79.1,17.4v-0.7h0.6c0.3,0,0.5,0.1,0.5,0.4
	c0,0.2-0.2,0.4-0.5,0.4H79.1z"/>
<path class="st1" d="M146.5,19.1h2.3l3.7,5.5l3.7-5.5h2.3v11.5h-2.1v-8.3l-3.8,5.4h-0.1l-3.8-5.4v8.2h-2.1V19.1z"/>
<path class="st1" d="M163,19.1h9v1.8h-6.9v3h6.1v1.8h-6.1v3.1h6.9v1.8H163V19.1z"/>
<path class="st1" d="M178.9,21h-3.8v-1.9h9.8V21h-3.8v9.7h-2.1V21z"/>
<path class="st1" d="M191.3,19h2l5.3,11.6h-2.3l-1.2-2.8h-5.7l-1.2,2.8H186L191.3,19z M194.4,26.1l-2.1-4.6l-2.1,4.6H194.4z"/>
<path class="st1" d="M202.1,19.1h2.1v9.7h6.4v1.8h-8.5V19.1z"/>
<g>
	<rect x="125.7" y="0" class="st1" width="0.5" height="50"/>
</g>
<g>
	<path class="st1" d="M211.7,19.4h-1v-0.3h2.4v0.3h-1v2.8h-0.4V19.4z"/>
	<path class="st1" d="M213.7,19.1h0.4l1.1,1.7l1.1-1.7h0.4v3.1h-0.3v-2.5l-1.1,1.6h0l-1.1-1.6v2.5h-0.3V19.1z"/>
</g>
</svg>
