<svg width="532" height="131" viewBox="0 0 532 131" fill="none" xmlns="http://www.w3.org/2000/svg">
<rect width="532" height="131"/>
<path d="M50.43 2.63993L7.99 27.1499C5.56049 28.5549 3.5433 30.5743 2.14086 33.0053C0.738433 35.4363 0.000110183 38.1934 0 40.9999V89.9999C0.00287794 92.8057 0.743543 95.5615 2.14769 97.9906C3.55184 100.42 5.5701 102.437 8 103.84L50.43 128.36C52.8623 129.764 55.6214 130.504 58.43 130.504C61.2386 130.504 63.9977 129.764 66.43 128.36L108.88 103.85C111.31 102.447 113.328 100.43 114.732 98.0006C116.136 95.5715 116.877 92.8157 116.88 90.0099V40.9999C116.877 38.1941 116.136 35.4384 114.732 33.0092C113.328 30.5801 111.31 28.5628 108.88 27.1599L66.43 2.63993C63.9977 1.23564 61.2386 0.496338 58.43 0.496338C55.6214 0.496338 52.8623 1.23564 50.43 2.63993V2.63993Z" fill="#326DEA"/>
<path d="M84.2701 48.32L60.3701 34.52C59.7781 34.1806 59.1075 34.002 58.4251 34.002C57.7426 34.002 57.0721 34.1806 56.4801 34.52L32.5701 48.32C31.9695 48.6585 31.4686 49.149 31.1176 49.7423C30.7665 50.3356 30.5777 51.0107 30.5701 51.7V79.3C30.5736 79.9902 30.7607 80.667 31.1122 81.261C31.4637 81.8549 31.9668 82.3447 32.5701 82.68L56.4801 96.48C57.0736 96.8204 57.7459 96.9995 58.4301 96.9995C59.1143 96.9995 59.7865 96.8204 60.3801 96.48L84.2901 82.68C84.8906 82.3415 85.3915 81.8511 85.7426 81.2578C86.0936 80.6645 86.2824 79.9893 86.2901 79.3V51.7C86.2735 51.0103 86.0787 50.3365 85.7248 49.7443C85.3708 49.152 84.8697 48.6614 84.2701 48.32V48.32ZM58.4301 91.49L37.4301 79.39L46.7801 73.84L57.1001 79.84V66.61L45.7301 60V71L35.9201 76.84V52.51L56.9201 40.38V52.08L47.0101 57.8L58.4301 64.39L69.8301 57.8L59.9301 52.08V40.38L80.9301 52.51V76.73L71.1201 70.9V60L59.7001 66.61V79.79L70.0801 73.79L79.4301 79.36L58.4301 91.49Z" fill="white"/>
<path d="M169.021 34.334C168.834 33.3708 168.413 32.4683 167.796 31.706C167.178 30.9437 166.383 30.3449 165.479 29.9624C164.372 29.4958 163.18 29.2631 161.979 29.2788C160.824 29.2523 159.679 29.4887 158.63 29.9702C157.58 30.4517 156.654 31.1657 155.921 32.058C154.165 34.4774 153.325 37.4411 153.549 40.4219C153.549 44.1701 154.405 46.8228 156.117 48.3802C157.69 49.8829 159.783 50.7198 161.958 50.7162C163.882 50.7925 165.764 50.1332 167.219 48.8721C168.604 47.6116 169.499 45.9023 169.746 44.0461H162.683V38.9534H175.4V55.3357H171.175L170.532 51.5237C169.592 52.7059 168.474 53.7357 167.219 54.577C165.331 55.6584 163.18 56.1929 161.005 56.1206C159.143 56.1788 157.29 55.8333 155.574 55.1079C153.858 54.3824 152.319 53.2942 151.063 51.918C148.241 48.7547 146.789 44.6016 147.025 40.3693C146.812 36.0329 148.273 31.7805 151.105 28.4901C152.472 27.0065 154.145 25.838 156.008 25.0656C157.872 24.2932 159.881 23.9354 161.896 24.0171C165.266 23.851 168.584 24.8984 171.248 26.9691C173.52 28.7904 174.977 31.4394 175.297 34.334L169.021 34.334Z" fill="black"/>
<path d="M199.84 52.5717C198.766 53.7919 197.423 54.7459 195.917 55.3585C194.411 55.9712 192.783 56.2257 191.162 56.1021C189.541 56.2257 187.913 55.9712 186.407 55.3585C184.901 54.7459 183.558 53.7919 182.483 52.5717C180.629 50.1341 179.625 47.1559 179.625 44.0933C179.625 41.0307 180.629 38.0525 182.483 35.6149C183.549 34.3814 184.89 33.4152 186.397 32.7936C187.905 32.172 189.537 31.9124 191.162 32.0357C192.788 31.9124 194.42 32.172 195.927 32.7936C197.434 33.4152 198.774 34.3815 199.84 35.6149C201.694 38.0525 202.698 41.0307 202.698 44.0933C202.698 47.1559 201.694 50.1341 199.84 52.5717V52.5717ZM195.118 49.3118C196.027 47.7195 196.506 45.9176 196.506 44.0839C196.506 42.2503 196.027 40.4483 195.118 38.856C194.625 38.2823 194.014 37.8218 193.327 37.5062C192.64 37.1905 191.892 37.027 191.136 37.027C190.38 37.027 189.632 37.1905 188.945 37.5062C188.258 37.8218 187.647 38.2823 187.154 38.856C186.238 40.4461 185.756 42.2489 185.756 44.0839C185.756 45.9189 186.238 47.7217 187.154 49.3118C187.645 49.8887 188.255 50.352 188.943 50.6698C189.63 50.9875 190.379 51.1521 191.136 51.1521C191.893 51.1521 192.642 50.9875 193.329 50.6698C194.017 50.352 194.627 49.8887 195.118 49.3118V49.3118Z" fill="black"/>
<path d="M225.751 52.5718C224.677 53.7919 223.333 54.7459 221.827 55.3585C220.321 55.9712 218.694 56.2257 217.073 56.1021C215.452 56.2257 213.824 55.9712 212.318 55.3585C210.812 54.7459 209.469 53.7919 208.394 52.5718C206.54 50.1342 205.536 47.156 205.536 44.0933C205.536 41.0307 206.54 38.0525 208.394 35.6149C209.46 34.3815 210.801 33.4152 212.308 32.7936C213.815 32.172 215.447 31.9124 217.073 32.0357C218.698 31.9124 220.33 32.172 221.837 32.7936C223.345 33.4152 224.685 34.3815 225.751 35.6149C227.605 38.0525 228.609 41.0307 228.609 44.0933C228.609 47.1559 227.605 50.1341 225.751 52.5717V52.5718ZM221.029 49.3118C221.939 47.7196 222.417 45.9176 222.417 44.0839C222.417 42.2503 221.939 40.4483 221.029 38.856C220.536 38.2823 219.926 37.8219 219.238 37.5062C218.551 37.1905 217.804 37.0271 217.047 37.0271C216.291 37.0271 215.544 37.1905 214.856 37.5062C214.169 37.8219 213.558 38.2823 213.065 38.856C212.149 40.4459 211.666 42.2488 211.666 44.0839C211.666 45.9191 212.149 47.722 213.065 49.3118C213.556 49.8887 214.166 50.352 214.854 50.6698C215.542 50.9876 216.29 51.1521 217.047 51.1521C217.805 51.1521 218.553 50.9876 219.241 50.6698C219.928 50.352 220.538 49.8887 221.029 49.3118V49.3118Z" fill="black"/>
<path d="M244.003 32.7377C245.504 33.3946 246.731 34.5503 247.477 36.009V32.7604H253.236V54.1752C253.386 56.4665 252.875 58.7527 251.765 60.7626C250.08 63.3015 246.849 64.5709 242.072 64.5709C239.605 64.6773 237.158 64.0891 235.009 62.8734C234.126 62.3415 233.389 61.6002 232.861 60.7152C232.333 59.8301 232.032 58.8287 231.984 57.7995H238.406C238.505 58.3712 238.788 58.8948 239.213 59.2904C240.16 59.9163 241.293 60.201 242.423 60.0979C243.265 60.2019 244.12 60.0549 244.878 59.6754C245.637 59.2959 246.268 58.7008 246.69 57.9647C247.255 56.5016 247.495 54.933 247.394 53.3677V51.9181C246.936 52.7561 246.317 53.4951 245.572 54.0926C244.239 55.0388 242.627 55.512 240.994 55.4371C239.68 55.4889 238.372 55.2409 237.168 54.7119C235.964 54.1829 234.897 53.3867 234.046 52.3838C232.208 50.0309 231.284 47.0915 231.446 44.11C231.344 41.0932 232.222 38.1243 233.949 35.6485C234.752 34.5312 235.822 33.6323 237.062 33.0335C238.301 32.4347 239.67 32.1549 241.045 32.2196C242.055 32.1979 243.06 32.3739 244.003 32.7377ZM246.013 48.9248C247.083 47.4961 247.59 45.7233 247.436 43.9447C247.555 42.2086 247.078 40.4838 246.085 39.0548C245.656 38.5101 245.105 38.0742 244.476 37.7825C243.847 37.4908 243.158 37.3516 242.466 37.3761C241.532 37.3286 240.609 37.5887 239.838 38.1165C239.067 38.6444 238.49 39.4107 238.196 40.298C237.751 41.5247 237.541 42.8243 237.577 44.1288C237.554 45.3286 237.779 46.52 238.238 47.6291C238.547 48.5052 239.133 49.2573 239.906 49.7726C240.679 50.2879 241.599 50.5386 242.527 50.4871C243.186 50.4965 243.84 50.3616 244.443 50.0917C245.045 49.8218 245.581 49.4235 246.013 48.9247L246.013 48.9248Z" fill="black"/>
<path d="M264.772 55.3361H258.87V24.8062H264.772L264.772 55.3361Z" fill="black"/>
<path d="M285.242 33.2149C286.833 33.9359 288.186 35.0953 289.143 36.5574C290.09 37.955 290.705 39.5504 290.941 41.2219C291.123 42.7081 291.188 44.2062 291.136 45.7025H274.694C274.645 46.6328 274.836 47.56 275.249 48.3949C275.663 49.2297 276.285 49.9438 277.054 50.4684C278.036 51.0564 279.165 51.351 280.309 51.3172C281.231 51.3888 282.154 51.18 282.955 50.7183C283.757 50.2565 284.401 49.5633 284.801 48.7295H290.828C290.555 50.2885 289.788 51.7184 288.64 52.8082C287.543 53.9338 286.217 54.8105 284.751 55.3788C283.286 55.9471 281.715 56.1937 280.146 56.1019C277.251 56.1396 274.436 55.1556 272.195 53.3227C269.897 51.4712 268.748 48.4591 268.749 44.2866C268.639 42.6549 268.858 41.0178 269.392 39.4722C269.926 37.9266 270.765 36.5037 271.858 35.288C272.919 34.2423 274.182 33.4251 275.571 32.887C276.96 32.3489 278.444 32.1013 279.932 32.1594C281.757 32.1318 283.566 32.4916 285.242 33.2149V33.2149ZM276.41 38.3151C275.526 39.2828 274.976 40.5082 274.839 41.8116H285.008C285.003 41.1412 284.86 40.4789 284.59 39.8654C284.319 39.2519 283.927 38.7001 283.435 38.2437C282.459 37.4197 281.212 36.9863 279.935 37.0269C279.29 36.987 278.645 37.0808 278.038 37.3025C277.431 37.5242 276.877 37.869 276.41 38.3151L276.41 38.3151Z" fill="black"/>
<path d="M149 71.6252H155.276V84.203L167.072 71.6252H175.314L162.787 84.1805L175.957 102.155H167.755L158.349 88.8262L155.276 91.9434V102.155H149V71.6252Z" fill="black"/>
<path d="M184.936 79.5798V93.1866C184.885 94.174 185.039 95.1612 185.389 96.086C185.675 96.6611 186.131 97.1343 186.695 97.442C187.258 97.7496 187.903 97.8767 188.542 97.8061C189.398 97.8794 190.256 97.6831 190.995 97.2447C191.734 96.8063 192.317 96.1477 192.663 95.3612C193.089 94.2451 193.286 93.0546 193.241 91.8609V79.5798H199.226V102.155H193.49V98.9627C193.434 99.0341 193.296 99.2406 193.077 99.5861C192.861 99.927 192.596 100.234 192.292 100.499C191.519 101.232 190.61 101.809 189.618 102.196C188.641 102.518 187.618 102.671 186.591 102.651C185.236 102.801 183.867 102.537 182.666 101.895C181.464 101.252 180.485 100.26 179.858 99.0492C179.114 97.1885 178.782 95.1881 178.888 93.1866V79.5798H184.936Z" fill="black"/>
<path d="M224.241 82.2913C226.01 84.6813 226.904 87.606 226.774 90.5764C226.894 93.6756 226.018 96.7318 224.275 99.297C223.55 100.459 222.541 101.417 221.344 102.082C220.147 102.747 218.801 103.097 217.431 103.099C216.062 103.101 214.714 102.754 213.515 102.093C212.316 101.431 211.305 100.475 210.577 99.3159V102.155H204.757V71.6665H210.66V82.5204C211.316 81.5599 212.159 80.7423 213.14 80.1168C214.373 79.3824 215.793 79.0223 217.226 79.0802C218.567 79.0192 219.902 79.2787 221.122 79.8371C222.342 80.3956 223.411 81.2369 224.241 82.2913ZM219.306 96.0446C220.217 94.597 220.662 92.9046 220.581 91.196C220.622 89.844 220.409 88.4962 219.954 87.2225C219.653 86.3121 219.06 85.5263 218.268 84.9866C217.475 84.4469 216.527 84.1834 215.569 84.2368C214.611 84.1765 213.66 84.4288 212.858 84.9557C212.055 85.4826 211.446 86.2557 211.121 87.1587C210.661 88.4469 210.449 89.8103 210.494 91.1773C210.428 92.8728 210.88 94.5483 211.789 95.9807C212.226 96.6131 212.819 97.1213 213.511 97.4557C214.203 97.7901 214.97 97.9393 215.736 97.8885C216.44 97.9138 217.138 97.7574 217.763 97.4344C218.388 97.1114 218.92 96.6328 219.306 96.0446H219.306Z" fill="black"/>
<path d="M245.586 80.0343C247.178 80.7553 248.531 81.9147 249.488 83.3768C250.434 84.7743 251.049 86.3698 251.286 88.0413C251.467 89.5274 251.533 91.0255 251.481 92.5218H235.039C234.989 93.4521 235.181 94.3794 235.594 95.2142C236.007 96.049 236.629 96.7632 237.399 97.2877C238.38 97.8757 239.51 98.1703 240.653 98.1365C241.576 98.2081 242.498 97.9994 243.3 97.5376C244.102 97.0759 244.745 96.3827 245.146 95.5489H251.173C250.899 97.1079 250.132 98.5377 248.984 99.6275C247.887 100.753 246.561 101.63 245.096 102.198C243.63 102.766 242.06 103.013 240.491 102.921C237.596 102.959 234.78 101.975 232.539 100.142C230.242 98.2905 229.093 95.2785 229.093 91.1059C228.984 89.4743 229.202 87.8372 229.736 86.2915C230.27 84.7459 231.109 83.3231 232.203 82.1073C233.263 81.0616 234.527 80.2445 235.916 79.7064C237.304 79.1683 238.789 78.9206 240.277 78.9788C242.101 78.9511 243.911 79.3109 245.586 80.0343V80.0343ZM236.755 85.1344C235.871 86.1021 235.32 87.3275 235.183 88.631H245.353C245.347 87.9605 245.205 87.2983 244.934 86.6847C244.664 86.0712 244.271 85.5194 243.78 85.0631C242.803 84.239 241.557 83.8056 240.28 83.8463C239.635 83.8064 238.989 83.9002 238.383 84.1219C237.776 84.3436 237.222 84.6883 236.755 85.1345L236.755 85.1344Z" fill="black"/>
<path d="M267.007 79.05C267.082 79.0576 267.253 79.0688 267.514 79.0801V85.1305C267.142 85.0891 266.81 85.0591 266.521 85.0441C266.229 85.0328 265.995 85.0253 265.816 85.0253C264.88 84.91 263.93 85.0677 263.081 85.4794C262.233 85.8912 261.521 86.5395 261.032 87.3463C260.5 88.6159 260.266 89.9907 260.348 91.3648V102.155H254.403V79.5797H260.037V83.5119C260.665 82.3659 261.469 81.3255 262.419 80.4285C263.641 79.4618 265.171 78.9684 266.727 79.0389C266.838 79.0388 266.93 79.0425 267.007 79.05Z" fill="black"/>
<path d="M289.178 80.8717C289.98 81.6544 290.595 82.6072 290.978 83.6597C291.362 84.7121 291.504 85.8373 291.394 86.9521V102.155H285.348V88.4205C285.395 87.4854 285.233 86.5514 284.875 85.6864C284.562 85.1016 284.082 84.6236 283.496 84.3137C282.909 84.0039 282.244 83.8764 281.585 83.9475C280.72 83.8825 279.857 84.0946 279.121 84.5532C278.386 85.0117 277.815 85.6928 277.493 86.4976C277.075 87.5935 276.879 88.7618 276.918 89.9341V102.155H271.014V79.621H276.732V82.911C277.304 81.9632 278.028 81.1168 278.877 80.4059C280.217 79.4551 281.834 78.9745 283.476 79.0389C285.534 78.9525 287.556 79.6023 289.178 80.8717V80.8717Z" fill="black"/>
<path d="M311.596 80.0343C313.187 80.7553 314.54 81.9147 315.496 83.3768C316.443 84.7745 317.058 86.3698 317.295 88.0413C317.476 89.5274 317.541 91.0255 317.489 92.5218H301.046C300.997 93.4522 301.189 94.3796 301.603 95.2144C302.016 96.0492 302.638 96.7633 303.409 97.2877C304.389 97.8757 305.518 98.1703 306.661 98.1365C307.584 98.2083 308.506 97.9996 309.308 97.5379C310.11 97.0761 310.754 96.3828 311.155 95.5489H317.181C316.908 97.108 316.141 98.538 314.993 99.6275C313.896 100.753 312.57 101.63 311.104 102.198C309.639 102.766 308.068 103.013 306.499 102.921C303.604 102.959 300.788 101.975 298.547 100.142C296.25 98.2905 295.102 95.2785 295.103 91.1059C294.993 89.4743 295.212 87.8372 295.746 86.2915C296.28 84.7459 297.119 83.3231 298.213 82.1073C299.273 81.0616 300.536 80.2445 301.925 79.7064C303.313 79.1683 304.797 78.9206 306.285 78.9788C308.11 78.9512 309.92 79.311 311.596 80.0343V80.0343ZM302.764 85.1344C301.88 86.1016 301.329 87.3273 301.193 88.631H311.361C311.356 87.9606 311.214 87.2982 310.944 86.6847C310.674 86.0712 310.281 85.5193 309.79 85.0631C308.812 84.2392 307.565 83.8058 306.287 83.8463C305.643 83.8062 304.997 83.9 304.391 84.1217C303.785 84.3434 303.231 84.6882 302.764 85.1344H302.764Z" fill="black"/>
<path d="M318.153 83.9889V79.7863H321.303V73.488H327.145V79.7863H330.81V83.9889H327.145V95.9206C327.063 96.5196 327.187 97.1285 327.496 97.6482C328.166 97.9667 328.914 98.0853 329.65 97.99C329.83 97.99 330.02 97.9862 330.221 97.9825C330.42 97.975 330.617 97.9637 330.81 97.9487V102.362L328.014 102.463C327.012 102.621 325.989 102.574 325.006 102.325C324.023 102.076 323.101 101.629 322.296 101.013C321.567 100.143 321.21 99.0202 321.303 97.8885V83.9889L318.153 83.9889Z" fill="black"/>
<path d="M349.312 80.0343C350.904 80.7553 352.256 81.9147 353.213 83.3768C354.159 84.7745 354.775 86.3698 355.012 88.0413C355.193 89.5275 355.258 91.0255 355.207 92.5218H338.765C338.715 93.4521 338.906 94.3796 339.319 95.2145C339.733 96.0494 340.355 96.7635 341.125 97.2877C342.106 97.876 343.236 98.1705 344.379 98.1365C345.301 98.208 346.224 97.9991 347.025 97.5374C347.827 97.0756 348.47 96.3825 348.871 95.5489H354.899C354.625 97.1078 353.857 98.5375 352.709 99.6275C351.612 100.753 350.286 101.63 348.821 102.198C347.355 102.767 345.785 103.013 344.216 102.921C341.321 102.959 338.505 101.975 336.263 100.142C333.967 98.2905 332.819 95.2785 332.819 91.1059C332.71 89.4743 332.928 87.8372 333.462 86.2915C333.997 84.7459 334.835 83.3231 335.929 82.1073C336.989 81.0616 338.253 80.2445 339.641 79.7064C341.03 79.1683 342.514 78.9206 344.002 78.9788C345.827 78.9511 347.637 79.3108 349.312 80.0343V80.0343ZM340.481 85.1344C339.597 86.1021 339.046 87.3275 338.909 88.631H349.078C349.073 87.9606 348.93 87.2982 348.66 86.6847C348.39 86.0712 347.997 85.5193 347.506 85.0631C346.529 84.2389 345.281 83.8054 344.004 83.8463C343.359 83.8064 342.714 83.9003 342.108 84.122C341.501 84.3437 340.947 84.6884 340.481 85.1345V85.1344Z" fill="black"/>
<path d="M362.769 94.9481C362.801 95.7591 363.084 96.5401 363.58 97.1827C364.147 97.6407 364.8 97.9812 365.501 98.1844C366.201 98.3875 366.934 98.4491 367.659 98.3657C368.613 98.4078 369.563 98.2305 370.438 97.8475C370.727 97.7185 370.975 97.513 371.156 97.2532C371.337 96.9934 371.443 96.6892 371.464 96.3734C371.484 96.0575 371.418 95.7421 371.272 95.4611C371.127 95.1802 370.907 94.9443 370.637 94.7791C368.64 93.9927 366.572 93.3966 364.463 92.9989C362.494 92.6399 360.638 91.8244 359.041 90.6178C358.499 90.097 358.076 89.4637 357.804 88.7624C357.532 88.061 357.416 87.3086 357.466 86.5579C357.462 85.5373 357.68 84.528 358.104 83.5999C358.529 82.6719 359.151 81.8474 359.926 81.1836C361.864 79.5824 364.339 78.7793 366.848 78.9376C369.262 78.8321 371.655 79.4171 373.749 80.624C374.684 81.2836 375.45 82.156 375.982 83.1694C376.515 84.1827 376.799 85.3081 376.811 86.4528H370.909C370.866 85.8049 370.643 85.1818 370.265 84.6538C369.837 84.2161 369.316 83.8807 368.741 83.6726C368.165 83.4645 367.55 83.3891 366.941 83.452C365.985 83.3708 365.026 83.5802 364.19 84.0529C363.948 84.2014 363.746 84.4078 363.602 84.6536C363.459 84.8994 363.379 85.1769 363.37 85.4613C363.353 85.7648 363.428 86.0663 363.583 86.3277C363.738 86.5891 363.967 86.7986 364.241 86.9297C366.245 87.6488 368.307 88.1966 370.404 88.5672C372.356 88.9245 374.179 89.7884 375.692 91.0722C376.261 91.6208 376.71 92.2817 377.009 93.013C377.309 93.7442 377.453 94.5299 377.433 95.3199C377.46 96.3634 377.249 97.3993 376.816 98.3489C376.382 99.2984 375.738 100.137 374.932 100.799C372.682 102.388 369.946 103.139 367.201 102.921C364.39 103.149 361.591 102.35 359.325 100.672C358.503 99.9664 357.848 99.0867 357.408 98.0967C356.968 97.1067 356.754 96.0311 356.782 94.9481L362.769 94.9481Z" fill="black"/>
<path d="M416.62 77.0298H400.465V83.512H415.294V88.815H400.465V96.6643H417.365V102.155H394.23V71.6252H416.62V77.0298Z" fill="black"/>
<path d="M440.064 80.8715C440.866 81.6541 441.481 82.6069 441.865 83.6593C442.249 84.7118 442.392 85.8371 442.282 86.952V102.155H436.234V88.4204C436.28 87.4852 436.119 86.5513 435.76 85.6863C435.448 85.1017 434.968 84.6237 434.382 84.3139C433.796 84.0041 433.131 83.8764 432.472 83.9474C431.607 83.882 430.744 84.094 430.008 84.5526C429.272 85.0112 428.701 85.6924 428.379 86.4975C427.96 87.5933 427.765 88.7616 427.804 89.9339V102.155H421.9V79.6208H427.618V82.9108C428.19 81.9631 428.914 81.1166 429.763 80.4058C431.103 79.4552 432.72 78.9746 434.361 79.0387C436.42 78.9518 438.442 79.6016 440.064 80.8715V80.8715Z" fill="black"/>
<path d="M458.938 79.5572C460.44 80.214 461.668 81.3697 462.414 82.8284V79.5798H468.172V100.995C468.322 103.286 467.812 105.572 466.701 107.582C465.017 110.121 461.786 111.39 457.008 111.39C454.541 111.497 452.094 110.908 449.946 109.693C449.063 109.161 448.325 108.42 447.797 107.535C447.27 106.65 446.968 105.648 446.92 104.619H453.343C453.441 105.191 453.725 105.715 454.15 106.11C455.098 106.736 456.23 107.021 457.361 106.917C458.203 107.021 459.057 106.874 459.816 106.494C460.575 106.115 461.205 105.52 461.628 104.784C462.192 103.321 462.432 101.752 462.33 100.187V98.7375C461.873 99.5759 461.254 100.315 460.508 100.912C459.175 101.858 457.564 102.331 455.93 102.257C454.616 102.308 453.308 102.06 452.104 101.531C450.9 101.002 449.833 100.206 448.982 99.2031C447.144 96.8501 446.221 93.9108 446.383 90.9294C446.28 87.9126 447.158 84.9438 448.885 82.4678C449.688 81.3505 450.758 80.4516 451.998 79.8528C453.237 79.254 454.606 78.9742 455.981 79.0389C456.991 79.0172 457.996 79.1933 458.938 79.5572V79.5572ZM460.95 95.7442C462.02 94.3154 462.526 92.5427 462.373 90.7642C462.492 89.0278 462.015 87.3029 461.021 85.8742C460.592 85.3294 460.041 84.8935 459.413 84.6018C458.784 84.3101 458.095 84.1709 457.402 84.1955C456.469 84.1481 455.546 84.4082 454.774 84.9361C454.003 85.4639 453.426 86.2302 453.132 87.1174C452.687 88.3441 452.477 89.6437 452.513 90.9482C452.491 92.1479 452.716 93.3392 453.174 94.4485C453.483 95.3246 454.069 96.0767 454.842 96.592C455.615 97.1073 456.535 97.358 457.462 97.3066C458.123 97.3162 458.777 97.1813 459.379 96.9114C459.981 96.6415 460.518 96.2431 460.95 95.7441L460.95 95.7442Z" fill="black"/>
<path d="M479.749 76.8868H473.764V71.4373H479.749V76.8868ZM473.764 79.5796H479.749V102.155H473.764V79.5796Z" fill="black"/>
<path d="M503.67 80.8715C504.472 81.6541 505.088 82.6069 505.471 83.6593C505.855 84.7118 505.998 85.8371 505.888 86.952V102.155H499.84V88.4204C499.887 87.4854 499.726 86.5515 499.368 85.6863C499.056 85.1016 498.575 84.6237 497.989 84.3139C497.403 84.0041 496.738 83.8765 496.078 83.9474C495.214 83.8818 494.351 84.0937 493.615 84.5524C492.879 85.011 492.309 85.6924 491.987 86.4975C491.567 87.593 491.371 88.7614 491.41 89.9339V102.155H485.508V79.6209H491.224V82.9108C491.796 81.9635 492.521 81.1171 493.369 80.4058C494.709 79.4555 496.326 78.9749 497.968 79.0387C500.026 78.9518 502.048 79.6016 503.67 80.8715V80.8715Z" fill="black"/>
<path d="M526.088 80.0343C527.68 80.7548 529.033 81.9143 529.988 83.3768C530.936 84.7741 531.551 86.3696 531.787 88.0413C531.969 89.5274 532.035 91.0255 531.983 92.5218H515.54C515.491 93.4521 515.682 94.3794 516.096 95.2142C516.509 96.049 517.131 96.7632 517.901 97.2877C518.882 97.8757 520.011 98.1703 521.155 98.1365C522.077 98.2088 523 98.0003 523.802 97.5385C524.603 97.0767 525.247 96.3831 525.647 95.5489H531.675C531.401 97.1081 530.634 98.538 529.485 99.6275C528.389 100.753 527.063 101.63 525.598 102.198C524.133 102.767 522.562 103.013 520.994 102.921C518.098 102.959 515.282 101.975 513.041 100.142C510.744 98.2905 509.596 95.2785 509.595 91.1059C509.485 89.4743 509.704 87.8372 510.238 86.2915C510.772 84.7459 511.611 83.3231 512.705 82.1073C513.765 81.0616 515.029 80.2444 516.418 79.7063C517.807 79.1682 519.291 78.9206 520.779 78.9788C522.604 78.9512 524.413 79.311 526.088 80.0343V80.0343ZM517.257 85.1344C516.373 86.1021 515.822 87.3275 515.685 88.631H525.853C525.848 87.9606 525.706 87.2982 525.436 86.6847C525.166 86.0712 524.773 85.5193 524.282 85.0631C523.305 84.2392 522.058 83.8058 520.781 83.8463C520.137 83.8063 519.491 83.9 518.884 84.1217C518.278 84.3434 517.723 84.6882 517.257 85.1344H517.257Z" fill="black"/>
</svg>
