<svg width="619" height="131" viewBox="0 0 619 131" fill="none" xmlns="http://www.w3.org/2000/svg">
<rect width="619" height="131"/>
<path d="M50.43 2.63993L7.99 27.1499C5.56049 28.5549 3.5433 30.5743 2.14086 33.0053C0.738433 35.4363 0.000110183 38.1934 0 40.9999V89.9999C0.00287794 92.8057 0.743543 95.5615 2.14769 97.9906C3.55184 100.42 5.5701 102.437 8 103.84L50.43 128.36C52.8623 129.764 55.6214 130.504 58.43 130.504C61.2386 130.504 63.9977 129.764 66.43 128.36L108.88 103.85C111.31 102.447 113.328 100.43 114.732 98.0006C116.136 95.5715 116.877 92.8157 116.88 90.0099V40.9999C116.877 38.1941 116.136 35.4384 114.732 33.0092C113.328 30.5801 111.31 28.5628 108.88 27.1599L66.43 2.63993C63.9977 1.23564 61.2386 0.496338 58.43 0.496338C55.6214 0.496338 52.8623 1.23564 50.43 2.63993V2.63993Z" fill="#326DEA"/>
<path d="M84.2701 48.32L60.3701 34.52C59.7781 34.1806 59.1075 34.002 58.4251 34.002C57.7426 34.002 57.0721 34.1806 56.4801 34.52L32.5701 48.32C31.9695 48.6585 31.4686 49.149 31.1176 49.7423C30.7665 50.3356 30.5777 51.0107 30.5701 51.7V79.3C30.5736 79.9902 30.7607 80.667 31.1122 81.261C31.4637 81.8549 31.9668 82.3447 32.5701 82.68L56.4801 96.48C57.0736 96.8204 57.7459 96.9995 58.4301 96.9995C59.1143 96.9995 59.7865 96.8204 60.3801 96.48L84.2901 82.68C84.8906 82.3415 85.3915 81.8511 85.7426 81.2578C86.0936 80.6645 86.2824 79.9893 86.2901 79.3V51.7C86.2735 51.0103 86.0787 50.3365 85.7248 49.7443C85.3708 49.152 84.8697 48.6614 84.2701 48.32V48.32ZM58.4301 91.49L37.4301 79.39L46.7801 73.84L57.1001 79.84V66.61L45.7301 60V71L35.9201 76.84V52.51L56.9201 40.38V52.08L47.0101 57.8L58.4301 64.39L69.8301 57.8L59.9301 52.08V40.38L80.9301 52.51V76.73L71.1201 70.9V60L59.7001 66.61V79.79L70.0801 73.79L79.4301 79.36L58.4301 91.49Z" fill="white"/>
<path d="M173.958 29.6511C173.73 28.472 173.215 27.3671 172.459 26.4339C171.703 25.5006 170.729 24.7676 169.623 24.2993C168.267 23.7281 166.808 23.4432 165.337 23.4625C163.924 23.4299 162.522 23.7194 161.237 24.3088C159.952 24.8983 158.818 25.7724 157.921 26.8648C155.772 29.8266 154.743 33.4549 155.018 37.104C155.018 41.6926 156.066 44.9402 158.161 46.8467C160.087 48.6864 162.649 49.7109 165.312 49.7065C167.668 49.8 169.971 48.9928 171.752 47.449C173.448 45.9059 174.543 43.8133 174.846 41.5409H166.2V35.3063H181.768V55.3618H176.595L175.809 50.6951C174.657 52.1423 173.289 53.4031 171.752 54.4331C169.441 55.7569 166.807 56.4113 164.145 56.3227C161.866 56.3939 159.597 55.971 157.496 55.0829C155.395 54.1948 153.512 52.8626 151.974 51.1778C148.52 47.3052 146.742 42.2209 147.03 37.0396C146.77 31.731 148.558 26.525 152.026 22.4969C153.699 20.6806 155.747 19.2501 158.028 18.3045C160.309 17.359 162.769 16.921 165.236 17.0209C169.362 16.8176 173.424 18.0998 176.685 20.6348C179.467 22.8645 181.249 26.1075 181.641 29.6511L173.958 29.6511Z" fill="black"/>
<path d="M211.688 51.9782C210.372 53.472 208.728 54.6399 206.885 55.3899C205.041 56.1399 203.049 56.4515 201.064 56.3001C199.08 56.4514 197.087 56.1398 195.243 55.3899C193.399 54.6399 191.755 53.472 190.439 51.9782C188.169 48.994 186.94 45.3481 186.94 41.5987C186.94 37.8494 188.169 34.2034 190.439 31.2193C191.744 29.7093 193.386 28.5263 195.231 27.7654C197.076 27.0044 199.074 26.6867 201.064 26.8376C203.054 26.6866 205.052 27.0044 206.897 27.7654C208.742 28.5263 210.383 29.7093 211.688 31.2193C213.957 34.2034 215.187 37.8494 215.187 41.5987C215.187 45.3481 213.957 48.994 211.688 51.9782V51.9782ZM205.907 47.9873C207.02 46.0381 207.606 43.8321 207.606 41.5872C207.606 39.3424 207.02 37.1364 205.907 35.1872C205.304 34.4848 204.556 33.9211 203.714 33.5346C202.873 33.1481 201.958 32.9481 201.032 32.9481C200.106 32.9481 199.191 33.1481 198.35 33.5346C197.509 33.9211 196.761 34.4848 196.157 35.1872C195.036 37.1338 194.446 39.3408 194.446 41.5872C194.446 43.8337 195.036 46.0407 196.157 47.9873C196.758 48.6936 197.505 49.2608 198.347 49.6498C199.189 50.0388 200.105 50.2403 201.032 50.2403C201.96 50.2403 202.876 50.0388 203.717 49.6498C204.559 49.2608 205.306 48.6936 205.907 47.9873V47.9873Z" fill="black"/>
<path d="M243.409 51.9782C242.093 53.472 240.449 54.6399 238.605 55.3899C236.762 56.1398 234.769 56.4515 232.784 56.3001C230.8 56.4515 228.807 56.1398 226.963 55.3899C225.12 54.6399 223.475 53.472 222.16 51.9782C219.89 48.9941 218.661 45.3481 218.661 41.5988C218.661 37.8494 219.89 34.2034 222.16 31.2193C223.465 29.7093 225.106 28.5263 226.951 27.7654C228.796 27.0044 230.794 26.6867 232.784 26.8376C234.775 26.6867 236.772 27.0044 238.617 27.7654C240.463 28.5263 242.104 29.7093 243.409 31.2193C245.679 34.2034 246.908 37.8494 246.908 41.5987C246.908 45.3481 245.679 48.994 243.409 51.9782V51.9782ZM237.628 47.9874C238.741 46.0381 239.327 43.8321 239.327 41.5873C239.327 39.3425 238.741 37.1365 237.628 35.1872C237.025 34.4848 236.277 33.9211 235.436 33.5346C234.594 33.1482 233.679 32.9481 232.753 32.9481C231.827 32.9481 230.912 33.1482 230.071 33.5346C229.23 33.9211 228.482 34.4848 227.879 35.1872C226.756 37.1335 226.166 39.3407 226.166 41.5873C226.166 43.8339 226.756 46.041 227.879 47.9874C228.479 48.6936 229.227 49.2608 230.068 49.6498C230.91 50.0388 231.826 50.2403 232.753 50.2403C233.681 50.2403 234.597 50.0388 235.438 49.6498C236.28 49.2608 237.027 48.6936 237.628 47.9874V47.9874Z" fill="black"/>
<path d="M265.753 27.697C267.59 28.5012 269.093 29.916 270.007 31.7017V27.7247H277.056V53.9412C277.24 56.7463 276.614 59.5452 275.255 62.0057C273.193 65.1138 269.238 66.6679 263.389 66.6678C260.369 66.7981 257.373 66.0781 254.742 64.5897C253.662 63.9386 252.759 63.0311 252.113 61.9476C251.467 60.8641 251.098 59.6381 251.04 58.3781H258.901C259.022 59.0781 259.369 59.7191 259.889 60.2034C261.049 60.9696 262.435 61.3182 263.819 61.1919C264.85 61.3192 265.896 61.1393 266.825 60.6747C267.754 60.2101 268.525 59.4815 269.042 58.5804C269.734 56.7893 270.029 54.8689 269.904 52.9527V51.178C269.344 52.2039 268.586 53.1087 267.674 53.8401C266.042 54.9984 264.069 55.5778 262.07 55.4861C260.461 55.5495 258.859 55.2459 257.386 54.5982C255.912 53.9506 254.605 52.9759 253.564 51.7481C251.313 48.8676 250.182 45.2693 250.381 41.6192C250.255 37.9259 251.33 34.2914 253.444 31.2605C254.428 29.8926 255.738 28.7922 257.255 28.0591C258.772 27.326 260.449 26.9835 262.132 27.0627C263.368 27.0361 264.599 27.2516 265.753 27.697ZM268.214 47.5135C269.524 45.7646 270.144 43.5942 269.956 41.4169C270.101 39.2914 269.518 37.1799 268.302 35.4305C267.777 34.7636 267.102 34.23 266.332 33.8729C265.562 33.5158 264.719 33.3454 263.871 33.3754C262.728 33.3172 261.598 33.6357 260.654 34.2819C259.71 34.9281 259.004 35.8663 258.644 36.9525C258.099 38.4542 257.842 40.0452 257.886 41.6422C257.859 43.111 258.134 44.5696 258.695 45.9273C259.074 46.9999 259.791 47.9206 260.737 48.5514C261.684 49.1823 262.81 49.4892 263.946 49.4262C264.753 49.4377 265.554 49.2725 266.291 48.9421C267.028 48.6117 267.685 48.1241 268.214 47.5134L268.214 47.5135Z" fill="black"/>
<path d="M291.178 55.3622H283.953V17.9868H291.178L291.178 55.3622Z" fill="black"/>
<path d="M316.239 28.2811C318.187 29.1638 319.843 30.5831 321.014 32.373C322.174 34.084 322.926 36.0372 323.216 38.0834C323.438 39.9028 323.518 41.7368 323.455 43.5686H303.326C303.265 44.7075 303.5 45.8427 304.006 46.8647C304.512 47.8867 305.273 48.761 306.215 49.4032C307.417 50.123 308.799 50.4836 310.199 50.4423C311.329 50.5299 312.458 50.2744 313.439 49.7091C314.421 49.1438 315.209 48.2951 315.699 47.2744H323.078C322.743 49.183 321.804 50.9334 320.398 52.2676C319.055 53.6456 317.432 54.7189 315.638 55.4146C313.844 56.1103 311.921 56.4122 310.001 56.2998C306.456 56.346 303.01 55.1413 300.266 52.8975C297.453 50.6308 296.047 46.9434 296.047 41.8352C295.913 39.8377 296.181 37.8336 296.835 35.9414C297.489 34.0492 298.515 32.3073 299.854 30.819C301.153 29.5388 302.699 28.5384 304.399 27.8797C306.1 27.2209 307.917 26.9178 309.738 26.9889C311.972 26.9551 314.188 27.3955 316.239 28.2811V28.2811ZM305.427 34.5248C304.345 35.7095 303.67 37.2096 303.503 38.8054H315.952C315.946 37.9846 315.771 37.1738 315.44 36.4227C315.109 35.6717 314.628 34.9961 314.027 34.4375C312.832 33.4287 311.305 32.898 309.742 32.9478C308.953 32.899 308.162 33.0138 307.419 33.2852C306.677 33.5566 305.999 33.9787 305.427 34.5249L305.427 34.5248Z" fill="black"/>
<path d="M149.448 75.304H157.131V90.7019L171.573 75.304H181.663L166.327 90.6743L182.45 112.679H172.409L160.893 96.3617L157.131 100.178V112.679H149.448V75.304Z" fill="black"/>
<path d="M193.442 85.042V101.7C193.38 102.908 193.568 104.117 193.996 105.249C194.347 105.953 194.905 106.533 195.595 106.909C196.285 107.286 197.075 107.441 197.856 107.355C198.904 107.445 199.954 107.204 200.859 106.668C201.764 106.131 202.478 105.325 202.902 104.362C203.424 102.996 203.664 101.538 203.609 100.077V85.042H210.937V112.679H203.914V108.771C203.846 108.858 203.677 109.111 203.408 109.534C203.144 109.951 202.82 110.328 202.447 110.651C201.501 111.549 200.389 112.255 199.173 112.73C197.978 113.123 196.725 113.311 195.468 113.286C193.809 113.47 192.134 113.147 190.663 112.36C189.191 111.573 187.993 110.359 187.226 108.877C186.314 106.599 185.909 104.15 186.037 101.7V85.042H193.442Z" fill="black"/>
<path d="M241.56 88.3614C243.725 91.2872 244.82 94.8678 244.661 98.5041C244.808 102.298 243.736 106.04 241.601 109.18C240.714 110.602 239.479 111.775 238.014 112.589C236.548 113.404 234.9 113.832 233.223 113.834C231.547 113.836 229.897 113.413 228.429 112.603C226.962 111.793 225.724 110.623 224.832 109.203V112.679H217.707V75.3542H224.933V88.6418C225.736 87.466 226.77 86.465 227.97 85.6992C229.479 84.8002 231.217 84.3593 232.972 84.4303C234.613 84.3555 236.248 84.6732 237.742 85.3569C239.235 86.0406 240.544 87.0706 241.56 88.3614ZM235.519 105.198C236.634 103.426 237.179 101.354 237.08 99.2627C237.13 97.6075 236.869 95.9575 236.312 94.3983C235.943 93.2837 235.217 92.3217 234.247 91.661C233.277 91.0003 232.116 90.6777 230.944 90.7431C229.771 90.6693 228.606 90.9781 227.624 91.6232C226.642 92.2682 225.896 93.2146 225.498 94.3201C224.935 95.8972 224.675 97.5662 224.731 99.2397C224.65 101.315 225.203 103.367 226.316 105.12C226.851 105.894 227.577 106.517 228.424 106.926C229.271 107.335 230.21 107.518 231.148 107.456C232.009 107.487 232.864 107.295 233.629 106.9C234.395 106.504 235.045 105.918 235.519 105.198H235.519Z" fill="black"/>
<path d="M267.691 85.5982C269.64 86.4809 271.296 87.9003 272.467 89.6902C273.627 91.4011 274.379 93.3543 274.669 95.4006C274.891 97.22 274.971 99.0539 274.908 100.886H254.779C254.718 102.025 254.952 103.16 255.459 104.182C255.965 105.204 256.726 106.078 257.668 106.72C258.87 107.44 260.252 107.801 261.652 107.759C262.782 107.847 263.911 107.592 264.892 107.026C265.874 106.461 266.662 105.612 267.152 104.592H274.531C274.196 106.5 273.257 108.251 271.851 109.585C270.508 110.963 268.885 112.036 267.091 112.732C265.297 113.427 263.374 113.729 261.453 113.617C257.909 113.663 254.463 112.458 251.719 110.215C248.906 107.948 247.5 104.261 247.5 99.1524C247.366 97.1549 247.634 95.1507 248.288 93.2585C248.941 91.3663 249.968 89.6245 251.307 88.1361C252.605 86.8559 254.152 85.8556 255.852 85.1968C257.552 84.538 259.369 84.2349 261.191 84.3061C263.425 84.2722 265.641 84.7127 267.691 85.5982V85.5982ZM256.88 91.842C255.798 93.0266 255.123 94.5268 254.956 96.1225H267.405C267.399 95.3017 267.224 94.491 266.893 93.7399C266.562 92.9888 266.081 92.3132 265.48 91.7546C264.285 90.7458 262.758 90.2152 261.195 90.265C260.406 90.2161 259.615 90.331 258.872 90.6024C258.13 90.8738 257.451 91.2958 256.88 91.842L256.88 91.842Z" fill="black"/>
<path d="M293.915 84.3934C294.007 84.4026 294.216 84.4164 294.536 84.4302V91.8372C294.081 91.7866 293.674 91.7498 293.32 91.7315C292.963 91.7177 292.676 91.7085 292.458 91.7085C291.311 91.5672 290.148 91.7603 289.109 92.2644C288.07 92.7685 287.199 93.5621 286.6 94.5498C285.949 96.1042 285.662 97.7872 285.763 99.4694V112.679H278.485V85.0418H285.383V89.8557C286.152 88.4528 287.135 87.179 288.299 86.0809C289.795 84.8974 291.667 84.2934 293.572 84.3797C293.708 84.3796 293.821 84.3842 293.915 84.3934Z" fill="black"/>
<path d="M321.058 86.6234C322.039 87.5817 322.792 88.7481 323.262 90.0366C323.731 91.325 323.905 92.7025 323.771 94.0673V112.679H316.368V95.8649C316.426 94.7201 316.228 93.5767 315.789 92.5177C315.406 91.8018 314.818 91.2166 314.101 90.8373C313.383 90.458 312.568 90.3018 311.761 90.389C310.703 90.3093 309.647 90.569 308.746 91.1304C307.845 91.6918 307.147 92.5256 306.752 93.5109C306.24 94.8524 306.001 96.2827 306.049 97.7178V112.679H298.821V85.0923H305.821V89.12C306.521 87.9598 307.408 86.9235 308.446 86.0533C310.087 84.8893 312.066 84.3008 314.076 84.3797C316.596 84.274 319.071 85.0695 321.058 86.6234V86.6234Z" fill="black"/>
<path d="M348.502 85.5982C350.45 86.4809 352.106 87.9003 353.277 89.6902C354.436 91.4013 355.189 93.3543 355.479 95.4006C355.701 97.22 355.78 99.054 355.716 100.886H335.587C335.527 102.025 335.761 103.16 336.268 104.182C336.774 105.204 337.536 106.078 338.479 106.72C339.679 107.44 341.061 107.801 342.46 107.759C343.59 107.847 344.719 107.592 345.701 107.027C346.683 106.461 347.471 105.612 347.962 104.592H355.339C355.005 106.5 354.066 108.251 352.661 109.585C351.318 110.963 349.694 112.036 347.9 112.732C346.106 113.427 344.183 113.729 342.263 113.617C338.718 113.663 335.271 112.458 332.527 110.215C329.715 107.948 328.31 104.261 328.311 99.1524C328.176 97.1549 328.444 95.1507 329.098 93.2585C329.752 91.3663 330.779 89.6245 332.118 88.1361C333.416 86.856 334.962 85.8556 336.662 85.1968C338.362 84.538 340.179 84.2349 342.001 84.3061C344.235 84.2724 346.45 84.7128 348.502 85.5982V85.5982ZM337.69 91.842C336.607 93.0261 335.933 94.5265 335.766 96.1225H348.215C348.208 95.3018 348.034 94.491 347.704 93.7398C347.373 92.9887 346.892 92.3132 346.29 91.7546C345.094 90.746 343.567 90.2154 342.003 90.265C341.214 90.216 340.424 90.3308 339.682 90.6022C338.939 90.8736 338.261 91.2957 337.69 91.842H337.69Z" fill="black"/>
<path d="M356.53 90.4396V85.2947H360.385V77.5842H367.537V85.2947H372.024V90.4396H367.537V105.047C367.437 105.78 367.589 106.525 367.967 107.162C368.787 107.551 369.703 107.697 370.604 107.58C370.824 107.58 371.056 107.575 371.302 107.571C371.546 107.562 371.787 107.548 372.024 107.529V112.932L368.601 113.056C367.375 113.249 366.122 113.192 364.919 112.887C363.716 112.582 362.587 112.035 361.601 111.281C360.708 110.216 360.271 108.841 360.385 107.456V90.4396L356.53 90.4396Z" fill="black"/>
<path d="M394.675 85.5982C396.623 86.4809 398.279 87.9003 399.45 89.6902C400.609 91.4013 401.362 93.3543 401.652 95.4006C401.874 97.22 401.954 99.0539 401.891 100.886H381.762C381.701 102.025 381.935 103.16 382.442 104.182C382.948 105.204 383.709 106.078 384.652 106.72C385.853 107.44 387.236 107.801 388.636 107.759C389.765 107.847 390.894 107.591 391.875 107.026C392.857 106.461 393.644 105.612 394.135 104.592H401.514C401.178 106.5 400.239 108.25 398.834 109.585C397.491 110.963 395.867 112.036 394.073 112.732C392.279 113.428 390.357 113.729 388.436 113.617C384.891 113.663 381.444 112.458 378.7 110.215C375.889 107.948 374.483 104.261 374.484 99.1524C374.35 97.1549 374.617 95.1507 375.271 93.2585C375.925 91.3663 376.952 89.6245 378.291 88.1361C379.589 86.856 381.136 85.8556 382.835 85.1968C384.535 84.538 386.352 84.2349 388.174 84.3061C390.408 84.2721 392.624 84.7126 394.675 85.5982V85.5982ZM383.863 91.842C382.781 93.0266 382.107 94.5268 381.939 96.1225H394.388C394.381 95.3018 394.208 94.491 393.877 93.7398C393.546 92.9887 393.065 92.3132 392.463 91.7546C391.267 90.7456 389.74 90.215 388.176 90.265C387.387 90.2162 386.597 90.3311 385.855 90.6025C385.113 90.8739 384.435 91.2959 383.863 91.842V91.842Z" fill="black"/>
<path d="M411.149 103.856C411.188 104.849 411.535 105.805 412.142 106.592C412.837 107.153 413.636 107.569 414.493 107.818C415.35 108.067 416.248 108.142 417.135 108.04C418.303 108.092 419.467 107.875 420.538 107.406C420.891 107.248 421.195 106.996 421.417 106.678C421.638 106.36 421.768 105.988 421.793 105.601C421.818 105.214 421.737 104.828 421.559 104.484C421.381 104.14 421.112 103.851 420.781 103.649C418.336 102.686 415.805 101.957 413.222 101.47C410.813 101.03 408.54 100.032 406.586 98.5549C405.921 97.9173 405.404 97.142 405.071 96.2834C404.738 95.4248 404.596 94.5037 404.657 93.5847C404.652 92.3352 404.918 91.0996 405.438 89.9635C405.958 88.8273 406.719 87.8179 407.668 87.0053C410.041 85.0451 413.071 84.0619 416.142 84.2557C419.097 84.1265 422.028 84.8427 424.591 86.3202C425.736 87.1277 426.673 88.1957 427.325 89.4363C427.977 90.6769 428.325 92.0546 428.34 93.456H421.115C421.062 92.6628 420.789 91.9 420.326 91.2536C419.802 90.7178 419.164 90.3072 418.46 90.0524C417.755 89.7976 417.002 89.7053 416.257 89.7824C415.086 89.6829 413.912 89.9393 412.889 90.518C412.592 90.6997 412.345 90.9524 412.169 91.2534C411.994 91.5543 411.896 91.894 411.884 92.2421C411.864 92.6137 411.955 92.9828 412.145 93.3028C412.335 93.6228 412.615 93.8793 412.951 94.0399C415.405 94.9202 417.929 95.5908 420.496 96.0445C422.885 96.4819 425.118 97.5395 426.97 99.1112C427.666 99.7827 428.215 100.592 428.582 101.487C428.949 102.382 429.126 103.344 429.101 104.311C429.134 105.589 428.876 106.857 428.345 108.019C427.815 109.182 427.026 110.208 426.039 111.019C423.284 112.965 419.936 113.884 416.574 113.617C413.133 113.896 409.707 112.917 406.933 110.863C405.926 110 405.124 108.923 404.586 107.711C404.048 106.499 403.786 105.182 403.82 103.856L411.149 103.856Z" fill="black"/>
<path d="M477.074 81.9203H457.297V89.856H475.451V96.3481H457.297V105.957H477.987V112.679H449.665V75.304H477.074V81.9203Z" fill="black"/>
<path d="M505.776 86.6233C506.757 87.5814 507.51 88.7477 507.98 90.0362C508.45 91.3246 508.625 92.7022 508.491 94.0671V112.679H501.086V95.8648C501.143 94.7199 500.945 93.5766 500.507 92.5176C500.124 91.8019 499.537 91.2169 498.819 90.8376C498.102 90.4582 497.288 90.302 496.481 90.3889C495.422 90.3088 494.366 90.5684 493.465 91.1297C492.563 91.6911 491.865 92.5252 491.47 93.5107C490.958 94.8523 490.719 96.2826 490.766 97.7177V112.679H483.538V85.0922H490.539V89.1199C491.238 87.9596 492.126 86.9234 493.164 86.0531C494.805 84.8895 496.784 84.3011 498.794 84.3796C501.314 84.2731 503.789 85.0687 505.776 86.6233V86.6233Z" fill="black"/>
<path d="M528.882 85.0143C530.72 85.8184 532.223 87.2332 533.137 89.019V85.042H540.185V111.258C540.369 114.063 539.744 116.862 538.385 119.323C536.323 122.431 532.368 123.985 526.519 123.985C523.499 124.115 520.503 123.395 517.872 121.907C516.792 121.256 515.888 120.349 515.242 119.265C514.596 118.182 514.228 116.955 514.169 115.695H522.031C522.152 116.396 522.499 117.037 523.02 117.521C524.18 118.287 525.566 118.636 526.951 118.509C527.982 118.636 529.027 118.456 529.956 117.991C530.885 117.527 531.657 116.799 532.174 115.898C532.865 114.106 533.159 112.186 533.034 110.27V108.495C532.474 109.522 531.716 110.427 530.804 111.157C529.171 112.316 527.199 112.895 525.199 112.803C523.591 112.867 521.989 112.563 520.515 111.915C519.041 111.268 517.734 110.293 516.693 109.065C514.443 106.185 513.313 102.586 513.511 98.9364C513.385 95.2432 514.46 91.6087 516.574 88.5776C517.557 87.2097 518.867 86.1093 520.385 85.3762C521.902 84.6432 523.578 84.3007 525.261 84.3798C526.498 84.3533 527.728 84.5688 528.882 85.0143V85.0143ZM531.344 104.831C532.654 103.082 533.274 100.911 533.086 98.7341C533.232 96.6085 532.648 94.4967 531.431 92.7478C530.907 92.0808 530.232 91.5471 529.462 91.19C528.692 90.8329 527.849 90.6625 527.001 90.6927C525.859 90.6346 524.728 90.9531 523.784 91.5992C522.84 92.2454 522.133 93.1835 521.774 94.2697C521.228 95.7714 520.971 97.3624 521.015 98.9595C520.989 100.428 521.264 101.887 521.824 103.245C522.203 104.317 522.92 105.238 523.867 105.869C524.813 106.5 525.939 106.806 527.075 106.743C527.883 106.755 528.684 106.59 529.421 106.26C530.159 105.929 530.815 105.442 531.344 104.831L531.344 104.831Z" fill="black"/>
<path d="M554.358 81.7451H547.032V75.0737H554.358V81.7451ZM547.032 85.0418H554.358V112.679H547.032V85.0418Z" fill="black"/>
<path d="M583.643 86.6233C584.625 87.5814 585.378 88.7478 585.848 90.0362C586.318 91.3247 586.493 92.7022 586.359 94.0671V112.679H578.954V95.8648C579.012 94.7201 578.815 93.5768 578.377 92.5176C577.994 91.8019 577.406 91.2169 576.688 90.8376C575.971 90.4583 575.156 90.302 574.349 90.3889C573.291 90.3086 572.234 90.568 571.333 91.1295C570.432 91.6909 569.734 92.5251 569.34 93.5107C568.826 94.8518 568.586 96.2823 568.634 97.7177V112.679H561.409V85.0922H568.407V89.1199C569.107 87.9602 569.994 86.924 571.032 86.0532C572.673 84.8898 574.652 84.3014 576.662 84.3796C579.182 84.2731 581.657 85.0687 583.643 86.6233V86.6233Z" fill="black"/>
<path d="M611.088 85.5982C613.036 86.4803 614.692 87.8998 615.862 89.6902C617.022 91.4008 617.776 93.3541 618.065 95.4006C618.288 97.2199 618.368 99.0539 618.304 100.886H598.175C598.114 102.025 598.349 103.16 598.855 104.182C599.361 105.204 600.122 106.078 601.065 106.72C602.266 107.44 603.648 107.801 605.048 107.759C606.178 107.848 607.307 107.593 608.289 107.027C609.27 106.462 610.058 105.613 610.547 104.592H617.927C617.592 106.5 616.652 108.251 615.246 109.585C613.904 110.963 612.281 112.036 610.487 112.732C608.694 113.428 606.771 113.729 604.851 113.617C601.306 113.663 597.859 112.458 595.115 110.215C592.304 107.948 590.897 104.261 590.897 99.1524C590.762 97.1549 591.03 95.1507 591.684 93.2585C592.338 91.3663 593.365 89.6245 594.703 88.1361C596.002 86.8559 597.549 85.8555 599.249 85.1968C600.949 84.538 602.767 84.2349 604.589 84.3061C606.822 84.2724 609.037 84.7128 611.088 85.5982V85.5982ZM600.276 91.842C599.194 93.0266 598.52 94.5268 598.352 96.1225H610.8C610.794 95.3018 610.62 94.491 610.289 93.7398C609.958 92.9887 609.478 92.3132 608.876 91.7546C607.681 90.746 606.154 90.2154 604.591 90.265C603.802 90.216 603.011 90.3308 602.269 90.6022C601.526 90.8736 600.847 91.2957 600.276 91.842H600.276Z" fill="black"/>
</svg>
