<svg width="158" height="36" viewBox="0 0 158 36" fill="none" xmlns="http://www.w3.org/2000/svg">
<path d="M61.14 9.70007C60.54 10.3401 59.88 11.0601 59.14 11.8601C58.4 12.6601 57.62 13.4601 56.8 14.3001C56 15.1201 55.2 15.9401 54.4 16.7401C53.6 17.5401 52.84 18.2801 52.14 18.9801C53.06 19.6201 53.92 20.3401 54.74 21.1001C55.66 21.9401 56.56 22.8401 57.42 23.7801C58.3 24.7401 59.12 25.7001 59.9 26.7001C60.6 27.6001 61.26 28.5401 61.82 29.5401H58.56C57.96 28.6001 57.3 27.7001 56.58 26.8401C55.84 25.9401 55.04 25.0601 54.22 24.2401C53.4 23.4201 52.56 22.6401 51.7 21.9401C50.92 21.2801 50.1 20.6801 49.22 20.1401V29.5401H46.44V9.70007H49.22V18.4601C49.88 17.8401 50.62 17.1201 51.42 16.3201C52.22 15.5201 53.02 14.7401 53.8 13.9401C54.58 13.1401 55.32 12.3801 56.02 11.6401C56.72 10.9001 57.3 10.2601 57.78 9.70007H61.14Z" fill="#2B3035"/>
<path d="M75.58 29.1C74.96 29.26 74.16 29.42 73.16 29.58C72.02 29.76 70.84 29.84 69.68 29.84C68.7 29.86 67.72 29.7 66.8 29.34C66.06 29.04 65.4 28.56 64.92 27.92C64.42 27.28 64.08 26.54 63.9 25.76C63.68 24.86 63.58 23.92 63.58 23V14.66H66.24V22.44C66.24 24.26 66.52 25.54 67.1 26.34C67.68 27.12 68.64 27.52 69.98 27.52C70.26 27.52 70.56 27.52 70.86 27.5C71.16 27.48 71.46 27.46 71.72 27.42C71.98 27.4 72.24 27.36 72.44 27.34C72.6 27.32 72.76 27.3 72.92 27.24V14.66H75.58V29.1Z" fill="#2B3035"/>
<path d="M82.64 15.3201C83.1 15.0401 83.6 14.8201 84.12 14.6601C84.86 14.4201 85.62 14.3001 86.4 14.3201C87.38 14.3001 88.36 14.5001 89.24 14.9001C90.06 15.2601 90.78 15.8201 91.34 16.5001C91.94 17.2201 92.38 18.0601 92.64 18.9601C92.94 19.9801 93.1 21.0401 93.08 22.1001C93.1 23.2001 92.92 24.3001 92.56 25.3401C92.24 26.2601 91.72 27.0801 91.06 27.7801C90.4 28.4601 89.6 28.9801 88.72 29.3201C87.74 29.7001 86.68 29.8801 85.64 29.8601C84.54 29.8801 83.44 29.7801 82.34 29.6001C81.38 29.4201 80.6 29.2601 80 29.0801V7.80009L82.66 7.34009L82.64 15.3201ZM82.64 27.2201C83.02 27.3201 83.38 27.3801 83.76 27.4401C84.36 27.5201 84.96 27.5401 85.58 27.5401C87.02 27.5401 88.16 27.0601 89.02 26.1201C89.88 25.1801 90.3 23.8401 90.3 22.1001C90.3 21.3801 90.22 20.6601 90.08 19.9601C89.94 19.3401 89.7 18.7601 89.34 18.2201C89 17.7401 88.54 17.3401 88.02 17.0801C87.4 16.7801 86.74 16.6401 86.06 16.6601C85.38 16.6601 84.7 16.7801 84.06 17.0401C83.56 17.2201 83.08 17.4801 82.66 17.8201L82.64 27.2201Z" fill="#2B3035"/>
<path d="M95.84 22.12C95.82 20.94 96 19.78 96.4 18.68C96.74 17.78 97.26 16.94 97.92 16.24C98.54 15.6 99.28 15.1 100.1 14.78C100.9 14.46 101.76 14.3 102.62 14.3C104.62 14.3 106.16 14.92 107.22 16.18C108.28 17.42 108.82 19.34 108.82 21.88V22.32C108.82 22.48 108.82 22.64 108.82 22.82H98.62C98.74 24.36 99.18 25.54 99.96 26.34C100.74 27.14 101.96 27.54 103.62 27.54C104.42 27.56 105.2 27.48 105.98 27.3C106.48 27.18 106.96 27.02 107.42 26.82L107.8 29.04C107.26 29.28 106.68 29.46 106.1 29.58C105.2 29.78 104.26 29.88 103.34 29.86C102.2 29.88 101.06 29.68 99.98 29.28C99.1 28.92 98.3 28.38 97.66 27.66C97.04 26.96 96.58 26.12 96.3 25.22C95.96 24.22 95.82 23.16 95.84 22.12ZM106.04 20.66C106.06 19.46 105.76 18.48 105.14 17.7C104.52 16.92 103.66 16.54 102.58 16.54C102.02 16.52 101.46 16.66 100.96 16.9C100.5 17.12 100.1 17.44 99.78 17.84C99.46 18.22 99.2 18.68 99.02 19.16C98.84 19.64 98.72 20.16 98.66 20.68L106.04 20.66Z" fill="#2B3035"/>
<path d="M128.66 9.70007C127.94 11.8001 127.24 13.7401 126.6 15.5201C125.94 17.3001 125.3 19.0001 124.66 20.6001C124.04 22.2001 123.4 23.7401 122.78 25.2001C122.16 26.6601 121.52 28.1201 120.88 29.5401H118.28C117.64 28.1001 117 26.6601 116.38 25.2001C115.76 23.7401 115.14 22.2001 114.5 20.6001C113.86 19.0001 113.2 17.3001 112.54 15.5201C111.88 13.7401 111.18 11.8001 110.48 9.70007H113.54C114.56 12.7201 115.58 15.6201 116.58 18.4001C117.58 21.1801 118.6 23.8001 119.64 26.2401C120.68 23.8201 121.7 21.2201 122.7 18.4201C123.7 15.6201 124.7 12.7201 125.7 9.72007L128.66 9.70007Z" fill="#2B3035"/>
<path d="M132.38 11.9601C131.92 11.9601 131.5 11.8001 131.16 11.4801C130.82 11.1401 130.64 10.6801 130.66 10.2001C130.64 9.72006 130.82 9.26006 131.16 8.92006C131.84 8.28006 132.9 8.28006 133.6 8.92006C133.94 9.26006 134.12 9.72006 134.1 10.2001C134.12 10.6801 133.94 11.1401 133.6 11.4801C133.28 11.8001 132.84 11.9801 132.38 11.9601ZM133.72 29.5201H131.06V14.6601H133.72V29.5201Z" fill="#2B3035"/>
<path d="M143.62 14.3401C143.84 14.3401 144.12 14.3601 144.4 14.3801C144.7 14.4001 144.98 14.4401 145.28 14.5001C145.56 14.5401 145.82 14.6001 146.06 14.6401C146.24 14.6801 146.42 14.7201 146.6 14.7601L146.14 17.0801C145.2 16.7801 144.22 16.6201 143.22 16.6601C142.72 16.6601 142.24 16.7201 141.74 16.8201C141.26 16.9201 140.94 17.0001 140.78 17.0401V29.5401H138.12V15.2801C138.88 15.0201 139.68 14.8001 140.46 14.6401C141.52 14.4401 142.56 14.3401 143.62 14.3401Z" fill="#2B3035"/>
<path d="M151.5 14.66H157.14V16.9H151.5V23.76C151.48 24.38 151.54 25 151.68 25.6C151.76 26.02 151.94 26.4 152.2 26.74C152.42 27.02 152.72 27.22 153.06 27.32C153.44 27.44 153.86 27.5 154.26 27.5C154.92 27.52 155.56 27.44 156.2 27.22C156.68 27.04 157.02 26.92 157.22 26.84L157.74 29.04C157.28 29.24 156.82 29.4 156.34 29.54C155.6 29.76 154.82 29.86 154.06 29.84C153.2 29.86 152.36 29.74 151.56 29.46C150.94 29.22 150.38 28.82 149.98 28.3C149.56 27.74 149.26 27.08 149.14 26.4C148.96 25.54 148.88 24.66 148.9 23.78V10.5L151.56 10.04L151.5 14.66Z" fill="#2B3035"/>
<path d="M31.74 7.1L19.42 1.2C19.38 1.18 19.34 1.16 19.3 1.14C19.22 1.1 19.14 1.08 19.04 1.06C18.96 1.04 18.88 1.02 18.8 1.02C18.68 1 18.54 1 18.42 1C18.16 1 17.92 1 17.66 1.04C17.58 1.06 17.5 1.06 17.4 1.08L5.08001 7.02C4.94001 7.08 4.78001 7.18 4.66001 7.28L4.64001 7.3L11.02 20.14L6.22001 10.34H14.32L17.56 16.32L16.44 18.4L16.4 18.42L13.12 12.34H9.54001L15.18 24.3L15.98 22.78C16.24 22.3 16.84 22.1 17.34 22.36C17.82 22.62 18.02 23.22 17.76 23.72L16.3 26.46L15.18 28.54L18.46 35.12L21.56 29C21.24 29.44 20.6 29.54 20.16 29.22C19.76 28.94 19.64 28.4 19.86 27.98L20.58 26.54C20.86 26.06 21.46 25.9 21.94 26.18C22.36 26.42 22.54 26.94 22.38 27.4L23.84 24.52C23.52 24.96 22.88 25.06 22.44 24.72C22.06 24.44 21.92 23.92 22.14 23.48L23.58 20.62C23.82 20.12 24.42 19.92 24.92 20.18C25.42 20.44 25.62 21.02 25.36 21.52L25 22.22L26.84 18.58C26.52 19.04 25.9 19.16 25.46 18.84C25.04 18.56 24.9 18.02 25.12 17.58L26.54 14.72C26.78 14.22 27.38 14.02 27.88 14.28C28.38 14.52 28.58 15.12 28.32 15.62L27.52 17.24L29.8 12.74C29.52 13.22 28.92 13.4 28.44 13.12C28.2 12.98 28.02 12.74 27.96 12.46H26.76C26.2 12.46 25.76 12.02 25.76 11.46C25.76 10.9 26.2 10.46 26.76 10.46H30.94L29.94 12.44L32.4 7.58C32.32 7.5 32.24 7.44 32.16 7.38C32.04 7.28 31.9 7.18 31.74 7.1ZM21.22 17.6L19.72 20.42C19.46 20.9 18.86 21.1 18.36 20.84C17.86 20.58 17.68 19.98 17.94 19.48L19.44 16.66C19.7 16.18 20.3 15.98 20.8 16.24C21.3 16.5 21.48 17.12 21.22 17.6ZM24.3 11.76L22.8 14.6C22.54 15.08 21.94 15.28 21.44 15.02C20.96 14.76 20.76 14.16 21.02 13.66L22.78 10.3H23.42C23.58 10.3 23.74 10.34 23.88 10.42C24.38 10.68 24.56 11.28 24.3 11.76Z" fill="#00AAB2"/>
<path d="M4.66003 7.28004C4.80003 7.18004 4.94003 7.10004 5.08003 7.02004L17.4 1.08004C17.48 1.06004 17.56 1.04004 17.64 1.04004C17.9 1.00004 18.16 1.00004 18.42 1.00004C18.54 1.00004 18.68 1.00004 18.8 1.02004C18.88 1.04004 18.98 1.04004 19.06 1.06004C19.14 1.08004 19.24 1.10004 19.32 1.14004C19.36 1.16004 19.4 1.18004 19.44 1.20004L31.76 7.10004C31.92 7.18004 32.06 7.28004 32.18 7.38004C32.26 7.44004 32.34 7.50004 32.42 7.58004L32.8 6.84004C32.6 6.68004 32.38 6.52004 32.14 6.40004H32.12H32.1L19.78 0.480043C19.36 0.280043 18.88 0.180043 18.42 0.200043C18.02 0.180043 17.62 0.220043 17.22 0.300043L17.14 0.320043L17.06 0.360043L4.74003 6.30004C4.58003 6.38004 4.42003 6.48004 4.28003 6.58004L4.64003 7.30004L4.66003 7.28004Z" fill="white"/>
<path d="M36.9 21.72L36.88 21.64L33.8 8.44V8.4V8.38C33.62 7.8 33.26 7.26 32.78 6.88L32.4 7.62C32.62 7.84 32.82 8.1 32.94 8.38C32.98 8.46 33 8.54 33.02 8.62L36.08 21.82C36.1 22 36.1 22.16 36.1 22.34C36.1 22.5 36.06 22.64 36.04 22.8C36.04 22.84 36.02 22.88 36.02 22.92C35.94 23.22 35.8 23.52 35.62 23.78L31.94 28.34L27.1 34.32C26.78 34.76 26.28 35.04 25.74 35.12C25.58 35.14 25.4 35.16 25.24 35.16H18.46L21.54 35.96H25.24C26.3 35.96 27.18 35.54 27.74 34.8L36.26 24.26L36.28 24.24L36.3 24.22C36.8 23.48 37.02 22.6 36.9 21.72Z" fill="white"/>
<path d="M11.66 35.1401C11.58 35.1401 11.48 35.1201 11.4 35.1201C11.28 35.1001 11.18 35.0801 11.06 35.0401C11 35.0201 10.94 35.0001 10.88 34.9801C10.76 34.9401 10.64 34.8801 10.54 34.8401C10.38 34.7601 10.22 34.6601 10.06 34.5401C9.96003 34.4601 9.86003 34.3801 9.78003 34.3001L6.94003 30.7801L1.28003 23.7401C1.04003 23.4001 0.880027 23.0001 0.820027 22.5601C0.800027 22.4801 0.800027 22.4001 0.800027 22.3201C0.800027 22.1401 0.800027 21.9801 0.840027 21.8001L3.88003 8.52008C3.90003 8.40008 3.94003 8.28008 4.00003 8.16008C4.14003 7.82008 4.36003 7.54008 4.64003 7.30008L4.28003 6.58008C3.68003 7.00008 3.26003 7.62008 3.10003 8.34008L0.0600268 21.6201V21.6401V21.6601C-0.0999732 22.5601 0.120027 23.4601 0.640027 24.2001L0.660027 24.2201L0.680027 24.2401L9.18003 34.8001L9.20003 34.8401L9.24003 34.8601C9.88003 35.5001 10.72 35.8801 11.62 35.9401H18.46V35.1401H11.66Z" fill="white"/>
<path d="M18.46 35.14V35.94H21.54L18.46 35.14Z" fill="white"/>
<path d="M15.16 28.6L11.02 20.16L4.62005 7.30005C4.34005 7.52005 4.12005 7.82005 3.98005 8.16005C3.94005 8.28005 3.90005 8.40005 3.86005 8.52005L0.840049 21.8C0.800049 21.98 0.800049 22.14 0.800049 22.32C0.800049 22.4 0.800049 22.48 0.820049 22.58C0.880049 23 1.04005 23.4 1.28005 23.76L6.96005 30.8L9.80005 34.28C9.88005 34.36 9.98005 34.4401 10.08 34.5201C10.22 34.6401 10.38 34.74 10.56 34.82C10.68 34.88 10.78 34.92 10.9 34.96C10.96 34.98 11.02 35.0001 11.08 35.0201C11.18 35.0601 11.3 35.08 11.42 35.1C11.5 35.12 11.6 35.12 11.68 35.12H18.48L15.22 28.5401L15.16 28.6Z" fill="#00797F"/>
<path d="M10.3 34.8C10.1215 34.6334 9.94291 34.4667 9.80005 34.3C9.94291 34.4667 10.1215 34.6334 10.3 34.8Z" fill="#00797F"/>
<path d="M11.06 35.1901C10.8835 35.0901 10.7071 34.9401 10.56 34.8401C10.7071 34.9401 10.8835 35.0901 11.06 35.1901Z" fill="#00797F"/>
<path d="M29.82 12.7001L27.54 17.2001L26.92 18.4401C26.9 18.4801 26.88 18.5201 26.86 18.5401L25.02 22.1601L23.94 24.3201C23.92 24.3601 23.88 24.4201 23.86 24.4601L22.4 27.3601C22.4 27.3801 22.4 27.3801 22.38 27.4001L21.66 28.8401C21.64 28.8801 21.6 28.9401 21.58 28.9801L18.48 35.1001H25.26C25.42 35.1001 25.6 35.0801 25.76 35.0601C26.3 34.9801 26.78 34.7001 27.12 34.2601L31.96 28.2801L35.64 23.7201C35.82 23.4601 35.96 23.1801 36.04 22.8601C36.06 22.8201 36.06 22.7801 36.06 22.7401C36.1 22.5801 36.12 22.4401 36.12 22.2801C36.12 22.1001 36.12 21.9401 36.1 21.7601L33.04 8.6001C33.02 8.5201 32.98 8.4401 32.96 8.3601C32.84 8.0801 32.64 7.8201 32.42 7.6001L29.96 12.4401L29.82 12.7001Z" fill="#3ACCC5"/>
<path d="M20.8 16.24C20.32 15.98 19.7 16.16 19.44 16.66L17.94 19.48C17.68 19.96 17.86 20.58 18.36 20.84C18.84 21.1 19.46 20.92 19.72 20.42L21.22 17.6C21.48 17.12 21.28 16.5 20.8 16.24Z" fill="white"/>
<path d="M21.92 26.0801C21.42 25.8401 20.82 26.0401 20.58 26.5201L19.86 27.9601C19.62 28.4601 19.82 29.0601 20.32 29.3001C20.76 29.5201 21.28 29.3801 21.56 29.0001L22.38 27.3801C22.6 26.9001 22.4 26.3201 21.92 26.0801Z" fill="white"/>
<path d="M22.38 27.42C22.38 27.4 22.38 27.4 22.4 27.38L21.58 29C21.62 28.96 21.64 28.92 21.66 28.86L22.38 27.42Z" fill="white"/>
<path d="M16.3 26.4801L17.76 23.7401C18.02 23.2601 17.84 22.6401 17.34 22.3801C16.86 22.1201 16.24 22.3001 15.98 22.8001L15.18 24.3201L9.54001 12.3401H13.12L16.4 18.4201L16.44 18.4001L17.54 16.3401L14.3 10.3401H6.20001L11 20.1401L15.18 28.5401L16.3 26.4801Z" fill="white"/>
<path d="M15.18 28.56L11.02 20.16L15.16 28.6L15.18 28.56Z" fill="white"/>
<path d="M30.94 10.4601H26.76C26.2 10.4601 25.76 10.9001 25.76 11.4601C25.76 12.0201 26.2 12.4601 26.76 12.4601H27.96C28.08 13.0001 28.62 13.3401 29.16 13.2201C29.44 13.1601 29.68 12.9801 29.82 12.7401L29.96 12.4601L30.94 10.4601Z" fill="white"/>
<path d="M30.17 12.4401L29.82 12.9401L29.87 12.9043L30.17 12.4401Z" fill="white"/>
<path d="M28.34 15.6001C28.6 15.1001 28.4 14.5001 27.9 14.2601C27.4 14.0201 26.8 14.2001 26.56 14.7001C26.56 14.7001 26.56 14.7001 26.56 14.7201L25.14 17.5801C24.9 18.0801 25.1 18.6801 25.6 18.9201C26.04 19.1401 26.58 19.0001 26.86 18.5801L27.54 17.2201L28.34 15.6001Z" fill="white"/>
<path d="M27.54 17.2201L26.86 18.5801C26.88 18.5401 26.9 18.5001 26.92 18.4801L27.54 17.2201Z" fill="white"/>
<path d="M25.36 21.5C25.6 21 25.4 20.4 24.92 20.16C24.44 19.92 23.82 20.12 23.58 20.6L22.16 23.46C21.92 23.96 22.12 24.56 22.62 24.8C23.06 25.02 23.58 24.88 23.86 24.5L25.02 22.2L25.36 21.5Z" fill="white"/>
<path d="M25.02 22.2001L23.86 24.5001C23.9 24.4601 23.92 24.4001 23.94 24.3601L25.02 22.2001Z" fill="white"/>
<path d="M23.88 10.42C23.74 10.34 23.58 10.3 23.42 10.3H22.8L21.04 13.66C20.72 14.12 20.84 14.74 21.3 15.06C21.76 15.38 22.38 15.26 22.7 14.8C22.74 14.74 22.78 14.68 22.8 14.6L24.3 11.78C24.56 11.28 24.38 10.68 23.88 10.42C23.88 10.42 23.9 10.42 23.88 10.42Z" fill="white"/>
<path d="M11.02 20.16L6.22001 10.36H14.32L17.56 16.34L16.44 18.4L16.4 18.42L13.12 12.34H9.54001L15.18 24.3L15.98 22.78C16.24 22.3 16.84 22.1 17.34 22.36C17.82 22.62 18.02 23.22 17.76 23.72L16.3 26.46L15.18 28.54L18.46 35.12L21.56 29C21.24 29.44 20.6 29.54 20.16 29.22C19.76 28.94 19.64 28.4 19.86 27.98L20.58 26.54C20.86 26.06 21.46 25.9 21.94 26.18C22.36 26.42 22.54 26.94 22.38 27.4L23.84 24.52C23.52 24.96 22.88 25.06 22.44 24.72C22.06 24.44 21.92 23.92 22.14 23.48L23.58 20.62C23.82 20.12 24.42 19.92 24.92 20.18C25.42 20.44 25.62 21.02 25.36 21.52L25 22.22L26.84 18.58C26.52 19.04 25.9 19.16 25.46 18.84C25.04 18.56 24.9 18.02 25.12 17.58L26.54 14.72C26.78 14.22 27.38 14.02 27.88 14.28C28.38 14.52 28.58 15.12 28.32 15.62L27.52 17.24L29.8 12.74C29.52 13.22 28.92 13.4 28.44 13.12C28.2 12.98 28.02 12.74 27.96 12.46H26.76C26.2 12.46 25.76 12.02 25.76 11.46C25.76 10.9 26.2 10.46 26.76 10.46H30.94L29.94 12.44L32.4 7.58C32.32 7.5 32.24 7.44 32.16 7.38C32.02 7.28 31.88 7.18 31.74 7.1L19.42 1.2C19.38 1.18 19.34 1.16 19.3 1.14C19.22 1.1 19.14 1.08 19.04 1.06C18.96 1.04 18.88 1.02 18.8 1.02C18.68 1 18.54 1 18.42 1C18.16 1 17.92 1 17.66 1.04C17.58 1.06 17.5 1.06 17.4 1.08L5.08001 7.02C4.94001 7.08 4.78001 7.18 4.66001 7.28L4.64001 7.3L11.02 20.16ZM21.04 13.66L22.8 10.3H23.44C23.6 10.3 23.76 10.34 23.9 10.42C24.38 10.68 24.58 11.28 24.32 11.78L22.8 14.6C22.54 15.08 21.94 15.28 21.44 15.02C20.96 14.76 20.78 14.16 21.04 13.66ZM17.96 19.5L19.46 16.68C19.72 16.2 20.32 16 20.82 16.26C21.32 16.52 21.5 17.12 21.24 17.62L19.74 20.44C19.48 20.92 18.88 21.12 18.38 20.86C17.88 20.6 17.7 19.98 17.96 19.5Z" fill="#00AAB2"/>
<path d="M3.08003 8.34004L0.0600268 21.62V21.64V21.66C-0.0999732 22.56 0.120027 23.46 0.640027 24.2L0.660027 24.22L0.680027 24.24L9.18003 34.8L9.20003 34.84L9.24003 34.86C9.88003 35.5 10.72 35.88 11.62 35.94H25.24C26.3 35.94 27.18 35.52 27.74 34.78L36.26 24.24L36.28 24.22L36.3 24.2C36.82 23.48 37.04 22.58 36.92 21.7L36.9 21.62L33.82 8.40004V8.36004V8.34004C33.54 7.50004 32.94 6.78004 32.14 6.38004H32.12H32.1L19.78 0.480043C19.36 0.280043 18.88 0.180043 18.42 0.200043C18.02 0.180043 17.62 0.220043 17.22 0.300043L17.14 0.320043L17.06 0.360043L4.74003 6.30004C3.90003 6.68004 3.30003 7.44004 3.08003 8.34004ZM5.10003 7.02004L17.4 1.08004C17.48 1.06004 17.56 1.04004 17.64 1.04004C17.9 1.00004 18.16 1.00004 18.42 1.00004C18.54 1.00004 18.68 1.00004 18.8 1.02004C18.88 1.04004 18.98 1.04004 19.06 1.06004C19.14 1.08004 19.24 1.10004 19.32 1.14004C19.36 1.16004 19.4 1.18004 19.44 1.20004L31.76 7.10004C31.92 7.18004 32.06 7.28004 32.18 7.38004C32.26 7.44004 32.34 7.50004 32.42 7.58004C32.64 7.80004 32.84 8.06004 32.96 8.34004C33 8.42004 33.02 8.50004 33.04 8.58004L36.12 21.8C36.16 22.12 36.14 22.46 36.06 22.78C36.06 22.82 36.04 22.86 36.04 22.9C35.96 23.2 35.82 23.5 35.64 23.76L33.48 26.44L27.12 34.3C26.8 34.74 26.3 35.02 25.76 35.1C25.6 35.12 25.42 35.14 25.26 35.14H11.66C11.58 35.14 11.48 35.12 11.4 35.12C11.28 35.1 11.18 35.08 11.06 35.04C10.58 34.9 10.14 34.64 9.78003 34.3L6.94003 30.78L1.28003 23.74C1.04003 23.4 0.880027 23 0.820027 22.56C0.800027 22.48 0.800027 22.4 0.800027 22.32C0.800027 22.14 0.800027 21.98 0.840027 21.8L3.88003 8.52004C4.00003 8.02004 4.28003 7.60004 4.68003 7.28004C4.80003 7.18004 4.94003 7.08004 5.10003 7.02004Z" fill="white"/>
<path d="M18.46 35.14L15.18 28.56L15.14 28.62L11.02 20.16L4.62005 7.30005C4.24005 7.60005 3.96005 8.04005 3.86005 8.52005L0.840049 21.8C0.800049 21.98 0.800049 22.14 0.800049 22.32C0.800049 22.4 0.800049 22.48 0.820049 22.58C0.880049 23 1.04005 23.4 1.28005 23.76L6.96005 30.8L9.80005 34.28C10.16 34.64 10.6 34.8801 11.06 35.0201C11.16 35.0601 11.28 35.08 11.4 35.1C11.48 35.12 11.58 35.12 11.66 35.12H18.46V35.14Z" fill="#00797F"/>
<path d="M29.82 12.7001L27.54 17.2001L26.92 18.4401C26.9 18.4801 26.88 18.5201 26.86 18.5401L25.02 22.1601L23.94 24.3201C23.92 24.3601 23.88 24.4201 23.86 24.4601L22.4 27.3601C22.4 27.3801 22.4 27.3801 22.38 27.4001L21.66 28.8401C21.64 28.8801 21.6 28.9401 21.58 28.9801L18.48 35.1001H25.26C25.42 35.1001 25.6 35.0801 25.76 35.0601C26.3 34.9801 26.78 34.7001 27.12 34.2601L33.48 26.4001L35.64 23.7201C35.82 23.4601 35.96 23.1801 36.04 22.8601C36.06 22.8201 36.06 22.7801 36.06 22.7401C36.14 22.4201 36.16 22.1001 36.12 21.7601L33.06 8.56006C33.04 8.48006 33 8.40006 32.98 8.32006C32.86 8.04006 32.66 7.78006 32.44 7.56006L29.98 12.4001L29.82 12.7001Z" fill="#3ACCC5"/>
<path d="M18.36 20.84C18.84 21.1 19.46 20.92 19.72 20.42L21.22 17.6C21.48 17.12 21.3 16.5 20.8 16.24C20.32 15.98 19.7 16.16 19.44 16.66L17.94 19.48C17.7 19.98 17.88 20.58 18.36 20.84Z" fill="white"/>
<path d="M22.38 27.4201C22.38 27.4001 22.38 27.4001 22.4 27.3801C22.6 26.8601 22.34 26.2801 21.82 26.1001C21.36 25.9201 20.84 26.1201 20.6 26.5401L19.88 27.9801C19.64 28.4801 19.84 29.0801 20.34 29.3201C20.84 29.5601 21.42 29.3601 21.68 28.8801L22.38 27.4201Z" fill="white"/>
<path d="M15.18 28.5601L16.3 26.4801L17.76 23.7401C18.02 23.2601 17.84 22.6401 17.34 22.3801C16.86 22.1201 16.24 22.3001 15.98 22.8001L15.18 24.3201L9.54001 12.3401H13.12L16.4 18.4201L16.44 18.4001L17.54 16.3401L14.3 10.3401H6.20001L11 20.1401L15.16 28.6001L15.18 28.5601Z" fill="white"/>
<path d="M29.96 12.4401L30.96 10.4601H26.78C26.22 10.4601 25.78 10.9001 25.78 11.4601C25.78 12.0201 26.22 12.4601 26.78 12.4601H27.98C28.1 13.0001 28.64 13.3401 29.18 13.2201C29.46 13.1601 29.7 12.9801 29.84 12.7401L29.86 12.7201L29.96 12.4401Z" fill="white"/>
<path d="M27.54 17.2201L28.34 15.6001C28.6 15.1001 28.4 14.5001 27.9 14.2601C27.4 14.0201 26.8 14.2001 26.56 14.7001C26.56 14.7001 26.56 14.7001 26.56 14.7201L25.14 17.5801C24.9 18.0801 25.1 18.6801 25.6 18.9201C26.1 19.1601 26.68 18.9601 26.94 18.4801L27.54 17.2201Z" fill="white"/>
<path d="M25.02 22.2L25.38 21.5C25.62 21 25.42 20.4 24.94 20.16C24.46 19.92 23.84 20.12 23.6 20.6L22.18 23.46C21.94 23.96 22.14 24.56 22.64 24.8C23.14 25.04 23.72 24.84 23.98 24.36L25.02 22.2Z" fill="white"/>
<path d="M21.46 15.02C21.94 15.28 22.54 15.1 22.8 14.6L24.3 11.78C24.56 11.3 24.38 10.68 23.88 10.42C23.74 10.34 23.58 10.3 23.42 10.3H22.8L21.04 13.66C20.8 14.16 20.98 14.74 21.46 15.02Z" fill="white"/>
</svg>
