<svg width="540" height="220" viewBox="0 0 540 220" fill="none" xmlns="http://www.w3.org/2000/svg">
<path d="M81.662 61.861C73.772 61.861 67 63.932 61.125 68.239C57.615 70.805 54.142 75.497 51.209 79.648C49.468 72.39 47.204 62.988 47.204 62.988L24.853 63.015C23.616 63.015 22.617 64.023 22.617 65.269V73.727C22.617 74.992 23.616 75.982 24.881 75.982L37.308 75.954C37.308 75.954 40.369 86.933 42.302 94.667C39.699 99.368 37.17 103.419 34.998 107.607C22.645 131.452 17 147.92 17 165.928C17 187.482 26.467 201.457 40.57 201.457C56.91 201.457 66.651 186.813 66.651 161.465C66.651 160.979 66.614 159.321 66.569 158.358C70.491 160.319 75.944 161.95 80.645 161.95C98.762 161.95 113.746 149.973 116.916 133.468C118.226 126.668 118.758 120.482 118.758 112.097C118.758 103.125 117.796 95.336 115.945 88.958C110.896 71.74 98.415 61.861 81.662 61.861ZM40.571 188.958C33.634 188.958 30.005 177.365 30.005 165.929C30.005 151.404 34.193 135.321 46.839 110.926C50.541 127.88 53.63 148.847 53.63 161.466C53.63 169.741 52.374 188.958 40.571 188.958ZM104.133 131.004C102.144 141.387 92.082 149.36 80.215 149.36C75.239 149.36 70.116 147.637 65.635 146.134C63.784 130.198 59.651 110.669 55.939 95.438C58.313 91.195 60.026 88.088 64.159 83.121C70.143 75.872 76.063 74.452 81.662 74.452C95.381 74.452 101.072 84.523 103.454 92.624C104.499 96.198 105.745 102.457 105.745 112.098C105.746 119.696 105.288 125.011 104.133 131.004Z" fill="#394C63"/>
<path d="M521.815 142.553L515.208 137.201C514.823 136.871 514.328 136.633 513.751 136.633C513.109 136.633 512.551 136.899 512.147 137.329H512.138C510.012 139.904 505.971 144.119 505.485 144.605C503.121 146.905 499.882 148.765 496.336 148.765C490.095 148.765 485.975 146.887 485.975 135.789V76.002H507.243C508.48 76.002 509.507 74.985 509.507 73.729V65.243C509.507 64.006 508.481 62.989 507.243 62.989H490.596V62.972H485.976L485.939 38.521C485.921 37.293 484.922 36.285 483.685 36.285H475.217C473.971 36.285 472.963 37.293 472.963 38.558V62.972H462.697C461.46 62.972 460.433 63.989 460.433 65.226V73.712C460.433 74.967 461.459 75.985 462.697 75.985H472.963V76.002V120.714C470.012 124.086 461.683 132.957 457.761 136.87C456.963 137.666 456.157 138.391 455.345 139.084C451 142.751 446.384 145.065 440.794 146.813C434.077 148.93 428.322 149.504 419.597 149.491C406.396 149.472 399.949 140.62 399.949 140.62C401.074 139.46 416.105 124.361 416.105 124.361C428.552 111.518 438.507 99.3 440.562 96.934C440.562 96.934 443.176 94.254 445.28 90.331C449.889 81.735 449.958 72.685 442.087 66.403C438.333 63.406 431.584 61.45 419.919 61.734C402.515 62.158 385.401 72.26 381.901 90.057C380.932 94.985 380.017 100.549 380.017 111.097C380.017 113.709 380.032 116.953 380.171 119.165C380.42 124.103 380.938 128.554 381.809 133.165C382.203 135.236 382.921 136.694 383.677 139.349C381.865 141.637 379.962 143.774 377.301 145.954C375.278 147.611 371.99 148.195 370.286 148.195L369.699 148.214C364.989 148.214 362.023 145.576 358.284 141.599L357.643 140.93C355.801 138.969 342.43 121.859 332.515 109.057L354.619 85.621L366.925 72.601C367.775 71.702 367.741 70.257 366.842 69.407L360.675 63.578C359.763 62.716 358.318 62.763 357.468 63.662L355.833 65.391L355.821 65.375L322.814 100.346L315.365 108.226V20.264C315.365 19.018 314.366 18 313.11 18H306.792V18.006H304.625C303.369 18.006 302.371 19.023 302.371 20.27V49.219H302.37V121.973C301.261 123.155 295.369 129.515 291.071 134.216C287.332 138.267 282.31 143.316 276.546 146.322C272.102 148.631 269.523 149.383 258.334 149.383C246.668 149.383 236.628 141.318 234.657 131.008C233.493 125.005 233.054 119.69 233.054 112.093C233.054 103.992 233.64 97.302 234.768 92.225C237.022 82.172 246.8 74.447 258.338 74.447C267.31 74.447 274.705 78.424 278.307 84.271C278.582 84.739 279.196 85.435 279.819 85.618C280.534 85.838 281.084 85.646 281.588 85.416L289.13 81.374C289.771 81.044 290.184 80.421 290.184 79.523C290.184 79.147 290.074 78.827 289.918 78.524L289.451 77.562C283.54 67.738 271.911 61.855 258.339 61.855C240.744 61.855 225.394 73.429 221.829 89.366C220.491 95.396 219.785 103.048 219.785 112.093C219.785 120.469 220.326 126.673 221.627 133.464C221.957 135.205 222.865 137.76 223.461 139.409C223.461 139.409 221.73 141.744 218.317 144.936C213.813 149.123 209.116 148.601 206.89 148.139C203.148 147.363 201.632 143.851 201.529 140.025C201.529 140.025 201.557 97.755 201.557 94.841C201.557 75.459 186.491 61.924 164.827 61.924C153.482 61.924 142.439 66.708 135.3 74.717C134.136 76.019 133.119 77.475 132.258 79.052C132.258 79.052 131.965 79.749 131.965 80.133C131.965 81.04 132.497 81.792 133.257 82.168V82.195L140.533 86.062H140.542C140.863 86.245 141.22 86.364 141.605 86.364C142.384 86.364 143.025 85.952 143.429 85.365C143.429 85.365 143.97 84.531 144.987 83.395C149.716 78.098 157.129 74.515 164.827 74.515C179.279 74.515 188.095 82.763 188.095 94.841C188.095 95.757 188.086 96.358 188.086 97.779L175.623 97.806C131.864 97.806 128.465 125.756 128.465 134.325C128.465 141.061 130.783 147.292 135.164 152.369C142.037 160.342 150.637 161.983 158.482 161.983C165.538 161.983 174.011 158.885 180.407 154.871C183.596 152.855 186.574 149.941 189.26 146.807C191.304 155.696 198.635 161.934 207.066 161.984C213.639 162.022 217.449 160.793 222.848 157.163C224.555 156.015 227.965 153.132 230.449 150.081C237.34 157.751 247.013 161.956 258.395 161.956C269.951 161.956 275.148 161.544 282.525 157.704C285.998 155.908 290.58 152.765 294.264 149.007C296.949 146.267 299.817 142.995 302.374 139.935L302.337 159.084C302.337 160.34 303.354 161.348 304.619 161.348H313.114C314.37 161.348 315.369 160.34 315.369 159.084V126.744L323.431 118.43C332.408 129.897 346.002 147.227 348.217 149.866L348.822 150.517C352.744 154.705 358.781 161.986 369.466 161.986C369.906 161.986 373.541 162.036 376.124 160.917C383.689 157.643 389.045 151.781 390.657 150.04C391.772 151.14 393.727 153.157 395.012 154.128C402.16 159.685 410.778 162.023 421.142 162.01C430.828 161.998 437.589 161.613 444.505 159.268C450.25 157.321 460.102 151.598 465.72 145.98C467.562 144.129 470.594 141.251 473.041 138.3C473.829 153.87 481.309 162.009 496.769 162.009C505.594 162.009 510.409 157.086 513.295 154.3C513.68 153.924 521.996 145.603 521.996 145.603C522.317 145.2 522.527 144.742 522.527 144.201C522.521 143.561 522.246 142.992 521.815 142.553ZM187.888 121.974C187.888 135.427 173.363 148.504 160.258 148.504C150.654 148.504 146.915 146.085 145.009 143.885C142.626 141.117 141.472 138.002 141.472 134.327C141.472 119.169 153.605 110.821 175.617 110.821L187.888 110.803V121.974ZM394.37 127.881C394.37 127.881 393.474 122.505 393.33 115.02C393.274 112.13 393.348 109.028 393.446 105.482C393.533 102.332 394.041 97.781 394.495 94.698C395.613 87.1 399.156 82.865 403.301 79.528C407.892 75.833 414.531 73.727 424.547 73.762C434.151 73.796 435.597 79.738 433.943 83.02C429.729 91.379 419.132 100.956 408.45 112.589L394.37 127.881Z" fill="#394C63"/>
</svg>
