<svg width="538" height="172" viewBox="0 0 538 172" fill="none" xmlns="http://www.w3.org/2000/svg">
<path d="M325.38 78.079L309.88 34.179C309.504 33.5053 309.298 32.7502 309.28 31.979C309.296 30.9762 309.701 30.0189 310.411 29.3097C311.12 28.6005 312.077 28.195 313.08 28.179C314.98 28.179 316.28 29.479 316.88 31.379L329.78 69.279L342.78 31.379C343.38 29.479 344.68 28.179 346.58 28.179H346.88C347.805 28.1151 348.718 28.4131 349.427 29.0103C350.136 29.6074 350.586 30.4568 350.68 31.379L363.58 69.279L376.48 31.079C377.08 29.479 378.08 27.879 380.28 27.879C380.755 27.8547 381.229 27.924 381.677 28.0831C382.125 28.2422 382.536 28.4879 382.889 28.8062C383.242 29.1246 383.528 29.5093 383.732 29.9384C383.936 30.3675 384.054 30.8325 384.078 31.307L384.081 31.379C384.023 32.1438 383.819 32.8905 383.481 33.579L367.981 77.779C367.081 79.979 365.781 81.279 363.881 81.279H363.581C362.601 81.2488 361.661 80.8856 360.916 80.2494C360.171 79.6131 359.665 78.7417 359.481 77.779L346.881 40.579L333.981 77.779C333.797 78.7417 333.291 79.6131 332.546 80.2494C331.801 80.8856 330.861 81.2488 329.881 81.279H329.581C327.881 81.579 326.281 80.579 325.381 78.079H325.38ZM438.08 32.279C438.08 31.2712 438.48 30.3047 439.193 29.592C439.906 28.8794 440.872 28.479 441.88 28.479C442.888 28.479 443.854 28.8794 444.567 29.592C445.28 30.3047 445.68 31.2712 445.68 32.279V41.079C449.48 32.579 457.68 28.479 463.38 28.479C463.863 28.4626 464.344 28.5414 464.796 28.7109C465.248 28.8804 465.662 29.1374 466.015 29.467C466.368 29.7967 466.653 30.1926 466.852 30.6322C467.052 31.0718 467.164 31.5464 467.18 32.029C467.183 32.1124 467.183 32.1957 467.18 32.279C467.18 34.479 465.88 35.779 463.68 36.079C453.88 37.379 445.68 44.879 445.68 59.779V77.479C445.68 78.4869 445.28 79.4534 444.567 80.166C443.854 80.8787 442.888 81.279 441.88 81.279C440.872 81.279 439.906 80.8787 439.193 80.166C438.48 79.4534 438.08 78.4869 438.08 77.479V32.279ZM506.28 52.179C505.68 42.679 500.28 34.479 490.18 34.479C481.38 34.479 474.98 42.079 474.08 52.179H506.28ZM491.38 82.179C477.78 82.179 466.48 71.479 466.48 55.379V55.079C466.48 40.279 476.58 28.279 490.48 28.279C505.28 28.279 513.48 40.579 513.48 54.479C513.518 55.3688 513.202 56.2373 512.6 56.8936C511.998 57.5499 511.16 57.9404 510.27 57.979C510.174 57.983 510.077 57.983 509.98 57.979H473.98C474.88 68.979 482.78 75.379 491.68 75.379C497.98 75.379 502.38 72.879 506.18 69.379C506.464 69.0841 506.806 68.8518 507.185 68.6968C507.564 68.5418 507.971 68.4676 508.38 68.479C509.227 68.4843 510.038 68.8231 510.637 69.4221C511.236 70.0211 511.575 70.832 511.58 71.679C511.607 72.174 511.501 72.6671 511.272 73.1069C511.043 73.5467 510.701 73.917 510.28 74.179C505.28 79.079 499.98 82.179 491.38 82.179ZM421.68 61.979V56.879C416.853 55.3964 411.829 54.6546 406.78 54.679C397.28 54.679 391.98 58.779 391.98 65.379V65.679C391.98 72.279 397.98 76.079 404.88 76.079C414.08 75.879 421.68 70.179 421.68 61.979V61.979ZM384.08 66.079C384.08 55.079 392.88 49.079 405.88 49.079C411.225 49.0436 416.548 49.7847 421.68 51.279V49.379C421.68 39.879 415.98 35.179 406.48 35.179C401.38 35.179 398.28 35.779 394.78 37.679C394.384 37.9002 393.933 38.0042 393.48 37.979C392.555 37.9679 391.671 37.5956 391.017 36.9416C390.363 36.2876 389.991 35.4038 389.98 34.479C389.926 33.7745 390.114 33.0726 390.515 32.4903C390.915 31.908 391.503 31.4805 392.18 31.279C397.28 29.079 400.98 28.479 407.38 28.479C414.68 28.479 419.98 30.379 423.78 34.179C427.28 37.679 429.18 42.679 429.18 49.379V78.079C429.213 79.0537 428.857 80.0014 428.192 80.714C427.526 81.4266 426.605 81.8457 425.63 81.879C425.547 81.8817 425.464 81.8817 425.38 81.879C424.49 81.9173 423.622 81.6006 422.965 80.9987C422.309 80.3967 421.919 79.5588 421.88 78.669C421.877 78.5724 421.877 78.4757 421.88 78.379V73.279C418.38 77.979 412.38 82.079 403.58 82.079C393.88 82.179 384.08 76.479 384.08 66.079V66.079ZM187.78 31.679C187.079 29.9378 185.716 28.5461 183.989 27.81C182.263 27.0739 180.314 27.0538 178.573 27.754C178.474 27.794 178.377 27.8357 178.281 27.879C174.481 29.779 172.881 33.879 174.781 37.679L190.581 73.679C193.081 79.379 195.981 82.179 200.681 82.179C206.081 82.179 208.281 78.979 210.781 73.679C210.781 73.679 224.981 42.379 224.981 42.079C225.106 41.6804 225.361 41.3354 225.706 41.0995C226.05 40.8637 226.464 40.7508 226.881 40.779C227.156 40.7656 227.432 40.8065 227.691 40.8995C227.951 40.9925 228.19 41.1357 228.394 41.3209C228.598 41.5062 228.764 41.7298 228.882 41.9792C229 42.2285 229.068 42.4986 229.081 42.774C229.084 42.842 229.084 42.9104 229.081 42.979V73.679C229.081 78.379 231.581 82.179 236.681 82.179C241.781 82.179 244.281 78.379 244.281 73.679V48.379C244.22 46.3454 244.969 44.3706 246.363 42.8891C247.757 41.4076 249.683 40.5407 251.717 40.479C251.872 40.4744 252.026 40.4744 252.181 40.479C256.881 40.479 259.781 43.679 259.781 48.379V73.679C259.781 78.379 262.281 82.179 267.381 82.179C272.481 82.179 274.981 78.379 274.981 73.679V48.379C274.92 46.3454 275.669 44.3706 277.063 42.8891C278.457 41.4076 280.383 40.5407 282.417 40.479C282.572 40.4744 282.726 40.4744 282.881 40.479C287.581 40.479 290.481 43.679 290.481 48.379V73.679C290.481 78.379 292.981 82.179 298.081 82.179C303.181 82.179 305.681 78.379 305.681 73.679V45.279C305.681 34.879 297.481 27.579 287.381 27.579C281.326 27.7203 275.559 30.1919 271.281 34.479C268.081 30.079 263.381 27.579 255.781 27.579C247.581 27.579 240.581 34.479 240.581 34.479C238.98 32.3794 236.925 30.6684 234.57 29.4736C232.215 28.2789 229.621 27.6313 226.981 27.579C219.681 27.579 214.081 30.779 210.581 38.979L200.181 63.879L187.78 31.679ZM517.98 31.879C517.977 31.8033 517.989 31.7277 518.015 31.6565C518.041 31.5853 518.081 31.52 518.132 31.4642C518.183 31.4085 518.245 31.3634 518.314 31.3317C518.383 31.2999 518.457 31.282 518.533 31.279H520.881C521.566 31.2469 522.239 31.4596 522.781 31.879C523.123 32.2629 523.303 32.7651 523.281 33.279C523.301 33.7231 523.16 34.1595 522.885 34.5084C522.609 34.8573 522.218 35.0954 521.781 35.179L522.981 36.779C523.086 36.8893 523.156 37.0287 523.181 37.179C523.173 37.3089 523.117 37.4312 523.025 37.5232C522.933 37.6152 522.811 37.6706 522.681 37.679C522.564 37.6821 522.448 37.6563 522.344 37.604C522.239 37.5517 522.149 37.4744 522.081 37.379L520.481 35.379H519.081V37.079C519.081 37.2382 519.018 37.3908 518.905 37.5033C518.793 37.6158 518.64 37.679 518.481 37.679C518.322 37.679 518.169 37.6158 518.057 37.5033C517.944 37.3908 517.881 37.2382 517.881 37.079L517.98 31.879ZM520.78 34.479C521.58 34.479 522.08 34.079 522.08 33.379C522.08 32.679 521.58 32.279 520.78 32.279H519.18V34.479H520.78Z" fill="white"/>
<path d="M520.28 41.179C518.975 41.179 517.698 40.7919 516.613 40.0667C515.528 39.3415 514.682 38.3107 514.182 37.1047C513.683 35.8987 513.552 34.5717 513.807 33.2914C514.061 32.0111 514.69 30.8351 515.613 29.9121C516.536 28.9891 517.712 28.3605 518.992 28.1058C520.273 27.8512 521.6 27.9819 522.806 28.4814C524.012 28.9809 525.042 29.8269 525.768 30.9122C526.493 31.9976 526.88 33.2736 526.88 34.579C526.881 36.3275 526.189 38.005 524.953 39.2427C523.718 40.4804 522.042 41.1769 520.294 41.179H520.281H520.28ZM520.28 28.879C519.172 28.879 518.09 29.2074 517.169 29.8228C516.248 30.4381 515.53 31.3127 515.106 32.336C514.682 33.3592 514.571 34.4852 514.788 35.5715C515.004 36.6578 515.537 37.6556 516.32 38.4388C517.103 39.222 518.101 39.7553 519.187 39.9714C520.274 40.1875 521.4 40.0766 522.423 39.6527C523.446 39.2289 524.321 38.5111 524.936 37.5902C525.551 36.6693 525.88 35.5866 525.88 34.479C525.899 33.013 525.335 31.5994 524.312 30.5492C523.289 29.499 521.891 28.8982 520.425 28.879H520.281H520.28ZM197.88 140.28H197.78C196.88 140.28 196.48 139.78 196.08 138.98L183.58 110.879C183.466 110.591 183.398 110.288 183.38 109.979C183.379 109.782 183.418 109.587 183.492 109.405C183.567 109.223 183.677 109.057 183.816 108.918C183.955 108.778 184.12 108.667 184.302 108.592C184.483 108.516 184.678 108.477 184.875 108.476C184.91 108.476 184.946 108.477 184.981 108.479C185.343 108.471 185.698 108.585 185.988 108.803C186.278 109.02 186.487 109.329 186.581 109.679L197.881 136.479L209.381 109.579C209.475 109.256 209.673 108.974 209.945 108.775C210.216 108.576 210.545 108.472 210.881 108.479C211.271 108.472 211.649 108.62 211.93 108.891C212.211 109.162 212.374 109.534 212.381 109.924V109.979C212.362 110.255 212.294 110.526 212.181 110.779L199.581 138.979C199.461 139.342 199.235 139.66 198.932 139.891C198.628 140.123 198.262 140.258 197.881 140.279L197.88 140.28ZM220.08 134.479C219.897 134.336 219.748 134.154 219.644 133.947C219.54 133.739 219.484 133.511 219.48 133.279C219.477 133.072 219.516 132.866 219.592 132.673C219.669 132.48 219.784 132.304 219.928 132.156C220.073 132.007 220.246 131.889 220.437 131.807C220.627 131.725 220.832 131.682 221.04 131.679H221.08C221.451 131.687 221.806 131.829 222.08 132.079C223.997 133.903 226.257 135.329 228.728 136.273C231.2 137.217 233.835 137.661 236.48 137.579C242.88 137.579 247.28 133.979 247.28 129.079V128.979C247.28 124.479 244.88 121.879 235.18 119.879C224.98 117.779 220.78 114.279 220.78 107.879V107.779C220.78 101.479 226.58 96.579 234.48 96.579C239.387 96.4221 244.195 97.9778 248.08 100.979C248.288 101.128 248.46 101.322 248.581 101.547C248.703 101.773 248.771 102.023 248.78 102.279C248.785 102.698 248.624 103.101 248.332 103.401C248.04 103.701 247.641 103.873 247.222 103.879H247.181C246.995 103.889 246.81 103.858 246.637 103.789C246.464 103.72 246.309 103.614 246.181 103.479C242.85 100.781 238.665 99.3624 234.381 99.479C228.081 99.479 223.981 103.079 223.981 107.579V107.679C223.981 112.179 226.281 114.979 236.381 116.979C246.281 118.979 250.381 122.579 250.381 128.779V128.879C250.381 135.779 244.481 140.479 236.281 140.479C230.328 140.533 224.562 138.398 220.081 134.479H220.08ZM260.28 110.079C260.28 109.681 260.438 109.3 260.719 109.018C261.001 108.737 261.382 108.579 261.78 108.579C262.178 108.579 262.559 108.737 262.841 109.018C263.122 109.3 263.28 109.681 263.28 110.079V115.779C265.98 111.679 269.88 108.079 276.08 108.079C283.58 108.079 291.18 114.079 291.18 124.279V124.379C291.18 134.479 283.58 140.679 276.08 140.679C269.88 140.679 265.88 137.179 263.28 133.279V148.479C263.28 148.877 263.122 149.258 262.841 149.54C262.559 149.821 262.178 149.979 261.78 149.979C261.382 149.979 261.001 149.821 260.719 149.54C260.438 149.258 260.28 148.877 260.28 148.479V110.079V110.079ZM287.98 124.379C287.98 116.079 282.28 110.879 275.78 110.879C272.331 110.96 269.054 112.407 266.672 114.903C264.29 117.4 262.997 120.74 263.078 124.189L263.081 124.279V124.379C262.976 127.828 264.246 131.177 266.611 133.69C268.976 136.202 272.242 137.673 275.691 137.777L275.781 137.779C282.481 137.679 287.981 132.779 287.981 124.379H287.98ZM300.48 96.579C300.468 96.3789 300.498 96.1784 300.569 95.991C300.64 95.8035 300.751 95.6332 300.892 95.4915C301.034 95.3497 301.204 95.2396 301.392 95.1685C301.579 95.0974 301.78 95.0669 301.98 95.079C302.37 95.0718 302.748 95.2199 303.029 95.4909C303.31 95.7619 303.473 96.1335 303.48 96.524V114.479C304.545 112.451 306.161 110.764 308.143 109.614C310.124 108.464 312.39 107.898 314.68 107.979C322.58 107.979 327.08 113.379 327.08 120.779V138.479C327.08 138.877 326.922 139.258 326.641 139.54C326.359 139.821 325.978 139.979 325.58 139.979C325.182 139.979 324.801 139.821 324.519 139.54C324.238 139.258 324.08 138.877 324.08 138.479V121.279C324.08 114.879 320.48 110.679 314.18 110.679C308.08 110.679 303.38 115.279 303.38 121.779V138.479C303.38 138.877 303.222 139.258 302.941 139.54C302.659 139.821 302.278 139.979 301.88 139.979C301.482 139.979 301.101 139.821 300.819 139.54C300.538 139.258 300.38 138.877 300.38 138.479L300.48 96.579V96.579ZM350.98 140.579C342.78 140.579 335.78 134.079 335.78 124.379V124.279C335.78 115.279 342.08 108.079 350.58 108.079C359.28 108.079 364.88 115.279 364.88 124.179C364.849 124.557 364.678 124.91 364.401 125.169C364.123 125.428 363.759 125.574 363.38 125.579H338.98C339.48 133.279 345.08 137.879 351.18 137.879C353.07 137.906 354.945 137.537 356.684 136.796C358.424 136.056 359.989 134.96 361.28 133.579C361.41 133.446 361.565 133.342 361.738 133.274C361.91 133.205 362.095 133.172 362.28 133.179C362.664 133.166 363.038 133.307 363.319 133.569C363.6 133.831 363.766 134.195 363.78 134.579C363.783 134.774 363.739 134.966 363.652 135.14C363.565 135.314 363.437 135.464 363.28 135.579C361.691 137.222 359.776 138.516 357.658 139.377C355.54 140.238 353.265 140.647 350.98 140.579V140.579ZM361.58 122.879C361.18 116.579 357.58 110.779 350.38 110.779C344.18 110.779 339.48 115.979 338.88 122.879H361.58ZM373.58 110.079C373.58 109.681 373.738 109.3 374.019 109.018C374.301 108.737 374.682 108.579 375.08 108.579C375.478 108.579 375.859 108.737 376.141 109.018C376.422 109.3 376.58 109.681 376.58 110.079V117.679C379.28 111.679 384.68 108.379 389.08 108.379C389.499 108.374 389.903 108.535 390.203 108.827C390.503 109.12 390.674 109.519 390.68 109.938V109.979C390.691 110.192 390.657 110.405 390.581 110.604C390.505 110.804 390.387 110.984 390.236 111.135C390.085 111.286 389.904 111.404 389.705 111.48C389.506 111.557 389.293 111.59 389.08 111.579C382.48 112.179 376.58 117.179 376.58 127.179V138.679C376.58 139.077 376.422 139.458 376.141 139.74C375.859 140.021 375.478 140.179 375.08 140.179C374.682 140.179 374.301 140.021 374.019 139.74C373.738 139.458 373.58 139.077 373.58 138.679V110.079ZM409.48 140.579C401.28 140.579 394.28 134.079 394.28 124.379V124.279C394.28 115.279 400.58 108.079 409.08 108.079C417.78 108.079 423.38 115.279 423.38 124.179C423.349 124.557 423.178 124.91 422.901 125.169C422.623 125.428 422.259 125.574 421.88 125.579H397.48C397.98 133.279 403.58 137.879 409.68 137.879C411.57 137.906 413.445 137.537 415.184 136.796C416.924 136.056 418.489 134.96 419.78 133.579C419.91 133.446 420.065 133.342 420.238 133.274C420.41 133.205 420.595 133.172 420.78 133.179C421.164 133.166 421.538 133.307 421.819 133.569C422.1 133.831 422.266 134.195 422.28 134.579C422.283 134.774 422.239 134.966 422.152 135.14C422.065 135.314 421.937 135.464 421.78 135.579C420.184 137.214 418.268 138.503 416.152 139.363C414.035 140.224 411.764 140.637 409.48 140.579V140.579ZM420.08 122.879C419.68 116.579 416.08 110.779 408.88 110.779C402.68 110.779 397.98 115.979 397.38 122.879H420.08Z" fill="white"/>
<path d="M134.276 11.335H39.0991C23.8599 11.335 11.5061 23.6888 11.5061 38.928V132.747C11.5061 147.986 23.8599 160.34 39.0991 160.34H134.276C149.515 160.34 161.869 147.986 161.869 132.747V38.928C161.869 23.6888 149.515 11.335 134.276 11.335Z" fill="white"/>
<path d="M128.242 28.634H72.0679C64.7499 28.634 58.8179 34.867 58.8179 42.556V57.338H45.0229C37.7049 57.338 31.7729 63.571 31.7729 71.26V128.221C31.7729 135.911 37.7049 142.144 45.0229 142.144H101.197C108.514 142.144 114.446 135.91 114.446 128.221V113.44H128.243C135.56 113.44 141.492 107.207 141.492 99.518V42.556C141.492 34.866 135.56 28.634 128.242 28.634V28.634ZM127.201 89.659C127.258 92.0191 126.375 94.3052 124.748 96.0153C123.121 97.7254 120.881 98.7198 118.521 98.78H100.154V118.363C100.211 120.723 99.3288 123.01 97.7013 124.72C96.0738 126.43 93.8341 127.425 91.4739 127.485H54.7419C52.3818 127.425 50.1421 126.43 48.5146 124.72C46.8871 123.01 46.005 120.723 46.0619 118.363V81.118C46.0053 78.758 46.8875 76.4719 48.515 74.7618C50.1424 73.0517 52.382 72.0573 54.7419 71.997H73.1099V52.414C73.0533 50.054 73.9355 47.7679 75.563 46.0578C77.1904 44.3477 79.43 43.3533 81.7899 43.293H118.521C120.881 43.3533 123.121 44.3477 124.748 46.0578C126.375 47.7679 127.258 50.054 127.201 52.414V89.659Z" fill="black"/>
<path d="M113.496 55.399H88.164C87.1455 55.399 86.1688 55.8036 85.4487 56.5238C84.7285 57.2439 84.324 58.2206 84.324 59.239V83.244C84.3244 83.5529 84.3546 83.861 84.414 84.164H60.038C59.0197 84.1643 58.0433 84.569 57.3233 85.2891C56.6034 86.0092 56.199 86.9858 56.199 88.0041V112.009C56.199 113.282 56.7045 114.503 57.6045 115.403C58.5045 116.303 59.7251 116.809 60.998 116.809H85.37C86.3882 116.809 87.3647 116.404 88.0846 115.684C88.8045 114.964 89.209 113.987 89.209 112.969V88.045H113.496C114 88.045 114.5 87.9457 114.966 87.7526C115.432 87.5596 115.855 87.2767 116.212 86.92C116.568 86.5633 116.851 86.1399 117.044 85.6739C117.237 85.2079 117.336 84.7084 117.336 84.204V59.239C117.336 58.2206 116.931 57.2439 116.211 56.5238C115.491 55.8036 114.514 55.399 113.496 55.399V55.399Z" fill="black"/>
</svg>
