<svg width="24" height="24" viewBox="0 0 24 24" fill="none" xmlns="http://www.w3.org/2000/svg">
<path fill-rule="evenodd" clip-rule="evenodd" d="M4 11V4H11V11H4ZM13 13V21C13 21.5523 12.5523 22 12 22H3C2.44771 22 2 21.5523 2 21V12V3C2 2.44771 2.44772 2 3 2H12H21C21.5523 2 22 2.44772 22 3V12C22 12.5523 21.5523 13 21 13H13ZM13 11H20V4H13V11ZM4 13H11V20H4V13ZM18 14C18.5523 14 19 14.4477 19 15V17H21C21.5523 17 22 17.4477 22 18C22 18.5523 21.5523 19 21 19H19V21C19 21.5523 18.5523 22 18 22C17.4477 22 17 21.5523 17 21V19H15C14.4477 19 14 18.5523 14 18C14 17.4477 14.4477 17 15 17H17V15C17 14.4477 17.4477 14 18 14Z" fill="#4D555C"/>
</svg>
