<svg width="25" height="24" viewBox="0 0 25 24" fill="none" xmlns="http://www.w3.org/2000/svg">
  <path d="M7.03222 6.06249H5.2462C8.01903 2.8977 12.7279 2.02375 16.5105 4.20761C20.8151 6.69289 22.29 12.1972 19.8047 16.5018C17.3194 20.8065 11.8151 22.2813 7.51047 19.7961C5.38589 18.5694 3.95144 16.6094 3.34088 14.4181C3.19264 13.8861 2.64119 13.575 2.10917 13.7232C1.57715 13.8714 1.26603 14.4229 1.41427 14.9549C2.15965 17.6301 3.91442 20.0293 6.51047 21.5281C11.7717 24.5657 18.4992 22.7631 21.5367 17.5018C24.5743 12.2406 22.7717 5.51312 17.5105 2.47556C12.9084 -0.181425 7.18455 0.864889 3.78957 4.68986V2.81985C3.78957 2.26757 3.34186 1.81985 2.78957 1.81985C2.23729 1.81985 1.78957 2.26757 1.78957 2.81985L1.78957 8.06249H7.03222C7.5845 8.06249 8.03222 7.61478 8.03222 7.06249C8.03222 6.51021 7.5845 6.06249 7.03222 6.06249Z" fill="#4D555C"/>
  <path d="M13.3773 7C13.3773 6.44772 12.9296 6 12.3773 6C11.825 6 11.3773 6.44772 11.3773 7V13H15.3773C15.9296 13 16.3773 12.5523 16.3773 12C16.3773 11.4477 15.9296 11 15.3773 11H13.3773V7Z" fill="#4D555C"/>
</svg>
