<?xml version="1.0" encoding="utf-8"?>
<svg xmlns="http://www.w3.org/2000/svg">
  <style>
    g {
      display: none;
    }

    g:target {
      display: inline;
    }
  </style>

  <g id="16">
    <svg viewBox="0 0 16 16" fill="none" xmlns="http://www.w3.org/2000/svg">
      <path fill-rule="evenodd" clip-rule="evenodd"
            d="M5.94976 11.435L2.41423 7.89949C2.0237 7.50897 1.39054 7.50897 1.00001 7.89949C0.60949 8.29002 0.60949 8.92318 1.00001 9.3137L5.94976 14.2635L15.8493 4.36396C16.2398 3.97343 16.2398 3.34027 15.8493 2.94974C15.4587 2.55922 14.8256 2.55922 14.435 2.94974L5.94976 11.435Z"
            fill="#4D555C"/>
    </svg>

  </g>

  <g id="24">
    <svg viewBox="0 0 24 24" fill="none" xmlns="http://www.w3.org/2000/svg">
      <path fill-rule="evenodd" clip-rule="evenodd"
            d="M21.7071 5.29289C22.0976 5.68342 22.0976 6.31658 21.7071 6.70711L9 19.4142L2.29289 12.7071C1.90237 12.3166 1.90237 11.6834 2.29289 11.2929C2.68342 10.9024 3.31658 10.9024 3.70711 11.2929L9 16.5858L20.2929 5.29289C20.6834 4.90237 21.3166 4.90237 21.7071 5.29289Z"
            fill="#4D555C"/>
    </svg>
  </g>
</svg>
