<svg width="18" height="18" viewBox="0 0 18 18" fill="none" xmlns="http://www.w3.org/2000/svg">
<path fill-rule="evenodd" clip-rule="evenodd" d="M7 0C6.44771 0 6 0.447715 6 1V3C6 3.55228 6.44771 4 7 4V6H2C1.44772 6 1 6.44772 1 7V8V10C0.447716 10 0 10.4477 0 11V13C0 13.5523 0.447716 14 1 14H3C3.55229 14 4 13.5523 4 13V11C4 10.4477 3.55229 10 3 10V8H7V10C6.44771 10 6 10.4477 6 11V13C6 13.5523 6.44771 14 7 14H8.07089C8.26946 12.6117 8.87538 11.3549 9.76367 10.3544C9.58024 10.1376 9.30619 10 9 10V8H13V8.28988C13.6337 8.10128 14.305 8 15 8V7C15 6.48223 14.6065 6.05637 14.1022 6.00516C14.0686 6.00175 14.0345 6 14 6H9V4C9.55228 4 10 3.55228 10 3V1C10 0.447715 9.55228 0 9 0H7ZM13 11C13 10.4477 13.4477 10 14 10C14.5523 10 15 10.4477 15 11V13H17C17.5523 13 18 13.4477 18 14C18 14.5523 17.5523 15 17 15H15V17C15 17.5523 14.5523 18 14 18C13.4477 18 13 17.5523 13 17V15H11C10.4477 15 10 14.5523 10 14C10 13.4477 10.4477 13 11 13H13V11Z" fill="#4D555C"/>
</svg>
