<svg width="14" height="14" viewBox="0 0 14 14" fill="none" xmlns="http://www.w3.org/2000/svg">
<path fill-rule="evenodd" clip-rule="evenodd" d="M2 8C2 8.55228 2.44772 9 3 9H4V8H3V7V2V1H4H7H8V2V3H9V1C9 0.447715 8.55228 0 8 0H3C2.44772 0 2 0.447715 2 1V8Z" fill="#7E868F"/>
<path d="M6.00002 4.5C5.72388 4.5 5.50002 4.72386 5.50002 5V12C5.50002 12.2761 5.72388 12.5 6.00002 12.5H11C11.2762 12.5 11.5 12.2761 11.5 12V5C11.5 4.72386 11.2762 4.5 11 4.5H6.00002Z" stroke="#7E868F" stroke-linejoin="round"/>
</svg>
