<svg width="24" height="24" viewBox="0 0 24 24" fill="none" xmlns="http://www.w3.org/2000/svg">
<mask id="path-1-inside-1" fill="white">
<path fill-rule="evenodd" clip-rule="evenodd" d="M6 15V3H14V6H16V2C16 1.44772 15.5523 1 15 1H5C4.44772 1 4 1.44772 4 2V16C4 16.5523 4.44772 17 5 17H8V15H6Z"/>
</mask>
<path fill-rule="evenodd" clip-rule="evenodd" d="M6 15V3H14V6H16V2C16 1.44772 15.5523 1 15 1H5C4.44772 1 4 1.44772 4 2V16C4 16.5523 4.44772 17 5 17H8V15H6Z" fill="#4D555C"/>
<path d="M6 3V1H4V3H6ZM6 15H4V17H6V15ZM14 3H16V1H14V3ZM14 6H12V8H14V6ZM16 6V8H18V6H16ZM8 17V19H10V17H8ZM8 15H10V13H8V15ZM4 3V15H8V3H4ZM14 1H6V5H14V1ZM16 6V3H12V6H16ZM14 8H16V4H14V8ZM18 6V2H14V6H18ZM18 2C18 0.343146 16.6569 -1 15 -1V3C14.4477 3 14 2.55228 14 2H18ZM15 -1H5V3H15V-1ZM5 -1C3.34315 -1 2 0.343146 2 2H6C6 2.55228 5.55228 3 5 3V-1ZM2 2V16H6V2H2ZM2 16C2 17.6569 3.34315 19 5 19V15C5.55228 15 6 15.4477 6 16H2ZM5 19H8V15H5V19ZM10 17V15H6V17H10ZM6 17H8V13H6V17Z" fill="#4D555C" mask="url(#path-1-inside-1)"/>
<mask id="path-3-inside-2" fill="white">
<path fill-rule="evenodd" clip-rule="evenodd" d="M11 9V21H19V9H11ZM10 7C9.44772 7 9 7.44772 9 8V22C9 22.5523 9.44772 23 10 23H20C20.5523 23 21 22.5523 21 22V8C21 7.44772 20.5523 7 20 7H10Z"/>
</mask>
<path fill-rule="evenodd" clip-rule="evenodd" d="M11 9V21H19V9H11ZM10 7C9.44772 7 9 7.44772 9 8V22C9 22.5523 9.44772 23 10 23H20C20.5523 23 21 22.5523 21 22V8C21 7.44772 20.5523 7 20 7H10Z" fill="#4D555C"/>
<path d="M11 21H9V23H11V21ZM11 9V7H9V9H11ZM19 21V23H21V21H19ZM19 9H21V7H19V9ZM13 21V9H9V21H13ZM19 19H11V23H19V19ZM17 9V21H21V9H17ZM11 11H19V7H11V11ZM11 8C11 8.55228 10.5523 9 10 9V5C8.34315 5 7 6.34315 7 8H11ZM11 22V8H7V22H11ZM10 21C10.5523 21 11 21.4477 11 22H7C7 23.6569 8.34315 25 10 25V21ZM20 21H10V25H20V21ZM19 22C19 21.4477 19.4477 21 20 21V25C21.6569 25 23 23.6569 23 22H19ZM19 8V22H23V8H19ZM20 9C19.4477 9 19 8.55228 19 8H23C23 6.34315 21.6569 5 20 5V9ZM10 9H20V5H10V9Z" fill="#4D555C" mask="url(#path-3-inside-2)"/>
</svg>
