<svg width="24" height="24" viewBox="0 0 24 24" fill="none" xmlns="http://www.w3.org/2000/svg">
  <path fill-rule="evenodd" clip-rule="evenodd" d="M15.1603 2V4.58152C15.8551 4.86278 16.5014 5.23883 17.0832 5.69362L19.3205 4.40193L22.3205 9.59808L20.0838 10.8894C20.1342 11.2524 20.1603 11.6232 20.1603 12C20.1603 12.3768 20.1342 12.7476 20.0838 13.1106L22.3205 14.4019L19.3205 19.5981L17.0832 18.3064C16.5014 18.7612 15.8551 19.1372 15.1603 19.4185V22H9.16029V19.4185C8.46545 19.1372 7.81912 18.7612 7.23733 18.3064L5 19.5981L2 14.4019L4.23675 13.1105C4.18635 12.7476 4.16029 12.3768 4.16029 12C4.16029 11.6232 4.18634 11.2524 4.23675 10.8895L2.00001 9.59808L5.00001 4.40193L7.23733 5.69365C7.81911 5.23884 8.46545 4.86278 9.16029 4.58152V2H15.1603ZM16.9146 8.10039L18.5885 7.13398L19.5885 8.86603L17.9176 9.83071L18.1028 11.1646C18.1406 11.4366 18.1603 11.7155 18.1603 12C18.1603 12.2845 18.1406 12.5634 18.1028 12.8355L17.9176 14.1693L19.5885 15.134L18.5885 16.866L16.9146 15.8996L15.8515 16.7307C15.4144 17.0724 14.9298 17.3542 14.4099 17.5646L13.1603 18.0704V20H11.1603V18.0704L9.91072 17.5646C9.39081 17.3542 8.90615 17.0723 8.4691 16.7307L7.40597 15.8996L5.73205 16.866L4.73205 15.134L6.40298 14.1693L6.21774 12.8354C6.17996 12.5634 6.16029 12.2845 6.16029 12C6.16029 11.7155 6.17996 11.4366 6.21774 11.1646L6.40297 9.83073L4.73206 8.86603L5.73206 7.13398L7.40597 8.10041L8.4691 7.26932C8.90615 6.92765 9.3908 6.64585 9.91072 6.43539L11.1603 5.92958V4H13.1603V5.92958L14.4099 6.43539C14.9298 6.64585 15.4144 6.92765 15.8515 7.2693L16.9146 8.10039ZM13.2 12C13.2 12.5523 12.7523 13 12.2 13C11.6477 13 11.2 12.5523 11.2 12C11.2 11.4477 11.6477 11 12.2 11C12.7523 11 13.2 11.4477 13.2 12ZM15.2 12C15.2 13.6569 13.8569 15 12.2 15C10.5431 15 9.2 13.6569 9.2 12C9.2 10.3431 10.5431 9 12.2 9C13.8569 9 15.2 10.3431 15.2 12Z" fill="#4D555C"/>
</svg>
