<svg width="18" height="18" viewBox="0 0 18 18" fill="none" xmlns="http://www.w3.org/2000/svg">
<path d="M12.5356 8.29289L13.2427 7.58578C14.0237 6.80473 14.0237 5.5384 13.2427 4.75736C12.4616 3.97631 11.1953 3.97631 10.4142 4.75736L9.70712 5.46447L8.29291 4.05025L9.00002 3.34314C10.5621 1.78105 13.0948 1.78105 14.6569 3.34314C16.219 4.90524 16.219 7.4379 14.6569 9L13.9498 9.70711L12.5356 8.29289Z" fill="#4D555C"/>
<path d="M4.05025 8.29288L3.34314 8.99999C1.78105 10.5621 1.78105 13.0948 3.34314 14.6569C4.90524 16.219 7.4379 16.219 9 14.6569L9.7071 13.9498L8.29289 12.5356L7.58578 13.2427C6.80473 14.0237 5.5384 14.0237 4.75736 13.2427C3.97631 12.4616 3.97631 11.1953 4.75736 10.4142L5.46446 9.7071L4.05025 8.29288Z" fill="#4D555C"/>
<path d="M4.75734 3.34315C4.36681 2.95263 3.73365 2.95263 3.34313 3.34315C2.9526 3.73368 2.9526 4.36684 3.34313 4.75737L13.2426 14.6569C13.6331 15.0474 14.2663 15.0474 14.6568 14.6569C15.0474 14.2663 15.0474 13.6332 14.6568 13.2426L4.75734 3.34315Z" fill="#4D555C"/>
</svg>
