<svg width="24" height="24" viewBox="0 0 24 24" fill="none" xmlns="http://www.w3.org/2000/svg">
<path d="M12.7573 8H7L7 18H17V12.2426L17.2539 11.9888C17.6987 12.4908 18.3094 12.8427 19 12.9585V18C19 19.1046 18.1046 20 17 20H7C5.89543 20 5 19.1046 5 18V8C5 6.89543 5.89543 6 7 6H12.0415C12.1573 6.69063 12.5091 7.30125 13.0112 7.74612L12.7573 8Z" fill="#4D555C"/>
<path d="M15 4.5C14.4477 4.5 14 4.94772 14 5.5C14 6.05228 14.4477 6.5 15 6.5H17.0858L11.7071 11.8787C11.3166 12.2692 11.3166 12.9024 11.7071 13.2929C12.0976 13.6834 12.7308 13.6834 13.1213 13.2929L18.5 7.91421V10C18.5 10.5523 18.9477 11 19.5 11C20.0523 11 20.5 10.5523 20.5 10V5.5C20.5 4.94772 20.0523 4.5 19.5 4.5H15Z" fill="#4D555C"/>
</svg>
