<svg width="17" height="16" viewBox="0 0 17 16" fill="none" xmlns="http://www.w3.org/2000/svg">
<mask id="path-1-inside-1" fill="white">
<path fill-rule="evenodd" clip-rule="evenodd" d="M11.9566 7.73332C11.8268 7.90642 11.7566 8.11695 11.7566 8.33332V13.0818C11.7566 13.5001 11.4962 13.8742 11.1039 14.0195L7.1039 15.501C6.45077 15.7429 5.75658 15.2597 5.75658 14.5632V8.33335C5.75658 8.11698 5.68641 7.90644 5.55658 7.73335L0.956577 1.6C0.46215 0.940766 0.93253 0 1.75657 0H15.7566C16.5806 0 17.051 0.940764 16.5566 1.6L11.9566 7.73332Z"/>
</mask>
<path d="M11.1039 14.0195L11.7985 15.895L11.1039 14.0195ZM11.9566 7.73332L10.3566 6.53332L11.9566 7.73332ZM9.75658 8.33332V13.0818H13.7566V8.33332H9.75658ZM10.4093 12.144L6.40927 13.6255L7.79853 17.3765L11.7985 15.895L10.4093 12.144ZM7.75658 14.5632V8.33335H3.75658V14.5632H7.75658ZM7.15658 6.53335L2.55658 0.400002L-0.643423 2.8L3.95658 8.93335L7.15658 6.53335ZM1.75657 2H15.7566V-2H1.75657V2ZM14.9566 0.4L10.3566 6.53332L13.5566 8.93332L18.1566 2.8L14.9566 0.4ZM15.7566 2C14.9325 2 14.4621 1.05924 14.9566 0.4L18.1566 2.8C19.6399 0.822292 18.2287 -2 15.7566 -2V2ZM2.55658 0.400002C3.051 1.05923 2.58063 2 1.75657 2V-2C-0.715573 -2 -2.1267 0.822303 -0.643423 2.8L2.55658 0.400002ZM7.75658 8.33335C7.75658 7.68424 7.54605 7.05263 7.15658 6.53335L3.95658 8.93335C3.82676 8.76025 3.75658 8.54972 3.75658 8.33335H7.75658ZM6.40927 13.6255C7.06239 13.3836 7.75658 13.8668 7.75658 14.5632H3.75658C3.75658 16.6527 5.83916 18.1022 7.79853 17.3765L6.40927 13.6255ZM9.75658 13.0818C9.75658 12.6634 10.017 12.2893 10.4093 12.144L11.7985 15.895C12.9754 15.4591 13.7566 14.3368 13.7566 13.0818H9.75658ZM13.7566 8.33332C13.7566 8.54969 13.6864 8.76022 13.5566 8.93332L10.3566 6.53332C9.96712 7.05261 9.75658 7.68421 9.75658 8.33332H13.7566Z" fill="#4D555C" mask="url(#path-1-inside-1)"/>
</svg>
