<svg width="24" height="24" viewBox="0 0 24 24" fill="none" xmlns="http://www.w3.org/2000/svg">
<g clip-path="url(#clip0_7844_104484)">
<path fill-rule="evenodd" clip-rule="evenodd" d="M13.3339 11.4952C13.8105 11.814 14.3835 12 15 12C16.6568 12 18 10.6569 18 9C18 7.34315 16.6568 6 15 6C14.3835 6 13.8105 6.18595 13.3339 6.50482C13.7576 7.23916 14 8.09127 14 9C14 9.90873 13.7576 10.7608 13.3339 11.4952ZM14 9C14 8.44772 14.4477 8 15 8C15.5523 8 16 8.44772 16 9C16 9.55228 15.5523 10 15 10C14.4477 10 14 9.55228 14 9Z" fill="#4D555C"/>
<path d="M15.9 15C15.75 14.2611 15.4371 13.5814 15.0004 13H17C18.6568 13 20 14.3431 20 16V17C20 17.5523 19.5523 18 19 18C18.4477 18 18 17.5523 18 17V16C18 15.4477 17.5523 15 17 15H15.9Z" fill="#4D555C"/>
<path fill-rule="evenodd" clip-rule="evenodd" d="M9 10C9.55228 10 10 9.55228 10 9C10 8.44772 9.55228 8 9 8C8.44772 8 8 8.44772 8 9C8 9.55228 8.44772 10 9 10ZM9 12C10.6569 12 12 10.6569 12 9C12 7.34315 10.6569 6 9 6C7.34315 6 6 7.34315 6 9C6 10.6569 7.34315 12 9 12Z" fill="#4D555C"/>
<path fill-rule="evenodd" clip-rule="evenodd" d="M4 16C4 14.3431 5.34315 13 7 13H11C12.6569 13 14 14.3431 14 16V17C14 17.5523 13.5523 18 13 18C12.4477 18 12 17.5523 12 17V16C12 15.4477 11.5523 15 11 15H7C6.44772 15 6 15.4477 6 16V17C6 17.5523 5.55228 18 5 18C4.44772 18 4 17.5523 4 17V16Z" fill="#4D555C"/>
<path fill-rule="evenodd" clip-rule="evenodd" d="M5 0H19C21.7614 0 24 2.23858 24 5V19C24 21.7614 21.7614 24 19 24H5C2.23858 24 0 21.7614 0 19V5C0 2.23858 2.23858 0 5 0ZM5 2C3.34315 2 2 3.34315 2 5V19C2 20.6569 3.34315 22 5 22H19C20.6569 22 22 20.6569 22 19V5C22 3.34315 20.6569 2 19 2H5Z" fill="#4D555C"/>
</g>
<defs>
<clipPath id="clip0_7844_104484">
<rect width="24" height="24" fill="white"/>
</clipPath>
</defs>
</svg>
