<svg width="24" height="24" viewBox="0 0 24 24" fill="none" xmlns="http://www.w3.org/2000/svg">
<g clip-path="url(#clip0)">
<path fill-rule="evenodd" clip-rule="evenodd" d="M4.22183 19.7779C8.51759 24.0736 15.4824 24.0736 19.7782 19.7779C24.0739 15.4821 24.0739 8.5173 19.7782 4.22153C15.4824 -0.0742334 8.51759 -0.0742334 4.22183 4.22153C-0.0739417 8.5173 -0.0739417 15.4821 4.22183 19.7779ZM17.618 19.0319L15.4769 16.8908C13.4022 18.3693 10.5978 18.3693 8.52313 16.8908L6.38199 19.0319C9.65785 21.6556 14.3422 21.6556 17.618 19.0319ZM4.96777 17.6177L7.10891 15.4766C5.63036 13.4019 5.63036 10.5975 7.10891 8.52283L4.96777 6.38169C2.34408 9.65755 2.34408 14.3419 4.96777 17.6177ZM19.0322 17.6177L16.8911 15.4766C18.3696 13.4019 18.3696 10.5975 16.8911 8.52283L19.0322 6.38169C21.6559 9.65755 21.6559 14.3419 19.0322 17.6177ZM17.618 4.96748C14.3422 2.34378 9.65785 2.34378 6.38199 4.96748L8.52313 7.10862C10.5978 5.63007 13.4022 5.63007 15.4769 7.10862L17.618 4.96748ZM9.17157 14.8281C10.7337 16.3902 13.2663 16.3902 14.8284 14.8281C16.3905 13.266 16.3905 10.7334 14.8284 9.17128C13.2663 7.60918 10.7337 7.60918 9.17157 9.17128C7.60948 10.7334 7.60948 13.266 9.17157 14.8281Z" fill="#4D555C"/>
</g>
<defs>
<clipPath id="clip0">
<rect width="24" height="24" fill="white"/>
</clipPath>
</defs>
</svg>
