<svg width="24" height="24" viewBox="0 0 24 24" fill="none" xmlns="http://www.w3.org/2000/svg">
<g clip-path="url(#clip0)">
<path fill-rule="evenodd" clip-rule="evenodd" d="M12.9258 3.82843L19.9968 10.8995L11.8804 19.016L5.53887 18.2864L4.80932 11.9449L12.9258 3.82843ZM11.5116 2.41421C12.2926 1.63316 13.5589 1.63317 14.34 2.41421L21.4111 9.48528C22.1921 10.2663 22.1921 11.5327 21.4111 12.3137L13.2946 20.4302C12.8631 20.8617 12.2581 21.0726 11.6518 21.0029L5.31029 20.2733C4.38678 20.1671 3.65822 19.4385 3.55198 18.515L2.82242 12.1735C2.75267 11.5672 2.96356 10.9622 3.39511 10.5307L11.5116 2.41421ZM7.97603 15.8492C8.75708 16.6303 10.0234 16.6303 10.8045 15.8492C11.5855 15.0682 11.5855 13.8019 10.8045 13.0208C10.0234 12.2398 8.75708 12.2398 7.97603 13.0208C7.19499 13.8019 7.19499 15.0682 7.97603 15.8492Z" fill="#4D555C"/>
</g>
<defs>
<clipPath id="clip0">
<rect width="24" height="24" fill="white"/>
</clipPath>
</defs>
</svg>
