<svg width="24" height="24" viewBox="0 0 24 24" fill="none" xmlns="http://www.w3.org/2000/svg">
<path fill-rule="evenodd" clip-rule="evenodd" d="M9.5695 11.6803C9.08761 11.8861 8.55711 12 8 12C6.98555 12 6.05931 11.6224 5.35418 11C4.52375 10.2671 4 9.19469 4 8C4 5.79086 5.79086 4 8 4C9.51719 4 10.8371 4.84469 11.5151 6.08945C11.5873 6.22195 11.6522 6.35897 11.7092 6.5C11.8967 6.96322 12 7.46955 12 8C12 8.228 11.9809 8.45155 11.9443 8.66914C11.8914 8.9832 11.8019 9.28483 11.6803 9.5695C11.4448 10.121 11.089 10.6088 10.6458 11C10.3279 11.2806 9.9651 11.5114 9.5695 11.6803ZM4 13C2.34315 13 1 14.3431 1 16V19C1 19.5523 1.44772 20 2 20C2.55228 20 3 19.5523 3 19V16C3 15.4477 3.44772 15 4 15H12C12.5523 15 13 15.4477 13 16V19C13 19.5523 13.4477 20 14 20C14.5523 20 15 19.5523 15 19V16C15 15.6494 14.9398 15.3128 14.8293 15C14.7938 14.8996 14.7532 14.8017 14.7076 14.7066C14.5841 14.4485 14.4248 14.2108 14.2361 14C14.1618 13.917 14.083 13.8382 14 13.7639C13.8269 13.609 13.6357 13.4738 13.43 13.3621C13.3851 13.3377 13.3396 13.3145 13.2934 13.2924C13.2934 13.2924 13.2934 13.2924 13.2934 13.2924C13.4743 13.1117 13.7241 13 14 13H20C20.5523 13 21 13.4477 21 14V17C21 17.5523 21.4477 18 22 18C22.5523 18 23 17.5523 23 17V14C23 12.3959 21.741 11.0859 20.1573 11.0041C20.1052 11.0014 20.0528 11 20 11H14C13.9472 11 13.8948 11.0014 13.8427 11.0041C13.596 11.0168 13.3572 11.0593 13.1298 11.1282C13.1262 11.1293 13.1226 11.1303 13.119 11.1314C12.6994 11.2602 12.319 11.4784 12 11.7639C11.6724 12.0571 11.4096 12.4213 11.2358 12.8323C11.2125 12.8874 11.1908 12.9433 11.1707 13H4ZM14.5505 9C15.1818 9.61859 16.0463 10 17 10C17.9537 10 18.8182 9.61859 19.4495 9C20.0978 8.36474 20.5 7.47934 20.5 6.5C20.5 4.567 18.933 3 17 3C15.3148 3 13.9078 4.19095 13.5747 5.77708C13.5258 6.01035 13.5 6.25217 13.5 6.5C13.5 7.0368 13.6208 7.54537 13.8368 8C13.8844 8.10009 13.9365 8.19756 13.993 8.29214C14.1481 8.55175 14.3358 8.7896 14.5505 9ZM8 10C9.10457 10 10 9.10457 10 8C10 6.89543 9.10457 6 8 6C6.89543 6 6 6.89543 6 8C6 9.10457 6.89543 10 8 10ZM17 8C17.8284 8 18.5 7.32843 18.5 6.5C18.5 5.67157 17.8284 5 17 5C16.1716 5 15.5 5.67157 15.5 6.5C15.5 7.32843 16.1716 8 17 8Z" fill="#4D555C"/>
</svg>
