<svg width="24" height="24" viewBox="0 0 24 24" fill="none" xmlns="http://www.w3.org/2000/svg">
  <path fill-rule="evenodd" clip-rule="evenodd" d="M13 21H11L11 5H13L13 21ZM10 23C9.44772 23 9 22.5523 9 22L9 4C9 3.44772 9.44771 3 10 3H14C14.5523 3 15 3.44772 15 4L15 22C15 22.5523 14.5523 23 14 23H10ZM19 21H21V10H19V21ZM17 22C17 22.5523 17.4477 23 18 23H22C22.5523 23 23 22.5523 23 22V9C23 8.44772 22.5523 8 22 8H18C17.4477 8 17 8.44771 17 9L17 22ZM3 21H5L5 15H3L3 21ZM1 22C1 22.5523 1.44772 23 2 23H6C6.55229 23 7 22.5523 7 22L7 14C7 13.4477 6.55228 13 6 13H2C1.44772 13 1 13.4477 1 14V22Z" fill="#4D555C"/>
</svg>
