<svg width="130" height="130" viewBox="0 0 130 130" fill="none" xmlns="http://www.w3.org/2000/svg">
<path d="M40.8199 59.0603L22.0999 65.8803C22.347 68.8761 22.8421 71.8463 23.5799 74.7603L41.3699 68.2803C40.7787 65.2449 40.5938 62.1444 40.8199 59.0603Z" fill="#A30000"/>
<path d="M123.59 38.3603C122.281 35.649 120.746 33.0531 119 30.6003L100.28 37.4203C102.434 39.6353 104.284 42.1271 105.78 44.8303L123.59 38.3603Z" fill="#A30000"/>
<path d="M82.3899 33.0503C86.1674 34.8237 89.5927 37.2664 92.4999 40.2603L111.23 33.4503C104.434 23.9186 94.7008 16.8779 83.5211 13.4069C72.3413 9.93583 60.3319 10.2259 49.3328 14.2327C38.3337 18.2395 28.9517 25.742 22.6241 35.5906C16.2965 45.4393 13.3724 57.0909 14.2999 68.7603L32.9999 61.9003C33.4145 56.2892 35.1873 50.8631 38.1655 46.0895C41.1437 41.316 45.238 37.3383 50.0956 34.4991C54.9531 31.66 60.4282 30.0446 66.0489 29.7922C71.6696 29.5398 77.2674 30.658 82.3599 33.0503" fill="#CC0000"/>
<path d="M24.75 74.3303L7 80.8103C8.64043 87.319 11.4751 93.4665 15.36 98.9403L34 92.1503C29.2406 87.2451 26.0215 81.0537 24.74 74.3403" fill="#CC0000"/>
<path d="M102.36 67.2703C102.053 71.4281 100.988 75.4948 99.2199 79.2703C95.3183 87.6277 88.2603 94.0957 79.5949 97.2548C70.9295 100.414 61.3648 100.006 52.9999 96.1203C49.2112 94.3551 45.7753 91.9154 42.8599 88.9203L24.1499 95.7603C29.4767 103.26 36.6617 109.245 44.9999 113.13C57.8774 119.115 72.6028 119.748 85.9465 114.891C99.2902 110.034 110.163 100.083 116.18 87.2203C120.085 78.8742 121.746 69.6543 121 60.4703L102.36 67.2703Z" fill="#CC0000"/>
<path d="M107 44.4103L89.21 50.8903C92.5483 56.8532 94.0642 63.6644 93.57 70.4803L112.26 63.6903C111.721 56.9923 109.938 50.4537 107 44.4103" fill="#CC0000"/>
<path d="M40.7499 62.8303C40.7042 61.5766 40.7275 60.3214 40.8199 59.0703L22.0999 65.8803C22.1899 67.0803 22.3499 68.2703 22.5299 69.4603L40.7499 62.8303Z" fill="#820000"/>
<path d="M120.87 33.4303C120.28 32.4303 119.67 31.5303 119.02 30.6103L100.3 37.4203C101.115 38.2603 101.883 39.145 102.6 40.0703L120.87 33.4303Z" fill="#820000"/>
<path d="M24.1499 95.7603C25.5991 97.7962 27.1897 99.7276 28.9099 101.54L49.2499 94.1203C46.9105 92.6604 44.755 90.9246 42.8299 88.9503L24.1499 95.7603ZM121 60.4703L102.32 67.2603C102.114 69.9804 101.583 72.6661 100.74 75.2603L121.08 67.8403C121.23 65.3684 121.207 62.8889 121.01 60.4203" fill="#A30000"/>
</svg>
