<svg width="24" height="24" viewBox="0 0 24 24" fill="none" xmlns="http://www.w3.org/2000/svg">
<path fill-rule="evenodd" clip-rule="evenodd" d="M3.88027 6.70931L7.50002 10L11.1588 4.3085C11.5525 3.69618 12.4476 3.69618 12.8412 4.3085L16.5 10L20.1198 6.70931C20.7918 6.09842 21.8644 6.62728 21.789 7.5323L21.0764 16.083C21.0332 16.6013 20.6 17 20.0799 17H3.92016C3.40007 17 2.9668 16.6013 2.92361 16.083L2.21105 7.5323C2.13563 6.62728 3.20829 6.09842 3.88027 6.70931ZM16.0961 13.0701L19.5849 9.89851L19.1598 15H4.84029L4.41516 9.89851L7.90397 13.0701L12 6.69852L16.0961 13.0701Z" fill="#4D555C"/>
<path d="M4.00002 21C3.44774 21 3.00002 20.5523 3.00002 20C3.00002 19.4477 3.44774 19 4.00002 19H20C20.5523 19 21 19.4477 21 20C21 20.5523 20.5523 21 20 21H4.00002Z" fill="#4D555C"/>
</svg>
