<svg version="1.0" xmlns="http://www.w3.org/2000/svg"
 width="18.000000pt" height="18.000000pt" viewBox="0 0 18.000000 18.000000"
 preserveAspectRatio="xMidYMid meet">
<g transform="translate(0.000000,18.000000) scale(0.100000,-0.100000)"
fill="#000000" stroke="none">
<path d="M80 120 c0 -33 4 -60 10 -60 6 0 10 27 10 60 0 33 -4 60 -10 60 -6 0
-10 -27 -10 -60z"/>
<path d="M37 135 c-60 -59 5 -157 82 -125 39 16 58 60 41 99 -6 16 -18 32 -26
35 -19 7 -18 -8 1 -24 21 -17 19 -63 -3 -83 -57 -52 -137 28 -85 85 20 22 11
35 -10 13z"/>
</g>
</svg>
