<svg width="24" height="24" viewBox="0 0 24 24" fill="none" xmlns="http://www.w3.org/2000/svg">
  <path
    fill-rule="evenodd"
    clip-rule="evenodd"
    d="M22 15C22 16.0452 21.8396 17.053 21.5422 18H23C23.5523 18 24 18.4477 24 19C24 19.5523 23.5523 20 23 20H1C0.447716 20 0 19.5523 0 19C0 18.4477 0.447715 18 1 18H2.4578C2.16035 17.053 2 16.0452 2 15C2 12.2402 3.11801 9.74144 4.92583 7.93204L4.92891 7.92894L4.93235 7.92551C6.74172 6.11788 9.24031 5 12 5C17.5228 5 22 9.47715 22 15ZM19.9381 16C19.851 16.6986 19.6738 17.3693 19.4185 18H4.58152C4.32622 17.3693 4.14901 16.6986 4.06189 16H5.75C6.44036 16 7 15.5523 7 15C7 14.4477 6.44036 14 5.75 14H4.06189C4.24404 12.5393 4.81998 11.2009 5.68013 10.0944L6.87345 11.2877C7.36161 11.7759 8.07392 11.855 8.46444 11.4645C8.85497 11.074 8.77582 10.3616 8.28767 9.87348L7.09434 8.68016C8.20086 7.82 9.53928 7.24404 11 7.06189V9C11 9.55228 11.4477 10 12 10C12.5523 10 13 9.55228 13 9V7.06189C14.4607 7.24404 15.7991 7.81999 16.9056 8.68014L15.5355 10.0502C15.4942 10.0916 15.4572 10.1357 15.4246 10.1819C15.3783 10.2145 15.3343 10.2515 15.2929 10.2929L12.518 13.0677C12.3528 13.0236 12.1792 13 12 13C10.8954 13 10 13.8954 10 15C10 16.1046 10.8954 17 12 17C13.1046 17 14 16.1046 14 15C14 14.8208 13.9764 14.6472 13.9323 14.482L16.7071 11.7071C16.7485 11.6657 16.7855 11.6216 16.8181 11.5754C16.8643 11.5428 16.9084 11.5058 16.9498 11.4645L18.3199 10.0944C19.18 11.2009 19.756 12.5393 19.9381 14H18.25C17.5596 14 17 14.4477 17 15C17 15.5523 17.5596 16 18.25 16H19.9381Z"
    fill="#4D555C"
  />
</svg>
