<svg width="14" height="15" viewBox="0 0 14 15" fill="none" xmlns="http://www.w3.org/2000/svg">
<path d="M7.9 5C7.9 5.6 8.3 6 8.9 6H13.9V1C13.9 0.4 13.5 0 12.9 0C12.3 0 11.9 0.4 11.9 1V2.5C10.6 1.2 8.9 0.5 7 0.5C5.1 0.5 3.4 1.2 2.1 2.6C0.8 4 0 5.6 0 7.5C0 9.4 0.7 11.1 2.1 12.4C3.5 13.7 5.2 14.5 7 14.5C8.9 14.5 10.6 13.8 11.9 12.5C12.7 11.7 13.3 10.8 13.6 9.7C13.8 9.2 13.5 8.6 13 8.4C12.5 8.2 11.9 8.5 11.7 9C11.5 9.8 11 10.4 10.5 11C9.6 12 8.3 12.5 7 12.5C5.7 12.5 4.4 12 3.5 11C2.6 10 2 8.8 2 7.5C2 6.2 2.5 4.9 3.5 4C4.5 3.1 5.7 2.5 7 2.5C8.3 2.5 9.6 3 10.5 4C10.5 4 10.5 4 10.6 4H8.9C8.3 4 7.9 4.4 7.9 5Z" fill="#4D555C"/>
</svg>
