<svg width="18" height="18" viewBox="0 0 18 18" fill="none" xmlns="http://www.w3.org/2000/svg">
<path fill-rule="evenodd" clip-rule="evenodd" d="M5.70714 3.70711C6.09766 3.31658 6.09766 2.68342 5.70714 2.29289C5.31661 1.90237 4.68345 1.90237 4.29292 2.29289L1.29745 5.28837C1.2944 5.29138 1.29138 5.2944 1.28837 5.29745L0.585815 6L1.28837 6.70255C1.29138 6.7056 1.2944 6.70862 1.29745 6.71163L4.29292 9.70711C4.68345 10.0976 5.31661 10.0976 5.70714 9.70711C6.09766 9.31658 6.09766 8.68342 5.70714 8.29289L4.41424 7H14C14.5523 7 15 7.44772 15 8V12C15 12.5523 14.5523 13 14 13H6C5.44772 13 5 13.4477 5 14C5 14.5523 5.44772 15 6 15H14C15.6569 15 17 13.6569 17 12V8C17 6.34315 15.6569 5 14 5H4.41424L5.70714 3.70711Z" fill="#4D555C"/>
</svg>
