<svg width="24" height="24" viewBox="0 0 24 24" fill="none" xmlns="http://www.w3.org/2000/svg">
<path d="M10 6C10 5.44772 10.4477 5 11 5H17C17.5523 5 18 5.44772 18 6C18 6.55228 17.5523 7 17 7H11C10.4477 7 10 6.55228 10 6Z" fill="#4D555C"/>
<path d="M7 5C6.44772 5 6 5.44772 6 6C6 6.55228 6.44772 7 7 7C7.55228 7 8 6.55228 8 6C8 5.44772 7.55228 5 7 5Z" fill="#4D555C"/>
<path d="M10 10C10 9.44771 10.4477 9 11 9H17C17.5523 9 18 9.44771 18 10C18 10.5523 17.5523 11 17 11H11C10.4477 11 10 10.5523 10 10Z" fill="#4D555C"/>
<path d="M7 9C6.44772 9 6 9.44771 6 10C6 10.5523 6.44772 11 7 11C7.55228 11 8 10.5523 8 10C8 9.44771 7.55228 9 7 9Z" fill="#4D555C"/>
<path d="M10 14C10 13.4477 10.4477 13 11 13H17C17.5523 13 18 13.4477 18 14C18 14.5523 17.5523 15 17 15H11C10.4477 15 10 14.5523 10 14Z" fill="#4D555C"/>
<path d="M7 13C6.44772 13 6 13.4477 6 14C6 14.5523 6.44772 15 7 15C7.55228 15 8 14.5523 8 14C8 13.4477 7.55228 13 7 13Z" fill="#4D555C"/>
<path fill-rule="evenodd" clip-rule="evenodd" d="M21 23H3C2.44772 23 2 22.5523 2 22V2C2 1.44772 2.44772 1 3 1H21C21.5523 1 22 1.44772 22 2V22C22 22.5523 21.5523 23 21 23ZM20 21V3H4V21H20Z" fill="#4D555C"/>
</svg>
