<svg width="24" height="24" viewBox="0 0 24 24" fill="none" xmlns="http://www.w3.org/2000/svg">
<path fill-rule="evenodd" clip-rule="evenodd" d="M7 3H5V5H7V8C7 9.6356 8.13617 11.0878 9.4286 12C8.13617 12.9122 7 14.3644 7 16V19H5V21H7H17H19V19H17V16C17 14.3644 15.8638 12.9122 14.5714 12C15.8638 11.0878 17 9.6356 17 8V5H19V3H17H7ZM15 16V19H9V16C9 15.4093 9.36906 14.6615 10.1596 13.9669C10.9876 13.2394 11.7855 13 12 13C12.2145 13 13.0124 13.2394 13.8404 13.9669C14.6309 14.6615 15 15.4093 15 16ZM15 5H9V8C9 8.59071 9.36906 9.33853 10.1596 10.0331C10.9876 10.7606 11.7855 11 12 11C12.2145 11 13.0124 10.7606 13.8404 10.0331C14.6309 9.33853 15 8.59071 15 8V5ZM14 16H10V18H14V16Z" fill="#4D555C"/>
</svg>
