<svg width="24" height="24" viewBox="0 0 24 24" fill="none" xmlns="http://www.w3.org/2000/svg">
<g clip-path="url(#clip0)">
<path fill-rule="evenodd" clip-rule="evenodd" d="M6.63605 6.63607C8.9792 4.29292 12.7782 4.29292 15.1213 6.63606C17.463 8.97768 17.4645 12.7733 15.1259 15.1168C15.1244 15.1183 15.1228 15.1198 15.1213 15.1213C15.1198 15.1228 15.1183 15.1244 15.1168 15.1259C12.7733 17.4645 8.97768 17.463 6.63605 15.1213C4.29291 12.7782 4.29291 8.97921 6.63605 6.63607ZM15.7847 17.1989C12.6463 19.6414 8.10657 19.4203 5.22184 16.5356C2.09764 13.4114 2.09764 8.34605 5.22184 5.22185C8.34603 2.09766 13.4114 2.09766 16.5355 5.22185C19.4203 8.10657 19.6414 12.6462 17.1989 15.7847L20.7782 19.364C21.1687 19.7545 21.1687 20.3877 20.7782 20.7782C20.3877 21.1687 19.7545 21.1687 19.364 20.7782L15.7847 17.1989Z" fill="#4D555C"/>
</g>
<defs>
<clipPath id="clip0">
<rect width="24" height="24" fill="white"/>
</clipPath>
</defs>
</svg>
