<svg width="24" height="24" viewBox="0 0 24 24" fill="none" xmlns="http://www.w3.org/2000/svg">
<path fill-rule="evenodd" clip-rule="evenodd" d="M18 7C19.1046 7 20 6.10457 20 5C20 3.89543 19.1046 3 18 3C16.8954 3 16 3.89543 16 5C16 6.10457 16.8954 7 18 7ZM18 9C20.2091 9 22 7.20914 22 5C22 2.79086 20.2091 1 18 1C15.7909 1 14 2.79086 14 5C14 5.448 14.0737 5.8788 14.2095 6.28095L8.27721 9.70596C7.55377 8.67438 6.35564 8 5 8C2.79086 8 1 9.79086 1 12C1 14.2091 2.79086 16 5 16C6.3073 16 7.46813 15.3729 8.19803 14.403L14.1679 17.8497C14.0587 18.214 14 18.6002 14 19C14 21.2091 15.7909 23 18 23C20.2091 23 22 21.2091 22 19C22 16.7909 20.2091 15 18 15C16.9122 15 15.9257 15.4343 15.2046 16.1389L8.96439 12.5361C8.98787 12.3607 9 12.1818 9 12C9 11.8681 8.99361 11.7376 8.98113 11.609L15.3063 7.9571C16.0172 8.60497 16.9624 9 18 9ZM5 14C6.10457 14 7 13.1046 7 12C7 10.8954 6.10457 10 5 10C3.89543 10 3 10.8954 3 12C3 13.1046 3.89543 14 5 14ZM20 19C20 20.1046 19.1046 21 18 21C16.8954 21 16 20.1046 16 19C16 17.8954 16.8954 17 18 17C19.1046 17 20 17.8954 20 19Z" fill="#4D555C"/>
</svg>
