<svg width="24" height="24" viewBox="0 0 24 24" fill="none" xmlns="http://www.w3.org/2000/svg">
<path fill-rule="evenodd" clip-rule="evenodd" d="M17 7C18.1046 7 19 6.10457 19 5C19 3.89543 18.1046 3 17 3C15.8954 3 15 3.89543 15 5C15 6.10457 15.8954 7 17 7ZM17 9C19.2091 9 21 7.20914 21 5C21 2.79086 19.2091 1 17 1C14.7909 1 13 2.79086 13 5C13 5.448 13.0737 5.8788 13.2095 6.28095L8.58747 8.94949C7.88996 8.35726 6.9867 8 6 8C3.79086 8 2 9.79086 2 12C2 14.2091 3.79086 16 6 16C7.07441 16 8.04989 15.5764 8.76853 14.8871L13.2914 17.4984C13.1035 17.962 13 18.4689 13 19C13 21.2091 14.7909 23 17 23C19.2091 23 21 21.2091 21 19C21 16.7909 19.2091 15 17 15C16.0509 15 15.179 15.3306 14.4932 15.8828L9.82138 13.1856C9.93748 12.8109 10 12.4128 10 12C10 11.504 9.90972 11.0291 9.74469 10.5908L14.3063 7.9571C15.0172 8.60497 15.9624 9 17 9ZM6 14C7.10457 14 8 13.1046 8 12C8 10.8954 7.10457 10 6 10C4.89543 10 4 10.8954 4 12C4 13.1046 4.89543 14 6 14ZM19 19C19 20.1046 18.1046 21 17 21C15.8954 21 15 20.1046 15 19C15 17.8954 15.8954 17 17 17C18.1046 17 19 17.8954 19 19Z" fill="#4D555C"/>
</svg>
