<svg width="24" height="24" viewBox="0 0 24 24" fill="none" xmlns="http://www.w3.org/2000/svg">
<path fill-rule="evenodd" clip-rule="evenodd" d="M12 7C7.95331 7 4.55456 9.39127 3.12181 10.5618C2.20215 11.3132 2.20216 12.6868 3.12181 13.4382C4.55456 14.6087 7.95332 17 12 17C16.0466 17 19.4454 14.6087 20.8781 13.4382C21.7978 12.6868 21.7978 11.3132 20.8781 10.5618C19.4454 9.39127 16.0466 7 12 7ZM12 15C8.78379 15 5.92974 13.1216 4.52423 12C5.92974 10.8784 8.78379 9 12 9C15.2162 9 18.0702 10.8784 19.4757 12C18.0702 13.1216 15.2161 15 12 15C13.6568 15 15 13.6568 15 12C15 10.3431 13.6568 9 12 9C10.3431 9 9 10.3431 9 12C9 13.6569 10.3431 15 12 15C12 15 12 15 12 15Z" fill="#4D555C"/>
</svg>
