<svg width="24" height="24" viewBox="0 0 24 24" fill="none" xmlns="http://www.w3.org/2000/svg">
<path fill-rule="evenodd" clip-rule="evenodd" d="M8.51471 3.51471C9.00047 3.51471 9.41597 3.8638 9.49973 4.34229L10.1235 7.90589L13.6871 8.52967C14.1656 8.61342 14.5147 9.02893 14.5147 9.51469C14.5147 10.0005 14.1656 10.416 13.6871 10.4997L10.1235 11.1235L9.49973 14.6871C9.41597 15.1656 9.00047 15.5147 8.51471 15.5147C8.02894 15.5147 7.61344 15.1656 7.52968 14.6871L6.9059 11.1235L3.34229 10.4997C2.8638 10.416 2.51471 10.0005 2.51471 9.51469C2.51471 9.02893 2.8638 8.61342 3.34229 8.52967L6.9059 7.90589L7.52968 4.34229C7.61344 3.8638 8.02894 3.51471 8.51471 3.51471ZM17.985 14.8276C17.9013 14.3491 17.4858 14 17 14C16.5142 14 16.0987 14.3491 16.015 14.8276L15.6891 16.6891L13.8276 17.015C13.3491 17.0987 13 17.5142 13 18C13 18.4857 13.3491 18.9013 13.8276 18.985L15.6891 19.3109L16.015 21.1724C16.0987 21.6509 16.5142 22 17 22C17.4858 22 17.9013 21.6509 17.985 21.1724L18.3109 19.3109L20.1724 18.985C20.6509 18.9013 21 18.4857 21 18C21 17.5142 20.6509 17.0987 20.1724 17.015L18.3109 16.6891L17.985 14.8276ZM18 7C18.5523 7 19 6.55228 19 6C19 5.44771 18.5523 5 18 5C17.4477 5 17 5.44771 17 6C17 6.55228 17.4477 7 18 7Z" fill="#4D555C"/>
</svg>
