<svg width="24" height="24" viewBox="0 0 24 24" fill="none" xmlns="http://www.w3.org/2000/svg">
<path fill-rule="evenodd" clip-rule="evenodd" d="M12 14C13.1046 14 14 13.1046 14 12C14 10.8954 13.1046 10 12 10C10.8954 10 10 10.8954 10 12C10 13.1046 10.8954 14 12 14ZM12 16C14.2091 16 16 14.2091 16 12C16 9.79086 14.2091 8 12 8C9.79086 8 8 9.79086 8 12C8 14.2091 9.79086 16 12 16Z" fill="black"/>
<path fill-rule="evenodd" clip-rule="evenodd" d="M12 23C11.4477 23 11 22.5523 11 22L11 19C11 18.4477 11.4477 18 12 18C12.5523 18 13 18.4477 13 19L13 22C13 22.5523 12.5523 23 12 23ZM12 6C11.4477 6 11 5.55228 11 5L11 2C11 1.44772 11.4477 1 12 1C12.5523 1 13 1.44772 13 2L13 5C13 5.55228 12.5523 6 12 6Z" fill="black"/>
<path fill-rule="evenodd" clip-rule="evenodd" d="M2.47369 17.5C2.19755 17.0217 2.36143 16.4101 2.83972 16.134L5.4378 14.634C5.91609 14.3578 6.52768 14.5217 6.80382 15C7.07996 15.4783 6.91609 16.0899 6.4378 16.366L3.83972 17.866C3.36143 18.1422 2.74984 17.9783 2.47369 17.5ZM17.1961 9C16.92 8.52171 17.0839 7.91012 17.5622 7.63398L20.1602 6.13398C20.6385 5.85783 21.2501 6.02171 21.5263 6.5C21.8024 6.97829 21.6385 7.58988 21.1602 7.86603L18.5622 9.36603C18.0839 9.64217 17.4723 9.47829 17.1961 9Z" fill="black"/>
<path fill-rule="evenodd" clip-rule="evenodd" d="M2.47369 6.5C2.74984 6.02171 3.36143 5.85783 3.83972 6.13398L6.4378 7.63398C6.91609 7.91012 7.07996 8.52171 6.80382 9C6.52768 9.47829 5.91609 9.64217 5.4378 9.36603L2.83972 7.86603C2.36143 7.58989 2.19755 6.97829 2.47369 6.5ZM17.1961 15C17.4723 14.5217 18.0839 14.3578 18.5622 14.634L21.1602 16.134C21.6385 16.4101 21.8024 17.0217 21.5263 17.5C21.2501 17.9783 20.6385 18.1422 20.1602 17.866L17.5622 16.366C17.0839 16.0899 16.92 15.4783 17.1961 15Z" fill="black"/>
</svg>
