<svg width="24" height="24" viewBox="0 0 24 24" fill="none" xmlns="http://www.w3.org/2000/svg">
<path fill-rule="evenodd" clip-rule="evenodd" d="M3.79286 6.29289C3.40234 6.68342 3.40234 7.31658 3.79286 7.70711L7.58576 11.5L3.79286 15.2929C3.40234 15.6834 3.40234 16.3166 3.79286 16.7071C4.18339 17.0976 4.81655 17.0976 5.20708 16.7071L10.4142 11.5L5.20708 6.29289C4.81655 5.90237 4.18339 5.90237 3.79286 6.29289Z" fill="#4D555C"/>
<path fill-rule="evenodd" clip-rule="evenodd" d="M21 20C21 20.5523 20.5523 21 20 21H10C9.44771 21 9 20.5523 9 20C9 19.4477 9.44771 19 10 19H20C20.5523 19 21 19.4477 21 20Z" fill="#4D555C"/>
</svg>
