<svg width="18" height="18" viewBox="0 0 18 18" fill="none" xmlns="http://www.w3.org/2000/svg">
<path d="M9 0C8.44772 0 8 0.447715 8 1V2H3C2.44772 2 2 2.44772 2 3C2 3.55228 2.44772 4 3 4H15C15.5523 4 16 3.55228 16 3C16 2.44772 15.5523 2 15 2H10V1C10 0.447715 9.55228 0 9 0Z" fill="#4D555C"/>
<path fill-rule="evenodd" clip-rule="evenodd" d="M3.18048 5C2.56254 5 2.0925 5.55487 2.19409 6.1644L3.86076 16.1644C3.94112 16.6466 4.35831 17 4.84715 17H13.1529C13.6417 17 14.0589 16.6466 14.1393 16.1644L15.806 6.1644C15.9075 5.55487 15.4375 5 14.8196 5H3.18048ZM4.36094 7L5.69428 15H12.3058L13.6391 7H4.36094Z" fill="#4D555C"/>
</svg>
