<svg width="24" height="24" viewBox="0 0 24 24" fill="none" xmlns="http://www.w3.org/2000/svg">
<path fill-rule="evenodd" clip-rule="evenodd" d="M12 2C11.4477 2 11 2.44772 11 3V5H5C4.44772 5 4 5.44772 4 6C4 6.55228 4.44772 7 5 7H19C19.5523 7 20 6.55228 20 6C20 5.44772 19.5523 5 19 5H13V3C13 2.44772 12.5523 2 12 2ZM6.51408 10L8.591 19H15.4089L17.4859 10H6.51408ZM5.25702 8C4.61394 8 4.13803 8.59824 4.28263 9.22486L6.82109 20.2249C6.9258 20.6786 7.32983 21 7.79549 21H16.2045C16.6701 21 17.0741 20.6786 17.1789 20.2249L19.7173 9.22486C19.8619 8.59824 19.386 8 18.7429 8H5.25702Z" fill="#4D555C"/>
</svg>
