<?xml version="1.0" encoding="utf-8"?>
<svg xmlns="http://www.w3.org/2000/svg">
  <style>
    g {
      display: none;
    }

    g:target {
      display: inline;
    }
  </style>

  <g id="18">
    <svg viewBox="0 0 18 18" fill="none" xmlns="http://www.w3.org/2000/svg">
      <path
        d="M9 0C8.44772 0 8 0.447715 8 1V2H3C2.44772 2 2 2.44772 2 3C2 3.55228 2.44772 4 3 4H15C15.5523 4 16 3.55228 16 3C16 2.44772 15.5523 2 15 2H10V1C10 0.447715 9.55228 0 9 0Z"
        fill="#4D555C"/>
      <path fill-rule="evenodd" clip-rule="evenodd"
            d="M3.18048 5C2.56254 5 2.0925 5.55487 2.19409 6.1644L3.86076 16.1644C3.94112 16.6466 4.35831 17 4.84715 17H13.1529C13.6417 17 14.0589 16.6466 14.1393 16.1644L15.806 6.1644C15.9075 5.55487 15.4375 5 14.8196 5H3.18048ZM4.36094 7L5.69428 15H12.3058L13.6391 7H4.36094Z"
            fill="#4D555C"/>
    </svg>
  </g>

  <g id="24">
    <svg viewBox="0 0 24 24" fill="none" xmlns="http://www.w3.org/2000/svg">
      <path fill-rule="evenodd" clip-rule="evenodd"
            d="M12 2C11.4477 2 11 2.44772 11 3V5H5C4.44772 5 4 5.44772 4 6C4 6.55228 4.44772 7 5 7H19C19.5523 7 20 6.55228 20 6C20 5.44772 19.5523 5 19 5H13V3C13 2.44772 12.5523 2 12 2ZM6.51408 10L8.591 19H15.4089L17.4859 10H6.51408ZM5.25702 8C4.61394 8 4.13803 8.59824 4.28263 9.22486L6.82109 20.2249C6.9258 20.6786 7.32983 21 7.79549 21H16.2045C16.6701 21 17.0741 20.6786 17.1789 20.2249L19.7173 9.22486C19.8619 8.59824 19.386 8 18.7429 8H5.25702Z"
            fill="#4D555C"/>
    </svg>
  </g>
</svg>
