<svg width="24" height="24" viewBox="0 0 24 24" fill="none" xmlns="http://www.w3.org/2000/svg">
  <mask id="path-1-inside-1" fill="white">
    <path fill-rule="evenodd" clip-rule="evenodd" d="M12 9C13.3807 9 14.5 7.88071 14.5 6.5C14.5 5.11929 13.3807 4 12 4C10.6193 4 9.5 5.11929 9.5 6.5C9.5 7.88071 10.6193 9 12 9ZM12 11C14.4853 11 16.5 8.98528 16.5 6.5C16.5 4.01472 14.4853 2 12 2C9.51472 2 7.5 4.01472 7.5 6.5C7.5 8.98528 9.51472 11 12 11Z"/>
    <path fill-rule="evenodd" clip-rule="evenodd" d="M4 16C4 14.3431 5.34315 13 7 13H17C18.6569 13 20 14.3431 20 16V21C20 21.5523 19.5523 22 19 22C18.4477 22 18 21.5523 18 21V16C18 15.4477 17.5523 15 17 15H7C6.44772 15 6 15.4477 6 16V21C6 21.5523 5.55228 22 5 22C4.44772 22 4 21.5523 4 21V16Z"/>
  </mask>
  <path fill-rule="evenodd" clip-rule="evenodd" d="M12 9C13.3807 9 14.5 7.88071 14.5 6.5C14.5 5.11929 13.3807 4 12 4C10.6193 4 9.5 5.11929 9.5 6.5C9.5 7.88071 10.6193 9 12 9ZM12 11C14.4853 11 16.5 8.98528 16.5 6.5C16.5 4.01472 14.4853 2 12 2C9.51472 2 7.5 4.01472 7.5 6.5C7.5 8.98528 9.51472 11 12 11Z" fill="#2B3035"/>
  <path fill-rule="evenodd" clip-rule="evenodd" d="M4 16C4 14.3431 5.34315 13 7 13H17C18.6569 13 20 14.3431 20 16V21C20 21.5523 19.5523 22 19 22C18.4477 22 18 21.5523 18 21V16C18 15.4477 17.5523 15 17 15H7C6.44772 15 6 15.4477 6 16V21C6 21.5523 5.55228 22 5 22C4.44772 22 4 21.5523 4 21V16Z" fill="#2B3035"/>
  <path d="M12.5 6.5C12.5 6.77614 12.2761 7 12 7V11C14.4853 11 16.5 8.98528 16.5 6.5H12.5ZM12 6C12.2761 6 12.5 6.22386 12.5 6.5H16.5C16.5 4.01472 14.4853 2 12 2V6ZM11.5 6.5C11.5 6.22386 11.7239 6 12 6V2C9.51472 2 7.5 4.01472 7.5 6.5H11.5ZM12 7C11.7239 7 11.5 6.77614 11.5 6.5H7.5C7.5 8.98528 9.51472 11 12 11V7ZM14.5 6.5C14.5 7.88071 13.3807 9 12 9V13C15.5899 13 18.5 10.0899 18.5 6.5H14.5ZM12 4C13.3807 4 14.5 5.11929 14.5 6.5H18.5C18.5 2.91015 15.5899 0 12 0V4ZM9.5 6.5C9.5 5.11929 10.6193 4 12 4V0C8.41015 0 5.5 2.91015 5.5 6.5H9.5ZM12 9C10.6193 9 9.5 7.88071 9.5 6.5H5.5C5.5 10.0899 8.41015 13 12 13V9ZM7 11C4.23858 11 2 13.2386 2 16H6C6 15.4477 6.44772 15 7 15V11ZM17 11H7V15H17V11ZM22 16C22 13.2386 19.7614 11 17 11V15C17.5523 15 18 15.4477 18 16H22ZM22 21V16H18V21H22ZM19 24C20.6569 24 22 22.6569 22 21H18C18 20.4477 18.4477 20 19 20V24ZM16 21C16 22.6569 17.3431 24 19 24V20C19.5523 20 20 20.4477 20 21H16ZM16 16V21H20V16H16ZM17 17C16.4477 17 16 16.5523 16 16H20C20 14.3431 18.6569 13 17 13V17ZM7 17H17V13H7V17ZM8 16C8 16.5523 7.55228 17 7 17V13C5.34315 13 4 14.3431 4 16H8ZM8 21V16H4V21H8ZM5 24C6.65685 24 8 22.6569 8 21H4C4 20.4477 4.44772 20 5 20V24ZM2 21C2 22.6569 3.34315 24 5 24V20C5.55228 20 6 20.4477 6 21H2ZM2 16V21H6V16H2Z" fill="#4D555C" mask="url(#path-1-inside-1)"/>
</svg>
