<svg width="24" height="24" viewBox="0 0 24 24" fill="none" xmlns="http://www.w3.org/2000/svg">
<path fill-rule="evenodd" clip-rule="evenodd" d="M12 3C10.3431 3 9 4.34315 9 6C9 7.65685 10.3431 9 12 9C13.6569 9 15 7.65685 15 6C15 4.34315 13.6569 3 12 3ZM7 6C7 3.23858 9.23858 1 12 1C14.7614 1 17 3.23858 17 6C17 8.76142 14.7614 11 12 11C9.23858 11 7 8.76142 7 6Z" fill="#4D555C"/>
<path fill-rule="evenodd" clip-rule="evenodd" d="M4 16C4 14.3431 5.34315 13 7 13H17C18.6569 13 20 14.3431 20 16V21C20 21.5523 19.5523 22 19 22C18.4477 22 18 21.5523 18 21V16C18 15.4477 17.5523 15 17 15H7C6.44772 15 6 15.4477 6 16V21C6 21.5523 5.55228 22 5 22C4.44772 22 4 21.5523 4 21V16Z" fill="#4D555C"/>
</svg>
