<svg width="18" height="18" viewBox="0 0 18 18" fill="none" xmlns="http://www.w3.org/2000/svg">
<path d="M9.67256 11.5965H7.38995L7.06658 2H9.99592L9.67256 11.5965ZM8.53125 13.0992C8.99411 13.0992 9.36504 13.2355 9.64402 13.5082C9.92935 13.7808 10.072 14.1295 10.072 14.5543C10.072 14.9728 9.92935 15.3184 9.64402 15.591C9.36504 15.8637 8.99411 16 8.53125 16C8.07473 16 7.7038 15.8637 7.41848 15.591C7.13949 15.3184 7 14.9728 7 14.5543C7 14.1359 7.13949 13.7903 7.41848 13.5177C7.7038 13.2387 8.07473 13.0992 8.53125 13.0992Z" fill="white"/>
</svg>
