<svg width="60" height="46" viewBox="0 0 60 46" fill="none" xmlns="http://www.w3.org/2000/svg">
<g clip-path="url(#clip0_6628_50893)">
<path d="M21.7929 14.2929C21.4023 14.6834 21.4023 15.3166 21.7929 15.7071L25.5858 19.5L21.7929 23.2929C21.4023 23.6834 21.4023 24.3166 21.7929 24.7071C22.1834 25.0976 22.8166 25.0976 23.2071 24.7071L28.4142 19.5L23.2071 14.2929C22.8166 13.9024 22.1834 13.9024 21.7929 14.2929Z" fill="#00517D"/>
<path d="M38 29C38.5523 29 39 28.5523 39 28C39 27.4477 38.5523 27 38 27H28C27.4477 27 27 27.4477 27 28C27 28.5523 27.4477 29 28 29H38Z" fill="#00517D"/>
<path fill-rule="evenodd" clip-rule="evenodd" d="M0 3C0 1.34315 1.34315 0 3 0H57C58.6569 0 60 1.34315 60 3V37C60 38.6569 58.6569 40 57 40H34V44H44C44.5523 44 45 44.4477 45 45C45 45.5523 44.5523 46 44 46H16C15.4477 46 15 45.5523 15 45C15 44.4477 15.4477 44 16 44H26V40H3C1.34315 40 0 38.6569 0 37V3ZM2 3C2 2.44772 2.44771 2 3 2H57C57.5523 2 58 2.44772 58 3V4H2V3ZM58 6V37C58 37.5523 57.5523 38 57 38H3C2.44772 38 2 37.5523 2 37V6H58ZM32 40V44H28V40H32Z" fill="#00517D"/>
</g>
<defs>
<clipPath id="clip0_6628_50893">
<rect width="60" height="46" fill="white"/>
</clipPath>
</defs>
</svg>
