<svg width="24" height="24" viewBox="0 0 24 24" fill="none" xmlns="http://www.w3.org/2000/svg">
<path d="M18.0711 16.6569C18.4616 17.0474 18.4616 17.6806 18.0711 18.0711C17.6806 18.4616 17.0474 18.4616 16.6569 18.0711L5.92894 7.34315C5.53842 6.95263 5.53842 6.31946 5.92894 5.92894C6.31947 5.53842 6.95263 5.53842 7.34316 5.92894L18.0711 16.6569Z" fill="#4D555C"/>
<path d="M7.34315 18.0711C6.95263 18.4616 6.31946 18.4616 5.92894 18.0711C5.53842 17.6806 5.53842 17.0474 5.92894 16.6569L16.6569 5.92894C17.0474 5.53842 17.6806 5.53842 18.0711 5.92894C18.4616 6.31947 18.4616 6.95263 18.0711 7.34316L7.34315 18.0711Z" fill="#4D555C"/>
</svg>
