<svg width="489" height="150" viewBox="0 0 489 150" fill="none" xmlns="http://www.w3.org/2000/svg">
<path d="M52.0907 10.225H92.7751L50.5407 135.361C50.1067 136.647 49.2803 137.764 48.1779 138.556C47.0755 139.347 45.7526 139.773 44.3954 139.773H12.7329C11.7047 139.774 10.6911 139.529 9.77622 139.059C8.86129 138.59 8.07126 137.91 7.47149 137.075C6.87171 136.239 6.47943 135.273 6.32709 134.256C6.17475 133.239 6.26673 132.201 6.59543 131.227L45.9439 14.6375C46.3778 13.3511 47.2043 12.2332 48.307 11.4413C49.4098 10.6494 50.7331 10.2235 52.0907 10.2234V10.225Z" fill="url(#paint0_linear)"/>
<path d="M111.211 94.1578H46.6953C46.0955 94.1572 45.5094 94.3372 45.0134 94.6744C44.5173 95.0115 44.1343 95.4903 43.9143 96.0483C43.6942 96.6063 43.6473 97.2176 43.7796 97.8026C43.912 98.3876 44.2174 98.9192 44.6562 99.3281L86.1125 138.022C87.3195 139.148 88.9087 139.774 90.5594 139.773H127.091L111.211 94.1578Z" fill="#0078D4"/>
<path d="M52.0905 10.225C50.7181 10.2198 49.3799 10.6535 48.2715 11.4628C47.1631 12.2721 46.3425 13.4146 45.9296 14.7235L6.64365 131.12C6.29284 132.098 6.1827 133.146 6.32256 134.176C6.46241 135.205 6.84815 136.186 7.44713 137.034C8.04612 137.883 8.84073 138.575 9.76374 139.052C10.6868 139.529 11.711 139.776 12.7499 139.773H45.2296C46.4393 139.557 47.5699 139.024 48.506 138.228C49.4421 137.432 50.1501 136.401 50.5577 135.242L58.3921 112.153L86.3765 138.255C87.5492 139.225 89.0203 139.761 90.5421 139.773H126.937L110.975 94.1578L64.4421 94.1688L92.9218 10.225H52.0905Z" fill="url(#paint1_linear)"/>
<path d="M104.055 14.6312C103.621 13.3469 102.796 12.2309 101.695 11.4404C100.594 10.6499 99.2726 10.2248 97.9171 10.225H52.575C53.9303 10.2251 55.2516 10.6503 56.3526 11.4407C57.4536 12.2311 58.279 13.347 58.7125 14.6312L98.0625 131.225C98.3914 132.199 98.4836 133.238 98.3314 134.255C98.1792 135.273 97.787 136.239 97.1872 137.075C96.5874 137.91 95.7973 138.591 94.8823 139.06C93.9672 139.53 92.9535 139.775 91.925 139.775H137.269C138.297 139.775 139.311 139.53 140.225 139.06C141.14 138.59 141.93 137.909 142.53 137.074C143.129 136.238 143.522 135.272 143.674 134.255C143.826 133.238 143.734 132.199 143.405 131.225L104.055 14.6312Z" fill="url(#paint2_linear)"/>
<path d="M254.986 114.667H244.639L236.183 92.3333H202.359L194.403 114.667H184L214.598 35H224.278L254.986 114.667ZM233.123 83.9444L220.606 50C220.198 48.8889 219.79 47.1111 219.382 44.6667H219.159C218.789 46.9259 218.362 48.7037 217.88 50L205.474 83.9444H233.123Z" fill="black"/>
<path d="M305.278 60.3889L271.565 106.889H304.944V114.667H258.157V111.833L291.87 65.5556H261.328V57.7778H305.278V60.3889Z" fill="black"/>
<path d="M363.135 114.667H354.011V105.667H353.789C350.006 112.556 344.146 116 336.209 116C322.635 116 315.848 107.926 315.848 91.7778V57.7778H324.916V90.3333C324.916 102.333 329.515 108.333 338.713 108.333C343.163 108.333 346.816 106.704 349.672 103.444C352.565 100.148 354.011 95.8519 354.011 90.5556V57.7778H363.135V114.667Z" fill="black"/>
<path d="M411.312 67C409.718 65.7778 407.418 65.1667 404.414 65.1667C400.52 65.1667 397.256 67 394.623 70.6667C392.027 74.3333 390.729 79.3333 390.729 85.6667V114.667H381.605V57.7778H390.729V69.5H390.951C392.249 65.5 394.233 62.3889 396.904 60.1667C399.574 57.9074 402.56 56.7778 405.86 56.7778C408.234 56.7778 410.051 57.037 411.312 57.5556V67Z" fill="black"/>
<path d="M467 88.5H426.778C426.926 94.8333 428.632 99.7222 431.896 103.167C435.16 106.611 439.648 108.333 445.359 108.333C451.775 108.333 457.672 106.222 463.05 102V110.556C458.043 114.185 451.423 116 443.19 116C435.141 116 428.818 113.426 424.219 108.278C419.62 103.093 417.321 95.8148 417.321 86.4444C417.321 77.5926 419.824 70.3889 424.831 64.8333C429.875 59.2407 436.124 56.4444 443.579 56.4444C451.034 56.4444 456.801 58.8519 460.88 63.6667C464.96 68.4815 467 75.1667 467 83.7222V88.5ZM457.654 80.7778C457.617 75.5185 456.337 71.4259 453.815 68.5C451.33 65.5741 447.863 64.1111 443.412 64.1111C439.11 64.1111 435.457 65.6481 432.453 68.7222C429.448 71.7963 427.594 75.8148 426.889 80.7778H457.654Z" fill="black"/>
<defs>
<linearGradient id="paint0_linear" x1="66.9189" y1="19.825" x2="24.6673" y2="144.647" gradientUnits="userSpaceOnUse">
<stop stop-color="#114A8B"/>
<stop offset="1" stop-color="#0669BC"/>
</linearGradient>
<linearGradient id="paint1_linear" x1="80.1171" y1="77.9953" x2="70.3437" y2="81.3" gradientUnits="userSpaceOnUse">
<stop stop-opacity="0.3"/>
<stop offset="0.071" stop-opacity="0.2"/>
<stop offset="0.321" stop-opacity="0.1"/>
<stop offset="0.623" stop-opacity="0.05"/>
<stop offset="1" stop-opacity="0"/>
</linearGradient>
<linearGradient id="paint2_linear" x1="74.7421" y1="16.1844" x2="121.122" y2="139.748" gradientUnits="userSpaceOnUse">
<stop stop-color="#3CCBF4"/>
<stop offset="1" stop-color="#2892DF"/>
</linearGradient>
</defs>
</svg>
