<svg width="124" height="32" viewBox="0 0 124 32" fill="none" xmlns="http://www.w3.org/2000/svg">
<path d="M18 19C19.6569 19 21 17.6569 21 16C21 14.3431 19.6569 13 18 13C16.3431 13 15 14.3431 15 16C15 17.6569 16.3431 19 18 19Z" stroke="black" stroke-width="2" stroke-linecap="round" stroke-linejoin="round"/>
<path d="M10.5 14H10C9.46957 14 8.96086 13.7893 8.58579 13.4142C8.21071 13.0391 8 12.5304 8 12V8C8 7.46957 8.21071 6.96086 8.58579 6.58579C8.96086 6.21071 9.46957 6 10 6H26C26.5304 6 27.0391 6.21071 27.4142 6.58579C27.7893 6.96086 28 7.46957 28 8V12C28 12.5304 27.7893 13.0391 27.4142 13.4142C27.0391 13.7893 26.5304 14 26 14H25.5" stroke="black" stroke-width="2" stroke-linecap="round" stroke-linejoin="round"/>
<path d="M10.5 18H10C9.46957 18 8.96086 18.2107 8.58579 18.5858C8.21071 18.9609 8 19.4696 8 20V24C8 24.5304 8.21071 25.0391 8.58579 25.4142C8.96086 25.7893 9.46957 26 10 26H26C26.5304 26 27.0391 25.7893 27.4142 25.4142C27.7893 25.0391 28 24.5304 28 24V20C28 19.4696 27.7893 18.9609 27.4142 18.5858C27.0391 18.2107 26.5304 18 26 18H25.5" stroke="black" stroke-width="2" stroke-linecap="round" stroke-linejoin="round"/>
<path d="M12 10H12.01" stroke="black" stroke-width="2" stroke-linecap="round" stroke-linejoin="round"/>
<path d="M12 22H12.01" stroke="black" stroke-width="2" stroke-linecap="round" stroke-linejoin="round"/>
<path d="M21.7 17.4L20.8 17.1" stroke="black" stroke-width="2" stroke-linecap="round" stroke-linejoin="round"/>
<path d="M15.2 14.9L14.3 14.6" stroke="black" stroke-width="2" stroke-linecap="round" stroke-linejoin="round"/>
<path d="M16.6 19.7L16.9 18.8" stroke="black" stroke-width="2" stroke-linecap="round" stroke-linejoin="round"/>
<path d="M19.6 19.7L19.2 18.7" stroke="black" stroke-width="2" stroke-linecap="round" stroke-linejoin="round"/>
<path d="M16.8 13.3L16.4 12.3" stroke="black" stroke-width="2" stroke-linecap="round" stroke-linejoin="round"/>
<path d="M14.3 17.6L15.3 17.2" stroke="black" stroke-width="2" stroke-linecap="round" stroke-linejoin="round"/>
<path d="M20.7 14.8L21.7 14.4" stroke="black" stroke-width="2" stroke-linecap="round" stroke-linejoin="round"/>
<path d="M19.4 12.3L19.1 13.2" stroke="black" stroke-width="2" stroke-linecap="round" stroke-linejoin="round"/>
<path d="M42.0469 16.5146H38.8037L38.7861 15.1523H41.7305C42.2168 15.1523 42.6416 15.0703 43.0049 14.9062C43.3682 14.7422 43.6494 14.5078 43.8486 14.2031C44.0537 13.8926 44.1562 13.5234 44.1562 13.0957C44.1562 12.627 44.0654 12.2461 43.8838 11.9531C43.708 11.6543 43.4355 11.4375 43.0664 11.3027C42.7031 11.1621 42.2402 11.0918 41.6777 11.0918H39.1816V22.5H37.4854V9.70312H41.6777C42.334 9.70312 42.9199 9.77051 43.4355 9.90527C43.9512 10.0342 44.3877 10.2393 44.7451 10.5205C45.1084 10.7959 45.3838 11.1475 45.5713 11.5752C45.7588 12.0029 45.8525 12.5156 45.8525 13.1133C45.8525 13.6406 45.7178 14.1182 45.4482 14.5459C45.1787 14.9678 44.8037 15.3135 44.3232 15.583C43.8486 15.8525 43.292 16.0254 42.6533 16.1016L42.0469 16.5146ZM41.9678 22.5H38.1357L39.0938 21.1201H41.9678C42.5068 21.1201 42.9639 21.0264 43.3389 20.8389C43.7197 20.6514 44.0098 20.3877 44.209 20.0479C44.4082 19.7021 44.5078 19.2949 44.5078 18.8262C44.5078 18.3516 44.4229 17.9414 44.2529 17.5957C44.083 17.25 43.8164 16.9834 43.4531 16.7959C43.0898 16.6084 42.6211 16.5146 42.0469 16.5146H39.6299L39.6475 15.1523H42.9521L43.3125 15.6445C43.9277 15.6973 44.4492 15.873 44.877 16.1719C45.3047 16.4648 45.6299 16.8398 45.8525 17.2969C46.0811 17.7539 46.1953 18.2578 46.1953 18.8086C46.1953 19.6055 46.0195 20.2793 45.668 20.8301C45.3223 21.375 44.833 21.791 44.2002 22.0781C43.5674 22.3594 42.8232 22.5 41.9678 22.5ZM54.0615 20.874V15.9785C54.0615 15.6035 53.9854 15.2783 53.833 15.0029C53.6865 14.7217 53.4639 14.5049 53.165 14.3525C52.8662 14.2002 52.4971 14.124 52.0576 14.124C51.6475 14.124 51.2871 14.1943 50.9766 14.335C50.6719 14.4756 50.4316 14.6602 50.2559 14.8887C50.0859 15.1172 50.001 15.3633 50.001 15.627H48.375C48.375 15.2871 48.4629 14.9502 48.6387 14.6162C48.8145 14.2822 49.0664 13.9805 49.3945 13.7109C49.7285 13.4355 50.127 13.2188 50.5898 13.0605C51.0586 12.8965 51.5801 12.8145 52.1543 12.8145C52.8457 12.8145 53.4551 12.9316 53.9824 13.166C54.5156 13.4004 54.9316 13.7549 55.2305 14.2295C55.5352 14.6982 55.6875 15.2871 55.6875 15.9961V20.4258C55.6875 20.7422 55.7139 21.0791 55.7666 21.4365C55.8252 21.7939 55.9102 22.1016 56.0215 22.3594V22.5H54.3252C54.2432 22.3125 54.1787 22.0635 54.1318 21.7529C54.085 21.4365 54.0615 21.1436 54.0615 20.874ZM54.3428 16.7344L54.3604 17.877H52.7168C52.2539 17.877 51.8408 17.915 51.4775 17.9912C51.1143 18.0615 50.8096 18.1699 50.5635 18.3164C50.3174 18.4629 50.1299 18.6475 50.001 18.8701C49.8721 19.0869 49.8076 19.3418 49.8076 19.6348C49.8076 19.9336 49.875 20.2061 50.0098 20.4521C50.1445 20.6982 50.3467 20.8945 50.6162 21.041C50.8916 21.1816 51.2285 21.252 51.627 21.252C52.125 21.252 52.5645 21.1465 52.9453 20.9355C53.3262 20.7246 53.6279 20.4668 53.8506 20.1621C54.0791 19.8574 54.2021 19.5615 54.2197 19.2744L54.9141 20.0566C54.873 20.3027 54.7617 20.5752 54.5801 20.874C54.3984 21.1729 54.1553 21.46 53.8506 21.7354C53.5518 22.0049 53.1943 22.2305 52.7783 22.4121C52.3682 22.5879 51.9053 22.6758 51.3896 22.6758C50.7451 22.6758 50.1797 22.5498 49.6934 22.2979C49.2129 22.0459 48.8379 21.709 48.5684 21.2871C48.3047 20.8594 48.1729 20.3818 48.1729 19.8545C48.1729 19.3447 48.2725 18.8965 48.4717 18.5098C48.6709 18.1172 48.958 17.792 49.333 17.5342C49.708 17.2705 50.1592 17.0713 50.6865 16.9365C51.2139 16.8018 51.8027 16.7344 52.4531 16.7344H54.3428ZM59.8711 14.4844V22.5H58.2451V12.9902H59.8271L59.8711 14.4844ZM62.8418 12.9375L62.833 14.4492C62.6982 14.4199 62.5693 14.4023 62.4463 14.3965C62.3291 14.3848 62.1943 14.3789 62.042 14.3789C61.667 14.3789 61.3359 14.4375 61.0488 14.5547C60.7617 14.6719 60.5186 14.8359 60.3193 15.0469C60.1201 15.2578 59.9619 15.5098 59.8447 15.8027C59.7334 16.0898 59.6602 16.4062 59.625 16.752L59.168 17.0156C59.168 16.4414 59.2236 15.9023 59.335 15.3984C59.4521 14.8945 59.6309 14.4492 59.8711 14.0625C60.1113 13.6699 60.416 13.3652 60.7852 13.1484C61.1602 12.9258 61.6055 12.8145 62.1211 12.8145C62.2383 12.8145 62.373 12.8291 62.5254 12.8584C62.6777 12.8818 62.7832 12.9082 62.8418 12.9375ZM68.1152 22.6758C67.4531 22.6758 66.8525 22.5645 66.3135 22.3418C65.7803 22.1133 65.3203 21.7939 64.9336 21.3838C64.5527 20.9736 64.2598 20.4873 64.0547 19.9248C63.8496 19.3623 63.7471 18.7471 63.7471 18.0791V17.71C63.7471 16.9365 63.8613 16.248 64.0898 15.6445C64.3184 15.0352 64.6289 14.5195 65.0215 14.0977C65.4141 13.6758 65.8594 13.3564 66.3574 13.1396C66.8555 12.9229 67.3711 12.8145 67.9043 12.8145C68.584 12.8145 69.1699 12.9316 69.6621 13.166C70.1602 13.4004 70.5674 13.7285 70.8838 14.1504C71.2002 14.5664 71.4346 15.0586 71.5869 15.627C71.7393 16.1895 71.8154 16.8047 71.8154 17.4727V18.2021H64.7139V16.875H70.1895V16.752C70.166 16.3301 70.0781 15.9199 69.9258 15.5215C69.7793 15.123 69.5449 14.7949 69.2227 14.5371C68.9004 14.2793 68.4609 14.1504 67.9043 14.1504C67.5352 14.1504 67.1953 14.2295 66.8848 14.3877C66.5742 14.54 66.3076 14.7686 66.085 15.0732C65.8623 15.3779 65.6895 15.75 65.5664 16.1895C65.4434 16.6289 65.3818 17.1357 65.3818 17.71V18.0791C65.3818 18.5303 65.4434 18.9551 65.5664 19.3535C65.6953 19.7461 65.8799 20.0918 66.1201 20.3906C66.3662 20.6895 66.6621 20.9238 67.0078 21.0938C67.3594 21.2637 67.7578 21.3486 68.2031 21.3486C68.7773 21.3486 69.2637 21.2314 69.6621 20.9971C70.0605 20.7627 70.4092 20.4492 70.708 20.0566L71.6924 20.8389C71.4873 21.1494 71.2266 21.4453 70.9102 21.7266C70.5938 22.0078 70.2041 22.2363 69.7412 22.4121C69.2842 22.5879 68.7422 22.6758 68.1152 22.6758ZM75.3311 14.8799V22.5H73.6963V12.9902H75.2432L75.3311 14.8799ZM74.9971 17.3848L74.2412 17.3584C74.2471 16.708 74.332 16.1074 74.4961 15.5566C74.6602 15 74.9033 14.5166 75.2256 14.1064C75.5479 13.6963 75.9492 13.3799 76.4297 13.1572C76.9102 12.9287 77.4668 12.8145 78.0996 12.8145C78.5449 12.8145 78.9551 12.8789 79.3301 13.0078C79.7051 13.1309 80.0303 13.3271 80.3057 13.5967C80.5811 13.8662 80.7949 14.2119 80.9473 14.6338C81.0996 15.0557 81.1758 15.5654 81.1758 16.1631V22.5H79.5498V16.2422C79.5498 15.7441 79.4648 15.3457 79.2949 15.0469C79.1309 14.748 78.8965 14.5312 78.5918 14.3965C78.2871 14.2559 77.9297 14.1855 77.5195 14.1855C77.0391 14.1855 76.6377 14.2705 76.3154 14.4404C75.9932 14.6104 75.7354 14.8447 75.542 15.1436C75.3486 15.4424 75.208 15.7852 75.1201 16.1719C75.0381 16.5527 74.9971 16.957 74.9971 17.3848ZM81.1582 16.4883L80.0684 16.8223C80.0742 16.3008 80.1592 15.7998 80.3232 15.3193C80.4932 14.8389 80.7363 14.4111 81.0527 14.0361C81.375 13.6611 81.7705 13.3652 82.2393 13.1484C82.708 12.9258 83.2441 12.8145 83.8477 12.8145C84.3574 12.8145 84.8086 12.8818 85.2012 13.0166C85.5996 13.1514 85.9336 13.3594 86.2031 13.6406C86.4785 13.916 86.6865 14.2705 86.8271 14.7041C86.9678 15.1377 87.0381 15.6533 87.0381 16.251V22.5H85.4033V16.2334C85.4033 15.7002 85.3184 15.2871 85.1484 14.9941C84.9844 14.6953 84.75 14.4873 84.4453 14.3701C84.1465 14.2471 83.7891 14.1855 83.373 14.1855C83.0156 14.1855 82.6992 14.2471 82.4238 14.3701C82.1484 14.4932 81.917 14.6631 81.7295 14.8799C81.542 15.0908 81.3984 15.334 81.2988 15.6094C81.2051 15.8848 81.1582 16.1777 81.1582 16.4883ZM93.4453 22.6758C92.7832 22.6758 92.1826 22.5645 91.6436 22.3418C91.1104 22.1133 90.6504 21.7939 90.2637 21.3838C89.8828 20.9736 89.5898 20.4873 89.3848 19.9248C89.1797 19.3623 89.0771 18.7471 89.0771 18.0791V17.71C89.0771 16.9365 89.1914 16.248 89.4199 15.6445C89.6484 15.0352 89.959 14.5195 90.3516 14.0977C90.7441 13.6758 91.1895 13.3564 91.6875 13.1396C92.1855 12.9229 92.7012 12.8145 93.2344 12.8145C93.9141 12.8145 94.5 12.9316 94.9922 13.166C95.4902 13.4004 95.8975 13.7285 96.2139 14.1504C96.5303 14.5664 96.7646 15.0586 96.917 15.627C97.0693 16.1895 97.1455 16.8047 97.1455 17.4727V18.2021H90.0439V16.875H95.5195V16.752C95.4961 16.3301 95.4082 15.9199 95.2559 15.5215C95.1094 15.123 94.875 14.7949 94.5527 14.5371C94.2305 14.2793 93.791 14.1504 93.2344 14.1504C92.8652 14.1504 92.5254 14.2295 92.2148 14.3877C91.9043 14.54 91.6377 14.7686 91.415 15.0732C91.1924 15.3779 91.0195 15.75 90.8965 16.1895C90.7734 16.6289 90.7119 17.1357 90.7119 17.71V18.0791C90.7119 18.5303 90.7734 18.9551 90.8965 19.3535C91.0254 19.7461 91.21 20.0918 91.4502 20.3906C91.6963 20.6895 91.9922 20.9238 92.3379 21.0938C92.6895 21.2637 93.0879 21.3486 93.5332 21.3486C94.1074 21.3486 94.5938 21.2314 94.9922 20.9971C95.3906 20.7627 95.7393 20.4492 96.0381 20.0566L97.0225 20.8389C96.8174 21.1494 96.5566 21.4453 96.2402 21.7266C95.9238 22.0078 95.5342 22.2363 95.0713 22.4121C94.6143 22.5879 94.0723 22.6758 93.4453 22.6758ZM103.025 12.9902V14.2383H97.8838V12.9902H103.025ZM99.624 10.6787H101.25V20.1445C101.25 20.4668 101.3 20.71 101.399 20.874C101.499 21.0381 101.628 21.1465 101.786 21.1992C101.944 21.252 102.114 21.2783 102.296 21.2783C102.431 21.2783 102.571 21.2666 102.718 21.2432C102.87 21.2139 102.984 21.1904 103.061 21.1729L103.069 22.5C102.94 22.541 102.771 22.5791 102.56 22.6143C102.354 22.6553 102.105 22.6758 101.812 22.6758C101.414 22.6758 101.048 22.5967 100.714 22.4385C100.38 22.2803 100.113 22.0166 99.9141 21.6475C99.7207 21.2725 99.624 20.7686 99.624 20.1357V10.6787ZM110.54 20.874V15.9785C110.54 15.6035 110.464 15.2783 110.312 15.0029C110.165 14.7217 109.942 14.5049 109.644 14.3525C109.345 14.2002 108.976 14.124 108.536 14.124C108.126 14.124 107.766 14.1943 107.455 14.335C107.15 14.4756 106.91 14.6602 106.734 14.8887C106.564 15.1172 106.479 15.3633 106.479 15.627H104.854C104.854 15.2871 104.941 14.9502 105.117 14.6162C105.293 14.2822 105.545 13.9805 105.873 13.7109C106.207 13.4355 106.605 13.2188 107.068 13.0605C107.537 12.8965 108.059 12.8145 108.633 12.8145C109.324 12.8145 109.934 12.9316 110.461 13.166C110.994 13.4004 111.41 13.7549 111.709 14.2295C112.014 14.6982 112.166 15.2871 112.166 15.9961V20.4258C112.166 20.7422 112.192 21.0791 112.245 21.4365C112.304 21.7939 112.389 22.1016 112.5 22.3594V22.5H110.804C110.722 22.3125 110.657 22.0635 110.61 21.7529C110.563 21.4365 110.54 21.1436 110.54 20.874ZM110.821 16.7344L110.839 17.877H109.195C108.732 17.877 108.319 17.915 107.956 17.9912C107.593 18.0615 107.288 18.1699 107.042 18.3164C106.796 18.4629 106.608 18.6475 106.479 18.8701C106.351 19.0869 106.286 19.3418 106.286 19.6348C106.286 19.9336 106.354 20.2061 106.488 20.4521C106.623 20.6982 106.825 20.8945 107.095 21.041C107.37 21.1816 107.707 21.252 108.105 21.252C108.604 21.252 109.043 21.1465 109.424 20.9355C109.805 20.7246 110.106 20.4668 110.329 20.1621C110.558 19.8574 110.681 19.5615 110.698 19.2744L111.393 20.0566C111.352 20.3027 111.24 20.5752 111.059 20.874C110.877 21.1729 110.634 21.46 110.329 21.7354C110.03 22.0049 109.673 22.2305 109.257 22.4121C108.847 22.5879 108.384 22.6758 107.868 22.6758C107.224 22.6758 106.658 22.5498 106.172 22.2979C105.691 22.0459 105.316 21.709 105.047 21.2871C104.783 20.8594 104.651 20.3818 104.651 19.8545C104.651 19.3447 104.751 18.8965 104.95 18.5098C105.149 18.1172 105.437 17.792 105.812 17.5342C106.187 17.2705 106.638 17.0713 107.165 16.9365C107.692 16.8018 108.281 16.7344 108.932 16.7344H110.821ZM116.49 9V22.5H114.855V9H116.49Z" fill="black"/>
</svg>
