<svg width="692" height="130" viewBox="0 0 692 130" fill="none" xmlns="http://www.w3.org/2000/svg">
<path fill-rule="evenodd" clip-rule="evenodd" d="M63.2737 2.70213C64.3135 2.20623 65.4429 1.92094 66.5955 1.86297C68.0453 1.78979 69.4905 2.07833 70.7984 2.70213L116.132 24.312C117.305 24.8713 118.336 25.6851 119.148 26.6931C119.96 27.701 120.532 28.8771 120.822 30.134L132.022 78.7011C132.312 79.9586 132.312 81.2646 132.022 82.5221C131.732 83.7795 131.159 84.9561 130.347 85.9642L98.9842 124.913C98.1715 125.919 97.1403 126.732 95.9671 127.29C94.794 127.848 93.5089 128.137 92.2074 128.136L41.8938 128.148C40.5918 128.148 39.3064 127.858 38.1332 127.299C36.96 126.74 35.929 125.926 35.1169 124.919L3.7427 85.9758C3.5673 85.7563 3.40285 85.5284 3.24994 85.2929C2.61934 84.3298 2.19027 83.2511 1.98813 82.1209C1.78599 80.9906 1.81489 79.8317 2.07312 78.7127L13.2558 30.1456C13.5457 28.8887 14.1179 27.7126 14.9298 26.7046C15.7417 25.6967 16.7725 24.8829 17.9457 24.3235L63.2737 2.70213ZM64.3322 21.4005C64.332 19.7386 65.5469 18.3913 67.0453 18.3911C68.5436 18.391 69.7582 19.7386 69.7583 21.4005C69.7586 21.4842 69.7605 21.578 69.7624 21.674C69.7658 21.8483 69.7694 22.0297 69.7641 22.1702C69.7406 22.8026 69.6414 23.3371 69.5406 23.8812C69.4885 24.1618 69.436 24.445 69.3931 24.7456L69.3757 24.8893C69.1551 26.7155 68.9708 28.2397 69.0859 29.659C69.1784 30.288 69.5087 30.5886 69.8245 30.876C69.8746 30.9217 69.9244 30.967 69.9728 31.0132C69.9809 31.2096 70.0125 31.8619 70.0366 32.2228C78.663 32.9878 86.6744 36.9259 92.5585 43.0856L93.5904 42.3506C93.632 42.353 93.6794 42.3567 93.7317 42.3607C94.1197 42.3905 94.7732 42.4406 95.2368 42.1712C96.4217 41.3749 97.5035 40.2777 98.7986 38.9643L98.8948 38.8666C99.0993 38.6502 99.2856 38.4372 99.4702 38.2262C99.839 37.8046 100.201 37.3911 100.686 36.9742C100.806 36.8711 100.971 36.7428 101.122 36.6244C101.181 36.5788 101.238 36.5346 101.289 36.4938C102.59 35.4574 104.401 35.5676 105.335 36.7369C106.27 37.9062 105.97 39.6937 104.669 40.7301C104.608 40.7792 104.541 40.8345 104.472 40.8913C104.333 41.0051 104.188 41.1245 104.072 41.2105C103.566 41.5833 103.086 41.837 102.599 42.0946C102.342 42.2307 102.083 42.3678 101.817 42.5242L101.815 42.5255C100.193 43.5254 98.8483 44.3545 97.7818 45.3542C97.3453 45.8203 97.3152 46.265 97.2864 46.6915C97.2819 46.7574 97.2775 46.8228 97.2716 46.8879C97.1992 46.9543 97.0386 47.0975 96.8601 47.2567C96.6679 47.4281 96.455 47.6179 96.3093 47.7502C98.6478 51.2249 100.401 55.1689 101.393 59.481C102.376 63.7535 102.53 68.0235 101.962 72.1263L103.057 72.4446C103.08 72.4772 103.106 72.5153 103.135 72.5575C103.351 72.8751 103.726 73.4249 104.228 73.6195C105.61 74.0539 107.164 74.2164 109.035 74.4122L109.092 74.4181C109.398 74.4435 109.69 74.455 109.98 74.4664C110.532 74.488 111.076 74.5094 111.695 74.6264C111.836 74.6531 112.017 74.698 112.19 74.7409C112.295 74.7667 112.396 74.7918 112.483 74.8116C114.083 75.1969 115.109 76.6646 114.779 78.1104C114.449 79.5566 112.886 80.4354 111.278 80.0897C111.266 80.087 111.249 80.0866 111.237 80.0839C111.222 80.0806 111.209 80.0742 111.195 80.0696C111.192 80.0684 111.188 80.0674 111.185 80.0665C111.104 80.0488 111.015 80.0311 110.926 80.0132C110.769 79.9816 110.609 79.9496 110.483 79.9161C109.873 79.753 109.374 79.5371 108.866 79.3176C108.601 79.2032 108.334 79.0879 108.049 78.9785L107.966 78.9491C106.208 78.3195 104.744 77.7955 103.318 77.5896C102.683 77.5397 102.317 77.7938 101.966 78.037C101.911 78.0757 101.855 78.1141 101.799 78.1509C101.601 78.1112 100.991 78.0035 100.64 77.9484C98.0401 86.1045 92.5043 93.1666 84.999 97.5905C85.0406 97.6907 85.0915 97.8271 85.1448 97.9701C85.2577 98.2726 85.3815 98.6045 85.4512 98.6843C85.4275 98.7474 85.4022 98.8102 85.3767 98.8733C85.2177 99.2671 85.0527 99.6757 85.2425 100.282C85.7692 101.645 86.6211 102.977 87.6484 104.582C87.8185 104.835 87.9899 105.068 88.1599 105.3C88.4868 105.745 88.8081 106.182 89.1034 106.74C89.1781 106.881 89.2698 107.075 89.3536 107.252C89.3903 107.33 89.4255 107.404 89.4571 107.469C90.1548 108.959 89.6427 110.674 88.3034 111.318C86.9535 111.967 85.2752 111.282 84.5527 109.784C84.5217 109.721 84.4869 109.651 84.451 109.579C84.3673 109.41 84.2777 109.23 84.2164 109.09C83.9617 108.507 83.8171 107.98 83.6699 107.443C83.5949 107.17 83.5192 106.894 83.428 106.607L83.4026 106.533C82.7981 104.764 82.2963 103.296 81.5671 102.053C81.2086 101.523 80.7794 101.394 80.3686 101.271C80.3057 101.252 80.2433 101.233 80.1816 101.213C80.1371 101.137 80.0296 100.942 79.9124 100.73C79.8031 100.532 79.6852 100.319 79.6019 100.172C78.1031 100.737 76.5527 101.208 74.9468 101.572C67.907 103.168 60.8598 102.52 54.5639 100.108L53.9494 101.219C53.4921 101.341 53.0509 101.465 52.7803 101.788C52.0858 102.615 51.6846 103.793 51.2583 105.046C51.078 105.576 50.8932 106.118 50.6799 106.653C50.5871 106.945 50.5111 107.225 50.4358 107.503C50.2916 108.035 50.1498 108.559 49.8972 109.136C49.839 109.269 49.7543 109.438 49.6737 109.598C49.6339 109.678 49.5951 109.755 49.561 109.825C49.5603 109.827 49.5617 109.829 49.561 109.831C49.5603 109.832 49.5586 109.833 49.5572 109.834C49.5564 109.835 49.5556 109.836 49.5552 109.836C48.8312 111.329 47.1581 112.012 45.8102 111.364C44.4708 110.721 43.9593 109.005 44.6566 107.516C44.6942 107.438 44.7361 107.348 44.7794 107.254C44.8556 107.09 44.936 106.916 45.0044 106.787C45.3013 106.226 45.6244 105.784 45.9531 105.335C46.1214 105.105 46.2911 104.873 46.4595 104.622C47.4866 103.018 48.3886 101.579 48.9152 100.216C49.0476 99.763 48.8517 99.1427 48.674 98.6843L49.1668 97.5037C41.945 93.2317 36.2417 86.4236 33.5203 78.0005L32.3376 78.203C32.3017 78.183 32.2617 78.1598 32.2181 78.1345C31.8767 77.9368 31.3147 77.6113 30.7782 77.6532C29.3507 77.8594 27.886 78.3839 26.1256 79.0143L26.0477 79.0422C25.7666 79.1497 25.5038 79.2624 25.2435 79.374C24.7312 79.5938 24.2283 79.8094 23.6129 79.9739C23.474 80.0111 23.2924 80.0493 23.1186 80.086C23.0471 80.1011 22.9769 80.1159 22.9115 80.1302C22.9027 80.1323 22.8944 80.1355 22.8861 80.1387C22.8774 80.142 22.8686 80.1454 22.8593 80.1475C22.8472 80.1502 22.8303 80.1507 22.8187 80.1533C21.21 80.4995 19.648 79.6201 19.3172 78.174C18.9865 76.7283 20.0138 75.261 21.6129 74.8753C21.6189 74.8739 21.6259 74.8717 21.6331 74.8695C21.6401 74.8673 21.6473 74.8651 21.6535 74.8637C21.6571 74.8629 21.6607 74.8619 21.6642 74.861C21.6683 74.8599 21.6724 74.8588 21.6767 74.8579C21.745 74.8419 21.8189 74.8239 21.8945 74.8055C22.0706 74.7627 22.2559 74.7176 22.4013 74.6901C23.0204 74.573 23.564 74.5517 24.116 74.53C24.4057 74.5187 24.6977 74.5072 25.0042 74.4818L25.066 74.4753C26.9351 74.2797 28.4872 74.1173 29.868 73.6831C30.2594 73.5228 30.6356 73.0292 30.9245 72.6502C30.9623 72.6006 30.9986 72.5529 31.0333 72.5083L32.1695 72.1784C30.8964 63.3765 33.0508 54.738 37.7058 47.7444L36.8362 46.9689C36.8302 46.9319 36.8239 46.8896 36.817 46.843C36.7607 46.4639 36.6623 45.8011 36.2913 45.4063C35.2243 44.4062 33.8791 43.5767 32.2565 42.5763C31.9923 42.4212 31.7358 42.285 31.4814 42.1499C30.9941 41.8912 30.5151 41.6369 30.0072 41.2626C29.8896 41.1759 29.744 41.0563 29.6051 40.9422C29.5499 40.8969 29.4958 40.8524 29.4449 40.8112C29.4386 40.8063 29.4321 40.8019 29.4256 40.7975C29.4184 40.7926 29.4112 40.7878 29.4043 40.7822C28.1026 39.7462 27.8035 37.9586 28.7376 36.789C29.263 36.1311 30.0659 35.8056 30.8999 35.8341C31.5486 35.8563 32.2203 36.0926 32.7898 36.5459C32.8399 36.5855 32.895 36.6285 32.952 36.6729C33.1052 36.7925 33.2721 36.9227 33.3927 37.0263C33.8746 37.4401 34.232 37.8506 34.5963 38.269C34.7826 38.483 34.9708 38.6991 35.1782 38.9187L35.2258 38.9669C36.5425 40.302 37.6365 41.4113 38.8363 42.2175C39.3893 42.5391 39.831 42.4695 40.2545 42.4027C40.3193 42.3925 40.3836 42.3824 40.4479 42.3737C40.6037 42.4887 41.128 42.8641 41.4276 43.0682C46.0454 38.1771 52.1107 34.5546 59.1553 32.9578C60.7925 32.5867 62.4315 32.3401 64.0597 32.2054L64.1235 31.0595C64.4847 30.7104 64.8899 30.2082 65.0047 29.659C65.1219 28.2127 64.9341 26.6574 64.7079 24.7846L64.7032 24.7456C64.6603 24.445 64.6078 24.1618 64.5558 23.8812C64.4549 23.3371 64.3558 22.8026 64.3322 22.1702C64.3272 22.036 64.3307 21.8665 64.3341 21.7006C64.3357 21.6236 64.3373 21.5474 64.338 21.4758C64.3377 21.4638 64.3364 21.452 64.3351 21.4403C64.3336 21.4271 64.3322 21.414 64.3322 21.4005ZM62.8423 53.6069L63.6481 39.3991C62.6864 39.5154 61.7211 39.6779 60.7553 39.8968C55.4684 41.0951 50.8809 43.697 47.2943 47.2177L58.964 55.4762L58.9872 55.4646C59.3825 55.7529 59.8689 55.9218 60.3959 55.9218C61.6824 55.9218 62.7303 54.9069 62.7843 53.6359L62.8423 53.6069ZM86.7034 47.2235C82.3291 42.9472 76.6207 40.1569 70.4482 39.3991L71.254 53.5838L71.2656 53.5896C71.2863 54.0778 71.4587 54.5614 71.7873 54.9727C72.5895 55.9767 74.0394 56.1629 75.0685 55.4126L75.1091 55.4299L86.7034 47.2235ZM53.7176 62.039L43.0624 52.5247C39.9001 57.6675 38.402 63.8361 39.0971 70.1818L52.7553 66.2464L52.7668 66.2001C53.239 66.0713 53.6789 65.7954 54.0074 65.3841C54.8096 64.38 54.6677 62.9316 53.706 62.0969L53.7176 62.039ZM94.4484 61.0552C93.7347 57.9533 92.5359 55.0922 90.9528 52.5305L80.3556 61.9985L80.3613 62.0274C79.9919 62.348 79.7192 62.7819 79.6019 63.2949C79.3157 64.5469 80.0712 65.7953 81.3005 66.1307L81.3121 66.1885L95.0397 70.1355C95.3305 67.179 95.1536 64.1198 94.4484 61.0552ZM69.225 62.774H64.8597L62.1409 66.1538L63.1148 70.3785L67.0453 72.2652L70.9641 70.3843L71.9381 66.1596L69.225 62.774ZM79.4048 74.4007C79.2243 74.3675 79.0396 74.3509 78.8541 74.3602C78.5449 74.3758 78.2349 74.4548 77.9381 74.5975C76.7791 75.1548 76.2749 76.5251 76.7787 77.6937L76.7613 77.7169L82.2454 90.9409C87.5317 87.5789 91.4881 82.5552 93.5557 76.7562L79.428 74.3718L79.4048 74.4007ZM57.422 76.2758C57.1715 75.1802 56.2044 74.4332 55.1263 74.4181C54.9723 74.4159 54.8134 74.4298 54.6567 74.4586L54.6335 74.4297L40.6276 76.8025C42.7891 82.7728 46.8299 87.6389 51.9031 90.8888L57.3292 77.7979L57.2886 77.7458C57.4822 77.2969 57.5392 76.7887 57.422 76.2758ZM68.0772 80.3906C67.7149 80.2165 67.3339 80.1395 66.9583 80.1533C66.1321 80.1836 65.3483 80.6437 64.9351 81.415H64.9235L58.0365 93.8461C62.8027 95.4674 68.0663 95.8301 73.3468 94.6332C74.289 94.4196 75.2102 94.1633 76.1062 93.8635L69.2018 81.4092H69.1496C68.9188 80.9783 68.552 80.6189 68.0772 80.3906Z" fill="#326CE5"/>
<path d="M186.486 36.0918H195.538C195.356 39.0586 194.539 41.6924 193.086 43.9932C191.653 46.2939 189.645 48.0902 187.062 49.3818C184.498 50.6735 181.41 51.3193 177.798 51.3193C174.972 51.3193 172.439 50.835 170.199 49.8662C167.959 48.8773 166.042 47.4645 164.447 45.6279C162.873 43.7913 161.672 41.5713 160.845 38.9678C160.017 36.3643 159.604 33.4479 159.604 30.2188V27.1611C159.604 23.932 160.027 21.0156 160.875 18.4121C161.743 15.7884 162.974 13.5583 164.568 11.7217C166.183 9.88509 168.11 8.47233 170.351 7.4834C172.591 6.49447 175.093 6 177.858 6C181.532 6 184.63 6.66602 187.152 7.99805C189.695 9.33008 191.663 11.1667 193.056 13.5078C194.468 15.849 195.316 18.513 195.599 21.5H186.517C186.416 19.724 186.062 18.2204 185.457 16.9893C184.852 15.738 183.933 14.7995 182.702 14.1738C181.491 13.528 179.877 13.2051 177.858 13.2051C176.345 13.2051 175.023 13.4876 173.893 14.0527C172.762 14.6178 171.814 15.4756 171.047 16.626C170.28 17.7764 169.705 19.2295 169.321 20.9854C168.958 22.721 168.776 24.7594 168.776 27.1006V30.2188C168.776 32.4993 168.948 34.5075 169.291 36.2432C169.634 37.9587 170.159 39.4118 170.865 40.6025C171.592 41.7731 172.52 42.6611 173.65 43.2666C174.801 43.8519 176.183 44.1445 177.798 44.1445C179.695 44.1445 181.259 43.8418 182.49 43.2363C183.721 42.6309 184.66 41.7327 185.306 40.542C185.972 39.3512 186.365 37.8678 186.486 36.0918Z" fill="black"/>
<path d="M220.332 42.873V17.958H229.051V50.7139H220.847L220.332 42.873ZM221.301 36.1523L223.874 36.0918C223.874 38.2715 223.622 40.2998 223.117 42.1768C222.613 44.0335 221.856 45.6481 220.847 47.0205C219.838 48.3727 218.566 49.4323 217.032 50.1992C215.498 50.946 213.692 51.3193 211.613 51.3193C210.019 51.3193 208.546 51.0973 207.193 50.6533C205.861 50.1891 204.711 49.4727 203.742 48.5039C202.794 47.515 202.047 46.2536 201.502 44.7197C200.977 43.1657 200.715 41.2988 200.715 39.1191V17.958H209.434V39.1797C209.434 40.1484 209.545 40.9658 209.767 41.6318C210.009 42.2979 210.342 42.8428 210.766 43.2666C211.189 43.6904 211.684 43.9932 212.249 44.1748C212.834 44.3564 213.48 44.4473 214.187 44.4473C215.983 44.4473 217.396 44.084 218.425 43.3574C219.474 42.6309 220.211 41.6419 220.635 40.3906C221.079 39.1191 221.301 37.7064 221.301 36.1523Z" fill="black"/>
<path d="M253.421 41.6621C253.421 41.0365 253.239 40.4714 252.876 39.9668C252.513 39.4622 251.837 38.998 250.848 38.5742C249.879 38.1302 248.476 37.7266 246.64 37.3633C244.985 37 243.441 36.5459 242.008 36.001C240.595 35.4359 239.364 34.7598 238.314 33.9727C237.285 33.1855 236.478 32.2572 235.893 31.1875C235.307 30.0977 235.015 28.8564 235.015 27.4639C235.015 26.0915 235.307 24.7998 235.893 23.5889C236.498 22.3779 237.356 21.3083 238.466 20.3799C239.596 19.4313 240.968 18.6947 242.583 18.1699C244.218 17.625 246.054 17.3525 248.093 17.3525C250.938 17.3525 253.381 17.8066 255.419 18.7148C257.478 19.623 259.052 20.8743 260.142 22.4688C261.252 24.043 261.807 25.8392 261.807 27.8574H253.088C253.088 27.0098 252.906 26.2529 252.543 25.5869C252.2 24.9007 251.655 24.3659 250.908 23.9824C250.182 23.5788 249.233 23.377 248.062 23.377C247.094 23.377 246.256 23.5485 245.55 23.8916C244.843 24.2145 244.299 24.6585 243.915 25.2236C243.552 25.7686 243.37 26.374 243.37 27.04C243.37 27.5446 243.471 27.9987 243.673 28.4023C243.895 28.7858 244.248 29.139 244.732 29.4619C245.217 29.7848 245.842 30.0876 246.609 30.3701C247.396 30.6325 248.365 30.8747 249.516 31.0967C251.877 31.5811 253.986 32.2168 255.843 33.0039C257.7 33.7708 259.173 34.8203 260.263 36.1523C261.353 37.4642 261.897 39.1898 261.897 41.3291C261.897 42.7822 261.575 44.1143 260.929 45.3252C260.283 46.5361 259.354 47.5957 258.144 48.5039C256.933 49.3919 255.479 50.0882 253.784 50.5928C252.109 51.0771 250.222 51.3193 248.123 51.3193C245.076 51.3193 242.492 50.7744 240.373 49.6846C238.274 48.5947 236.68 47.2122 235.59 45.5371C234.52 43.8418 233.985 42.1061 233.985 40.3301H242.25C242.29 41.5208 242.593 42.4795 243.158 43.2061C243.743 43.9326 244.48 44.4574 245.368 44.7803C246.276 45.1032 247.255 45.2646 248.305 45.2646C249.435 45.2646 250.373 45.1133 251.12 44.8105C251.867 44.4876 252.432 44.0638 252.815 43.5391C253.219 42.9941 253.421 42.3685 253.421 41.6621Z" fill="black"/>
<path d="M283.604 17.958V24.1338H264.531V17.958H283.604ZM269.254 9.875H277.973V40.8447C277.973 41.7933 278.094 42.5199 278.336 43.0244C278.598 43.529 278.982 43.8822 279.486 44.084C279.991 44.2656 280.627 44.3564 281.394 44.3564C281.938 44.3564 282.423 44.3363 282.847 44.2959C283.291 44.2354 283.664 44.1748 283.967 44.1143L283.997 50.5322C283.25 50.7744 282.443 50.9661 281.575 51.1074C280.707 51.2487 279.749 51.3193 278.699 51.3193C276.782 51.3193 275.107 51.0065 273.674 50.3809C272.261 49.735 271.171 48.7057 270.404 47.293C269.637 45.8802 269.254 44.0234 269.254 41.7227V9.875Z" fill="black"/>
<path d="M286.389 34.6689V34.0332C286.389 31.6315 286.732 29.4215 287.418 27.4033C288.104 25.3649 289.103 23.599 290.415 22.1055C291.727 20.612 293.341 19.4515 295.259 18.624C297.176 17.7764 299.376 17.3525 301.858 17.3525C304.341 17.3525 306.551 17.7764 308.488 18.624C310.426 19.4515 312.05 20.612 313.362 22.1055C314.694 23.599 315.703 25.3649 316.39 27.4033C317.076 29.4215 317.419 31.6315 317.419 34.0332V34.6689C317.419 37.0505 317.076 39.2604 316.39 41.2988C315.703 43.3171 314.694 45.083 313.362 46.5967C312.05 48.0902 310.436 49.2507 308.519 50.0781C306.601 50.9056 304.401 51.3193 301.919 51.3193C299.437 51.3193 297.227 50.9056 295.289 50.0781C293.372 49.2507 291.747 48.0902 290.415 46.5967C289.103 45.083 288.104 43.3171 287.418 41.2988C286.732 39.2604 286.389 37.0505 286.389 34.6689ZM295.107 34.0332V34.6689C295.107 36.0413 295.229 37.3229 295.471 38.5137C295.713 39.7044 296.096 40.7539 296.621 41.6621C297.166 42.5501 297.872 43.2464 298.74 43.751C299.608 44.2555 300.668 44.5078 301.919 44.5078C303.13 44.5078 304.169 44.2555 305.037 43.751C305.905 43.2464 306.601 42.5501 307.126 41.6621C307.651 40.7539 308.034 39.7044 308.276 38.5137C308.539 37.3229 308.67 36.0413 308.67 34.6689V34.0332C308.67 32.7012 308.539 31.4499 308.276 30.2793C308.034 29.0885 307.641 28.0391 307.096 27.1309C306.571 26.2025 305.875 25.4759 305.007 24.9512C304.139 24.4264 303.09 24.1641 301.858 24.1641C300.627 24.1641 299.578 24.4264 298.71 24.9512C297.862 25.4759 297.166 26.2025 296.621 27.1309C296.096 28.0391 295.713 29.0885 295.471 30.2793C295.229 31.4499 295.107 32.7012 295.107 34.0332Z" fill="black"/>
<path d="M331.496 24.7393V50.7139H322.747V17.958H330.951L331.496 24.7393ZM330.285 33.1855H327.863C327.863 30.9049 328.136 28.806 328.681 26.8887C329.246 24.9512 330.063 23.276 331.133 21.8633C332.223 20.4303 333.565 19.3203 335.159 18.5332C336.754 17.7461 338.6 17.3525 340.699 17.3525C342.152 17.3525 343.484 17.5745 344.695 18.0186C345.906 18.4424 346.946 19.1185 347.813 20.0469C348.701 20.9551 349.388 22.1458 349.872 23.6191C350.356 25.0723 350.599 26.818 350.599 28.8564V50.7139H341.88V29.8252C341.88 28.3317 341.678 27.1813 341.274 26.374C340.871 25.5667 340.296 25.0016 339.549 24.6787C338.822 24.3558 337.944 24.1943 336.915 24.1943C335.785 24.1943 334.796 24.4264 333.948 24.8906C333.121 25.3548 332.435 26.0007 331.89 26.8281C331.345 27.6354 330.941 28.584 330.679 29.6738C330.416 30.7637 330.285 31.9342 330.285 33.1855ZM349.781 32.1865L346.663 32.5801C346.663 30.4408 346.925 28.4528 347.45 26.6162C347.995 24.7796 348.792 23.165 349.842 21.7725C350.911 20.3799 352.233 19.3001 353.808 18.5332C355.382 17.7461 357.198 17.3525 359.257 17.3525C360.831 17.3525 362.264 17.5846 363.556 18.0488C364.847 18.4928 365.947 19.2093 366.855 20.1982C367.784 21.167 368.49 22.4385 368.975 24.0127C369.479 25.5869 369.731 27.5143 369.731 29.7949V50.7139H360.982V29.7949C360.982 28.2812 360.781 27.1309 360.377 26.3438C359.993 25.5365 359.428 24.9814 358.682 24.6787C357.955 24.3558 357.087 24.1943 356.078 24.1943C355.029 24.1943 354.11 24.4062 353.323 24.8301C352.536 25.2337 351.88 25.7988 351.355 26.5254C350.831 27.252 350.437 28.0996 350.175 29.0684C349.912 30.0169 349.781 31.0563 349.781 32.1865Z" fill="black"/>
<path d="M170.018 79.6357V123.714H160.936V79.6357H170.018ZM196.416 79.6357L178.948 101.402L168.867 112.24L167.232 103.643L174.044 94.3184L185.275 79.6357H196.416ZM186.093 123.714L173.105 103.34L179.826 97.709L196.84 123.714H186.093Z" fill="black"/>
<path d="M218.455 115.873V90.958H227.174V123.714H218.97L218.455 115.873ZM219.424 109.152L221.997 109.092C221.997 111.271 221.745 113.3 221.24 115.177C220.736 117.034 219.979 118.648 218.97 120.021C217.961 121.373 216.689 122.432 215.155 123.199C213.621 123.946 211.815 124.319 209.736 124.319C208.142 124.319 206.669 124.097 205.316 123.653C203.984 123.189 202.834 122.473 201.865 121.504C200.917 120.515 200.17 119.254 199.625 117.72C199.1 116.166 198.838 114.299 198.838 112.119V90.958H207.557V112.18C207.557 113.148 207.668 113.966 207.89 114.632C208.132 115.298 208.465 115.843 208.889 116.267C209.312 116.69 209.807 116.993 210.372 117.175C210.957 117.356 211.603 117.447 212.31 117.447C214.106 117.447 215.519 117.084 216.548 116.357C217.597 115.631 218.334 114.642 218.758 113.391C219.202 112.119 219.424 110.706 219.424 109.152Z" fill="black"/>
<path d="M233.834 77.2139H242.553V116.206L241.675 123.714H233.834V77.2139ZM263.29 107.003V107.639C263.29 110.081 263.028 112.321 262.503 114.359C261.998 116.398 261.211 118.164 260.142 119.657C259.072 121.131 257.74 122.281 256.146 123.108C254.571 123.916 252.715 124.319 250.575 124.319C248.577 124.319 246.841 123.916 245.368 123.108C243.915 122.301 242.694 121.161 241.705 119.688C240.716 118.214 239.919 116.489 239.313 114.511C238.708 112.533 238.254 110.373 237.951 108.032V106.64C238.254 104.299 238.708 102.139 239.313 100.161C239.919 98.1833 240.716 96.4577 241.705 94.9844C242.694 93.5111 243.915 92.3708 245.368 91.5635C246.821 90.7562 248.537 90.3525 250.515 90.3525C252.674 90.3525 254.551 90.7663 256.146 91.5938C257.76 92.401 259.092 93.5514 260.142 95.0449C261.211 96.5182 261.998 98.2741 262.503 100.312C263.028 102.331 263.29 104.561 263.29 107.003ZM254.571 107.639V107.003C254.571 105.671 254.47 104.42 254.269 103.249C254.087 102.058 253.764 101.019 253.3 100.131C252.836 99.2227 252.2 98.5062 251.393 97.9814C250.605 97.4567 249.586 97.1943 248.335 97.1943C247.144 97.1943 246.135 97.3962 245.308 97.7998C244.48 98.2035 243.794 98.7686 243.249 99.4951C242.724 100.222 242.331 101.09 242.068 102.099C241.806 103.088 241.645 104.177 241.584 105.368V109.334C241.645 110.928 241.907 112.341 242.371 113.572C242.855 114.783 243.582 115.742 244.551 116.448C245.54 117.134 246.821 117.478 248.396 117.478C249.627 117.478 250.646 117.235 251.453 116.751C252.26 116.267 252.886 115.58 253.33 114.692C253.794 113.804 254.117 112.765 254.299 111.574C254.48 110.363 254.571 109.051 254.571 107.639Z" fill="black"/>
<path d="M283.785 124.319C281.242 124.319 278.962 123.916 276.943 123.108C274.925 122.281 273.21 121.141 271.797 119.688C270.404 118.234 269.335 116.549 268.588 114.632C267.841 112.694 267.468 110.636 267.468 108.456V107.245C267.468 104.763 267.821 102.492 268.527 100.434C269.234 98.375 270.243 96.5889 271.555 95.0752C272.887 93.5615 274.501 92.401 276.398 91.5938C278.296 90.7663 280.435 90.3525 282.816 90.3525C285.137 90.3525 287.196 90.736 288.992 91.5029C290.788 92.2699 292.292 93.3597 293.503 94.7725C294.734 96.1852 295.662 97.8805 296.288 99.8584C296.914 101.816 297.227 103.996 297.227 106.397V110.03H271.191V104.218H288.659V103.552C288.659 102.341 288.437 101.261 287.993 100.312C287.569 99.3438 286.924 98.5768 286.056 98.0117C285.188 97.4466 284.078 97.1641 282.726 97.1641C281.575 97.1641 280.586 97.4163 279.759 97.9209C278.931 98.4255 278.255 99.1318 277.73 100.04C277.226 100.948 276.842 102.018 276.58 103.249C276.338 104.46 276.217 105.792 276.217 107.245V108.456C276.217 109.768 276.398 110.979 276.762 112.089C277.145 113.199 277.68 114.158 278.366 114.965C279.073 115.772 279.92 116.398 280.909 116.842C281.918 117.286 283.059 117.508 284.33 117.508C285.904 117.508 287.368 117.205 288.72 116.6C290.092 115.974 291.273 115.035 292.262 113.784L296.5 118.386C295.814 119.375 294.875 120.323 293.685 121.231C292.514 122.14 291.101 122.886 289.446 123.472C287.791 124.037 285.904 124.319 283.785 124.319Z" fill="black"/>
<path d="M310.91 98.1025V123.714H302.191V90.958H310.396L310.91 98.1025ZM320.779 90.7461L320.628 98.8291C320.204 98.7686 319.689 98.7181 319.084 98.6777C318.499 98.6172 317.964 98.5869 317.479 98.5869C316.248 98.5869 315.179 98.7484 314.271 99.0713C313.382 99.374 312.636 99.8281 312.03 100.434C311.445 101.039 311.001 101.776 310.698 102.644C310.416 103.511 310.254 104.5 310.214 105.61L308.458 105.065C308.458 102.946 308.67 100.999 309.094 99.2227C309.518 97.4264 310.133 95.8623 310.94 94.5303C311.768 93.1982 312.777 92.1689 313.968 91.4424C315.159 90.7158 316.521 90.3525 318.055 90.3525C318.539 90.3525 319.034 90.3929 319.538 90.4736C320.043 90.5342 320.456 90.625 320.779 90.7461Z" fill="black"/>
<path d="M333.434 97.9512V123.714H324.715V90.958H332.889L333.434 97.9512ZM332.162 106.186H329.801C329.801 103.764 330.114 101.584 330.739 99.6465C331.365 97.6888 332.243 96.0238 333.373 94.6514C334.503 93.2588 335.845 92.1992 337.399 91.4727C338.974 90.7259 340.729 90.3525 342.667 90.3525C344.201 90.3525 345.604 90.5745 346.875 91.0186C348.146 91.4626 349.236 92.1689 350.145 93.1377C351.073 94.1064 351.779 95.388 352.264 96.9824C352.768 98.5768 353.021 100.524 353.021 102.825V123.714H344.241V102.795C344.241 101.342 344.039 100.212 343.636 99.4043C343.232 98.597 342.637 98.0319 341.85 97.709C341.083 97.3659 340.134 97.1943 339.004 97.1943C337.833 97.1943 336.814 97.4264 335.946 97.8906C335.099 98.3548 334.392 99.0007 333.827 99.8281C333.282 100.635 332.868 101.584 332.586 102.674C332.303 103.764 332.162 104.934 332.162 106.186Z" fill="black"/>
<path d="M374.727 124.319C372.184 124.319 369.903 123.916 367.885 123.108C365.867 122.281 364.151 121.141 362.738 119.688C361.346 118.234 360.276 116.549 359.529 114.632C358.783 112.694 358.409 110.636 358.409 108.456V107.245C358.409 104.763 358.762 102.492 359.469 100.434C360.175 98.375 361.184 96.5889 362.496 95.0752C363.828 93.5615 365.443 92.401 367.34 91.5938C369.237 90.7663 371.376 90.3525 373.758 90.3525C376.079 90.3525 378.137 90.736 379.934 91.5029C381.73 92.2699 383.233 93.3597 384.444 94.7725C385.675 96.1852 386.604 97.8805 387.229 99.8584C387.855 101.816 388.168 103.996 388.168 106.397V110.03H362.133V104.218H379.601V103.552C379.601 102.341 379.379 101.261 378.935 100.312C378.511 99.3438 377.865 98.5768 376.997 98.0117C376.129 97.4466 375.019 97.1641 373.667 97.1641C372.517 97.1641 371.528 97.4163 370.7 97.9209C369.873 98.4255 369.197 99.1318 368.672 100.04C368.167 100.948 367.784 102.018 367.521 103.249C367.279 104.46 367.158 105.792 367.158 107.245V108.456C367.158 109.768 367.34 110.979 367.703 112.089C368.087 113.199 368.621 114.158 369.308 114.965C370.014 115.772 370.862 116.398 371.851 116.842C372.86 117.286 374 117.508 375.271 117.508C376.846 117.508 378.309 117.205 379.661 116.6C381.034 115.974 382.214 115.035 383.203 113.784L387.441 118.386C386.755 119.375 385.817 120.323 384.626 121.231C383.455 122.14 382.043 122.886 380.388 123.472C378.733 124.037 376.846 124.319 374.727 124.319Z" fill="black"/>
<path d="M409.178 90.958V97.1338H390.105V90.958H409.178ZM394.828 82.875H403.547V113.845C403.547 114.793 403.668 115.52 403.91 116.024C404.173 116.529 404.556 116.882 405.061 117.084C405.565 117.266 406.201 117.356 406.968 117.356C407.513 117.356 407.997 117.336 408.421 117.296C408.865 117.235 409.238 117.175 409.541 117.114L409.571 123.532C408.825 123.774 408.017 123.966 407.149 124.107C406.282 124.249 405.323 124.319 404.273 124.319C402.356 124.319 400.681 124.007 399.248 123.381C397.835 122.735 396.745 121.706 395.979 120.293C395.212 118.88 394.828 117.023 394.828 114.723V82.875Z" fill="black"/>
<path d="M429.219 124.319C426.676 124.319 424.395 123.916 422.377 123.108C420.359 122.281 418.643 121.141 417.23 119.688C415.838 118.234 414.768 116.549 414.021 114.632C413.275 112.694 412.901 110.636 412.901 108.456V107.245C412.901 104.763 413.255 102.492 413.961 100.434C414.667 98.375 415.676 96.5889 416.988 95.0752C418.32 93.5615 419.935 92.401 421.832 91.5938C423.729 90.7663 425.868 90.3525 428.25 90.3525C430.571 90.3525 432.63 90.736 434.426 91.5029C436.222 92.2699 437.726 93.3597 438.937 94.7725C440.168 96.1852 441.096 97.8805 441.722 99.8584C442.347 101.816 442.66 103.996 442.66 106.397V110.03H416.625V104.218H434.093V103.552C434.093 102.341 433.871 101.261 433.427 100.312C433.003 99.3438 432.357 98.5768 431.489 98.0117C430.621 97.4466 429.511 97.1641 428.159 97.1641C427.009 97.1641 426.02 97.4163 425.192 97.9209C424.365 98.4255 423.689 99.1318 423.164 100.04C422.66 100.948 422.276 102.018 422.014 103.249C421.771 104.46 421.65 105.792 421.65 107.245V108.456C421.65 109.768 421.832 110.979 422.195 112.089C422.579 113.199 423.114 114.158 423.8 114.965C424.506 115.772 425.354 116.398 426.343 116.842C427.352 117.286 428.492 117.508 429.764 117.508C431.338 117.508 432.801 117.205 434.153 116.6C435.526 115.974 436.706 115.035 437.695 113.784L441.934 118.386C441.247 119.375 440.309 120.323 439.118 121.231C437.948 122.14 436.535 122.886 434.88 123.472C433.225 124.037 431.338 124.319 429.219 124.319Z" fill="black"/>
<path d="M465.335 114.662C465.335 114.036 465.153 113.471 464.79 112.967C464.427 112.462 463.751 111.998 462.762 111.574C461.793 111.13 460.39 110.727 458.554 110.363C456.899 110 455.355 109.546 453.922 109.001C452.509 108.436 451.278 107.76 450.229 106.973C449.199 106.186 448.392 105.257 447.807 104.188C447.221 103.098 446.929 101.856 446.929 100.464C446.929 99.0915 447.221 97.7998 447.807 96.5889C448.412 95.3779 449.27 94.3083 450.38 93.3799C451.51 92.4313 452.882 91.6947 454.497 91.1699C456.132 90.625 457.968 90.3525 460.007 90.3525C462.853 90.3525 465.295 90.8066 467.333 91.7148C469.392 92.623 470.966 93.8743 472.056 95.4688C473.166 97.043 473.721 98.8392 473.721 100.857H465.002C465.002 100.01 464.82 99.2529 464.457 98.5869C464.114 97.9007 463.569 97.3659 462.822 96.9824C462.096 96.5788 461.147 96.377 459.977 96.377C459.008 96.377 458.17 96.5485 457.464 96.8916C456.757 97.2145 456.213 97.6585 455.829 98.2236C455.466 98.7686 455.284 99.374 455.284 100.04C455.284 100.545 455.385 100.999 455.587 101.402C455.809 101.786 456.162 102.139 456.646 102.462C457.131 102.785 457.757 103.088 458.523 103.37C459.311 103.632 460.279 103.875 461.43 104.097C463.791 104.581 465.9 105.217 467.757 106.004C469.614 106.771 471.087 107.82 472.177 109.152C473.267 110.464 473.812 112.19 473.812 114.329C473.812 115.782 473.489 117.114 472.843 118.325C472.197 119.536 471.269 120.596 470.058 121.504C468.847 122.392 467.394 123.088 465.698 123.593C464.023 124.077 462.136 124.319 460.037 124.319C456.99 124.319 454.406 123.774 452.287 122.685C450.188 121.595 448.594 120.212 447.504 118.537C446.434 116.842 445.899 115.106 445.899 113.33H454.164C454.204 114.521 454.507 115.479 455.072 116.206C455.658 116.933 456.394 117.457 457.282 117.78C458.19 118.103 459.169 118.265 460.219 118.265C461.349 118.265 462.287 118.113 463.034 117.811C463.781 117.488 464.346 117.064 464.729 116.539C465.133 115.994 465.335 115.368 465.335 114.662Z" fill="black"/>
<path d="M521.008 109.092H530.06C529.878 112.059 529.061 114.692 527.607 116.993C526.174 119.294 524.166 121.09 521.583 122.382C519.02 123.674 515.932 124.319 512.319 124.319C509.494 124.319 506.961 123.835 504.721 122.866C502.48 121.877 500.563 120.465 498.969 118.628C497.395 116.791 496.194 114.571 495.366 111.968C494.539 109.364 494.125 106.448 494.125 103.219V100.161C494.125 96.932 494.549 94.0156 495.396 91.4121C496.264 88.7884 497.495 86.5583 499.09 84.7217C500.704 82.8851 502.632 81.4723 504.872 80.4834C507.112 79.4945 509.615 79 512.38 79C516.053 79 519.151 79.666 521.674 80.998C524.217 82.3301 526.185 84.1667 527.577 86.5078C528.99 88.849 529.838 91.513 530.12 94.5H521.038C520.937 92.724 520.584 91.2204 519.979 89.9893C519.373 88.738 518.455 87.7995 517.224 87.1738C516.013 86.528 514.398 86.2051 512.38 86.2051C510.866 86.2051 509.544 86.4876 508.414 87.0527C507.284 87.6178 506.335 88.4756 505.568 89.626C504.801 90.7764 504.226 92.2295 503.843 93.9854C503.479 95.721 503.298 97.7594 503.298 100.101V103.219C503.298 105.499 503.469 107.507 503.812 109.243C504.156 110.959 504.68 112.412 505.387 113.603C506.113 114.773 507.042 115.661 508.172 116.267C509.322 116.852 510.705 117.145 512.319 117.145C514.216 117.145 515.781 116.842 517.012 116.236C518.243 115.631 519.181 114.733 519.827 113.542C520.493 112.351 520.887 110.868 521.008 109.092Z" fill="black"/>
<path d="M544.682 77.2139V123.714H535.933V77.2139H544.682Z" fill="black"/>
<path d="M571.262 115.873V90.958H579.98V123.714H571.776L571.262 115.873ZM572.23 109.152L574.804 109.092C574.804 111.271 574.551 113.3 574.047 115.177C573.542 117.034 572.785 118.648 571.776 120.021C570.767 121.373 569.496 122.432 567.962 123.199C566.428 123.946 564.622 124.319 562.543 124.319C560.949 124.319 559.475 124.097 558.123 123.653C556.791 123.189 555.641 122.473 554.672 121.504C553.723 120.515 552.977 119.254 552.432 117.72C551.907 116.166 551.645 114.299 551.645 112.119V90.958H560.363V112.18C560.363 113.148 560.474 113.966 560.696 114.632C560.938 115.298 561.271 115.843 561.695 116.267C562.119 116.69 562.614 116.993 563.179 117.175C563.764 117.356 564.41 117.447 565.116 117.447C566.912 117.447 568.325 117.084 569.354 116.357C570.404 115.631 571.141 114.642 571.564 113.391C572.008 112.119 572.23 110.706 572.23 109.152Z" fill="black"/>
<path d="M604.351 114.662C604.351 114.036 604.169 113.471 603.806 112.967C603.442 112.462 602.766 111.998 601.777 111.574C600.809 111.13 599.406 110.727 597.569 110.363C595.914 110 594.37 109.546 592.938 109.001C591.525 108.436 590.294 107.76 589.244 106.973C588.215 106.186 587.408 105.257 586.822 104.188C586.237 103.098 585.944 101.856 585.944 100.464C585.944 99.0915 586.237 97.7998 586.822 96.5889C587.428 95.3779 588.285 94.3083 589.396 93.3799C590.526 92.4313 591.898 91.6947 593.513 91.1699C595.147 90.625 596.984 90.3525 599.022 90.3525C601.868 90.3525 604.31 90.8066 606.349 91.7148C608.407 92.623 609.981 93.8743 611.071 95.4688C612.181 97.043 612.736 98.8392 612.736 100.857H604.018C604.018 100.01 603.836 99.2529 603.473 98.5869C603.13 97.9007 602.585 97.3659 601.838 96.9824C601.111 96.5788 600.163 96.377 598.992 96.377C598.023 96.377 597.186 96.5485 596.479 96.8916C595.773 97.2145 595.228 97.6585 594.845 98.2236C594.481 98.7686 594.3 99.374 594.3 100.04C594.3 100.545 594.401 100.999 594.603 101.402C594.825 101.786 595.178 102.139 595.662 102.462C596.146 102.785 596.772 103.088 597.539 103.37C598.326 103.632 599.295 103.875 600.445 104.097C602.807 104.581 604.916 105.217 606.772 106.004C608.629 106.771 610.103 107.82 611.192 109.152C612.282 110.464 612.827 112.19 612.827 114.329C612.827 115.782 612.504 117.114 611.858 118.325C611.213 119.536 610.284 120.596 609.073 121.504C607.862 122.392 606.409 123.088 604.714 123.593C603.039 124.077 601.152 124.319 599.053 124.319C596.005 124.319 593.422 123.774 591.303 122.685C589.204 121.595 587.609 120.212 586.52 118.537C585.45 116.842 584.915 115.106 584.915 113.33H593.18C593.22 114.521 593.523 115.479 594.088 116.206C594.673 116.933 595.41 117.457 596.298 117.78C597.206 118.103 598.185 118.265 599.234 118.265C600.365 118.265 601.303 118.113 602.05 117.811C602.797 117.488 603.362 117.064 603.745 116.539C604.149 115.994 604.351 115.368 604.351 114.662Z" fill="black"/>
<path d="M634.533 90.958V97.1338H615.461V90.958H634.533ZM620.184 82.875H628.902V113.845C628.902 114.793 629.023 115.52 629.266 116.024C629.528 116.529 629.911 116.882 630.416 117.084C630.921 117.266 631.556 117.356 632.323 117.356C632.868 117.356 633.353 117.336 633.776 117.296C634.22 117.235 634.594 117.175 634.896 117.114L634.927 123.532C634.18 123.774 633.373 123.966 632.505 124.107C631.637 124.249 630.678 124.319 629.629 124.319C627.712 124.319 626.036 124.007 624.604 123.381C623.191 122.735 622.101 121.706 621.334 120.293C620.567 118.88 620.184 117.023 620.184 114.723V82.875Z" fill="black"/>
<path d="M654.574 124.319C652.031 124.319 649.751 123.916 647.732 123.108C645.714 122.281 643.999 121.141 642.586 119.688C641.193 118.234 640.124 116.549 639.377 114.632C638.63 112.694 638.257 110.636 638.257 108.456V107.245C638.257 104.763 638.61 102.492 639.316 100.434C640.023 98.375 641.032 96.5889 642.344 95.0752C643.676 93.5615 645.29 92.401 647.188 91.5938C649.085 90.7663 651.224 90.3525 653.605 90.3525C655.926 90.3525 657.985 90.736 659.781 91.5029C661.577 92.2699 663.081 93.3597 664.292 94.7725C665.523 96.1852 666.451 97.8805 667.077 99.8584C667.703 101.816 668.016 103.996 668.016 106.397V110.03H641.98V104.218H659.448V103.552C659.448 102.341 659.226 101.261 658.782 100.312C658.358 99.3438 657.713 98.5768 656.845 98.0117C655.977 97.4466 654.867 97.1641 653.515 97.1641C652.364 97.1641 651.375 97.4163 650.548 97.9209C649.72 98.4255 649.044 99.1318 648.52 100.04C648.015 100.948 647.632 102.018 647.369 103.249C647.127 104.46 647.006 105.792 647.006 107.245V108.456C647.006 109.768 647.188 110.979 647.551 112.089C647.934 113.199 648.469 114.158 649.155 114.965C649.862 115.772 650.709 116.398 651.698 116.842C652.707 117.286 653.848 117.508 655.119 117.508C656.693 117.508 658.157 117.205 659.509 116.6C660.881 115.974 662.062 115.035 663.051 113.784L667.289 118.386C666.603 119.375 665.664 120.323 664.474 121.231C663.303 122.14 661.89 122.886 660.235 123.472C658.58 124.037 656.693 124.319 654.574 124.319Z" fill="black"/>
<path d="M681.699 98.1025V123.714H672.98V90.958H681.185L681.699 98.1025ZM691.568 90.7461L691.417 98.8291C690.993 98.7686 690.479 98.7181 689.873 98.6777C689.288 98.6172 688.753 98.5869 688.269 98.5869C687.037 98.5869 685.968 98.7484 685.06 99.0713C684.172 99.374 683.425 99.8281 682.819 100.434C682.234 101.039 681.79 101.776 681.487 102.644C681.205 103.511 681.043 104.5 681.003 105.61L679.247 105.065C679.247 102.946 679.459 100.999 679.883 99.2227C680.307 97.4264 680.922 95.8623 681.729 94.5303C682.557 93.1982 683.566 92.1689 684.757 91.4424C685.948 90.7158 687.31 90.3525 688.844 90.3525C689.328 90.3525 689.823 90.3929 690.327 90.4736C690.832 90.5342 691.245 90.625 691.568 90.7461Z" fill="black"/>
</svg>
