<svg width="688" height="131" viewBox="0 0 688 131" fill="none" xmlns="http://www.w3.org/2000/svg">
<g clip-path="url(#clip0_6029_26129)">
<rect width="688" height="131"/>
<path fill-rule="evenodd" clip-rule="evenodd" d="M7.99 27.1499L50.43 2.63993C52.8623 1.23564 55.6214 0.496338 58.43 0.496338C61.2386 0.496338 63.9977 1.23564 66.43 2.63993L108.88 27.1599C111.31 28.5628 113.328 30.5801 114.732 33.0092C116.136 35.4384 116.877 38.1941 116.88 40.9999V90.0099C116.877 92.8157 116.136 95.5715 114.732 98.0006C113.328 100.43 111.31 102.447 108.88 103.85L66.43 128.36C63.9977 129.764 61.2386 130.504 58.43 130.504C55.6214 130.504 52.8623 129.764 50.43 128.36L8 103.84C5.5701 102.437 3.55184 100.42 2.14769 97.9906C0.743543 95.5615 0.00287794 92.8057 0 89.9999V40.9999C0.000110183 38.1934 0.738433 35.4363 2.14086 33.0053C3.5433 30.5743 5.56049 28.5549 7.99 27.1499ZM60.3701 34.52L84.2701 48.32C84.8697 48.6614 85.3708 49.152 85.7248 49.7443C86.0787 50.3365 86.2735 51.0103 86.2901 51.7V79.3C86.2824 79.9893 86.0936 80.6645 85.7426 81.2578C85.3915 81.8511 84.8906 82.3415 84.2901 82.68L60.3801 96.48C59.7865 96.8204 59.1143 96.9995 58.4301 96.9995C57.7459 96.9995 57.0736 96.8204 56.4801 96.48L32.5701 82.68C31.9668 82.3447 31.4637 81.8549 31.1122 81.261C30.7607 80.667 30.5736 79.9902 30.5701 79.3V51.7C30.5777 51.0107 30.7665 50.3356 31.1176 49.7423C31.4686 49.149 31.9695 48.6585 32.5701 48.32L56.4801 34.52C57.0721 34.1806 57.7426 34.002 58.4251 34.002C59.1075 34.002 59.7781 34.1806 60.3701 34.52ZM37.4301 79.39L58.4301 91.49L79.4301 79.36L70.0801 73.79L59.7001 79.79V66.61L71.1201 60V70.9L80.9301 76.73V52.51L59.9301 40.38V52.08L69.8301 57.8L58.4301 64.39L47.0101 57.8L56.9201 52.08V40.38L35.9201 52.51V76.84L45.7301 71V60L57.1001 66.61V79.84L46.7801 73.84L37.4301 79.39Z" fill="#326DEA"/>
<path d="M177.943 22.7038C177.681 21.3503 177.09 20.0822 176.222 19.0109C175.354 17.9397 174.236 17.0983 172.967 16.5608C171.411 15.9052 169.736 15.5782 168.048 15.6003C166.426 15.563 164.817 15.8952 163.342 16.5718C161.867 17.2484 160.565 18.2516 159.536 19.5056C157.069 22.9053 155.888 27.0699 156.203 31.2585C156.203 36.5254 157.406 40.253 159.811 42.4414C162.022 44.553 164.962 45.729 168.019 45.724C170.723 45.8312 173.366 44.9047 175.412 43.1327C177.358 41.3614 178.615 38.9596 178.962 36.3512H169.038V29.195H186.907V52.2153H180.97L180.068 46.8587C178.746 48.5198 177.175 49.967 175.412 51.1492C172.759 52.6688 169.735 53.4198 166.68 53.3182C164.063 53.3999 161.46 52.9145 159.048 51.8951C156.637 50.8757 154.474 49.3466 152.709 47.4127C148.744 42.9676 146.704 37.1318 147.035 31.1846C146.736 25.0911 148.789 19.1156 152.769 14.492C154.689 12.4072 157.04 10.7652 159.658 9.67988C162.277 8.59452 165.1 8.09177 167.932 8.20653C172.668 7.97319 177.33 9.44489 181.073 12.3546C184.266 14.9139 186.312 18.6363 186.762 22.7038L177.943 22.7038Z" fill="black"/>
<path d="M221.25 48.3312C219.741 50.0458 217.854 51.3863 215.738 52.2472C213.622 53.1081 211.335 53.4657 209.057 53.292C206.779 53.4657 204.491 53.108 202.375 52.2472C200.258 51.3863 198.371 50.0458 196.861 48.3312C194.255 44.9059 192.844 40.721 192.844 36.4174C192.844 32.1138 194.255 27.9288 196.861 24.5035C198.359 22.7703 200.243 21.4125 202.361 20.539C204.479 19.6656 206.772 19.3009 209.057 19.4741C211.341 19.3008 213.634 19.6656 215.752 20.539C217.869 21.4125 219.753 22.7703 221.25 24.5035C223.856 27.9288 225.267 32.1138 225.267 36.4174C225.267 40.721 223.856 44.9059 221.25 48.3312V48.3312ZM214.615 43.7504C215.893 41.5129 216.565 38.9808 216.565 36.4042C216.565 33.8275 215.893 31.2954 214.615 29.058C213.923 28.2518 213.064 27.6047 212.099 27.1611C211.133 26.7175 210.083 26.4879 209.02 26.4879C207.957 26.4879 206.907 26.7175 205.941 27.1611C204.975 27.6047 204.117 28.2518 203.424 29.058C202.137 31.2923 201.46 33.8256 201.46 36.4042C201.46 38.9827 202.137 41.516 203.424 43.7504C204.114 44.561 204.972 45.2121 205.938 45.6586C206.904 46.1051 207.956 46.3363 209.02 46.3363C210.084 46.3363 211.136 46.1051 212.102 45.6586C213.068 45.2121 213.926 44.561 214.615 43.7504V43.7504Z" fill="black"/>
<path d="M257.661 48.3312C256.151 50.0458 254.263 51.3863 252.147 52.2472C250.031 53.108 247.744 53.4657 245.466 53.292C243.188 53.4657 240.901 53.108 238.784 52.2472C236.668 51.3863 234.781 50.0458 233.271 48.3312C230.665 44.9059 229.255 40.721 229.255 36.4174C229.255 32.1138 230.665 27.9288 233.271 24.5035C234.769 22.7703 236.653 21.4125 238.77 20.539C240.888 19.6656 243.181 19.3008 245.466 19.4741C247.75 19.3009 250.043 19.6656 252.161 20.539C254.279 21.4125 256.163 22.7703 257.661 24.5035C260.266 27.9288 261.677 32.1137 261.677 36.4173C261.677 40.7209 260.266 44.9059 257.661 48.3312V48.3312ZM251.026 43.7504C252.303 41.5129 252.976 38.9808 252.976 36.4042C252.976 33.8275 252.303 31.2954 251.026 29.058C250.333 28.2518 249.475 27.6047 248.509 27.1611C247.543 26.7176 246.493 26.4879 245.43 26.4879C244.367 26.4879 243.317 26.7176 242.351 27.1611C241.386 27.6047 240.527 28.2518 239.835 29.058C238.547 31.2921 237.869 33.8255 237.869 36.4042C237.869 38.9829 238.547 41.5163 239.835 43.7504C240.524 44.561 241.382 45.2121 242.348 45.6586C243.314 46.1051 244.366 46.3364 245.43 46.3364C246.494 46.3364 247.546 46.1051 248.512 45.6586C249.478 45.2121 250.336 44.561 251.026 43.7504V43.7504Z" fill="black"/>
<path d="M283.307 20.4607C285.417 21.3837 287.142 23.0077 288.19 25.0574V20.4925H296.282V50.5844C296.492 53.8042 295.775 57.0168 294.214 59.8411C291.847 63.4087 287.308 65.1925 280.595 65.1924C277.128 65.3419 273.689 64.5155 270.669 62.8071C269.429 62.0597 268.393 61.0181 267.651 59.7744C266.91 58.5308 266.487 57.1235 266.419 55.6773H275.443C275.582 56.4807 275.981 57.2165 276.577 57.7724C277.908 58.6518 279.499 59.052 281.088 58.907C282.272 59.0531 283.472 58.8466 284.538 58.3133C285.605 57.7801 286.49 56.9438 287.083 55.9094C287.878 53.8535 288.216 51.6493 288.073 49.4498V47.4128C287.43 48.5903 286.56 49.6289 285.513 50.4684C283.64 51.798 281.375 52.463 279.08 52.3577C277.234 52.4305 275.395 52.082 273.704 51.3386C272.012 50.5952 270.512 49.4765 269.317 48.0672C266.734 44.7609 265.436 40.6306 265.664 36.4409C265.519 32.2017 266.753 28.0299 269.18 24.5509C270.309 22.9808 271.813 21.7177 273.554 20.8762C275.295 20.0348 277.219 19.6417 279.151 19.7326C280.571 19.702 281.983 19.9494 283.307 20.4607ZM286.132 43.2066C287.636 41.1991 288.348 38.7079 288.132 36.2087C288.299 33.769 287.629 31.3453 286.234 29.3374C285.631 28.5719 284.857 27.9594 283.973 27.5495C283.089 27.1396 282.121 26.944 281.148 26.9785C279.836 26.9117 278.539 27.2772 277.455 28.0189C276.371 28.7606 275.561 29.8375 275.149 31.0843C274.523 32.808 274.227 34.6342 274.278 36.4673C274.247 38.1532 274.563 39.8275 275.207 41.3859C275.642 42.617 276.464 43.6738 277.551 44.3979C278.638 45.122 279.93 45.4743 281.233 45.402C282.161 45.4152 283.079 45.2256 283.926 44.8463C284.772 44.4671 285.525 43.9074 286.132 43.2065L286.132 43.2066Z" fill="black"/>
<path d="M312.492 52.2156H304.199V9.31506H312.492L312.492 52.2156Z" fill="black"/>
<path d="M341.257 21.1312C343.493 22.1444 345.394 23.7735 346.739 25.8281C348.069 27.7919 348.933 30.0338 349.265 32.3826C349.52 34.4709 349.612 36.576 349.54 38.6786H326.435C326.366 39.9859 326.634 41.2889 327.215 42.462C327.796 43.6351 328.67 44.6386 329.752 45.3757C331.131 46.202 332.718 46.6159 334.325 46.5684C335.621 46.669 336.917 46.3757 338.044 45.7268C339.17 45.078 340.075 44.1039 340.638 42.9322H349.107C348.723 45.123 347.645 47.1322 346.031 48.6635C344.49 50.2453 342.627 51.4772 340.567 52.2758C338.508 53.0743 336.301 53.4209 334.097 53.2919C330.029 53.3449 326.072 51.9621 322.923 49.3866C319.694 46.7848 318.08 42.5523 318.081 36.689C317.927 34.3962 318.234 32.0958 318.984 29.9239C319.735 27.752 320.914 25.7526 322.45 24.0442C323.941 22.5748 325.716 21.4266 327.667 20.6704C329.619 19.9143 331.704 19.5663 333.796 19.648C336.36 19.6092 338.903 20.1147 341.257 21.1312V21.1312ZM328.847 28.2979C327.605 29.6577 326.831 31.3796 326.638 33.2113H340.928C340.92 32.2692 340.721 31.3385 340.341 30.4764C339.961 29.6143 339.408 28.8389 338.718 28.1977C337.346 27.0397 335.594 26.4307 333.8 26.4878C332.894 26.4317 331.986 26.5636 331.134 26.8751C330.282 27.1866 329.503 27.6711 328.847 28.298L328.847 28.2979Z" fill="black"/>
<path d="M149.81 75.1053H158.629V92.7795L175.205 75.1053H186.787L169.184 92.7479L187.691 118.006H176.165L162.947 99.276L158.629 103.656V118.006H149.81V75.1053Z" fill="black"/>
<path d="M200.308 86.2831V105.403C200.236 106.791 200.453 108.178 200.944 109.477C201.346 110.286 201.986 110.951 202.779 111.383C203.571 111.815 204.477 111.994 205.374 111.895C206.577 111.998 207.783 111.722 208.821 111.106C209.86 110.49 210.68 109.564 211.166 108.459C211.765 106.891 212.041 105.218 211.978 103.54V86.2831H220.388V118.006H212.327V113.52C212.249 113.62 212.055 113.91 211.747 114.396C211.443 114.875 211.072 115.307 210.644 115.678C209.557 116.709 208.281 117.519 206.886 118.064C205.514 118.515 204.076 118.731 202.632 118.702C200.729 118.914 198.806 118.543 197.117 117.64C195.428 116.736 194.053 115.342 193.173 113.641C192.126 111.027 191.661 108.216 191.808 105.403V86.2831H200.308Z" fill="black"/>
<path d="M255.539 90.0929C258.024 93.4513 259.281 97.5611 259.098 101.735C259.267 106.09 258.036 110.385 255.586 113.989C254.567 115.622 253.15 116.968 251.468 117.903C249.786 118.837 247.894 119.329 245.97 119.331C244.045 119.334 242.152 118.847 240.467 117.918C238.782 116.988 237.362 115.645 236.338 114.016V118.005H228.159V75.163H236.454V90.4148C237.376 89.0651 238.562 87.9162 239.94 87.0372C241.672 86.0053 243.667 85.4992 245.682 85.5807C247.565 85.4949 249.442 85.8595 251.156 86.6443C252.87 87.429 254.373 88.6113 255.539 90.0929ZM248.604 109.419C249.885 107.385 250.51 105.007 250.396 102.606C250.454 100.706 250.155 98.812 249.515 97.0222C249.091 95.7429 248.259 94.6387 247.145 93.8803C246.031 93.1219 244.699 92.7516 243.353 92.8267C242.007 92.742 240.67 93.0965 239.543 93.8369C238.415 94.5773 237.559 95.6636 237.102 96.9325C236.456 98.7427 236.158 100.659 236.222 102.579C236.129 104.962 236.763 107.316 238.041 109.329C238.655 110.218 239.489 110.932 240.461 111.402C241.433 111.872 242.511 112.081 243.588 112.01C244.576 112.045 245.557 111.826 246.436 111.372C247.314 110.918 248.061 110.245 248.604 109.419H248.604Z" fill="black"/>
<path d="M285.533 86.9216C287.769 87.9348 289.671 89.5639 291.015 91.6185C292.345 93.5823 293.21 95.8242 293.542 98.173C293.797 100.261 293.889 102.366 293.816 104.469H270.711C270.642 105.776 270.911 107.079 271.492 108.252C272.073 109.425 272.946 110.429 274.028 111.166C275.407 111.992 276.994 112.406 278.601 112.359C279.897 112.459 281.194 112.166 282.32 111.517C283.447 110.868 284.351 109.894 284.914 108.723H293.383C292.999 110.913 291.921 112.923 290.308 114.454C288.766 116.036 286.903 117.268 284.844 118.066C282.784 118.865 280.578 119.211 278.373 119.082C274.305 119.135 270.348 117.752 267.199 115.177C263.971 112.575 262.357 108.343 262.357 102.479C262.203 100.187 262.51 97.8862 263.261 95.7143C264.011 93.5424 265.19 91.543 266.727 89.8347C268.217 88.3652 269.992 87.217 271.944 86.4608C273.895 85.7047 275.981 85.3567 278.072 85.4384C280.636 85.3996 283.179 85.9051 285.533 86.9216V86.9216ZM273.123 94.0884C271.881 95.4481 271.107 97.17 270.914 99.0017H285.204C285.197 98.0596 284.997 97.1289 284.617 96.2668C284.237 95.4047 283.685 94.6293 282.995 93.9881C281.622 92.8301 279.87 92.2211 278.076 92.2782C277.17 92.2221 276.263 92.354 275.41 92.6655C274.558 92.977 273.779 93.4615 273.123 94.0884L273.123 94.0884Z" fill="black"/>
<path d="M315.633 85.5382C315.739 85.5488 315.979 85.5646 316.346 85.5804V94.0824C315.823 94.0243 315.356 93.9821 314.95 93.9611C314.541 93.9452 314.211 93.9347 313.96 93.9347C312.644 93.7726 311.31 93.9941 310.117 94.5727C308.924 95.1513 307.924 96.0623 307.237 97.196C306.489 98.9802 306.161 100.912 306.276 102.843V118.005H297.922V86.2825H305.839V91.808C306.722 90.1977 307.851 88.7356 309.187 87.4752C310.904 86.1168 313.053 85.4234 315.24 85.5225C315.396 85.5224 315.525 85.5276 315.633 85.5382Z" fill="black"/>
<path d="M346.788 88.0985C347.914 89.1984 348.779 90.5373 349.318 92.0162C349.857 93.4951 350.056 95.0762 349.902 96.6427V118.006H341.405V98.7061C341.471 97.392 341.244 96.0797 340.741 94.8641C340.301 94.0423 339.627 93.3706 338.803 92.9352C337.979 92.4998 337.044 92.3206 336.118 92.4207C334.903 92.3292 333.69 92.6273 332.656 93.2717C331.623 93.916 330.821 94.8731 330.368 96.004C329.78 97.544 329.506 99.1856 329.56 100.833V118.006H321.264V86.341H329.299V90.9641C330.102 89.6323 331.121 88.4429 332.313 87.444C334.196 86.108 336.468 85.4325 338.775 85.523C341.667 85.4017 344.508 86.3148 346.788 88.0985V88.0985Z" fill="black"/>
<path d="M378.289 86.9216C380.525 87.9348 382.426 89.564 383.77 91.6185C385.1 93.5825 385.965 95.8243 386.298 98.173C386.553 100.261 386.644 102.366 386.57 104.469H363.465C363.396 105.776 363.666 107.08 364.247 108.253C364.828 109.426 365.702 110.429 366.785 111.166C368.163 111.992 369.749 112.406 371.355 112.359C372.651 112.46 373.948 112.166 375.075 111.518C376.201 110.869 377.106 109.894 377.669 108.723H386.137C385.754 110.913 384.676 112.923 383.063 114.454C381.521 116.036 379.658 117.267 377.599 118.066C375.54 118.865 373.333 119.211 371.128 119.082C367.06 119.135 363.103 117.753 359.953 115.177C356.726 112.575 355.113 108.343 355.114 102.479C354.959 100.187 355.267 97.8862 356.017 95.7143C356.768 93.5424 357.946 91.543 359.483 89.8347C360.973 88.3653 362.748 87.217 364.7 86.4608C366.651 85.7047 368.736 85.3567 370.827 85.4384C373.391 85.3997 375.935 85.9053 378.289 86.9216V86.9216ZM365.88 94.0884C364.636 95.4475 363.862 97.1697 363.671 99.0017H377.96C377.953 98.0596 377.753 97.1289 377.373 96.2668C376.993 95.4046 376.441 94.6292 375.751 93.9881C374.378 92.8303 372.625 92.2213 370.83 92.2782C369.925 92.222 369.017 92.3538 368.165 92.6653C367.313 92.9768 366.535 93.4613 365.88 94.0884H365.88Z" fill="black"/>
<path d="M387.504 92.4785V86.5731H391.929V77.7228H400.138V86.5731H405.289V92.4785H400.138V109.245C400.024 110.087 400.198 110.942 400.632 111.673C401.573 112.12 402.624 112.287 403.658 112.153C403.912 112.153 404.178 112.147 404.46 112.142C404.74 112.132 405.017 112.116 405.289 112.095V118.296L401.36 118.438C399.953 118.66 398.515 118.594 397.134 118.244C395.752 117.894 394.457 117.267 393.325 116.401C392.3 115.178 391.799 113.6 391.929 112.01V92.4785L387.504 92.4785Z" fill="black"/>
<path d="M431.288 86.9216C433.524 87.9348 435.425 89.564 436.769 91.6185C438.099 93.5825 438.964 95.8243 439.297 98.173C439.551 100.261 439.643 102.366 439.571 104.469H416.467C416.397 105.776 416.665 107.08 417.246 108.253C417.827 109.426 418.701 110.429 419.783 111.166C421.162 111.993 422.749 112.407 424.356 112.359C425.652 112.459 426.948 112.166 428.075 111.517C429.201 110.868 430.105 109.894 430.668 108.723H439.138C438.753 110.913 437.675 112.922 436.062 114.454C434.52 116.036 432.657 117.268 430.598 118.066C428.538 118.865 426.332 119.211 424.127 119.082C420.058 119.135 416.102 117.752 412.952 115.177C409.725 112.575 408.111 108.343 408.112 102.479C407.958 100.187 408.265 97.8862 409.016 95.7143C409.767 93.5424 410.945 91.543 412.482 89.8347C413.972 88.3653 415.747 87.217 417.698 86.4608C419.649 85.7047 421.735 85.3567 423.826 85.4384C426.39 85.3995 428.934 85.905 431.288 86.9216V86.9216ZM418.878 94.0884C417.636 95.4481 416.862 97.17 416.67 99.0017H430.958C430.951 98.0596 430.752 97.1289 430.372 96.2668C429.992 95.4046 429.44 94.6292 428.75 93.9881C427.377 92.8299 425.624 92.2208 423.829 92.2782C422.923 92.2222 422.016 92.3541 421.164 92.6657C420.312 92.9772 419.534 93.4616 418.878 94.0884V94.0884Z" fill="black"/>
<path d="M450.197 107.878C450.242 109.018 450.641 110.115 451.337 111.018C452.135 111.662 453.052 112.14 454.036 112.426C455.02 112.711 456.051 112.798 457.069 112.681C458.409 112.74 459.745 112.491 460.974 111.952C461.38 111.771 461.729 111.482 461.983 111.117C462.237 110.752 462.387 110.325 462.415 109.881C462.444 109.437 462.351 108.994 462.146 108.599C461.942 108.204 461.633 107.873 461.254 107.641C458.447 106.536 455.542 105.698 452.578 105.139C449.812 104.635 447.203 103.489 444.96 101.793C444.197 101.062 443.603 100.172 443.221 99.1861C442.838 98.2005 442.676 97.1432 442.746 96.0884C442.74 94.6542 443.046 93.2359 443.643 91.9319C444.24 90.6278 445.113 89.4692 446.202 88.5364C448.926 86.2864 452.403 85.1579 455.929 85.3804C459.321 85.2321 462.685 86.0541 465.626 87.7501C466.941 88.6769 468.017 89.9028 468.765 91.3268C469.513 92.7508 469.912 94.3322 469.93 95.9407H461.636C461.576 95.0302 461.262 94.1547 460.731 93.4128C460.13 92.7977 459.398 92.3264 458.589 92.034C457.78 91.7415 456.916 91.6356 456.061 91.724C454.716 91.6099 453.369 91.9042 452.195 92.5684C451.854 92.777 451.57 93.067 451.369 93.4124C451.167 93.7579 451.055 94.1478 451.042 94.5474C451.019 94.9739 451.123 95.3976 451.341 95.7649C451.559 96.1322 451.881 96.4266 452.266 96.6109C455.083 97.6213 457.98 98.3911 460.926 98.9118C463.669 99.4139 466.231 100.628 468.357 102.432C469.157 103.203 469.787 104.131 470.208 105.159C470.629 106.187 470.832 107.291 470.803 108.401C470.842 109.867 470.545 111.323 469.936 112.657C469.327 113.991 468.421 115.169 467.288 116.101C464.127 118.333 460.283 119.388 456.425 119.082C452.475 119.402 448.543 118.279 445.358 115.921C444.203 114.93 443.282 113.694 442.664 112.303C442.046 110.911 441.746 109.4 441.785 107.878L450.197 107.878Z" fill="black"/>
<path d="M525.868 82.6997H503.167V91.8086H524.005V99.2604H503.167V110.29H526.916V118.006H494.407V75.1053H525.868V82.6997Z" fill="black"/>
<path d="M558.813 88.0981C559.939 89.1978 560.804 90.5366 561.343 92.0155C561.883 93.4944 562.083 95.0757 561.929 96.6423V118.005H553.43V98.7058C553.495 97.3916 553.268 96.0793 552.765 94.8638C552.326 94.0423 551.651 93.3707 550.828 92.9353C550.005 92.4999 549.07 92.3206 548.144 92.4203C546.929 92.3285 545.716 92.6264 544.682 93.2707C543.647 93.9151 542.845 94.8724 542.392 96.0037C541.804 97.5436 541.53 99.1853 541.584 100.833V118.005H533.288V86.3407H541.323V90.9637C542.126 89.632 543.145 88.4425 544.337 87.4437C546.22 86.108 548.492 85.4326 550.799 85.5227C553.691 85.4005 556.533 86.3137 558.813 88.0981V88.0981Z" fill="black"/>
<path d="M585.334 86.2511C587.444 87.174 589.169 88.798 590.219 90.8478V86.2829H598.309V116.375C598.52 119.595 597.803 122.807 596.243 125.631C593.876 129.199 589.335 130.983 582.622 130.983C579.156 131.132 575.717 130.306 572.697 128.598C571.457 127.85 570.42 126.809 569.679 125.565C568.937 124.321 568.514 122.914 568.447 121.468H577.471C577.609 122.272 578.008 123.008 578.606 123.563C579.937 124.443 581.529 124.843 583.118 124.697C584.301 124.843 585.501 124.636 586.568 124.103C587.634 123.57 588.52 122.734 589.113 121.7C589.907 119.644 590.243 117.44 590.1 115.24V113.203C589.458 114.381 588.588 115.42 587.54 116.259C585.667 117.588 583.402 118.253 581.107 118.148C579.261 118.221 577.422 117.872 575.731 117.129C574.039 116.385 572.539 115.267 571.344 113.857C568.761 110.551 567.464 106.421 567.692 102.231C567.547 97.9921 568.78 93.8203 571.207 90.3411C572.336 88.7711 573.84 87.508 575.581 86.6665C577.322 85.8251 579.246 85.432 581.178 85.5228C582.598 85.4923 584.01 85.7397 585.334 86.2511V86.2511ZM588.16 108.997C589.664 106.989 590.376 104.498 590.161 101.999C590.328 99.5592 589.657 97.1353 588.261 95.1278C587.658 94.3623 586.884 93.7496 586.001 93.3397C585.117 92.9298 584.149 92.7343 583.176 92.7689C581.864 92.7022 580.567 93.0678 579.483 93.8095C578.399 94.5511 577.588 95.628 577.175 96.8747C576.55 98.5984 576.254 100.425 576.305 102.258C576.275 103.944 576.591 105.618 577.233 107.176C577.669 108.407 578.491 109.464 579.578 110.188C580.664 110.912 581.956 111.265 583.26 111.192C584.188 111.206 585.107 111.016 585.953 110.637C586.8 110.258 587.553 109.698 588.16 108.997L588.16 108.997Z" fill="black"/>
<path d="M614.577 82.4987H606.167V74.8411H614.577V82.4987ZM606.167 86.2827H614.577V118.005H606.167V86.2827Z" fill="black"/>
<path d="M648.191 88.0981C649.318 89.1978 650.183 90.5366 650.722 92.0156C651.261 93.4945 651.462 95.0757 651.308 96.6424V118.006H642.808V98.7058C642.875 97.3919 642.649 96.0796 642.146 94.8638C641.707 94.0422 641.032 93.3707 640.208 92.9354C639.384 92.5 638.449 92.3206 637.523 92.4203C636.308 92.3282 635.095 92.626 634.061 93.2704C633.027 93.9149 632.226 94.8724 631.773 96.0037C631.183 97.543 630.908 99.185 630.963 100.833V118.005H622.67V86.3407H630.702V90.9637C631.506 89.6326 632.524 88.4433 633.715 87.4437C635.599 86.1084 637.871 85.433 640.178 85.5227C643.07 85.4005 645.912 86.3137 648.191 88.0981V88.0981Z" fill="black"/>
<path d="M679.693 86.9216C681.929 87.9341 683.83 89.5634 685.173 91.6185C686.505 93.582 687.369 95.824 687.701 98.173C687.957 100.261 688.049 102.366 687.976 104.469H664.871C664.802 105.776 665.07 107.079 665.651 108.252C666.232 109.425 667.106 110.429 668.188 111.166C669.567 111.992 671.154 112.406 672.761 112.359C674.057 112.46 675.353 112.167 676.48 111.518C677.606 110.869 678.51 109.895 679.073 108.723H687.543C687.159 110.914 686.08 112.923 684.466 114.454C682.925 116.036 681.062 117.268 679.004 118.066C676.945 118.865 674.738 119.211 672.534 119.082C668.466 119.135 664.509 117.752 661.359 115.177C658.132 112.575 656.518 108.343 656.517 102.479C656.363 100.187 656.67 97.8862 657.42 95.7143C658.171 93.5424 659.35 91.543 660.886 89.8347C662.377 88.3652 664.153 87.217 666.104 86.4608C668.056 85.7047 670.142 85.3567 672.233 85.4384C674.796 85.3997 677.339 85.9053 679.693 86.9216V86.9216ZM667.283 94.0884C666.041 95.4481 665.267 97.17 665.074 99.0017H679.363C679.356 98.0596 679.156 97.1289 678.776 96.2668C678.396 95.4046 677.845 94.6292 677.154 93.9881C675.782 92.8303 674.03 92.2213 672.236 92.2782C671.33 92.222 670.422 92.3538 669.57 92.6653C668.717 92.9768 667.939 93.4613 667.283 94.0884H667.283Z" fill="black"/>
</g>
<defs>
<clipPath id="clip0_6029_26129">
<rect width="688" height="131" fill="white"/>
</clipPath>
</defs>
</svg>
