<?xml version="1.0" encoding="utf-8"?>
<!-- Generator: Adobe Illustrator 26.1.0, SVG Export Plug-In . SVG Version: 6.00 Build 0)  -->
<svg version="1.1" id="Layer_1" xmlns="http://www.w3.org/2000/svg" xmlns:xlink="http://www.w3.org/1999/xlink" x="0px" y="0px"
	 viewBox="0 0 820 330" style="enable-background:new 0 0 820 330;" xml:space="preserve">
<style type="text/css">
	.st0{fill:#FFFFFF;}
	.st1{fill:none;}
</style>
<path class="st0" d="M17.8,251.7c-0.1-0.4-0.1-0.9-0.1-1.3C17.7,250.8,17.8,251.3,17.8,251.7z M194.1,252.7c0,0.2-0.1,0.4-0.1,0.6
	C193.9,253.1,194,252.9,194.1,252.7z M181.1,270.9l10.8-13.4c0.5-0.7,0.9-1.4,1.3-2.2c-0.4,0.8-0.8,1.5-1.3,2.2L181.1,270.9z"/>
<path class="st1" d="M103.1,255.2c0-0.2,0-0.4,0-0.6c0,0,0-0.1,0-0.1c0-0.1,0-0.1,0-0.2c0-0.2-0.1-0.4-0.1-0.6
	c-0.7-2.3-2.9-3.7-5.3-3.5c-0.6,0.1-1.3,0.3-1.8,0.6c-0.9,0.5-1.6,1.2-2.1,2.1l-4,7.6l-28.2-59.9h17.9l16.4,30.4l0.2-0.1l5.5-10.3
	l-16.1-29.9l-0.1-0.1H44.7l17.1,34.9l3,6.1l0.8,1.6l3.1,6.4l5.3,10.8l15.5,31.4l0,0l0.1-0.2l0,0l5.6-10.4l7.3-13.7
	c0.3-0.6,0.5-1.2,0.6-1.9C103.1,255.5,103.1,255.4,103.1,255.2L103.1,255.2z M119.9,226.8c0.1-0.3,0.3-0.6,0.4-0.8
	c0.1-0.2,0.1-0.4,0.1-0.5c0-0.1,0-0.2,0.1-0.3c0-0.1,0-0.1,0-0.2c0.1-0.6,0-1.3-0.2-1.9l-0.9-1.7c-0.4-0.5-1-0.9-1.6-1.3
	c-0.6-0.3-1.2-0.5-1.9-0.6c-2-0.2-4,0.9-4.9,2.7l-7.5,14.1c-0.6,1.2-0.7,2.6-0.3,3.9c0.1,0.3,0.2,0.6,0.4,0.9l0,0
	c1.3,2.4,4.4,3.3,6.8,2c0.2-0.1,0.4-0.2,0.6-0.4c0.6-0.5,1.1-1,1.5-1.7L119.9,226.8L119.9,226.8z M119.5,212.7
	c0.2,0.2,0.4,0.4,0.6,0.6c0,0,0.1,0.1,0.1,0.1c0.3,0.2,0.5,0.4,0.8,0.5c0.5,0.2,1,0.4,1.6,0.5c2.1,0.4,4.3-0.7,5.2-2.6l7.5-14.1
	c0.3-0.6,0.5-1.3,0.6-1.9c0,0,0,0,0,0c0.1-1.7-0.6-3.4-2-4.4c-0.2-0.2-0.4-0.3-0.7-0.4c-0.7-0.4-1.5-0.6-2.3-0.6h-3.1l-8.8,16.8
	C118,208.9,118.2,211,119.5,212.7C119.4,212.6,119.4,212.6,119.5,212.7z M153.2,210.1c-1.8-0.9-4-0.6-5.5,0.7
	c-0.5,0.4-0.9,0.9-1.2,1.5v0.1l-7.1,14.3c-1,2.1-0.5,4.7,1.4,6.1c0,0,0,0,0.1,0c0.3,0.2,0.5,0.4,0.8,0.5c0.2,0.1,0.5,0.2,0.7,0.3
	c0.1,0,0.2,0.1,0.2,0.1c0.1,0,0.3,0.1,0.4,0.1c0.1,0,0.2,0,0.3,0c0.1,0,0.2,0,0.3,0c0,0,0.1,0,0.1,0c0,0,0,0,0,0c0,0,0,0,0,0
	c0,0,0,0,0,0c0.2,0,0.5,0,0.7,0c0.1,0,0.2,0,0.4-0.1c0.2,0,0.3-0.1,0.5-0.1c0.2-0.1,0.4-0.1,0.6-0.2c0.1,0,0.1,0,0.2-0.1
	c0.2-0.1,0.4-0.2,0.6-0.3c0.4-0.2,0.7-0.5,1-0.8l0,0c0.3-0.3,0.6-0.7,0.8-1.1l3-6.3l1.9-3.8l0.1-0.1l2.1-4.2c1.3-2.4,0.4-5.3-2-6.6
	C153.4,210.2,153.3,210.1,153.2,210.1z M122.8,269.3c-0.9-0.4-2-0.4-3-0.2c-0.1,0-0.3,0.1-0.4,0.1c0,0-0.1,0-0.1,0.1
	c-1.1,0.4-2.1,1.2-2.7,2.2l-3.6,7.2c-0.1,0.3-0.2,0.5-0.3,0.8c0,0,0,0,0,0c0,0,0,0.1,0,0.1c-0.4,1.6,0.1,3.3,1.2,4.5
	c0.4,0.5,0.9,0.9,1.5,1.2c0,0,0,0,0.1,0c0.1,0.1,0.3,0.1,0.4,0.2c1.9,0.7,4,0.3,5.4-1.2c0,0,0.1-0.1,0.1-0.1
	c0.3-0.3,0.6-0.7,0.8-1.1l3.5-7.3l0,0c0-0.1,0-0.1,0.1-0.2c0-0.1,0-0.1,0.1-0.2l0,0c0.2-0.5,0.2-0.9,0.3-1.4
	C126.2,272,124.9,270,122.8,269.3z M138.4,239.6c-0.6-0.3-1.3-0.5-2-0.5c-0.3,0-0.7,0-1,0.1c-1.7,0.2-3.1,1.2-3.8,2.7l-3.6,7.1
	l-3.5,7.1c-1.2,2.5-0.2,5.5,2.3,6.7c0,0,0,0,0,0c0.9,0.4,1.8,0.6,2.8,0.5c0.2,0,0.3,0,0.5-0.1c0.1,0,0.1,0,0.2,0
	c0.4-0.1,0.8-0.2,1.2-0.4c0.4-0.2,0.8-0.5,1.2-0.9c0,0,0.1-0.1,0.1-0.1c0.3-0.3,0.6-0.7,0.9-1.2l5.2-10.8l0,0l0,0l1.8-3.5
	c0.1-0.2,0.1-0.4,0.2-0.6c0-0.1,0.1-0.2,0.1-0.3C141.6,243.2,140.6,240.7,138.4,239.6z M168.4,191.1h-20.8l0,0h-0.1
	c-0.3,0-0.7,0-1,0.1c-1,0.2-1.8,0.7-2.5,1.3l-1.4,3.5c0,2.7,2.2,5,4.9,5c0,0,0.1,0,0.1,0h6l0,0c0.1,0.5,0.3,0.9,0.5,1.4
	c0.1,0.1,0.1,0.2,0.2,0.3c0.1,0.2,0.3,0.4,0.4,0.6c0,0,0,0.1,0.1,0.1c1.2,1.3,3,1.8,4.7,1.5c0.1,0,0.1,0,0.2,0c1-0.2,2-0.8,2.7-1.5
	l0,0c0.2-0.3,0.5-0.6,0.6-0.9l0.1-0.1l0.4-1.1l0.1-0.3l0.3-0.5l1.2-2.3l0.2-0.5l3.4-6.6C168.6,191.1,168.4,191.1,168.4,191.1z"/>
<path class="st0" d="M105.8,143.8c-1.3,0-2.6,0-3.9,0.2c-0.4,0-0.8,0.1-1.2,0.2c0.5-0.1,0.9-0.1,1.3-0.2
	C103.3,143.8,104.6,143.8,105.8,143.8z M300.9,257.7c-4.3-4.7-8.8-9.2-13.4-13.4c-4.1-3.8-8.4-7.4-13-10.6
	c3.5-3.5,7.3-7.2,11.3-11.2s8-8.1,12-12.2c4.1-4.2,8-8.2,11.7-12.2s7-7.6,10-10.8h-16.8c-2.4,2.8-5.3,6-8.8,9.7
	c-3.5,3.7-7.2,7.5-11.1,11.5s-7.9,7.9-11.9,11.9s-7.7,7.6-11,10.7v-43.8H246v99.2h13.9v-47c4.4,2.7,8.5,5.7,12.4,9
	c4.4,3.6,8.6,7.5,12.6,11.5c4.1,4.1,8.1,8.5,11.8,13c3.6,4.3,6.9,8.8,9.9,13.5h16.3c-2.8-5-6-9.7-9.6-14.2
	C309.4,267.3,305.2,262.5,300.9,257.7z M378.4,212.1V275c-0.8,0.3-1.6,0.4-2.4,0.5c-1,0.1-2.3,0.3-3.6,0.4c-1.3,0.2-2.8,0.3-4.3,0.4
	c-1.5,0.1-3,0.1-4.4,0.1c-6.7,0-11.5-2-14.4-5.9c-2.9-4-4.3-10.4-4.3-19.5v-38.9h-13.3v41.7c0,4.6,0.5,9.3,1.6,13.8
	c0.9,3.9,2.6,7.6,5.1,10.8c2.4,3.2,5.7,5.6,9.4,7.1c4.6,1.8,9.5,2.6,14.4,2.5c5.8,0,11.6-0.4,17.4-1.3c5-0.8,9-1.6,12.1-2.4v-72.2
	H378.4z M470.5,221.3c-2.8-3.4-6.4-6.2-10.5-8c-4.5-2-9.3-3-14.2-2.9c-3.9-0.1-7.7,0.5-11.4,1.7c-2.6,0.8-5.1,1.9-7.4,3.3l0.1-39.9
	l-13.3,2.3v106.4c3,0.9,6.9,1.7,11.7,2.6c5.4,0.9,11,1.4,16.5,1.3c5.3,0.1,10.5-0.8,15.4-2.7c4.4-1.7,8.4-4.3,11.7-7.7
	c3.3-3.5,5.9-7.6,7.5-12.2c1.8-5.2,2.7-10.7,2.6-16.2c0.1-5.3-0.7-10.6-2.2-15.7C475.7,229.1,473.4,224.9,470.5,221.3L470.5,221.3z
	 M458.9,269.4c-4.3,4.7-10,7.1-17.2,7.1c-3,0-6.1-0.1-9.1-0.5c-1.9-0.3-3.8-0.6-5.6-1.1l0.1-47c2.1-1.7,4.5-3,7-3.9
	c3.2-1.3,6.6-1.9,10-1.9c3.4-0.1,6.8,0.6,9.8,2.1c2.6,1.3,4.9,3.3,6.6,5.7c1.8,2.6,3,5.6,3.7,8.7c0.7,3.5,1.1,7.1,1.1,10.7
	C465.3,258,463.1,264.7,458.9,269.4z M526.8,210.3c-4.3,0-8.6,0.8-12.6,2.4c-4.1,1.6-7.8,4.1-10.9,7.3c-3.3,3.5-5.9,7.7-7.6,12.2
	c-2,5.5-2.9,11.3-2.8,17.2c-0.1,5.3,0.6,10.5,2.3,15.5c1.4,4.5,3.7,8.7,6.8,12.2c3.2,3.6,7.2,6.3,11.6,8.1c5.4,2,11.1,3,16.8,2.9
	c4.6,0.1,9.3-0.4,13.8-1.4c2.9-0.6,5.8-1.5,8.5-2.7l-1.9-11.1c-2.3,1-4.7,1.8-7.2,2.4c-3.9,0.9-7.8,1.3-11.8,1.2
	c-8.3,0-14.4-2-18.3-6c-3.9-4-6.1-9.9-6.7-17.6h51v-4.7c0-12.7-2.7-22.3-8-28.5C544.5,213.4,536.8,210.3,526.8,210.3L526.8,210.3z
	 M507.1,242.2c0.3-2.6,0.9-5.1,1.8-7.6c0.9-2.4,2.2-4.6,3.8-6.6c1.6-2,3.6-3.6,5.9-4.7c2.5-1.2,5.3-1.9,8.1-1.8
	c5.4,0,9.7,1.9,12.8,5.8c3.1,3.9,4.6,8.8,4.5,14.8L507.1,242.2z M627.2,230.9c-5,14-10.1,27-15.3,39.1
	c-5.2-12.2-10.3-25.3-15.3-39.2s-10.1-28.4-15.2-43.5h-15.3c3.5,10.5,7,20.2,10.3,29.1c3.3,8.9,6.6,17.4,9.8,25.4s6.3,15.7,9.4,23
	c3.1,7.3,6.3,14.5,9.5,21.7h13c3.2-7.1,6.4-14.4,9.5-21.7c3.1-7.3,6.3-15,9.4-23c3.2-8,6.4-16.5,9.7-25.4
	c3.2-8.9,6.7-18.6,10.3-29.1l-14.8,0.1C637.2,202.4,632.2,216.9,627.2,230.9L627.2,230.9z M669.6,183.4c-1.7,1.7-2.6,4-2.5,6.4
	c-0.1,2.4,0.8,4.7,2.5,6.4c1.6,1.6,3.8,2.4,6.1,2.4c2.3,0.1,4.5-0.8,6.1-2.4c1.7-1.7,2.6-4,2.5-6.4c0.1-2.4-0.8-4.7-2.5-6.4
	C678.3,180.2,673,180.2,669.6,183.4L669.6,183.4z M669,212.1h13.3v74.3H669V212.1z M740.1,211.3c-1.5-0.3-2.9-0.5-4.4-0.6
	c-1.4-0.1-2.8-0.2-3.9-0.2c-5.3,0-10.6,0.5-15.8,1.5c-4,0.8-7.9,1.9-11.7,3.2v71.3h13.3V224c0.8-0.2,2.4-0.6,4.8-1.1
	c2.4-0.5,4.9-0.8,7.4-0.8c5-0.2,9.9,0.6,14.6,2.1l2.3-11.6L744,212C742.8,211.8,741.5,211.5,740.1,211.3L740.1,211.3z M799.8,273
	c-1,0.4-2.7,1-5.1,1.9c-3.1,1.1-6.4,1.5-9.7,1.4c-2,0-4.1-0.3-6-0.9c-1.7-0.5-3.2-1.5-4.3-2.9c-1.3-1.7-2.2-3.6-2.6-5.7
	c-0.7-3-1-6.1-0.9-9.2v-34.3h28.2v-11.2h-28.2l0.3-23.1l-13.3,2.3v66.4c-0.1,4.4,0.3,8.8,1.2,13.1c0.6,3.5,2.1,6.7,4.2,9.5
	c2.1,2.6,4.8,4.6,7.9,5.8c4,1.4,8.3,2,12.5,1.9c3.9,0.1,7.7-0.4,11.4-1.5c2.4-0.7,4.7-1.5,7-2.5L799.8,273z M174.6,175.7
	c-0.6-0.5-1.3-1-2.1-1.4C173.1,174.7,173.8,175.2,174.6,175.7z M108.9,144.1c0.4,0.1,0.9,0.2,1.3,0.4
	C109.8,144.3,109.4,144.2,108.9,144.1z"/>
<path class="st0" d="M108.9,144.1c0.5,0.1,0.9,0.3,1.3,0.4C109.8,144.3,109.4,144.2,108.9,144.1z M37.6,174.8
	c0.4-0.3,0.8-0.5,1.2-0.7C38.4,174.3,38,174.5,37.6,174.8z M34.5,177.9c-0.7,1.1-1.2,2.3-1.5,3.5l0.6-1.8
	C33.9,179,34.2,178.4,34.5,177.9z M35.9,176.3c-0.4,0.5-0.8,0.9-1.1,1.5c0.6-0.9,1.3-1.6,2.1-2.3l0,0
	C36.6,175.6,36.3,175.9,35.9,176.3L35.9,176.3z"/>
<path class="st0" d="M33.1,181.4c0.1-0.6,0.3-1.2,0.6-1.7c-0.1,0.2-0.2,0.4-0.3,0.7C33.3,180.7,33.2,181.1,33.1,181.4z"/>
<path class="st0" d="M33.4,180.3c0.1-0.2,0.2-0.4,0.3-0.7c0.1-0.3,0.3-0.7,0.5-1c0.2-0.3,0.4-0.6,0.6-1c0.3-0.5,0.7-1,1.1-1.5
	C34.8,177.4,34,178.8,33.4,180.3z M36.9,175.4L36.9,175.4c-0.3,0.3-0.6,0.6-0.9,0.9C36.3,175.9,36.6,175.6,36.9,175.4z M33.3,180.7
	c-0.1,0.2-0.1,0.4-0.2,0.7c0.1-0.4,0.2-0.7,0.3-1.1C33.4,180.5,33.4,180.6,33.3,180.7z"/>
<path class="st0" d="M33.3,180.7c0-0.1,0.1-0.3,0.1-0.4c0.5-1.5,1.4-2.9,2.5-4.1l0,0c0.3-0.3,0.6-0.6,0.9-0.9l0,0
	C35.1,176.7,33.9,178.6,33.3,180.7z M181.1,270.8l10.8-13.4l-16.1,20L181.1,270.8z M194,252.5c0,0.1,0,0.2,0,0.3l0,0
	C194,252.7,194.1,252.6,194,252.5c0.1-0.3,0.1-0.5,0.2-0.8c0,0,0-0.1,0-0.1C194.2,251.9,194.1,252.2,194,252.5z M194.4,249.2
	c0-0.1,0-0.1,0-0.2c0-0.4,0-0.8-0.1-1.2C194.4,248.3,194.4,248.8,194.4,249.2z M175.9,176.8c1.1,1.1,2,2.4,2.7,3.8
	c0.1,0.4,0.3,0.8,0.4,1.2c-0.1-0.4-0.3-0.8-0.4-1.2c0.2,0.4,0.3,0.8,0.4,1.2l15.4,65.8l-15.4-65.9c-0.1-0.4-0.2-0.8-0.4-1.2
	C177.9,179.1,177,177.8,175.9,176.8l-0.1,0.1l0,0L175.9,176.8z"/>
<path class="st0" d="M194.4,247.8l0-0.2l-15.4-65.8l15.3,65.8c0.1,0.9,0.1,1.7,0.1,2.6c0,0.3,0,0.6-0.1,0.9l0,0
	c0.1-0.6,0.1-1.3,0.1-1.9C194.4,248.8,194.4,248.3,194.4,247.8L194.4,247.8z M194.2,251.7c0-0.1,0-0.1,0-0.2c0,0,0,0.1,0,0.1
	C194.2,251.7,194.2,251.7,194.2,251.7z M193.9,253.1c0-0.1,0.1-0.2,0.1-0.3l0,0C194,252.9,194,253,193.9,253.1z"/>
<path class="st0" d="M194.2,247.6l-15.3-65.8c-0.1-0.4-0.3-0.8-0.4-1.2c-0.7-1.4-1.6-2.7-2.7-3.8l-0.1,0.1c1.1,1.1,2,2.4,2.7,3.8
	c0.2,0.4,0.3,0.8,0.4,1.2l15.3,66c0.1,0.9,0.1,1.7,0.1,2.6c-0.1,0.8-0.2,1.5-0.3,2.3c0,0.2-0.1,0.4-0.1,0.6c-0.1,0.4-0.2,0.7-0.3,1
	c0.2-0.4,0.3-0.9,0.4-1.3c0-0.1,0.1-0.2,0.1-0.3l0,0c0,0,0,0,0,0c0-0.1,0-0.2,0-0.3c0.1-0.3,0.1-0.6,0.2-0.9c0,0,0-0.1,0-0.1
	c0-0.1,0-0.2,0-0.3c0,0,0-0.1,0-0.1c0-0.3,0.1-0.6,0.1-0.9C194.4,249.3,194.3,248.5,194.2,247.6z"/>
<path class="st0" d="M178.9,181.8c-0.1-0.4-0.2-0.8-0.4-1.2C178.7,181,178.9,181.4,178.9,181.8z M194.3,247.8L194.3,247.8l0-0.2
	L194.3,247.8L194.3,247.8z M194,252.8L194,252.8L194,252.8L194,252.8z M194,252.8C194,252.8,194,252.8,194,252.8L194,252.8
	L194,252.8C194,252.8,194,252.8,194,252.8z"/>
<path class="st0" d="M179.1,181.6c-0.1-0.4-0.3-0.8-0.4-1.2c-0.7-1.4-1.6-2.7-2.7-3.8l-0.1,0.1c1.1,1.1,2,2.4,2.7,3.8
	c0.2,0.4,0.3,0.8,0.4,1.2l15.4,65.9l0,0.2l0,0c0,0.4,0.1,0.8,0.1,1.2c0-0.5,0-0.9-0.1-1.4L179.1,181.6z"/>
<path class="st0" d="M193.9,252.8c0.1-0.8,0.2-1.5,0.3-2.3c0-0.9,0-1.7-0.1-2.6l-15.3-66c-0.1-0.4-0.2-0.8-0.4-1.2
	c-0.6-1.4-1.6-2.7-2.7-3.8l0,0c0,0,0,0,0,0l0.1-0.2l0,0c-0.4-0.4-0.8-0.7-1.2-1c-0.6-0.5-1.3-1-2.1-1.4l-61.6-29.5l-0.6-0.3
	c-0.4-0.2-0.9-0.3-1.3-0.4c-0.1,0-0.2,0-0.3,0c-0.3,0-0.7-0.1-1-0.2c-0.6-0.1-1.3-0.1-1.9-0.1c-1.3,0-2.5,0-3.8,0.2
	c-0.4,0.1-0.8,0.1-1.3,0.2l-61.5,29.7c-0.1,0.1-0.3,0.1-0.4,0.2c-0.4,0.2-0.8,0.5-1.2,0.7c-0.2,0.1-0.3,0.3-0.5,0.4
	c-0.1,0-0.1,0.1-0.2,0.2h0c0,0,0,0-0.1,0.1c-0.8,0.7-1.5,1.4-2.1,2.3c-0.2,0.3-0.4,0.6-0.6,1c-0.2,0.3-0.3,0.7-0.5,1
	c-0.2,0.6-0.4,1.1-0.6,1.7c0-0.2,0.1-0.5,0.2-0.7c0.6-2.1,1.8-4,3.6-5.4l0,0c-0.3,0.3-0.6,0.5-0.9,0.8c0,0-0.1,0.1-0.1,0.1
	c-0.3,0.3-0.5,0.6-0.7,0.9c-0.2,0.2-0.3,0.4-0.4,0.6c0,0,0,0.1-0.1,0.1c-0.3,0.5-0.6,1.1-0.9,1.7l-0.6,1.8l-15.1,66.4
	c-0.2,0.9-0.2,1.7-0.2,2.6c0,0.4,0,0.9,0.1,1.3c0.3,2.1,1.1,4.1,2.3,5.9L43,285.9l5.5,6.8l14.2,17.6c1.2,1.1,2.5,2,4,2.7
	c0.2,0.1,0.4,0.2,0.6,0.3c0.1,0,0.1,0,0.2,0.1c0.2,0.1,0.5,0.2,0.7,0.3c0.3,0.1,0.6,0.2,0.9,0.3c0.3,0.1,0.6,0.2,0.8,0.2
	c0.3,0.1,0.5,0.1,0.8,0.2l0,0c0.4,0,0.9,0.1,1.3,0.1h68c0.8,0,1.7-0.1,2.5-0.2c2.3-0.3,4.5-1.4,6.1-3.1c0.2-0.2,0.4-0.5,0.6-0.8
	l24.2-29.9l18.4-22.8c0.7-1,1.3-2.1,1.7-3.3c0.1-0.3,0.2-0.7,0.3-1C193.8,253.2,193.9,253,193.9,252.8z M118.9,207.1l8.8-16.8h3.1
	c0.8,0,1.6,0.2,2.3,0.6c0.2,0.1,0.4,0.3,0.7,0.4c1.4,1,2.2,2.7,2,4.4c0,0,0,0,0,0c-0.1,0.7-0.2,1.3-0.6,1.9l-7.5,14.1
	c-1,1.9-3.1,3-5.2,2.6c-0.5-0.1-1.1-0.2-1.6-0.5c-0.3-0.2-0.6-0.3-0.8-0.5c0,0-0.1-0.1-0.1-0.1c-0.2-0.2-0.4-0.4-0.6-0.6
	c0,0,0,0,0,0C118.2,211,118,208.9,118.9,207.1z M110.2,144.5c-0.4-0.1-0.8-0.3-1.3-0.4C109.4,144.2,109.8,144.3,110.2,144.5z
	 M102.9,256.6c-0.1,0.3-0.2,0.6-0.4,0.9l-7.3,13.7l-5.6,10.4l0,0l-0.1,0.2l0,0l-15.5-31.4l-5.3-10.9l-3.1-6.4l-0.8-1.6l-3-6.1
	l-17.1-34.9h40.5l0.1,0.1l16.1,29.9l-5.5,10.3l-0.2,0.1l-16.4-30.4H61.4l28.2,59.9l4-7.6c0.5-0.9,1.2-1.6,2.1-2.1
	c0.6-0.3,1.2-0.5,1.8-0.6c2.4-0.2,4.6,1.2,5.3,3.5c0.1,0.2,0.1,0.4,0.1,0.6c0,0.1,0,0.1,0,0.2c0,0,0,0.1,0,0.1c0,0.2,0,0.4,0,0.6v0
	c0,0.1,0,0.3,0,0.4C103.1,255.9,103,256.3,102.9,256.6z M110.9,242.6c-2.1,1.6-5.2,1.2-6.9-0.9c-0.2-0.2-0.3-0.5-0.5-0.7l0,0
	c-0.1-0.3-0.3-0.6-0.4-0.9c-0.4-1.3-0.3-2.7,0.3-3.9l7.5-14.1c0.9-1.8,2.9-2.9,4.9-2.7c1.3,0.1,2.6,0.8,3.5,1.8l0.9,1.7
	c0.2,0.6,0.3,1.3,0.2,1.9c0,0.1,0,0.1,0,0.2c0,0.1,0,0.2-0.1,0.3c0,0.2-0.1,0.4-0.1,0.5c-0.1,0.3-0.2,0.6-0.4,0.8l0,0l-7.5,14.1
	C112,241.6,111.5,242.2,110.9,242.6L110.9,242.6z M125.8,275.5L125.8,275.5c0,0.1,0,0.1-0.1,0.2c-0.1,0.1-0.1,0.1-0.1,0.2l0,0
	l-3.5,7.3c-0.2,0.4-0.5,0.7-0.8,1.1c0,0-0.1,0.1-0.1,0.1c-1.4,1.4-3.5,1.9-5.4,1.2c-0.1-0.1-0.3-0.1-0.4-0.2c0,0,0,0-0.1,0
	c-0.6-0.3-1.1-0.7-1.5-1.2c-1.1-1.2-1.5-2.9-1.2-4.5c0,0,0-0.1,0-0.1c0,0,0,0,0,0c0.1-0.3,0.2-0.5,0.3-0.8l3.6-7.2
	c0.6-1,1.5-1.8,2.7-2.2c0,0,0.1,0,0.1-0.1c0.1,0,0.3-0.1,0.4-0.1c2.6-0.7,5.3,0.9,6,3.6c0.1,0.4,0.2,0.9,0.2,1.4
	C126,274.6,126,275,125.8,275.5L125.8,275.5z M141,245.5c0,0.1-0.1,0.2-0.1,0.3c-0.1,0.2-0.1,0.4-0.2,0.6l-1.8,3.5l0,0l0,0
	l-5.2,10.8c-0.2,0.4-0.5,0.8-0.9,1.2c0,0-0.1,0.1-0.1,0.1c-0.3,0.3-0.7,0.6-1.2,0.9c-0.4,0.2-0.8,0.3-1.2,0.4c-0.1,0-0.1,0-0.2,0
	c-0.2,0-0.3,0.1-0.5,0.1c-1,0.1-1.9,0-2.8-0.5c-2.5-1.2-3.5-4.2-2.3-6.7c0,0,0,0,0,0l3.5-7.1l3.6-7.1c0.7-1.5,2.2-2.5,3.8-2.7
	c0.3-0.1,0.7-0.1,1-0.1c0.7,0,1.4,0.2,2,0.5C140.6,240.7,141.6,243.2,141,245.5z M155.4,216.8l-2.1,4.2l-0.1,0.1l-1.9,3.8l-3,6.3
	c-0.2,0.4-0.5,0.7-0.8,1.1l0,0c-0.3,0.3-0.6,0.6-1,0.8c-0.2,0.1-0.4,0.2-0.6,0.3c-0.1,0-0.1,0.1-0.2,0.1c-0.2,0.1-0.4,0.1-0.6,0.2
	c-0.2,0-0.3,0.1-0.5,0.1c-0.1,0-0.2,0-0.4,0.1c-0.2,0-0.5,0-0.7,0c0,0,0,0,0,0c0,0,0,0,0,0s0,0,0,0c0,0-0.1,0-0.1,0
	c-0.1,0-0.2,0-0.3,0c-0.1,0-0.2,0-0.3,0c-0.1,0-0.3,0-0.4-0.1c-0.1,0-0.2-0.1-0.2-0.1c-0.2-0.1-0.5-0.2-0.7-0.3
	c-0.3-0.1-0.6-0.3-0.8-0.5c0,0,0,0-0.1,0c-1.9-1.5-2.4-4-1.4-6.1l7.1-14.3v-0.1c0.3-0.6,0.7-1.1,1.2-1.5c1.5-1.3,3.7-1.6,5.5-0.7
	c2.4,1.2,3.5,4.1,2.3,6.5C155.5,216.7,155.5,216.7,155.4,216.8z M165.2,197.8l-0.2,0.5l-1.2,2.3l-0.3,0.5l-0.1,0.3l-0.4,1.1
	l-0.1,0.1c-0.2,0.3-0.4,0.6-0.6,0.9l0,0c-0.7,0.8-1.6,1.3-2.7,1.5c-0.1,0-0.1,0-0.2,0c-1.7,0.3-3.5-0.2-4.7-1.5c0,0,0-0.1-0.1-0.1
	c-0.2-0.2-0.3-0.4-0.4-0.6c-0.1-0.1-0.1-0.2-0.2-0.3c-0.3-0.4-0.4-0.9-0.5-1.4l0,0h-6c-2.7,0-5-2.2-5-4.9c0,0,0-0.1,0-0.1l1.4-3.5
	c0.7-0.7,1.6-1.2,2.5-1.4c0.3-0.1,0.7-0.1,1-0.1h21L165.2,197.8z M172.4,174.3c0.8,0.4,1.5,0.9,2.1,1.4
	C173.9,175.2,173.2,174.7,172.4,174.3z M181.1,270.8l-5.3,6.6l16.1-20L181.1,270.8z"/>
<g>
	<path class="st0" d="M70.4,12.6H50.2v56.2h-8.3V12.6H21.8V5.8h48.7v6.8H70.4z"/>
	<path class="st0" d="M93.7,69.6c-6.3,0-11.5-2.1-15.5-6.2c-4-4.2-6-9.7-6-16.7v-1.5c0-4.6,0.9-8.8,2.7-12.4
		c1.8-3.6,4.3-6.5,7.4-8.6c3.2-2.1,6.6-3.1,10.4-3.1c6.1,0,10.8,2,14.2,6c3.4,4,5.1,9.7,5.1,17.2v3.3H80.2c0.1,4.6,1.5,8.3,4,11.2
		c2.6,2.8,5.9,4.3,9.8,4.3c2.8,0,5.2-0.6,7.2-1.7c2-1.2,3.7-2.7,5.1-4.6l4.9,3.8C107.4,66.6,101.5,69.6,93.7,69.6z M92.7,27.7
		c-3.2,0-5.9,1.2-8.1,3.5s-3.5,5.6-4.1,9.9h23.4v-0.6c-0.2-4.1-1.3-7.2-3.3-9.4C98.7,28.8,96,27.7,92.7,27.7z"/>
	<path class="st0" d="M139.9,63.1c2.9,0,5.3-0.9,7.5-2.6c2.1-1.7,3.3-3.9,3.5-6.5h7.6c-0.1,2.7-1.1,5.2-2.8,7.7
		c-1.7,2.4-4,4.4-6.8,5.8s-5.8,2.2-9,2.2c-6.4,0-11.4-2.1-15.2-6.4s-5.6-10.1-5.6-17.4v-1.3c0-4.6,0.8-8.6,2.5-12.1s4.1-6.3,7.2-8.3
		s6.8-2.9,11.1-2.9c5.2,0,9.6,1.6,13.1,4.7s5.3,7.2,5.6,12.2h-7.6c-0.2-3-1.4-5.5-3.4-7.5s-4.6-2.9-7.6-2.9c-4.1,0-7.2,1.5-9.4,4.4
		s-3.4,7.2-3.4,12.7v1.4c0,5.4,1.1,9.5,3.3,12.5C132.6,61.7,135.8,63.1,139.9,63.1z"/>
	<path class="st0" d="M175.5,27.7c3.5-4.4,8.2-6.5,13.8-6.5c9.9,0,14.9,5.6,15,16.7v30.9h-8v-31c0-3.4-0.8-5.9-2.3-7.5
		c-1.5-1.6-3.9-2.4-7.1-2.4c-2.6,0-4.9,0.7-6.8,2.1c-2,1.4-3.5,3.2-4.6,5.4v33.3h-8V2.4h8L175.5,27.7L175.5,27.7z"/>
	<path class="st0" d="M223.8,22l0.3,5.9c3.6-4.5,8.2-6.7,14-6.7c9.9,0,14.9,5.6,15,16.7v30.9h-8v-31c0-3.4-0.8-5.9-2.3-7.5
		c-1.5-1.6-3.9-2.4-7.1-2.4c-2.6,0-4.9,0.7-6.8,2.1c-2,1.4-3.5,3.2-4.6,5.4v33.3h-8V22H223.8z"/>
	<path class="st0" d="M263,45c0-4.6,0.9-8.7,2.7-12.4c1.8-3.7,4.3-6.5,7.5-8.5s6.9-3,11-3c6.4,0,11.5,2.2,15.5,6.6
		c3.9,4.4,5.9,10.3,5.9,17.6v0.6c0,4.6-0.9,8.6-2.6,12.3c-1.7,3.6-4.2,6.4-7.5,8.5c-3.2,2-7,3-11.2,3c-6.3,0-11.5-2.2-15.4-6.6
		S263,52.9,263,45.6V45z M271,45.9c0,5.2,1.2,9.4,3.6,12.5s5.6,4.7,9.7,4.7s7.3-1.6,9.7-4.8c2.4-3.2,3.6-7.6,3.6-13.4
		c0-5.1-1.2-9.3-3.7-12.5c-2.4-3.2-5.7-4.8-9.7-4.8c-3.9,0-7.1,1.6-9.6,4.7C272.2,35.6,271,40.1,271,45.9z"/>
	<path class="st0" d="M324.4,68.8h-8V2.4h8V68.8z"/>
	<path class="st0" d="M335,45c0-4.6,0.9-8.7,2.7-12.4c1.8-3.7,4.3-6.5,7.5-8.5s6.9-3,11-3c6.4,0,11.5,2.2,15.5,6.6
		c3.9,4.4,5.9,10.3,5.9,17.6v0.6c0,4.6-0.9,8.6-2.6,12.3c-1.7,3.6-4.2,6.4-7.5,8.5c-3.2,2-7,3-11.2,3c-6.3,0-11.5-2.2-15.4-6.6
		S335,52.9,335,45.6V45z M343,45.9c0,5.2,1.2,9.4,3.6,12.5s5.6,4.7,9.7,4.7s7.3-1.6,9.7-4.8c2.4-3.2,3.6-7.6,3.6-13.4
		c0-5.1-1.2-9.3-3.7-12.5c-2.4-3.2-5.7-4.8-9.7-4.8c-3.9,0-7.1,1.6-9.6,4.7C344.2,35.6,343,40.1,343,45.9z"/>
	<path class="st0" d="M385.8,45c0-7.3,1.7-13.1,5.1-17.4s7.8-6.5,13.4-6.5c5.7,0,10.2,2,13.4,6.1L418,22h7.3v45.7
		c0,6.1-1.8,10.8-5.4,14.3s-8.4,5.2-14.5,5.2c-3.4,0-6.7-0.7-9.9-2.2c-3.2-1.4-5.7-3.4-7.4-5.9l4.1-4.8c3.4,4.2,7.6,6.4,12.6,6.4
		c3.9,0,6.9-1.1,9.1-3.3c2.2-2.2,3.3-5.3,3.3-9.3v-4c-3.2,3.7-7.6,5.5-13.1,5.5s-9.9-2.2-13.3-6.6S385.8,52.6,385.8,45z M393.8,45.9
		c0,5.3,1.1,9.4,3.2,12.4c2.2,3,5.2,4.5,9.1,4.5c5,0,8.7-2.3,11.1-6.9V34.6c-2.5-4.5-6.1-6.7-11-6.7c-3.9,0-6.9,1.5-9.1,4.5
		C394.9,35.5,393.8,40,393.8,45.9z"/>
	<path class="st0" d="M452.6,57.1L463.5,22h8.6l-18.8,54c-2.9,7.8-7.5,11.7-13.9,11.7l-1.5-0.1l-3-0.6v-6.5l2.2,0.2
		c2.7,0,4.8-0.5,6.3-1.6s2.8-3.1,3.7-6l1.8-4.8l-16.7-46.3h8.7L452.6,57.1z"/>
	<path class="st0" d="M510.6,44.1v24.6h-8.3V5.8h23.2c6.9,0,12.3,1.8,16.2,5.3s5.9,8.2,5.9,14c0,6.1-1.9,10.8-5.7,14.1
		c-3.8,3.3-9.3,5-16.4,5h-14.9V44.1z M510.6,37.4h14.9c4.4,0,7.8-1,10.2-3.1s3.5-5.1,3.5-9.1c0-3.8-1.2-6.8-3.5-9s-5.6-3.4-9.7-3.5
		h-15.4V37.4z"/>
	<path class="st0" d="M579.5,29.2c-1.2-0.2-2.5-0.3-3.9-0.3c-5.2,0-8.8,2.2-10.7,6.7v33.2h-8V22h7.8l0.1,5.4
		c2.6-4.2,6.3-6.3,11.2-6.3c1.6,0,2.7,0.2,3.5,0.6L579.5,29.2L579.5,29.2z"/>
	<path class="st0" d="M605.5,69.6c-6.3,0-11.5-2.1-15.5-6.2c-4-4.2-6-9.7-6-16.7v-1.5c0-4.6,0.9-8.8,2.7-12.4s4.3-6.5,7.4-8.6
		c3.2-2.1,6.6-3.1,10.4-3.1c6.1,0,10.8,2,14.2,6s5.1,9.7,5.1,17.2v3.3h-31.7c0.1,4.6,1.5,8.3,4,11.2c2.6,2.8,5.9,4.3,9.8,4.3
		c2.8,0,5.2-0.6,7.2-1.7c2-1.2,3.7-2.7,5.1-4.6l4.9,3.8C619.2,66.6,613.3,69.6,605.5,69.6z M604.5,27.7c-3.2,0-5.9,1.2-8.1,3.5
		c-2.2,2.3-3.5,5.6-4.1,9.9h23.4v-0.6c-0.2-4.1-1.3-7.2-3.3-9.4C610.5,28.8,607.8,27.7,604.5,27.7z"/>
	<path class="st0" d="M647.8,57.9L659.4,22h8.2l-16.8,46.8h-6.1L627.8,22h8.2L647.8,57.9z"/>
	<path class="st0" d="M675.3,9.6c0-1.3,0.4-2.4,1.2-3.3c0.8-0.9,2-1.3,3.5-1.3s2.7,0.4,3.5,1.3c0.8,0.9,1.2,2,1.2,3.3
		s-0.4,2.4-1.2,3.2c-0.8,0.9-2,1.3-3.5,1.3s-2.7-0.4-3.5-1.3C675.8,12,675.3,10.9,675.3,9.6z M684,68.8h-8V22h8V68.8z"/>
	<path class="st0" d="M716.2,69.6c-6.3,0-11.5-2.1-15.5-6.2c-4-4.2-6-9.7-6-16.7v-1.5c0-4.6,0.9-8.8,2.7-12.4s4.3-6.5,7.4-8.6
		c3.2-2.1,6.6-3.1,10.4-3.1c6.1,0,10.8,2,14.2,6s5.1,9.7,5.1,17.2v3.3h-31.8c0.1,4.6,1.5,8.3,4,11.2c2.6,2.8,5.9,4.3,9.8,4.3
		c2.8,0,5.2-0.6,7.2-1.7c2-1.2,3.7-2.7,5.1-4.6l4.9,3.8C730,66.6,724,69.6,716.2,69.6z M715.2,27.7c-3.2,0-5.9,1.2-8.1,3.5
		c-2.2,2.3-3.5,5.6-4.1,9.9h23.4v-0.6c-0.2-4.1-1.3-7.2-3.3-9.4C721.2,28.8,718.5,27.7,715.2,27.7z"/>
	<path class="st0" d="M785.2,57.8l9-35.8h8l-13.6,46.8h-6.5l-11.4-35.5l-11.1,35.4h-6.5l-13.6-46.8h8l9.2,35l10.9-35h6.4L785.2,57.8
		z"/>
</g>
</svg>
