<?xml version="1.0" encoding="utf-8"?>
<!-- Generator: Adobe Illustrator 26.1.0, SVG Export Plug-In . SVG Version: 6.00 Build 0)  -->
<svg version="1.1" id="Layer_1" xmlns="http://www.w3.org/2000/svg" xmlns:xlink="http://www.w3.org/1999/xlink" x="0px" y="0px"
	 viewBox="0 0 820 300" style="enable-background:new 0 0 820 300;" xml:space="preserve">
<style type="text/css">
	.st0{fill:none;}
	.st1{fill:#00AAB2;}
	.st2{fill:#FFFFFF;}
	.st3{fill:#00797F;}
	.st4{fill:#3ACCC5;}
</style>
<g id="Layer_2_00000067923090230464336560000007716693572406760328_">
	<g id="svg10488">
		<path d="M321.5,153.2c-3,3.2-6.3,6.8-10,10.8s-7.6,8-11.7,12.2c-4,4.1-8,8.2-12,12.2s-7.8,7.7-11.3,11.2c4.6,3.2,8.9,6.8,13,10.6
			c4.6,4.2,9.1,8.7,13.4,13.4c4.4,4.8,8.5,9.6,12.4,14.6c3.6,4.5,6.8,9.2,9.6,14.2h-16.3c-3-4.7-6.3-9.2-9.9-13.5
			c-3.7-4.5-7.7-8.9-11.8-13c-4-4-8.2-7.9-12.6-11.5c-3.9-3.3-8-6.3-12.4-9v47H248v-99.2h13.9V197c3.3-3.1,7-6.7,11-10.7
			s8-7.9,11.9-11.9s7.6-7.8,11.1-11.5s6.4-6.9,8.8-9.7L321.5,153.2z M393.7,250.2c-3.1,0.8-7.1,1.6-12.1,2.4
			c-5.8,0.9-11.6,1.3-17.4,1.3c-4.9,0.1-9.8-0.7-14.4-2.5c-3.7-1.5-7-3.9-9.4-7.1c-2.5-3.2-4.2-6.9-5.1-10.8
			c-1.1-4.5-1.6-9.2-1.6-13.8V178H347v38.9c0,9.1,1.4,15.5,4.3,19.5c2.9,3.9,7.7,5.9,14.4,5.9c1.4,0,2.9,0,4.4-0.1s3-0.2,4.3-0.4
			c1.3-0.1,2.6-0.3,3.6-0.4c0.8-0.1,1.6-0.2,2.4-0.5V178h13.3L393.7,250.2z M429,181.3c2.3-1.4,4.8-2.5,7.4-3.3
			c3.7-1.2,7.5-1.8,11.4-1.7c4.9-0.1,9.7,0.9,14.2,2.9c4.1,1.8,7.7,4.6,10.5,8c3,3.6,5.2,7.8,6.5,12.3c1.5,5.1,2.3,10.4,2.2,15.7
			c0.1,5.5-0.8,11-2.6,16.2c-1.6,4.6-4.2,8.7-7.5,12.2c-3.3,3.4-7.3,6-11.7,7.7c-4.9,1.9-10.1,2.8-15.4,2.7
			c-5.5,0.1-11.1-0.4-16.5-1.3c-4.8-0.9-8.7-1.7-11.7-2.6V143.7l13.3-2.3L429,181.3z M429,240.8c1.8,0.5,3.7,0.8,5.6,1.1
			c3,0.4,6.1,0.5,9.1,0.5c7.2,0,12.9-2.4,17.2-7.1s6.4-11.4,6.4-20.1c0-3.6-0.4-7.2-1.1-10.7c-0.7-3.1-1.9-6.1-3.7-8.7
			c-1.7-2.4-4-4.4-6.6-5.7c-3-1.5-6.4-2.2-9.8-2.1c-3.4,0-6.8,0.6-10,1.9c-2.5,0.9-4.9,2.2-7,3.9L429,240.8z M495,215.3
			c-0.1-5.9,0.8-11.7,2.8-17.2c1.7-4.5,4.3-8.7,7.6-12.2c3.1-3.2,6.8-5.7,10.9-7.3c4-1.6,8.3-2.4,12.6-2.4c10,0,17.7,3.1,23,9.4
			c5.3,6.2,8,15.8,8,28.5v4.7h-51c0.6,7.7,2.8,13.6,6.7,17.6s10,6,18.3,6c4,0.1,7.9-0.3,11.8-1.2c2.5-0.6,4.9-1.4,7.2-2.4l1.9,11.1
			c-2.7,1.2-5.6,2.1-8.5,2.7c-4.5,1-9.2,1.5-13.8,1.4c-5.7,0.1-11.4-0.9-16.8-2.9c-4.4-1.8-8.4-4.5-11.6-8.1
			c-3.1-3.5-5.4-7.7-6.8-12.2C495.6,225.8,494.8,220.6,495,215.3L495,215.3z M546,208c0.1-6-1.4-10.9-4.5-14.8
			c-3.1-3.9-7.4-5.8-12.8-5.8c-2.8-0.1-5.6,0.6-8.1,1.8c-2.3,1.1-4.3,2.7-5.9,4.7c-1.6,2-2.9,4.2-3.8,6.6c-0.9,2.5-1.5,5-1.8,7.6
			L546,208z M659,153.2c-3.6,10.5-7.1,20.2-10.3,29.1c-3.3,8.9-6.5,17.4-9.7,25.4c-3.1,8-6.3,15.7-9.4,23s-6.3,14.6-9.5,21.7h-13
			c-3.2-7.2-6.4-14.4-9.5-21.7c-3.1-7.3-6.2-15-9.4-23s-6.5-16.5-9.8-25.4s-6.8-18.6-10.3-29.1h15.3c5.1,15.1,10.2,29.6,15.2,43.5
			c5,13.9,10.1,27,15.3,39.2c5.2-12.1,10.3-25.1,15.3-39.1s10-28.5,15-43.5L659,153.2z M677.6,164.5c-2.3,0-4.5-0.8-6.1-2.4
			c-1.7-1.7-2.6-4-2.5-6.4c-0.1-2.4,0.8-4.7,2.5-6.4c3.4-3.2,8.8-3.2,12.2,0c1.7,1.7,2.6,4,2.5,6.4c0.1,2.4-0.8,4.7-2.5,6.4
			C682.1,163.7,679.9,164.6,677.6,164.5L677.6,164.5z M684.3,252.3H671V178h13.3V252.3z M733.8,176.4c1.1,0,2.5,0.1,3.9,0.2
			c1.5,0.1,2.9,0.3,4.4,0.6c1.4,0.2,2.7,0.5,3.9,0.7l2.7,0.6l-2.3,11.6c-4.7-1.5-9.6-2.3-14.6-2.1c-2.5,0-5,0.3-7.4,0.8
			c-2.4,0.5-4,0.9-4.8,1.1v62.5h-13.3v-71.3c3.8-1.3,7.7-2.4,11.7-3.2C723.3,176.9,728.5,176.4,733.8,176.4L733.8,176.4z M773.2,178
			h28.2v11.2h-28.2v34.3c-0.1,3.1,0.2,6.2,0.9,9.2c0.4,2.1,1.3,4,2.6,5.7c1.1,1.4,2.6,2.4,4.3,2.9c1.9,0.6,4,0.9,6,0.9
			c3.3,0.1,6.6-0.3,9.7-1.4c2.4-0.9,4.1-1.5,5.1-1.9l2.6,11c-2.3,1-4.6,1.8-7,2.5c-3.7,1.1-7.5,1.6-11.4,1.5
			c-4.2,0.1-8.5-0.5-12.5-1.9c-3.1-1.2-5.8-3.2-7.9-5.8c-2.1-2.8-3.6-6-4.2-9.5c-0.9-4.3-1.3-8.7-1.2-13.1v-66.4l13.3-2.3L773.2,178
			z"/>
		<path class="st0" d="M38.9,141.2L38.9,141.2L38.9,141.2c-1.4,1.1-2.5,2.6-3.2,4.3C36.3,143.8,37.4,142.4,38.9,141.2z M35.2,147.3
			c0.1-0.6,0.3-1.2,0.6-1.8C35.5,146.1,35.3,146.7,35.2,147.3z M74.1,280.4c-0.4,0-0.9,0-1.3-0.1C73.3,280.3,73.7,280.4,74.1,280.4z
			"/>
		<path class="st1" d="M174.5,140.2l-61.6-29.5l-0.6-0.3c-0.4-0.2-0.9-0.3-1.3-0.4c-0.4-0.1-0.8-0.2-1.2-0.2
			c-0.6-0.1-1.3-0.1-1.9-0.1c-1.3,0-2.5,0-3.8,0.2c-0.4,0.1-0.8,0.1-1.3,0.2l-61.6,29.7c-0.8,0.3-1.5,0.8-2.1,1.3l-0.1,0.1
			l31.9,64.2l-24-49h40.5l16.2,29.9L98,196.7l-0.2,0.1l-16.4-30.4H63.5l28.2,59.8l4-7.6c1.3-2.5,4.3-3.4,6.8-2.1
			c2.5,1.3,3.4,4.3,2.1,6.8c0,0,0,0,0,0L97.3,237l-5.6,10.4l16.4,32.9l15.5-30.6c-1.6,2.2-4.8,2.7-7,1.1c-2-1.4-2.6-4-1.5-6.2
			l3.6-7.2c1.4-2.4,4.4-3.2,6.7-1.8c0,0,0,0,0.1,0c2.1,1.2,3,3.8,2.2,6.1l7.3-14.4c-1.7,2.2-4.8,2.7-7,1c-1.9-1.4-2.5-4-1.5-6.2
			l7.2-14.3c1.2-2.5,4.2-3.4,6.7-2.2c2.5,1.2,3.4,4.2,2.2,6.7l0,0l-1.8,3.5l9.2-18.2c-1.6,2.3-4.7,2.8-6.9,1.3
			c-2-1.4-2.7-4.1-1.7-6.3l7.1-14.3c1.2-2.5,4.2-3.4,6.7-2.2c2.5,1.2,3.4,4.2,2.2,6.7c0,0,0,0,0,0l-4,8.1l11.4-22.5
			c-1.3,2.4-4.4,3.3-6.8,1.9c0,0,0,0,0,0c-1.2-0.7-2.1-1.9-2.4-3.3h-6c-2.8,0-5-2.2-5-5s2.2-5,5-5h20.9l-5,9.9l12.3-24.3
			c-0.4-0.4-0.8-0.7-1.2-1C175.9,141.1,175.2,140.6,174.5,140.2z M121.9,192.7l-7.5,14.1c-1.3,2.4-4.3,3.4-6.8,2.1
			c-2.4-1.3-3.4-4.3-2.1-6.7c0,0,0-0.1,0-0.1L113,188c1.3-2.4,4.3-3.4,6.8-2.1C122.2,187.2,123.2,190.2,121.9,192.7
			C121.9,192.7,121.9,192.7,121.9,192.7z M137.3,163.5l-7.5,14.2c-1.3,2.5-4.3,3.4-6.8,2.1c-2.5-1.3-3.4-4.3-2.1-6.8l8.8-16.8h3.2
			c0.8,0,1.6,0.2,2.3,0.6c2.4,1.2,3.4,4.2,2.2,6.6C137.3,163.4,137.3,163.5,137.3,163.5z"/>
		<path class="st2" d="M39.1,141.1c0.7-0.5,1.4-0.9,2.1-1.3l61.6-29.7c0.4-0.1,0.8-0.2,1.2-0.2c1.3-0.2,2.6-0.2,3.9-0.2
			c0.6,0,1.3,0,1.9,0.1c0.4,0.1,0.9,0.1,1.3,0.2c0.4,0.1,0.9,0.2,1.3,0.4l0.6,0.3l61.6,29.5c0.8,0.4,1.5,0.9,2.1,1.4
			c0.4,0.3,0.8,0.6,1.2,1l1.9-3.7c-1-0.8-2.1-1.6-3.3-2.2h-0.2l-61.6-29.6c-2.1-1-4.5-1.5-6.8-1.4c-2-0.1-4,0.1-6,0.5l-0.4,0.1
			l-0.4,0.2l-61.6,29.7c-0.8,0.4-1.6,0.9-2.3,1.4l1.8,3.6L39.1,141.1z M200.3,213.3l-0.1-0.4l-15.4-66v-0.3c-0.9-3-2.7-5.6-5.1-7.5
			l-1.9,3.7c1.1,1.1,2,2.4,2.7,3.8c0.2,0.4,0.3,0.8,0.4,1.2l15.3,66c0.1,0.9,0.1,1.7,0.1,2.6c-0.1,0.8-0.2,1.5-0.3,2.3
			c0,0.2-0.1,0.4-0.1,0.6c-0.4,1.5-1.1,3-2,4.3l-18.4,22.8l-24.2,29.9c-1.6,2.2-4.1,3.6-6.8,4c-0.8,0.1-1.7,0.2-2.5,0.2h-33.9
			l15.4,4H142c4.9,0.2,9.5-2,12.5-5.8l42.6-52.7l0.1-0.1l0.1-0.1C199.8,222.2,200.8,217.7,200.3,213.3L200.3,213.3z"/>
		<path class="st2" d="M74.1,280.4c-0.4,0-0.9-0.1-1.3-0.1c-0.6-0.1-1.1-0.2-1.7-0.4l-0.9-0.3c-0.6-0.2-1.2-0.5-1.7-0.7
			c-0.8-0.4-1.6-0.9-2.4-1.5c-0.5-0.4-1-0.8-1.4-1.2l-14.2-17.6l-28.3-35.2c-1.2-1.8-2-3.8-2.3-5.9c-0.1-0.4-0.1-0.8-0.1-1.2
			c0-0.9,0-1.7,0.2-2.6l15.2-66.4c0.1-0.6,0.3-1.2,0.6-1.8c0.7-1.7,1.8-3.1,3.2-4.3l-1.8-3.6c-3,2.1-5.1,5.2-5.9,8.8l-15.2,66.4v0.2
			c-0.8,4.5,0.3,9,2.9,12.7l0.1,0.1l0.1,0.1l42.5,52.8l0.1,0.2L62,279c3.2,3.2,7.4,5.1,11.9,5.4h34.2v-4H74.1z M108.1,280.4v4h15.4
			L108.1,280.4z"/>
		<path class="st3" d="M91.6,247.7l-20.7-42.2l-32-64.3c-1.4,1.1-2.5,2.6-3.2,4.3l-0.6,1.8L20,213.7c-0.2,0.9-0.2,1.7-0.2,2.6
			c0,0.4,0,0.9,0.1,1.3c0.3,2.1,1.1,4.1,2.3,5.9l28.4,35.2l14.2,17.4c0.4,0.4,0.9,0.8,1.4,1.2c0.7,0.6,1.5,1.1,2.4,1.5
			c0.5,0.3,1.1,0.5,1.7,0.7l0.9,0.3c0.6,0.2,1.1,0.3,1.7,0.4c0.4,0.1,0.9,0.1,1.3,0.1h34l-16.3-32.9L91.6,247.7z"/>
		<path class="st0" d="M19.8,216.3c0-0.9,0-1.7,0.2-2.6"/>
		<path class="st3" d="M66.2,277.4c-0.5-0.4-1-0.8-1.4-1.2C65.2,276.7,65.7,277.1,66.2,277.4z"/>
		<path class="st0" d="M68.6,278.8c-0.8-0.4-1.6-0.9-2.4-1.5 M64.8,276.1l-14.2-17.5 M71.2,279.9l-0.9-0.3"/>
		<path class="st3" d="M70.3,279.6c-0.6-0.2-1.2-0.5-1.7-0.7C69.1,279.1,69.7,279.4,70.3,279.6z"/>
		<path class="st4" d="M164.9,168.2l-11.4,22.5l-3.1,6.2c-0.1,0.2-0.2,0.3-0.3,0.5l-9.2,18.1l-5.4,10.8c-0.1,0.2-0.3,0.5-0.4,0.7
			l-7.3,14.5c0,0.1,0,0.1-0.1,0.2l-3.6,7.2c-0.1,0.2-0.3,0.5-0.4,0.7l-15.5,30.6h33.9c0.8,0,1.7-0.1,2.5-0.2c2.7-0.4,5.1-1.8,6.8-4
			l24.2-29.9l18.4-22.8c0.9-1.3,1.6-2.8,2-4.3c0.1-0.2,0.1-0.4,0.1-0.6c0.2-0.8,0.3-1.5,0.3-2.3c0-0.9,0-1.7-0.1-2.6L181,147.7
			c-0.1-0.4-0.3-0.8-0.4-1.2c-0.7-1.4-1.6-2.7-2.7-3.8l-12.3,24.2L164.9,168.2z"/>
		<path class="st0" d="M196.4,216.3c-0.1,0.8-0.2,1.5-0.3,2.3 M195.9,219.2c-0.2,0.7-0.4,1.4-0.7,2 M144.5,280.2
			c2.7-0.4,5.1-1.8,6.8-4l24.2-29.9 M196.4,213.7c0.1,0.9,0.1,1.7,0.1,2.6"/>
		<path class="st2" d="M119.8,185.9c-2.4-1.3-5.5-0.4-6.8,2.1c0,0,0,0,0,0l-7.5,14.1c-1.3,2.5-0.4,5.5,2.1,6.8
			c2.5,1.3,5.5,0.4,6.8-2.1c0,0,0,0,0,0l7.5-14.1C123.1,190.3,122.2,187.3,119.8,185.9z M125.4,235.1c-2.5-1.2-5.4-0.2-6.7,2.2
			l-3.6,7.2c-1.2,2.5-0.2,5.5,2.3,6.7c2.2,1.1,4.8,0.4,6.2-1.5l4.1-8.1C128.8,239.2,127.7,236.3,125.4,235.1L125.4,235.1z
			 M127.7,241.8c0-0.1,0-0.1,0.1-0.2l-4.1,8.1c0.2-0.2,0.3-0.4,0.4-0.7L127.7,241.8z M97.3,237.1l7.3-13.7c1.3-2.5,0.4-5.5-2.1-6.8
			c-2.5-1.3-5.5-0.4-6.8,2.1c0,0,0,0,0,0l-4,7.6l-28.2-59.9h17.9l16.4,30.4l0.2-0.1l5.5-10.3l-16.2-30H46.8l24,49l20.9,42
			L97.3,237.1z"/>
		<path class="st2" d="M91.7,247.5l-20.8-42l20.7,42.2L91.7,247.5z M170.5,157h-20.9c-2.8,0-5,2.2-5,5c0,2.8,2.2,5,5,5h6
			c0.6,2.7,3.3,4.4,6,3.8c1.4-0.3,2.6-1.2,3.3-2.4l0.7-1.4L170.5,157z"/>
		<path class="st2" d="M165.6,166.9l-0.7,1.4l0.1-0.1L165.6,166.9z M157.5,182.7c1.3-2.4,0.4-5.3-2-6.6c-0.1,0-0.1-0.1-0.2-0.1
			c-2.4-1.2-5.4-0.3-6.7,2.2c0,0,0,0,0,0v0.1l-7.1,14.3c-1.2,2.5-0.2,5.5,2.3,6.7c0,0,0,0,0,0c2.2,1.1,4.9,0.4,6.3-1.7l3.4-6.8
			L157.5,182.7z"/>
		<path class="st2" d="M153.5,190.8l-3.4,6.8c0.1-0.2,0.2-0.3,0.3-0.5L153.5,190.8z M142.6,212.2c1.2-2.5,0.3-5.5-2.2-6.7
			c-2.5-1.2-5.5-0.3-6.7,2.2l-7.1,14.3c-1.2,2.5-0.2,5.5,2.3,6.7c2.2,1.1,4.8,0.4,6.2-1.5l5.8-11.5L142.6,212.2z M140.9,215.7
			l-5.8,11.5c0.2-0.2,0.3-0.4,0.4-0.7L140.9,215.7z M135.2,156.8c-0.7-0.4-1.5-0.6-2.3-0.6h-3.1L121,173c-1.6,2.3-1,5.4,1.3,7
			c2.3,1.6,5.4,1,7-1.3c0.2-0.3,0.4-0.6,0.5-1l7.5-14.1C138.6,161.2,137.7,158.2,135.2,156.8C135.2,156.9,135.2,156.8,135.2,156.8z"
			/>
	</g>
</g>
<path class="st0" d="M19.9,217.6c0.3,2.1,1.1,4.1,2.3,5.9l28.4,35.1l-28.4-35.2C20.9,221.7,20.1,219.7,19.9,217.6z M19.9,217.6
	c-0.1-0.4-0.1-0.9-0.1-1.3C19.7,216.8,19.8,217.2,19.9,217.6z M72.8,280.3c-0.6-0.1-1.1-0.2-1.7-0.4C71.7,280,72.2,280.2,72.8,280.3
	z M109.8,109.8c0.4,0.1,0.9,0.1,1.3,0.2C110.7,109.9,110.2,109.9,109.8,109.8z M174.5,140.2c0.8,0.4,1.5,0.9,2.1,1.4
	C175.9,141.1,175.2,140.6,174.5,140.2z M196.1,218.6c0,0.2-0.1,0.4-0.1,0.6C195.9,219,196,218.8,196.1,218.6z M111,110
	c0.4,0.1,0.9,0.2,1.3,0.4C111.9,110.3,111.5,110.1,111,110z M174.5,140.2l-61.6-29.5l-0.6-0.3l0.6,0.3L174.5,140.2z M109.8,109.8
	c-0.6-0.1-1.3-0.1-1.9-0.1c-1.3,0-2.5,0-3.8,0.2c1.3-0.2,2.5-0.2,3.8-0.2C108.5,109.7,109.1,109.7,109.8,109.8z M102.8,110.1
	l-61.6,29.7c-0.8,0.3-1.5,0.8-2.1,1.3c0.7-0.5,1.4-0.9,2.1-1.3L102.8,110.1z M108.1,280.4h-34c-0.4,0-0.9,0-1.3-0.1
	c0.4,0.1,0.9,0.1,1.3,0.1H142c0.8,0,1.7-0.1,2.5-0.2c-0.8,0.1-1.7,0.2-2.5,0.2H108.1z M196.4,213.7l-15.4-66
	c-0.1-0.4-0.3-0.8-0.4-1.2c0.2,0.4,0.3,0.8,0.4,1.2L196.4,213.7z M183.1,236.8l10.8-13.4c0.5-0.7,0.9-1.4,1.3-2.2
	c-0.4,0.8-0.8,1.5-1.3,2.2L183.1,236.8z M35.2,147.3L20,213.7L35.2,147.3c0.5-2.4,1.9-4.6,3.8-6.1l0.1-0.1
	C37,142.6,35.6,144.9,35.2,147.3z"/>
<path class="st1" d="M70.9,205.5l-24-49h40.5l16.2,29.9L98,196.7l-0.2,0.1l-16.4-30.4H63.5l28.2,59.8l4-7.6c1.3-2.5,4.3-3.4,6.8-2.1
	c2.5,1.3,3.4,4.3,2.1,6.8c0,0,0,0,0,0L97.3,237l-5.6,10.4l16.4,32.9l15.5-30.6c-1.6,2.2-4.8,2.7-7,1.1c-2-1.4-2.6-4-1.5-6.2l3.6-7.2
	c1.4-2.4,4.4-3.2,6.7-1.8c0,0,0,0,0.1,0c2.1,1.2,3,3.8,2.2,6.1l7.3-14.4c-1.7,2.2-4.8,2.7-7,1c-1.9-1.4-2.5-4-1.5-6.2l7.2-14.3
	c1.2-2.5,4.2-3.4,6.7-2.2c2.5,1.2,3.4,4.2,2.2,6.7l0,0l-1.8,3.5l9.2-18.2c-1.6,2.3-4.7,2.8-6.9,1.3c-2-1.4-2.7-4.1-1.7-6.3l7.1-14.3
	c1.2-2.5,4.2-3.4,6.7-2.2c2.5,1.2,3.4,4.2,2.2,6.7c0,0,0,0,0,0l-4,8.1l11.4-22.5c-1.3,2.4-4.4,3.3-6.8,1.9c0,0,0,0,0,0
	c-1.2-0.7-2.1-1.9-2.4-3.3h-6c-2.8,0-5-2.2-5-5s2.2-5,5-5h20.9l-5,9.9l12.3-24.3c-0.4-0.4-0.8-0.7-1.2-1c-0.7-0.5-1.4-1-2.1-1.4
	l-61.6-29.5l-0.6-0.3c-0.4-0.2-0.9-0.3-1.3-0.4c-0.4-0.1-0.8-0.2-1.2-0.2c-0.6-0.1-1.3-0.1-1.9-0.1c-1.3,0-2.5,0-3.8,0.2
	c-0.4,0.1-0.8,0.1-1.3,0.2l-61.6,29.7c-0.8,0.3-1.5,0.8-2.1,1.3l-0.1,0.1L70.9,205.5z M121,173l8.8-16.8h3.2c0.8,0,1.6,0.2,2.3,0.6
	c2.4,1.3,3.4,4.3,2.1,6.8l-7.6,14.1c-1.3,2.4-4.3,3.4-6.7,2.1c-2.4-1.3-3.4-4.3-2.1-6.7C120.9,173.1,120.9,173.1,121,173z
	 M105.6,202.2l7.5-14.1c1.3-2.4,4.3-3.4,6.8-2.1c2.4,1.3,3.4,4.3,2.1,6.7c0,0,0,0.1,0,0.1l-7.5,14.1c-1.3,2.4-4.3,3.4-6.8,2.1
	C105.2,207.7,104.2,204.7,105.6,202.2C105.5,202.3,105.5,202.2,105.6,202.2z"/>
<path class="st2" d="M31.2,146.4l-15.1,66.4v0.2c-0.8,4.5,0.3,9,2.9,12.7l0.1,0.1l0.1,0.1l42.5,52.8l0.1,0.2L62,279
	c3.2,3.2,7.4,5.1,11.9,5.4H142c4.9,0.2,9.5-2,12.5-5.8l42.6-52.7l0.1-0.1l0.1-0.1c2.6-3.6,3.7-8.1,3.1-12.5l-0.1-0.4l-15.4-66.1
	v-0.3c-1.4-4.2-4.4-7.8-8.4-9.8h-0.2l-61.6-29.5c-2.1-1-4.5-1.5-6.8-1.4c-2-0.1-4,0.1-6,0.5l-0.4,0.1l-0.4,0.2l-61.6,29.7
	C35.3,138.2,32.2,141.9,31.2,146.4z M41.3,139.8l61.5-29.7c0.4-0.1,0.8-0.2,1.2-0.2c1.3-0.2,2.6-0.2,3.9-0.2c0.6,0,1.3,0,1.9,0.1
	c0.4,0.1,0.9,0.1,1.3,0.2c0.4,0.1,0.9,0.2,1.3,0.4l0.6,0.3l61.6,29.5c0.8,0.4,1.5,0.9,2.1,1.4c0.4,0.3,0.8,0.6,1.2,1
	c1.1,1.1,2,2.4,2.7,3.8c0.2,0.4,0.3,0.8,0.4,1.2l15.4,66.1c0.2,1.6,0.1,3.3-0.3,4.9c0,0.2-0.1,0.4-0.1,0.6c-0.4,1.5-1.1,3-2,4.3
	l-10.8,13.4l-31.8,39.3c-1.6,2.2-4.1,3.6-6.8,4c-0.8,0.1-1.7,0.2-2.5,0.2H74c-0.4,0-0.9-0.1-1.3-0.1c-0.6-0.1-1.1-0.2-1.7-0.4
	c-2.4-0.7-4.6-2-6.4-3.7l-14.2-17.6l-28.3-35.2c-1.2-1.8-2-3.8-2.3-5.9c-0.1-0.4-0.1-0.8-0.1-1.2c0-0.9,0-1.7,0.2-2.6l15.2-66.4
	c0.6-2.5,2-4.6,4-6.2C39.8,140.6,40.5,140.1,41.3,139.8L41.3,139.8z"/>
<path class="st3" d="M108.1,280.4l-16.4-32.9l-0.2,0.3l-20.6-42.3l-32-64.3c-1.9,1.5-3.3,3.7-3.8,6.1L20,213.7
	c-0.2,0.9-0.2,1.7-0.2,2.6c0,0.4,0,0.9,0.1,1.3c0.3,2.1,1.1,4.1,2.3,5.9l28.4,35.2l14.2,17.4c1.8,1.7,3.9,3,6.3,3.7
	c0.6,0.2,1.1,0.3,1.7,0.4c0.4,0.1,0.9,0.1,1.3,0.1h34V280.4z"/>
<path class="st4" d="M164.9,168.2l-11.4,22.5l-3.1,6.2c-0.1,0.2-0.2,0.3-0.3,0.5l-9.2,18.1l-5.4,10.8c-0.1,0.2-0.3,0.5-0.4,0.7
	l-7.3,14.5c0,0.1,0,0.1-0.1,0.2l-3.6,7.2c-0.1,0.2-0.3,0.5-0.4,0.7l-15.5,30.6h33.9c0.8,0,1.7-0.1,2.5-0.2c2.7-0.4,5.1-1.8,6.8-4
	l31.8-39.3l10.8-13.4c0.9-1.3,1.6-2.8,2-4.3c0.1-0.2,0.1-0.4,0.1-0.6c0.4-1.6,0.5-3.3,0.3-4.9l-15.3-66c-0.1-0.4-0.3-0.8-0.4-1.2
	c-0.7-1.4-1.6-2.7-2.7-3.8l-12.3,24.2L164.9,168.2z"/>
<path class="st2" d="M107.6,208.9c2.4,1.3,5.5,0.4,6.8-2.1c0,0,0,0,0,0l7.5-14.1c1.3-2.5,0.3-5.5-2.1-6.8c-2.5-1.3-5.5-0.4-6.8,2.1
	l-7.5,14.1C104.2,204.6,105.1,207.6,107.6,208.9z M127.7,241.8c0-0.1,0-0.1,0.1-0.2c1-2.5-0.2-5.3-2.7-6.3c-0.1,0-0.1,0-0.2-0.1
	c-2.3-0.9-4.9,0.1-6.1,2.2l-3.6,7.2c-1.2,2.5-0.2,5.5,2.3,6.7c0,0,0,0,0,0c2.5,1.2,5.4,0.2,6.7-2.2L127.7,241.8z M91.7,247.5
	l5.6-10.4l7.3-13.7c1.3-2.5,0.4-5.5-2.1-6.8c-2.5-1.3-5.5-0.4-6.8,2.1c0,0,0,0,0,0l-4,7.6l-28.2-59.9h17.9l16.4,30.4l0.2-0.1
	l5.5-10.3l-16.2-30H46.8l24,49l20.8,42.3L91.7,247.5z M165.6,166.9l5-9.9h-20.9c-2.8,0-5,2.2-5,5c0,2.8,2.2,5,5,5h6
	c0.6,2.7,3.3,4.4,6,3.8c1.4-0.3,2.6-1.2,3.3-2.4l0.1-0.1L165.6,166.9z M153.5,190.8l4-8.1c1.3-2.4,0.4-5.3-2-6.6
	c-0.1,0-0.1-0.1-0.2-0.1c-2.4-1.2-5.4-0.3-6.7,2.2c0,0,0,0,0,0v0.1l-7.1,14.3c-1.2,2.5-0.2,5.5,2.3,6.7c0,0,0,0,0,0
	c2.5,1.2,5.4,0.2,6.7-2.2L153.5,190.8z M140.9,215.7l1.8-3.5c1.2-2.5,0.3-5.5-2.2-6.7c-2.5-1.2-5.5-0.3-6.7,2.2l-7.1,14.3
	c-1.2,2.5-0.2,5.5,2.3,6.7c0,0,0,0,0,0c2.5,1.2,5.4,0.2,6.7-2.2L140.9,215.7z M123.1,179.8c2.4,1.3,5.3,0.4,6.6-2c0,0,0-0.1,0.1-0.1
	l7.5-14.1c1.3-2.4,0.4-5.5-2.1-6.8c0,0,0,0,0,0c-0.7-0.4-1.5-0.6-2.3-0.6h-3.1L121,173C119.7,175.5,120.7,178.5,123.1,179.8z"/>
<g>
	<path d="M70.7,13.3H50.5v56.2h-8.3V13.3H22.1V6.5h48.7V13.3z"/>
	<path d="M94,70.3c-6.3,0-11.5-2.1-15.5-6.2c-4-4.2-6-9.7-6-16.7v-1.5c0-4.6,0.9-8.8,2.7-12.4c1.8-3.6,4.3-6.5,7.4-8.6
		c3.2-2.1,6.6-3.1,10.4-3.1c6.1,0,10.8,2,14.2,6c3.4,4,5.1,9.7,5.1,17.2v3.3H80.5c0.1,4.6,1.5,8.3,4,11.2c2.6,2.8,5.9,4.3,9.8,4.3
		c2.8,0,5.2-0.6,7.2-1.7c2-1.2,3.7-2.7,5.1-4.6l4.9,3.8C107.7,67.3,101.8,70.3,94,70.3z M93,28.4c-3.2,0-5.9,1.2-8.1,3.5
		c-2.2,2.3-3.5,5.6-4.1,9.9h23.4v-0.6c-0.2-4.1-1.3-7.2-3.3-9.4C99,29.5,96.3,28.4,93,28.4z"/>
	<path d="M140.2,63.8c2.9,0,5.3-0.9,7.5-2.6c2.1-1.7,3.3-3.9,3.5-6.5h7.6c-0.1,2.7-1.1,5.2-2.8,7.7c-1.7,2.4-4,4.4-6.8,5.8
		c-2.8,1.4-5.8,2.2-9,2.2c-6.4,0-11.4-2.1-15.2-6.4c-3.8-4.3-5.6-10.1-5.6-17.4v-1.3c0-4.6,0.8-8.6,2.5-12.1
		c1.7-3.5,4.1-6.3,7.2-8.3c3.1-2,6.8-2.9,11.1-2.9c5.2,0,9.6,1.6,13.1,4.7c3.5,3.1,5.3,7.2,5.6,12.2h-7.6c-0.2-3-1.4-5.5-3.4-7.5
		s-4.6-2.9-7.6-2.9c-4.1,0-7.2,1.5-9.4,4.4c-2.2,2.9-3.4,7.2-3.4,12.7V47c0,5.4,1.1,9.5,3.3,12.5C132.9,62.4,136.1,63.8,140.2,63.8z
		"/>
	<path d="M175.8,28.4c3.5-4.4,8.2-6.5,13.8-6.5c9.9,0,14.9,5.6,15,16.7v30.9h-8v-31c0-3.4-0.8-5.9-2.3-7.5c-1.5-1.6-3.9-2.4-7.1-2.4
		c-2.6,0-4.9,0.7-6.8,2.1c-2,1.4-3.5,3.2-4.6,5.4v33.3h-8V3.1h8V28.4z"/>
	<path d="M224.1,22.7l0.3,5.9c3.6-4.5,8.2-6.7,14-6.7c9.9,0,14.9,5.6,15,16.7v30.9h-8v-31c0-3.4-0.8-5.9-2.3-7.5
		c-1.5-1.6-3.9-2.4-7.1-2.4c-2.6,0-4.9,0.7-6.8,2.1c-2,1.4-3.5,3.2-4.6,5.4v33.3h-8V22.7H224.1z"/>
	<path d="M263.3,45.7c0-4.6,0.9-8.7,2.7-12.4c1.8-3.7,4.3-6.5,7.5-8.5c3.2-2,6.9-3,11-3c6.4,0,11.5,2.2,15.5,6.6
		c3.9,4.4,5.9,10.3,5.9,17.6v0.6c0,4.6-0.9,8.6-2.6,12.3c-1.7,3.6-4.2,6.4-7.5,8.5c-3.2,2-7,3-11.2,3c-6.3,0-11.5-2.2-15.4-6.6
		c-3.9-4.4-5.9-10.2-5.9-17.5V45.7z M271.3,46.6c0,5.2,1.2,9.4,3.6,12.5c2.4,3.1,5.6,4.7,9.7,4.7c4.1,0,7.3-1.6,9.7-4.8
		c2.4-3.2,3.6-7.6,3.6-13.4c0-5.1-1.2-9.3-3.7-12.5c-2.4-3.2-5.7-4.8-9.7-4.8c-3.9,0-7.1,1.6-9.6,4.7
		C272.5,36.3,271.3,40.8,271.3,46.6z"/>
	<path d="M324.6,69.5h-8V3.1h8V69.5z"/>
	<path d="M335.3,45.7c0-4.6,0.9-8.7,2.7-12.4c1.8-3.7,4.3-6.5,7.5-8.5c3.2-2,6.9-3,11-3c6.4,0,11.5,2.2,15.5,6.6
		c3.9,4.4,5.9,10.3,5.9,17.6v0.6c0,4.6-0.9,8.6-2.6,12.3c-1.7,3.6-4.2,6.4-7.5,8.5c-3.2,2-7,3-11.2,3c-6.3,0-11.5-2.2-15.4-6.6
		c-3.9-4.4-5.9-10.2-5.9-17.5V45.7z M343.3,46.6c0,5.2,1.2,9.4,3.6,12.5c2.4,3.1,5.6,4.7,9.7,4.7c4.1,0,7.3-1.6,9.7-4.8
		c2.4-3.2,3.6-7.6,3.6-13.4c0-5.1-1.2-9.3-3.7-12.5c-2.4-3.2-5.7-4.8-9.7-4.8c-3.9,0-7.1,1.6-9.6,4.7
		C344.5,36.3,343.3,40.8,343.3,46.6z"/>
	<path d="M386,45.7c0-7.3,1.7-13.1,5.1-17.4c3.4-4.3,7.8-6.5,13.4-6.5c5.7,0,10.2,2,13.4,6.1l0.4-5.2h7.3v45.7
		c0,6.1-1.8,10.8-5.4,14.3c-3.6,3.5-8.4,5.2-14.5,5.2c-3.4,0-6.7-0.7-9.9-2.2c-3.2-1.4-5.7-3.4-7.4-5.9l4.1-4.8
		c3.4,4.2,7.6,6.4,12.6,6.4c3.9,0,6.9-1.1,9.1-3.3c2.2-2.2,3.3-5.3,3.3-9.3v-4c-3.2,3.7-7.6,5.5-13.1,5.5c-5.5,0-9.9-2.2-13.3-6.6
		C387.7,59.3,386,53.3,386,45.7z M394,46.6c0,5.3,1.1,9.4,3.2,12.4c2.2,3,5.2,4.5,9.1,4.5c5,0,8.7-2.3,11.1-6.9V35.3
		c-2.5-4.5-6.1-6.7-11-6.7c-3.9,0-6.9,1.5-9.1,4.5C395.1,36.2,394,40.7,394,46.6z"/>
	<path d="M452.9,57.8l10.9-35.1h8.6l-18.8,54c-2.9,7.8-7.5,11.7-13.9,11.7l-1.5-0.1l-3-0.6v-6.5l2.2,0.2c2.7,0,4.8-0.5,6.3-1.6
		c1.5-1.1,2.8-3.1,3.7-6l1.8-4.8l-16.7-46.3h8.7L452.9,57.8z"/>
	<path d="M510.9,44.8v24.6h-8.3V6.5h23.2c6.9,0,12.3,1.8,16.2,5.3c3.9,3.5,5.9,8.2,5.9,14c0,6.1-1.9,10.8-5.7,14.1
		c-3.8,3.3-9.3,5-16.4,5H510.9z M510.9,38.1h14.9c4.4,0,7.8-1,10.2-3.1c2.4-2.1,3.5-5.1,3.5-9.1c0-3.8-1.2-6.8-3.5-9
		s-5.6-3.4-9.7-3.5h-15.4V38.1z"/>
	<path d="M579.8,29.9c-1.2-0.2-2.5-0.3-3.9-0.3c-5.2,0-8.8,2.2-10.7,6.7v33.2h-8V22.7h7.8l0.1,5.4c2.6-4.2,6.3-6.3,11.2-6.3
		c1.6,0,2.7,0.2,3.5,0.6V29.9z"/>
	<path d="M605.8,70.3c-6.3,0-11.5-2.1-15.5-6.2c-4-4.2-6-9.7-6-16.7v-1.5c0-4.6,0.9-8.8,2.7-12.4c1.8-3.6,4.3-6.5,7.4-8.6
		c3.2-2.1,6.6-3.1,10.4-3.1c6.1,0,10.8,2,14.2,6c3.4,4,5.1,9.7,5.1,17.2v3.3h-31.7c0.1,4.6,1.5,8.3,4,11.2c2.6,2.8,5.9,4.3,9.8,4.3
		c2.8,0,5.2-0.6,7.2-1.7c2-1.2,3.7-2.7,5.1-4.6l4.9,3.8C619.5,67.3,613.6,70.3,605.8,70.3z M604.8,28.4c-3.2,0-5.9,1.2-8.1,3.5
		c-2.2,2.3-3.5,5.6-4.1,9.9H616v-0.6c-0.2-4.1-1.3-7.2-3.3-9.4C610.8,29.5,608.1,28.4,604.8,28.4z"/>
	<path d="M648.1,58.6l11.6-35.9h8.2l-16.8,46.8H645l-16.9-46.8h8.2L648.1,58.6z"/>
	<path d="M675.6,10.3c0-1.3,0.4-2.4,1.2-3.3c0.8-0.9,2-1.3,3.5-1.3s2.7,0.4,3.5,1.3c0.8,0.9,1.2,2,1.2,3.3s-0.4,2.4-1.2,3.2
		c-0.8,0.9-2,1.3-3.5,1.3s-2.7-0.4-3.5-1.3C676,12.7,675.6,11.6,675.6,10.3z M684.3,69.5h-8V22.7h8V69.5z"/>
	<path d="M716.5,70.3c-6.3,0-11.5-2.1-15.5-6.2c-4-4.2-6-9.7-6-16.7v-1.5c0-4.6,0.9-8.8,2.7-12.4c1.8-3.6,4.3-6.5,7.4-8.6
		c3.2-2.1,6.6-3.1,10.4-3.1c6.1,0,10.8,2,14.2,6c3.4,4,5.1,9.7,5.1,17.2v3.3H703c0.1,4.6,1.5,8.3,4,11.2c2.6,2.8,5.9,4.3,9.8,4.3
		c2.8,0,5.2-0.6,7.2-1.7c2-1.2,3.7-2.7,5.1-4.6l4.9,3.8C730.2,67.3,724.3,70.3,716.5,70.3z M715.5,28.4c-3.2,0-5.9,1.2-8.1,3.5
		c-2.2,2.3-3.5,5.6-4.1,9.9h23.4v-0.6c-0.2-4.1-1.3-7.2-3.3-9.4C721.5,29.5,718.8,28.4,715.5,28.4z"/>
	<path d="M785.4,58.5l9-35.8h8l-13.6,46.8h-6.5L770.9,34l-11.1,35.4h-6.5l-13.6-46.8h8l9.2,35l10.9-35h6.4L785.4,58.5z"/>
</g>
</svg>
