<?xml version="1.0" encoding="utf-8"?>
<!-- Generator: Adobe Illustrator 25.4.0, SVG Export Plug-In . SVG Version: 6.00 Build 0)  -->
<svg version="1.1" id="Layer_1" xmlns="http://www.w3.org/2000/svg" xmlns:xlink="http://www.w3.org/1999/xlink" x="0px" y="0px"
	 viewBox="0 0 700 85.3" style="enable-background:new 0 0 700 85.3;" xml:space="preserve">
<style type="text/css">
	.st0{fill:#034EA2;}
	.st1{fill:#B0D235;}
</style>
<g>
	<path class="st0" d="M539.9,0.6h-17.5c-1.1,0-1.9,0.9-1.9,1.9v80.3c0,1.1,0.9,1.9,1.9,1.9h17.5c1.1,0,1.9-0.9,1.9-1.9V2.5
		C541.8,1.4,540.9,0.6,539.9,0.6z"/>
	<g>
		<path class="st0" d="M677.3,73.2H674c-0.6,0-1.1-0.5-1.1-1.1c0-0.6,0.5-1.1,1.1-1.1h9.1c0.6,0,1.1,0.5,1.1,1.1
			c0,0.6-0.5,1.1-1.1,1.1h-3.3v10.3c0,0.7-0.5,1.2-1.2,1.2c-0.7,0-1.2-0.5-1.2-1.2V73.2z"/>
		<path class="st0" d="M686.6,72.1c0-0.7,0.5-1.2,1.2-1.2h0.3c0.5,0,0.9,0.3,1.1,0.6l4.1,6.5l4.2-6.5c0.3-0.4,0.6-0.6,1.1-0.6h0.3
			c0.7,0,1.2,0.5,1.2,1.2v11.4c0,0.7-0.5,1.2-1.2,1.2c-0.6,0-1.2-0.5-1.2-1.2v-8.2l-3.3,5c-0.3,0.4-0.6,0.6-1,0.6
			c-0.4,0-0.7-0.2-1-0.6l-3.3-5v8.2c0,0.7-0.5,1.2-1.2,1.2s-1.2-0.5-1.2-1.2V72.1z"/>
	</g>
	<path class="st0" d="M205.2,0.6h-14.9c-1.8,0-3.2,1.5-3.2,3.2c0,0,0,51.2,0,54.6c0,5.8-8,7.6-17.9,7.6c-9.7,0-11.1,0-11.1,0
		s-1.4,0-11.1,0c-9.9,0-17.9-1.8-17.9-7.6c0-3.4,0-54.6,0-54.6c0-1.8-1.5-3.2-3.2-3.2H111c-1.8,0-3.2,1.5-3.2,3.2c0,0,0,46.2,0,55.8
		S112,75.4,120,80.2c8,4.8,26.6,4.6,32.1,4.6s6,0,6,0s0.5,0,6,0s24.1,0.2,32.1-4.6c8-4.8,12.2-10.9,12.2-20.5s0-55.8,0-55.8
		C208.4,2,207,0.6,205.2,0.6z"/>
	<path class="st0" d="M641.5,1.1c0.4-0.3,0.8-0.6,1.4-0.6h24.4c1.1,0,2,0.9,2,2c0,0.6-0.3,1.2-0.8,1.6l-35.8,31.2
		c-0.4,0.4-0.8,0.6-1.4,0.6c-0.6,0-1.1-0.2-1.5-0.6l-12.2-10.6c-0.3-0.3-0.5-0.8-0.5-1.3c0-0.6,0.3-1.1,0.7-1.5L641.5,1.1z"/>
	<path class="st0" d="M641.5,84.2c0.4,0.3,0.8,0.6,1.4,0.6h24.4c1.1,0,2-0.9,2-2c0-0.6-0.3-1.2-0.8-1.6l-35.8-31.2
		c-0.4-0.4-0.8-0.6-1.4-0.6c-0.6,0-1.1,0.2-1.5,0.6l-12.2,10.6c-0.3,0.3-0.5,0.8-0.5,1.3c0,0.6,0.3,1.1,0.7,1.5L641.5,84.2z"/>
	<path class="st1" d="M576.4,84.2c-0.3,0.3-0.8,0.5-1.3,0.5h-24.4c-1.1,0-2-0.9-2-2c0-0.5,0.2-1,0.6-1.4L592,44.2
		c0.4-0.4,0.7-0.9,0.7-1.5c0-0.6-0.2-1.1-0.6-1.4L549.4,4c-0.4-0.4-0.7-0.9-0.7-1.5c0-1.1,0.9-2,2-2h24.4c0.5,0,1,0.2,1.3,0.5
		l46,40.1c0.4,0.4,0.7,0.9,0.7,1.5c0,0.6-0.3,1.1-0.7,1.5L576.4,84.2z"/>
	<path class="st0" d="M272.1,21.3c0-1.1,0.9-2,2-2h30.3c1.8,0,3.2-1.5,3.2-3.2V3.8c0-1.8-1.5-3.2-3.2-3.2h-85.8
		c-1.8,0-3.2,1.5-3.2,3.2v12.2c0,1.8,1.5,3.2,3.2,3.2h30.3c1.1,0,2,0.9,2,2v60.2c0,1.8,1.5,3.2,3.2,3.2h14.8c1.8,0,3.2-1.5,3.2-3.2
		L272.1,21.3z"/>
	<path class="st0" d="M77.2,52.8c0.3,0.2,0.6,0.4,1,0.4c0.8,0,1.4-0.6,1.4-1.4v-48c0-1.8,1.5-3.2,3.2-3.2h14.9
		c1.8,0,3.2,1.5,3.2,3.2c0,0,0,62.5,0,69.6c0,7.1-2.8,10.2-5.5,11.4c-2.7,1.2-10.9,0.7-15.9-3.6c-4.9-4.3-53.2-46.4-53.2-46.4
		s-2.8-2.5-3.1-2.7c-0.2-0.2-0.5-0.3-0.7-0.3c-0.7,0-1.2,0.5-1.2,1.2v48.3c0,1.8-1.5,3.2-3.2,3.2H3.2c-1.8,0-3.2-1.5-3.2-3.2
		c0,0,0-62.4,0-69.5C0,4.9,2.8,1.8,5.5,0.6c2.7-1.2,10.9-0.7,15.9,3.6c4.9,4.3,53.2,46.4,53.2,46.4S77.1,52.7,77.2,52.8z"/>
	<path class="st0" d="M489.9,52.8c0.3,0.2,0.6,0.4,1,0.4c0.8,0,1.4-0.6,1.4-1.4v-48c0-1.8,1.5-3.2,3.2-3.2h14.9
		c1.8,0,3.2,1.5,3.2,3.2c0,0,0,62.5,0,69.6c0,7.1-2.8,10.2-5.5,11.4c-2.7,1.2-10.9,0.7-15.9-3.6c-4.9-4.3-53.2-46.4-53.2-46.4
		s-2.8-2.5-3.1-2.7c-0.2-0.2-0.5-0.3-0.7-0.3c-0.7,0-1.2,0.5-1.2,1.2v48.3c0,1.8-1.5,3.2-3.2,3.2h-14.9c-1.8,0-3.2-1.5-3.2-3.2
		c0,0,0-62.4,0-69.5c0-7.1,2.8-10.2,5.5-11.4c2.7-1.2,10.9-0.7,15.9,3.6c4.9,4.3,53.2,46.4,53.2,46.4S489.7,52.7,489.9,52.8z"/>
	<path class="st0" d="M520.5,3.8c0-1.8,1.5-3.2,3.2-3.2h14.9c1.8,0,3.2,1.5,3.2,3.2v77.7c0,1.8-1.5,3.2-3.2,3.2h-14.9
		c-1.8,0-3.2-1.5-3.2-3.2V3.8z"/>
	<path class="st0" d="M405.3,81.5L352.7,5.6l0,0c-2.3-3.3-6-5.4-10.3-5.4h0c-4.3,0-8.1,2.2-10.3,5.4l0,0l-52.6,75.9
		c-0.3,0.3-0.5,0.8-0.5,1.3c0,1.1,0.9,2,2,2h19.2c0.7,0,1.4-0.4,1.7-1l13.6-19.7c0.3-0.7,1-1.1,1.8-1.1h50.2c0.8,0,1.5,0.5,1.8,1.1
		l13.6,19.7c0.3,0.6,1,1,1.7,1h19.2c1.1,0,2-0.9,2-2C405.7,82.3,405.5,81.8,405.3,81.5z M353.2,44.2h-21.7c-0.7,0-1.2-0.5-1.2-1.2
		c0-0.3,0.1-0.6,0.3-0.8l10.7-15.4c0.1-0.1,0.2-0.2,0.2-0.2c0.1-0.1,0.1-0.1,0.2-0.2c0.1-0.1,0.3-0.1,0.5-0.1c0,0,0.1,0,0.1,0
		c0,0,0.1,0,0.1,0c0.2,0,0.3,0,0.5,0.1c0.1,0,0.1,0.1,0.2,0.2c0.1,0.1,0.2,0.1,0.2,0.2l10.7,15.4c0.2,0.2,0.3,0.5,0.3,0.8
		C354.4,43.7,353.9,44.2,353.2,44.2z"/>
</g>
</svg>
