<?xml version="1.0" encoding="UTF-8"?><svg id="a" xmlns="http://www.w3.org/2000/svg" viewBox="0 0 898.37 257.18"><defs><style>.b{fill:#4d4d4d;}.c{fill:#0c67a9;}.d{fill:#1fc2d4;}</style></defs><path class="c" d="M509.5,116.98c-1.29,0-2.53-.71-3.14-1.95-.86-1.73-.15-3.83,1.58-4.69,23.13-11.46,27.53-32.92,21.63-49.11-5.88-16.16-22.96-29.75-47.82-23.7l-2.66,.65-1.27-2.43c-14.28-27.31-38.4-31.71-54.73-27.18-19.27,5.35-30.91,22.11-29.68,42.7l.17,2.8-2.7,.77c-17.62,5.03-24.97,18.95-24.44,30.51,.45,9.81,7.02,21.45,24.13,24.69,1.9,.36,3.15,2.19,2.79,4.09s-2.19,3.14-4.09,2.79c-21.12-4-29.25-18.76-29.82-31.25-.63-13.71,7.48-30.03,26.88-36.73-.32-25.74,17.02-42.16,34.89-47.12,11.2-3.11,23.29-2.21,34.05,2.52,11.2,4.94,20.66,13.83,27.47,25.8,27.52-5.43,46.89,10.79,53.41,28.69,6.96,19.12,1.9,44.4-25.1,57.78-.5,.25-1.03,.37-1.55,.37Z"/><path class="d" d="M485.93,93.48c11.58,0,21-9.42,21-21s-9.42-21-21-21-21,9.42-21,21c0,2.26,.37,4.43,1.03,6.47l-11.45,6.17c-5.13-8.18-14.23-13.64-24.58-13.64-15.99,0-29,13.01-29,29s13.01,29,29,29c6.37,0,12.26-2.07,17.05-5.56l7.83,7.84c-1.81,2.81-2.87,6.14-2.87,9.72,0,9.93,8.07,18,18,18s18-8.07,18-18-8.07-18-18-18c-3.82,0-7.35,1.2-10.27,3.24l-7.56-7.57c4.26-5.05,6.83-11.56,6.83-18.66,0-3.15-.51-6.18-1.44-9.02l11.73-6.32c3.84,5.05,9.89,8.34,16.71,8.34Zm-78,7c0-12.15,9.85-22,22-22s22,9.85,22,22-9.85,22-22,22-22-9.85-22-22Zm73,41c0,6.08-4.92,11-11,11s-11-4.92-11-11c0-2.92,1.15-5.57,3.01-7.54l.47-.46c1.97-1.85,4.61-3,7.53-3,6.08,0,11,4.92,11,11Zm5-83c7.73,0,14,6.27,14,14s-6.27,14-14,14-14-6.27-14-14,6.27-14,14-14Z"/><g><path class="b" d="M39.46,200.74h6.97l-20.07,55.68h-6.4L0,200.74H6.86l12.8,36.03c1.47,4.14,2.64,8.16,3.5,12.07,.91-4.11,2.11-8.21,3.58-12.3l12.72-35.8Z"/><path class="b" d="M78.72,256.42l-18.89-49.36h-.3c.36,3.91,.53,8.56,.53,13.94v35.42h-5.98v-55.68h9.75l17.63,45.93h.3l17.79-45.93h9.67v55.68h-6.47v-35.88c0-4.11,.18-8.58,.53-13.41h-.3l-19.04,49.28h-5.22Z"/><path class="b" d="M157.64,256.42l-7.66-24.49c-.48-1.5-1.38-4.9-2.7-10.21h-.3c-1.02,4.44-1.9,7.87-2.67,10.28l-7.88,24.41h-7.31l-11.39-41.74h6.63c2.69,10.49,4.74,18.47,6.15,23.96s2.21,9.18,2.42,11.08h.3c.28-1.45,.73-3.32,1.35-5.62,.62-2.3,1.16-4.12,1.62-5.47l7.66-23.96h6.86l7.46,23.96c1.42,4.37,2.39,8.04,2.89,11.01h.3c.1-.91,.37-2.32,.82-4.23,.44-1.9,3.09-12.15,7.94-30.74h6.55l-11.54,41.74h-7.5Z"/><path class="b" d="M209.89,256.42l-1.26-5.94h-.3c-2.08,2.62-4.16,4.39-6.23,5.31-2.07,.93-4.65,1.39-7.75,1.39-4.14,0-7.38-1.07-9.73-3.2-2.35-2.13-3.52-5.17-3.52-9.1,0-8.43,6.74-12.85,20.22-13.25l7.08-.23v-2.59c0-3.28-.7-5.69-2.11-7.25-1.41-1.56-3.66-2.34-6.76-2.34-3.48,0-7.41,1.07-11.81,3.2l-1.94-4.84c2.06-1.12,4.31-1.99,6.76-2.63,2.45-.63,4.91-.95,7.37-.95,4.98,0,8.66,1.1,11.06,3.31s3.6,5.75,3.6,10.63v28.49h-4.68Zm-14.28-4.46c3.94,0,7.03-1.08,9.27-3.24s3.37-5.18,3.37-9.06v-3.77l-6.32,.27c-5.03,.18-8.65,.96-10.87,2.34-2.22,1.38-3.33,3.54-3.33,6.46,0,2.29,.69,4.02,2.08,5.22,1.38,1.19,3.32,1.79,5.81,1.79Z"/><path class="b" d="M246.64,213.92c1.85,0,3.52,.15,4.99,.46l-.88,5.87c-1.73-.38-3.25-.57-4.57-.57-3.38,0-6.27,1.37-8.66,4.11s-3.6,6.16-3.6,10.25v22.39h-6.32v-41.74h5.22l.72,7.73h.3c1.55-2.72,3.41-4.81,5.6-6.28,2.18-1.47,4.58-2.21,7.2-2.21Z"/><path class="b" d="M277.08,257.18c-6.17,0-11.04-1.88-14.61-5.64-3.57-3.76-5.35-8.98-5.35-15.65s1.66-12.07,4.97-16.03,7.76-5.94,13.35-5.94c5.23,0,9.37,1.72,12.42,5.16,3.05,3.44,4.57,7.98,4.57,13.62v4h-28.75c.13,4.9,1.36,8.62,3.71,11.16,2.35,2.54,5.66,3.81,9.92,3.81,4.49,0,8.94-.94,13.33-2.82v5.64c-2.23,.96-4.35,1.66-6.34,2.08-1.99,.42-4.4,.63-7.22,.63Zm-1.71-37.97c-3.35,0-6.02,1.09-8.02,3.28-1.99,2.18-3.17,5.21-3.52,9.06h21.82c0-3.99-.89-7.04-2.67-9.16-1.78-2.12-4.32-3.18-7.62-3.18Z"/><path class="b" d="M348.26,205.73c-6.12,0-10.95,2.04-14.49,6.11-3.54,4.08-5.31,9.66-5.31,16.74s1.71,12.92,5.12,16.89c3.41,3.97,8.28,5.96,14.61,5.96,3.88,0,8.32-.7,13.29-2.09v5.67c-3.86,1.45-8.62,2.17-14.28,2.17-8.2,0-14.53-2.49-18.99-7.46s-6.68-12.05-6.68-21.21c0-5.74,1.07-10.77,3.22-15.08,2.15-4.32,5.24-7.64,9.29-9.98,4.05-2.34,8.82-3.5,14.3-3.5,5.84,0,10.94,1.07,15.31,3.2l-2.74,5.56c-4.21-1.98-8.43-2.97-12.64-2.97Z"/><path class="b" d="M378.99,256.42h-6.32v-59.26h6.32v59.26Z"/><path class="b" d="M428.43,235.51c0,6.8-1.71,12.12-5.14,15.94-3.43,3.82-8.16,5.73-14.21,5.73-3.73,0-7.05-.88-9.94-2.63s-5.13-4.27-6.7-7.54c-1.57-3.28-2.36-7.11-2.36-11.5,0-6.8,1.7-12.1,5.1-15.9,3.4-3.79,8.12-5.69,14.17-5.69s10.48,1.94,13.92,5.83c3.44,3.88,5.16,9.14,5.16,15.77Zm-31.8,0c0,5.33,1.07,9.39,3.2,12.19s5.27,4.19,9.41,4.19,7.28-1.39,9.43-4.17c2.15-2.78,3.22-6.85,3.22-12.21s-1.07-9.34-3.22-12.09c-2.15-2.75-5.31-4.13-9.5-4.13s-7.26,1.36-9.37,4.08c-2.11,2.72-3.16,6.77-3.16,12.15Z"/><path class="b" d="M445.45,214.68v27.08c0,3.4,.77,5.94,2.32,7.62s3.97,2.51,7.27,2.51c4.37,0,7.56-1.19,9.58-3.58s3.03-6.28,3.03-11.69v-21.94h6.32v41.74h-5.22l-.91-5.6h-.34c-1.29,2.06-3.09,3.63-5.39,4.72-2.3,1.09-4.92,1.64-7.87,1.64-5.08,0-8.88-1.21-11.41-3.62-2.53-2.41-3.79-6.27-3.79-11.58v-27.31h6.4Z"/><path class="b" d="M515.8,250.82h-.34c-2.92,4.24-7.29,6.36-13.1,6.36-5.46,0-9.71-1.87-12.74-5.6-3.03-3.73-4.55-9.04-4.55-15.92s1.52-12.23,4.57-16.03,7.29-5.71,12.72-5.71,10,2.06,13.03,6.17h.5l-.27-3.01-.15-2.93v-16.99h6.32v59.26h-5.14l-.84-5.6Zm-12.64,1.07c4.32,0,7.45-1.17,9.39-3.52s2.91-6.14,2.91-11.37v-1.33c0-5.92-.98-10.14-2.95-12.66-1.97-2.53-5.11-3.79-9.43-3.79-3.71,0-6.54,1.44-8.51,4.32-1.97,2.88-2.95,6.95-2.95,12.21s.98,9.36,2.93,12.07,4.82,4.08,8.61,4.08Z"/><path class="b" d="M600.84,228.05c0,9.19-2.49,16.22-7.48,21.08s-12.17,7.29-21.54,7.29h-15.42v-55.68h17.06c8.66,0,15.39,2.4,20.19,7.2s7.2,11.5,7.2,20.11Zm-6.86,.23c0-7.26-1.82-12.73-5.46-16.42-3.64-3.68-9.06-5.52-16.24-5.52h-9.41v44.48h7.88c7.72,0,13.52-1.9,17.41-5.69,3.88-3.79,5.83-9.41,5.83-16.85Z"/><path class="b" d="M611.77,203.37c0-1.45,.36-2.51,1.07-3.18,.71-.67,1.6-1.01,2.67-1.01s1.89,.34,2.63,1.03,1.1,1.74,1.1,3.16-.37,2.48-1.1,3.18-1.61,1.05-2.63,1.05c-1.07,0-1.96-.35-2.67-1.05s-1.07-1.76-1.07-3.18Zm6.86,53.05h-6.32v-41.74h6.32v41.74Z"/><path class="b" d="M651.08,213.92c1.85,0,3.52,.15,4.99,.46l-.88,5.87c-1.73-.38-3.25-.57-4.57-.57-3.38,0-6.27,1.37-8.66,4.11-2.4,2.74-3.6,6.16-3.6,10.25v22.39h-6.32v-41.74h5.22l.72,7.73h.3c1.55-2.72,3.42-4.81,5.6-6.28s4.58-2.21,7.2-2.21Z"/><path class="b" d="M681.51,257.18c-6.17,0-11.04-1.88-14.61-5.64s-5.35-8.98-5.35-15.65,1.66-12.07,4.97-16.03c3.31-3.96,7.76-5.94,13.35-5.94,5.23,0,9.37,1.72,12.42,5.16,3.05,3.44,4.57,7.98,4.57,13.62v4h-28.75c.13,4.9,1.36,8.62,3.71,11.16,2.35,2.54,5.66,3.81,9.92,3.81,4.49,0,8.94-.94,13.33-2.82v5.64c-2.23,.96-4.35,1.66-6.34,2.08-1.99,.42-4.4,.63-7.22,.63Zm-1.71-37.97c-3.35,0-6.02,1.09-8.02,3.28s-3.17,5.21-3.52,9.06h21.82c0-3.99-.89-7.04-2.67-9.16s-4.32-3.18-7.62-3.18Z"/><path class="b" d="M724.32,257.18c-6.04,0-10.72-1.86-14.04-5.58-3.31-3.72-4.97-8.98-4.97-15.79s1.68-12.38,5.05-16.19,8.16-5.71,14.38-5.71c2.01,0,4.01,.22,6.02,.65s3.58,.94,4.72,1.52l-1.94,5.37c-1.4-.56-2.92-1.02-4.57-1.39-1.65-.37-3.11-.55-4.38-.55-8.48,0-12.72,5.41-12.72,16.22,0,5.13,1.03,9.06,3.1,11.81,2.07,2.74,5.13,4.11,9.2,4.11,3.48,0,7.05-.75,10.7-2.25v5.6c-2.79,1.45-6.31,2.17-10.55,2.17Z"/><path class="b" d="M758.25,251.97c1.12,0,2.2-.08,3.24-.25s1.87-.34,2.48-.51v4.84c-.69,.33-1.7,.6-3.03,.82-1.33,.22-2.53,.32-3.6,.32-8.07,0-12.11-4.25-12.11-12.76v-24.83h-5.98v-3.05l5.98-2.63,2.67-8.91h3.66v9.67h12.11v4.91h-12.11v24.57c0,2.51,.6,4.44,1.79,5.79s2.83,2.02,4.91,2.02Z"/><path class="b" d="M808.34,235.51c0,6.8-1.71,12.12-5.14,15.94-3.43,3.82-8.16,5.73-14.21,5.73-3.73,0-7.05-.88-9.94-2.63s-5.13-4.27-6.7-7.54-2.36-7.11-2.36-11.5c0-6.8,1.7-12.1,5.1-15.9,3.4-3.79,8.12-5.69,14.17-5.69s10.48,1.94,13.92,5.83c3.44,3.88,5.16,9.14,5.16,15.77Zm-31.8,0c0,5.33,1.07,9.39,3.2,12.19s5.27,4.19,9.41,4.19,7.28-1.39,9.43-4.17c2.15-2.78,3.22-6.85,3.22-12.21s-1.07-9.34-3.22-12.09c-2.15-2.75-5.31-4.13-9.5-4.13s-7.26,1.36-9.37,4.08-3.16,6.77-3.16,12.15Z"/><path class="b" d="M838.46,213.92c1.85,0,3.52,.15,4.99,.46l-.88,5.87c-1.73-.38-3.25-.57-4.57-.57-3.38,0-6.27,1.37-8.66,4.11-2.4,2.74-3.6,6.16-3.6,10.25v22.39h-6.32v-41.74h5.22l.72,7.73h.3c1.55-2.72,3.42-4.81,5.6-6.28s4.58-2.21,7.2-2.21Z"/><path class="b" d="M858.61,228.2h-4.68v-23.42h-7.96v-4.04h20.68v4.04h-8.04v23.42Zm22.85,0l-7.66-21.29h-.3l.23,4.91v16.38h-4.53v-27.46h7.12l7.46,21.29,7.73-21.29h6.86v27.46h-4.84v-16l.23-5.22h-.3l-8.04,21.21h-3.96Z"/></g></svg>