<svg width="24" height="24" viewBox="0 0 24 24" fill="none" xmlns="http://www.w3.org/2000/svg">
<path d="M5.11074 15.1355C5.11074 16.5097 3.98816 17.6323 2.61396 17.6323C1.23977 17.6323 0.117188 16.5097 0.117188 15.1355C0.117188 13.7613 1.23977 12.6387 2.61396 12.6387H5.11074V15.1355Z" fill="#4d555c"/>
<path d="M6.36914 15.1355C6.36914 13.7613 7.49172 12.6387 8.86592 12.6387C10.2401 12.6387 11.3627 13.7613 11.3627 15.1355V21.3871C11.3627 22.7613 10.2401 23.8839 8.86592 23.8839C7.49172 23.8839 6.36914 22.7613 6.36914 21.3871V15.1355Z" fill="#4d555c"/>
<path d="M8.86592 5.10964C7.49172 5.10964 6.36914 3.98705 6.36914 2.61286C6.36914 1.23867 7.49172 0.116089 8.86592 0.116089C10.2401 0.116089 11.3627 1.23867 11.3627 2.61286V5.10964H8.86592Z" fill="#4d555c"/>
<path d="M8.86558 6.3678C10.2398 6.3678 11.3623 7.49038 11.3623 8.86457C11.3623 10.2388 10.2398 11.3614 8.86558 11.3614H2.61396C1.23977 11.3614 0.117188 10.2388 0.117188 8.86457C0.117188 7.49038 1.23977 6.3678 2.61396 6.3678H8.86558Z" fill="#4d555c"/>
<path d="M18.8926 8.86457C18.8926 7.49038 20.0152 6.3678 21.3894 6.3678C22.7635 6.3678 23.8861 7.49038 23.8861 8.86457C23.8861 10.2388 22.7635 11.3614 21.3894 11.3614H18.8926V8.86457Z" fill="#4d555c"/>
<path d="M17.6342 8.86447C17.6342 10.2387 16.5116 11.3613 15.1374 11.3613C13.7632 11.3613 12.6406 10.2387 12.6406 8.86447V2.61286C12.6406 1.23867 13.7632 0.116089 15.1374 0.116089C16.5116 0.116089 17.6342 1.23867 17.6342 2.61286V8.86447Z" fill="#4d555c"/>
<path d="M15.1374 18.8903C16.5116 18.8903 17.6342 20.0129 17.6342 21.3871C17.6342 22.7613 16.5116 23.8839 15.1374 23.8839C13.7632 23.8839 12.6406 22.7613 12.6406 21.3871V18.8903H15.1374Z" fill="#4d555c"/>
<path d="M15.1374 17.6323C13.7632 17.6323 12.6406 16.5097 12.6406 15.1355C12.6406 13.7613 13.7632 12.6387 15.1374 12.6387H21.389C22.7632 12.6387 23.8858 13.7613 23.8858 15.1355C23.8858 16.5097 22.7632 17.6323 21.389 17.6323H15.1374Z" fill="#4d555c"/>
</svg>
