<svg width="50" height="50" viewBox="0 0 50 50" fill="none" xmlns="http://www.w3.org/2000/svg">
<path d="M21.0614 23.1741L22.8699 24.9725L21.0614 26.7705H8.33124V32.7617L0.56781 24.9725L8.33124 17.3141V23.1741H21.0614ZM26.6572 7.87503H42.125V23.3431H26.6572V7.87503Z" fill="#932279"/>
<path d="M26.8258 21.0615L25.0277 22.8699L23.2297 21.0615V8.33127H17.2382L25.0277 0.567841L32.6858 8.33127H26.8258V21.0615ZM26.6571 26.6572H42.1249V42.1253H26.6571V26.6572Z" fill="#EFA724"/>
<path d="M28.9389 26.8258L27.1301 25.0277L28.9389 23.2297H41.6688V17.2382L49.4326 25.0277L41.6688 32.6858V26.8258H28.9389ZM7.87506 26.6571H23.3428V42.1252H7.87506V26.6571Z" fill="#262577"/>
<path d="M23.1742 28.9389L24.9722 27.1301L26.7706 28.9389V41.6691H32.7617L24.9722 49.4325L17.3145 41.6691H23.1742V28.9389ZM7.87506 7.87503H23.3428V23.3431H7.87506V7.87503Z" fill="#9CCD2A"/>
<path d="M7.32257 7.3226H23.8953V23.8954H7.32257V7.3226ZM8.42726 22.7907H22.7903V8.42764H8.42726V22.7907ZM26.1051 7.3226H42.6779V23.8954H26.1051V7.3226ZM27.2098 22.7907H41.5728V8.42764H27.2098V22.7907ZM26.1051 26.1051H42.6779V42.6782H26.1051V26.1051ZM27.2098 41.5729H41.5728V27.2098H27.2098V41.5729ZM7.32257 26.1051H23.8953V42.6782H7.32257V26.1051ZM8.42726 41.5729H22.7903V27.2098H8.42726V41.5729Z" fill="white"/>
<path d="M11.719 36.719L0 25L11.7187 13.2813L23.4377 25L11.719 36.719ZM1.56263 25L11.719 35.1564L21.8751 25L11.7187 14.8439L1.56263 25ZM25 23.4377L13.2813 11.719L25 0L36.7187 11.719L25 23.4377ZM14.8439 11.719L25 21.8751L35.1564 11.719L25 1.56263L14.8439 11.719ZM38.2813 36.719L26.5626 25L38.2813 13.2813L50 25L38.2813 36.719ZM28.1249 25L38.2813 35.1564L48.4374 25L38.2813 14.8439L28.1249 25ZM25 50L13.2813 38.2813L25 26.5626L36.7187 38.2813L25 50ZM14.8439 38.2813L25 48.4374L35.1564 38.2813L25 28.1253L14.8439 38.2813Z" fill="white"/>
</svg>
