<svg width="50" height="50" viewBox="0 0 50 50" fill="none" xmlns="http://www.w3.org/2000/svg">
<path d="M17.1547 0C7.16045 3.53247 0 13.064 0 24.2679C0 38.4793 11.5207 50 25.7321 50C36.936 50 46.4675 42.8395 50 32.8453H17.1547V0Z" fill="#54A2D9"/>
<path fill-rule="evenodd" clip-rule="evenodd" d="M45.3647 5.39771H21.7293V28.2707H47.2708V7.30379C47.2708 6.25107 46.4174 5.39771 45.3647 5.39771ZM26.8757 9.20987C26.1388 9.20987 25.5415 9.80719 25.5415 10.5441V23.1243C25.5415 23.8612 26.1388 24.4585 26.8757 24.4585C27.6127 24.4585 28.21 23.8612 28.21 23.1243V10.5441C28.21 9.80719 27.6127 9.20987 26.8757 9.20987ZM40.7901 10.5441C40.7901 9.80719 41.3875 9.20987 42.1244 9.20987C42.8613 9.20987 43.4586 9.80719 43.4586 10.5441V23.1243C43.4586 23.8612 42.8613 24.4585 42.1244 24.4585C41.3875 24.4585 40.7901 23.8612 40.7901 23.1243V10.5441ZM34.5001 9.20987C33.7631 9.20987 33.1658 9.80719 33.1658 10.5441V23.1243C33.1658 23.8612 33.7631 24.4585 34.5001 24.4585C35.237 24.4585 35.8343 23.8612 35.8343 23.1243V10.5441C35.8343 9.80719 35.237 9.20987 34.5001 9.20987Z" fill="#F0606D"/>
</svg>
