<svg width="50" height="51" viewBox="0 0 50 51" fill="none" xmlns="http://www.w3.org/2000/svg">
<path d="M17.1547 0.84082C7.16045 4.37329 0 13.9048 0 25.1087C0 39.3202 11.5207 50.8408 25.7321 50.8408C36.936 50.8408 46.4675 43.6804 50 33.6861H17.1547V0.84082Z" fill="#54A2D9"/>
<path fill-rule="evenodd" clip-rule="evenodd" d="M45.3647 6.23853H21.7292V29.1115H47.2707V8.14461C47.2707 7.09189 46.4174 6.23853 45.3647 6.23853ZM26.8757 10.0507C26.1387 10.0507 25.5414 10.648 25.5414 11.3849V23.9651C25.5414 24.702 26.1387 25.2993 26.8757 25.2993C27.6126 25.2993 28.2099 24.702 28.2099 23.9651V11.3849C28.2099 10.648 27.6126 10.0507 26.8757 10.0507ZM40.7901 11.3849C40.7901 10.648 41.3874 10.0507 42.1243 10.0507C42.8613 10.0507 43.4586 10.648 43.4586 11.3849V23.9651C43.4586 24.702 42.8613 25.2993 42.1243 25.2993C41.3874 25.2993 40.7901 24.702 40.7901 23.9651V11.3849ZM34.5 10.0507C33.7631 10.0507 33.1657 10.648 33.1657 11.3849V23.9651C33.1657 24.702 33.7631 25.2993 34.5 25.2993C35.2369 25.2993 35.8343 24.702 35.8343 23.9651V11.3849C35.8343 10.648 35.2369 10.0507 34.5 10.0507Z" fill="#F0606D"/>
</svg>
