<svg width="2500" height="1891" viewBox="0 0 2500 1891" fill="none" xmlns="http://www.w3.org/2000/svg">
<g clip-path="url(#clip0)">
<path d="M1667.53 1089.95C1831.68 1089.95 2069.37 1055.81 2069.37 860.536C2069.9 845.461 2068.58 830.377 2065.43 815.625L1967.6 390.807C1945.01 297.307 1925.18 254.891 1761.03 172.816C1633.78 107.682 1356.04 0 1273.97 0C1197.8 0 1175.48 98.4896 1084.34 98.4896C996.619 98.4896 931.485 24.9507 849.279 24.9507C770.487 24.9507 719.272 78.7917 679.614 189.1C679.614 189.1 569.305 500.59 554.86 545.764C552.695 554.073 551.809 562.663 552.234 571.24C552.234 692.316 1028.92 1089.29 1667.53 1089.29V1089.95ZM2094.71 939.853C2117.43 1047.54 2117.43 1058.7 2117.43 1072.88C2117.43 1256.73 1910.73 1358.76 1639.03 1358.76C1024.98 1359.16 487.1 999.341 487.1 761.653C487.005 728.514 493.709 695.709 506.797 665.264C286.443 676.295 0.166992 715.691 0.166992 968.087C0.166992 1381.48 979.81 1891 1755.25 1891C2349.87 1891 2499.83 1622.06 2499.83 1409.71C2499.83 1242.68 2355.38 1053.05 2094.97 939.853" fill="#8D8D8D"/>
<path d="M2094.71 939.853C2117.43 1047.54 2117.43 1058.7 2117.43 1072.88C2117.43 1256.73 1910.73 1358.76 1639.03 1358.76C1024.98 1359.16 487.1 999.341 487.1 761.653C487.005 728.514 493.709 695.709 506.798 665.264L554.992 546.289C552.79 554.415 551.816 562.825 552.103 571.24C552.103 692.316 1028.79 1089.29 1667.53 1089.29C1831.68 1089.29 2069.37 1055.41 2069.37 860.011C2069.91 844.892 2068.59 829.763 2065.43 814.968L2094.71 939.853Z" fill="black"/>
</g>
<defs>
<clipPath id="clip0">
<rect width="2500" height="1891" fill="white"/>
</clipPath>
</defs>
</svg>
