<svg width="50" height="50" viewBox="0 0 50 50" fill="none" xmlns="http://www.w3.org/2000/svg">
<path fill-rule="evenodd" clip-rule="evenodd" d="M25.0006 50C38.8082 50 50.0002 38.807 50.0002 24.9994C50.0002 11.1925 38.8082 0 25.0006 0C11.1932 0 0 11.1926 0 24.9994C0 38.807 11.193 50 25.0006 50ZM8.80999 28.2141C10.5864 28.2141 12.0256 26.7746 12.0256 24.9994C12.0256 23.2249 10.5864 21.7858 8.80999 21.7858C7.03569 21.7858 5.59652 23.2249 5.59652 24.9994C5.59652 26.7748 7.03569 28.2141 8.80999 28.2141ZM34.7028 41.8051C33.1654 42.6917 31.2004 42.1648 30.3126 40.6286C29.425 39.0914 29.9517 37.1264 31.4891 36.2386C33.0264 35.351 34.9915 35.8767 35.8791 37.4139C36.7667 38.9513 36.24 40.9174 34.7028 41.8051ZM34.7026 8.19597C36.2409 9.08268 36.7666 11.0482 35.879 12.5858C34.9924 14.123 33.0264 14.6497 31.489 13.7621C29.9516 12.8745 29.4249 10.9092 30.3125 9.37196C31.2004 7.83507 33.1663 7.30837 34.7026 8.19597ZM34.1308 24.1882C33.7203 19.505 29.7902 15.8337 25.0006 15.8337C23.6216 15.8337 22.3116 16.1397 21.1386 16.6847L18.8752 12.6202C20.7216 11.7052 22.8009 11.1909 25.0006 11.1909C26.2548 11.1909 27.4708 11.359 28.6269 11.673C28.8306 12.979 29.6009 14.1844 30.8342 14.8965C32.0666 15.6086 33.4952 15.6731 34.7264 15.1981C37.0523 17.5057 38.5617 20.6352 38.7825 24.1148L34.1308 24.1882ZM19.7315 17.4993C17.3744 19.1572 15.8338 21.899 15.8338 24.9994C15.8338 28.1019 17.3744 30.8427 19.7315 32.5018L17.3432 36.4942C14.5767 34.6456 12.5159 31.8275 11.6465 28.5235C12.6752 27.6948 13.3346 26.4248 13.3346 24.9996C13.3346 23.5752 12.6754 22.3052 11.6465 21.4767C12.5159 18.1726 14.5767 15.3544 17.3432 13.5069L19.7315 17.4993ZM21.1386 33.3149C22.3118 33.8611 23.6218 34.1669 25.0006 34.1669C29.7902 34.1669 33.7201 30.4946 34.1308 25.8127L38.7825 25.8849C38.5617 29.3645 37.0525 32.494 34.7264 34.8026C33.4952 34.3276 32.0666 34.3923 30.8342 35.1044C29.6007 35.8153 28.8304 37.0207 28.6269 38.3276C27.4708 38.6421 26.2546 38.809 25.0006 38.809C22.8007 38.809 20.7216 38.2951 18.8752 37.3795L21.1386 33.3149Z" fill="#E95420"/>
</svg>
