<svg width="700" height="684" viewBox="0 0 700 684" fill="none" xmlns="http://www.w3.org/2000/svg">
<path d="M65 655.431L444 0H570.5L423.5 655.431L316.391 675.403C232.302 691.084 145.558 684.192 65 655.431Z" fill="url(#paint0_linear)"/>
<path d="M30 511.076L409.38 0H426L108.841 511.076L88.3172 523.688C68.6376 535.781 42.9242 530.22 30 511.076Z" fill="url(#paint1_linear)"/>
<path d="M101.172 324.274L391.011 0H398L132.864 324.274L115.24 334.66C108.023 338.914 99.2317 332.424 101.172 324.274Z" fill="url(#paint2_linear)"/>
<path d="M486 656.045L583.688 0H621L591.742 656.045L570.441 669.524C542.917 686.941 506.734 681.165 486 656.045Z" fill="url(#paint3_linear)"/>
<path d="M488 543C488 546.314 485.314 549 482 549C478.686 549 476 546.314 476 543C476 539.686 478.686 537 482 537C485.314 537 488 539.686 488 543Z" fill="#CAD1D9"/>
<path d="M474 554C474 556.209 472.209 558 470 558C467.791 558 466 556.209 466 554C466 551.791 467.791 550 470 550C472.209 550 474 551.791 474 554Z" fill="#CAD1D9"/>
<path d="M471 521.5C471 522.881 469.881 524 468.5 524C467.119 524 466 522.881 466 521.5C466 520.119 467.119 519 468.5 519C469.881 519 471 520.119 471 521.5Z" fill="#CAD1D9"/>
<path d="M579 361C579 357.686 581.686 355 585 355C588.314 355 591 357.686 591 361C591 364.314 588.314 367 585 367C581.686 367 579 364.314 579 361Z" fill="#CAD1D9"/>
<path d="M569 376C569 373.791 570.791 372 573 372C575.209 372 577 373.791 577 376C577 378.209 575.209 380 573 380C570.791 380 569 378.209 569 376Z" fill="#CAD1D9"/>
<path d="M542 336.5C542 335.119 543.119 334 544.5 334C545.881 334 547 335.119 547 336.5C547 337.881 545.881 339 544.5 339C543.119 339 542 337.881 542 336.5Z" fill="#CAD1D9"/>
<path d="M106 364C106 360.686 108.686 358 112 358C115.314 358 118 360.686 118 364C118 367.314 115.314 370 112 370C108.686 370 106 367.314 106 364Z" fill="#CAD1D9"/>
<path d="M126 375C126 372.791 127.791 371 130 371C132.209 371 134 372.791 134 375C134 377.209 132.209 379 130 379C127.791 379 126 377.209 126 375Z" fill="#CAD1D9"/>
<path d="M119 454.5C119 452.015 121.015 450 123.5 450C125.985 450 128 452.015 128 454.5C128 456.985 125.985 459 123.5 459C121.015 459 119 456.985 119 454.5Z" fill="#CAD1D9"/>
<path d="M124 441C124 439.895 124.895 439 126 439C127.105 439 128 439.895 128 441C128 442.105 127.105 443 126 443C124.895 443 124 442.105 124 441Z" fill="#CAD1D9"/>
<path d="M93 405.5C93 404.119 94.1193 403 95.5 403C96.8807 403 98 404.119 98 405.5C98 406.881 96.8807 408 95.5 408C94.1193 408 93 406.881 93 405.5Z" fill="#CAD1D9"/>
<path d="M529.457 506.864C527.796 513.073 525.402 519.086 522.144 523.106C521.371 524.06 520.616 525.239 519.943 526.643C523.551 524.424 526.283 522.255 528.288 520.352C531.095 517.686 532.391 515.625 532.747 514.732L536.461 516.217C535.805 517.859 534.061 520.386 531.042 523.252C528.109 526.037 523.886 529.225 518.051 532.331C517.364 535.592 517.126 539.502 517.651 544.056C521.452 541.036 524.164 538.382 526.036 536.237C528.39 533.541 529.304 531.778 529.488 531.172L533.315 532.335C532.882 533.76 531.52 536.038 529.05 538.867C526.709 541.549 523.268 544.846 518.385 548.55C519.984 556.197 523.634 565.374 530.49 576.068L527.122 578.227C524.434 574.034 522.208 570.036 520.387 566.24L520.304 566.348C513.584 561.245 509.139 556.789 506.383 553.241C505.006 551.469 504.027 549.892 503.4 548.547C502.804 547.269 502.416 545.967 502.53 544.831L506.51 545.23C506.51 545.229 506.51 545.229 506.51 545.23C506.509 545.242 506.506 545.375 506.578 545.661C506.653 545.957 506.792 546.355 507.025 546.857C507.494 547.862 508.295 549.182 509.542 550.787C511.236 552.968 513.708 555.618 517.169 558.648C514.373 551.015 513.299 544.342 513.365 538.678C509.052 534.242 506.324 529.883 504.744 526.169C503.168 522.461 502.644 519.168 503.084 517.059L506.999 517.877C506.802 518.82 506.982 521.208 508.425 524.603C509.497 527.123 511.217 530.078 513.813 533.202C514.672 527.731 516.673 523.504 519.036 520.588C520.109 519.264 521.101 517.634 522.007 515.782C514.554 509.772 511.186 503.613 510.39 500.788L514.24 499.703C514.746 501.501 517.348 506.614 523.648 511.949C524.545 509.568 525.328 506.97 525.991 504.276C527.604 497.722 528.439 490.865 528.536 485.745L532.536 485.821C532.452 490.245 531.854 495.814 530.726 501.42C533.404 499.718 535.443 498.205 536.945 496.953C539.065 495.187 540.004 494.032 540.224 493.66L543.666 495.698C543.089 496.673 541.72 498.181 539.506 500.026C537.244 501.911 533.976 504.25 529.457 506.864Z" fill="#CAD1D9"/>
<path fill-rule="evenodd" clip-rule="evenodd" d="M556.848 554.618C556.826 554.925 556.885 555.315 557.178 555.839C557.78 556.917 558.117 557.955 558.144 558.966C558.173 560.002 557.873 560.906 557.371 561.681C556.439 563.118 554.79 564.102 553.498 564.869L553.313 564.979C551.949 565.788 550.855 566.437 550.148 567.239C549.811 567.622 549.607 567.996 549.516 568.394C549.426 568.79 549.423 569.315 549.646 570.033L548.59 570.376L548.595 570.385L546.085 571.835C545.935 571.603 545.797 571.374 545.673 571.148L543.841 572.517C542.21 570.746 541.532 569.165 541.653 567.676C541.754 566.437 542.425 565.455 542.883 564.786C542.925 564.725 542.965 564.665 543.003 564.609C543.542 563.808 543.69 563.439 543.635 563.088C543.587 562.781 543.289 562.054 541.527 560.705C540.594 559.99 539.93 559.2 539.536 558.332C539.145 557.471 539.07 556.644 539.127 555.904C539.183 555.178 539.372 554.484 539.554 553.877C539.606 553.703 539.657 553.538 539.707 553.379C539.841 552.946 539.962 552.556 540.056 552.149C540.302 551.079 540.254 550.31 539.72 549.557C539.125 548.715 537.702 547.572 534.344 546.259L535.198 543.628C538.778 545.027 541.04 546.513 542.256 548.23C543.534 550.035 543.422 551.756 543.107 553.119C542.992 553.62 542.833 554.133 542.692 554.588C542.647 554.731 542.605 554.869 542.566 554.999C542.39 555.583 542.269 556.066 542.235 556.507C542.202 556.934 542.256 557.264 542.386 557.55C542.512 557.829 542.761 558.178 543.305 558.594C545.297 560.121 546.479 561.559 546.717 563.074C546.774 563.436 546.771 563.777 546.728 564.095C546.86 563.961 546.988 563.834 547.109 563.715C547.165 563.661 547.219 563.607 547.271 563.556C548.097 562.737 548.563 562.195 548.706 561.579C548.82 561.086 548.782 560.234 547.645 558.642C546.397 556.896 546.779 555.154 547.348 553.821C547.635 553.151 548.012 552.48 548.364 551.859L548.42 551.76C548.764 551.153 549.09 550.578 549.368 549.987C549.957 548.738 550.23 547.621 549.973 546.49C549.721 545.379 548.885 543.944 546.57 542.173L548.299 539.879C550.987 541.936 552.447 543.981 552.922 546.072C553.391 548.143 552.82 549.951 552.13 551.417C551.807 552.103 551.435 552.76 551.102 553.347L551.034 553.467C550.671 554.107 550.368 554.652 550.15 555.162C549.71 556.191 549.785 556.668 550.07 557.067C551.516 559.091 552.03 560.855 551.656 562.464C551.655 562.472 551.653 562.48 551.651 562.488C551.649 562.497 551.647 562.506 551.644 562.515L551.681 562.494C551.787 562.431 551.891 562.369 551.993 562.309C553.425 561.459 554.382 560.819 554.85 560.096C555.048 559.791 555.147 559.482 555.136 559.105C555.125 558.703 554.987 558.129 554.54 557.329C554.007 556.375 553.779 555.42 553.846 554.466C553.912 553.529 554.256 552.711 554.675 552.012C555.086 551.323 555.608 550.692 556.087 550.135C556.211 549.99 556.332 549.851 556.45 549.715L556.451 549.714C556.811 549.3 557.14 548.922 557.448 548.521C558.248 547.479 558.625 546.629 558.502 545.675C558.37 544.654 557.616 543.124 555.133 540.919L557.162 538.672C559.842 541.051 561.221 543.175 561.487 545.238C561.762 547.369 560.803 549.035 559.827 550.306C559.456 550.789 559.041 551.266 558.669 551.694C558.561 551.818 558.457 551.937 558.358 552.052C557.892 552.595 557.52 553.058 557.253 553.504C556.992 553.939 556.871 554.296 556.848 554.618ZM544.771 568.187C544.767 568.221 544.763 568.255 544.76 568.29C544.745 568.473 544.758 568.707 544.862 569.01C544.808 568.73 544.778 568.456 544.771 568.187Z" fill="#CAD1D9"/>
<path d="M700 658.5L628.964 610.825C626.819 609.386 624.819 607.742 622.991 605.916L605.452 588.402C600.802 583.759 595.081 580.333 588.794 578.427L569.802 572.668C564.011 570.912 557.896 570.493 551.919 571.443L513.326 577.575L470.303 580.802C467.212 581.034 464.159 581.624 461.205 582.56L380.439 608.167C376.383 609.453 372.148 610.084 367.893 610.035L334.317 609.652C330.557 609.609 326.809 610.097 323.184 611.101L287.952 620.859C282.693 622.315 277.192 622.68 271.788 621.932L195.483 611.364L158.772 601.546C151.715 599.658 144.277 599.74 137.263 601.78L111.329 609.326L63.2071 618.385C57.5831 619.443 52.2517 621.696 47.573 624.992L0 658.5H700Z" fill="url(#paint4_linear)"/>
<defs>
<linearGradient id="paint0_linear" x1="327.75" y1="0" x2="327.75" y2="699.345" gradientUnits="userSpaceOnUse">
<stop stop-color="white"/>
<stop offset="1" stop-color="white" stop-opacity="0"/>
</linearGradient>
<linearGradient id="paint1_linear" x1="293" y1="0" x2="293" y2="545.318" gradientUnits="userSpaceOnUse">
<stop stop-color="white"/>
<stop offset="1" stop-color="white" stop-opacity="0"/>
</linearGradient>
<linearGradient id="paint2_linear" x1="302.099" y1="0" x2="302.099" y2="346" gradientUnits="userSpaceOnUse">
<stop stop-color="white"/>
<stop offset="1" stop-color="white" stop-opacity="0"/>
</linearGradient>
<linearGradient id="paint3_linear" x1="563.5" y1="0" x2="563.5" y2="700" gradientUnits="userSpaceOnUse">
<stop stop-color="white"/>
<stop offset="1" stop-color="white" stop-opacity="0"/>
</linearGradient>
<linearGradient id="paint4_linear" x1="350" y1="570.948" x2="350" y2="658.5" gradientUnits="userSpaceOnUse">
<stop stop-color="#A5AEB8"/>
<stop offset="1" stop-color="#A5AEB8" stop-opacity="0"/>
</linearGradient>
</defs>
</svg>
