<svg width="700" height="700" viewBox="0 0 700 700" fill="none" xmlns="http://www.w3.org/2000/svg">
<path d="M65 655.431L444 0H570.5L423.5 655.431L316.391 675.403C232.302 691.084 145.558 684.192 65 655.431Z" fill="url(#paint0_linear)"/>
<path d="M30 511.076L409.38 0H426L108.841 511.076L88.3172 523.688C68.6376 535.781 42.9242 530.22 30 511.076Z" fill="url(#paint1_linear)"/>
<path d="M101.172 324.274L391.011 0H398L132.864 324.274L115.24 334.66C108.023 338.914 99.2318 332.424 101.172 324.274Z" fill="url(#paint2_linear)"/>
<path d="M486 656.045L583.688 0H621L591.742 656.045L570.441 669.524C542.917 686.941 506.734 681.165 486 656.045Z" fill="url(#paint3_linear)"/>
<circle cx="482" cy="543" r="6" fill="white"/>
<circle cx="470" cy="554" r="4" fill="white"/>
<circle cx="468.5" cy="521.5" r="2.5" fill="white"/>
<circle cx="585" cy="361" r="6" transform="rotate(-180 585 361)" fill="white"/>
<circle cx="573" cy="376" r="4" transform="rotate(-180 573 376)" fill="white"/>
<circle cx="544.5" cy="336.5" r="2.5" transform="rotate(-180 544.5 336.5)" fill="white"/>
<circle cx="112" cy="364" r="6" transform="rotate(-180 112 364)" fill="white"/>
<circle cx="130" cy="375" r="4" transform="rotate(-180 130 375)" fill="white"/>
<circle cx="123.5" cy="454.5" r="4.5" transform="rotate(-180 123.5 454.5)" fill="white"/>
<circle cx="126" cy="441" r="2" transform="rotate(-180 126 441)" fill="white"/>
<circle cx="95.5" cy="405.5" r="2.5" transform="rotate(-180 95.5 405.5)" fill="white"/>
<path d="M529.457 506.864C527.796 513.073 525.402 519.086 522.144 523.106C521.371 524.06 520.616 525.239 519.943 526.643C523.551 524.424 526.283 522.255 528.288 520.351C531.096 517.686 532.391 515.625 532.748 514.732L536.462 516.217C535.806 517.858 534.062 520.386 531.043 523.252C528.109 526.037 523.886 529.225 518.051 532.331C517.364 535.592 517.126 539.502 517.652 544.056C521.452 541.036 524.165 538.381 526.037 536.237C528.39 533.541 529.304 531.777 529.488 531.171L533.316 532.335C532.882 533.759 531.52 536.038 529.05 538.867C526.709 541.549 523.269 544.845 518.385 548.55C519.984 556.197 523.634 565.374 530.49 576.068L527.122 578.226C524.434 574.034 522.208 570.036 520.387 566.24L520.305 566.347C513.584 561.244 509.139 556.789 506.383 553.241C505.007 551.469 504.027 549.892 503.4 548.546C502.805 547.269 502.416 545.967 502.53 544.831L506.51 545.229C506.51 545.228 506.51 545.229 506.51 545.229C506.51 545.242 506.507 545.375 506.579 545.661C506.653 545.957 506.792 546.355 507.026 546.857C507.494 547.862 508.296 549.182 509.542 550.787C511.236 552.968 513.708 555.617 517.169 558.647C514.373 551.014 513.299 544.341 513.365 538.677C509.052 534.241 506.324 529.883 504.745 526.168C503.168 522.46 502.644 519.168 503.084 517.059L507 517.876C506.803 518.819 506.982 521.208 508.426 524.603C509.497 527.123 511.217 530.077 513.813 533.201C514.673 527.73 516.673 523.504 519.037 520.588C520.11 519.264 521.101 517.634 522.007 515.781C514.555 509.771 511.186 503.612 510.39 500.788L514.24 499.703C514.747 501.501 517.348 506.613 523.648 511.949C524.545 509.568 525.329 506.97 525.991 504.275C527.604 497.722 528.439 490.865 528.536 485.745L532.536 485.821C532.452 490.245 531.854 495.814 530.726 501.42C533.404 499.718 535.444 498.205 536.946 496.953C539.065 495.186 540.004 494.032 540.225 493.66L543.667 495.698C543.09 496.672 541.721 498.18 539.507 500.025C537.244 501.911 533.977 504.25 529.457 506.864Z" fill="#EDEFF0"/>
<path fill-rule="evenodd" clip-rule="evenodd" d="M556.848 554.618C556.827 554.925 556.885 555.315 557.178 555.839C557.78 556.917 558.117 557.955 558.145 558.966C558.173 560.002 557.873 560.906 557.371 561.681C556.439 563.118 554.791 564.102 553.499 564.869L553.314 564.979C551.949 565.788 550.855 566.437 550.148 567.239C549.811 567.622 549.607 567.996 549.516 568.394C549.426 568.79 549.423 569.315 549.646 570.033L548.59 570.376L548.596 570.385L546.085 571.835C545.935 571.603 545.797 571.374 545.673 571.149L543.841 572.517C542.21 570.746 541.532 569.165 541.653 567.676C541.755 566.437 542.426 565.455 542.883 564.787C542.925 564.725 542.966 564.666 543.004 564.61C543.543 563.809 543.691 563.439 543.636 563.088C543.587 562.781 543.289 562.055 541.527 560.705C540.594 559.99 539.931 559.2 539.536 558.332C539.146 557.471 539.07 556.644 539.128 555.904C539.184 555.179 539.372 554.484 539.555 553.878C539.607 553.704 539.658 553.538 539.707 553.379C539.841 552.946 539.962 552.556 540.056 552.149C540.303 551.079 540.254 550.31 539.721 549.557C539.125 548.715 537.702 547.572 534.345 546.259L535.199 543.628C538.778 545.028 541.041 546.513 542.257 548.23C543.534 550.036 543.422 551.756 543.108 553.119C542.992 553.621 542.833 554.133 542.692 554.589C542.648 554.732 542.605 554.869 542.566 554.999C542.391 555.583 542.269 556.066 542.235 556.508C542.202 556.934 542.256 557.264 542.386 557.55C542.513 557.829 542.762 558.178 543.305 558.594C545.298 560.121 546.479 561.559 546.718 563.074C546.775 563.436 546.772 563.777 546.728 564.094C546.86 563.96 546.989 563.834 547.109 563.715C547.165 563.661 547.219 563.608 547.271 563.556C548.097 562.738 548.563 562.195 548.706 561.579C548.821 561.086 548.782 560.234 547.645 558.642C546.397 556.897 546.779 555.154 547.348 553.821C547.635 553.151 548.012 552.48 548.364 551.859L548.42 551.76C548.764 551.153 549.09 550.578 549.368 549.987C549.957 548.738 550.23 547.621 549.973 546.49C549.722 545.379 548.885 543.944 546.57 542.174L548.299 539.879C550.988 541.936 552.448 543.981 552.922 546.072C553.391 548.144 552.82 549.951 552.13 551.417C551.807 552.103 551.435 552.76 551.102 553.347L551.034 553.467C550.671 554.107 550.368 554.652 550.15 555.162C549.71 556.191 549.785 556.668 550.07 557.067C551.516 559.091 552.03 560.855 551.657 562.464C551.653 562.481 551.649 562.498 551.645 562.515L551.681 562.494C551.787 562.431 551.891 562.369 551.993 562.309C553.425 561.459 554.382 560.819 554.85 560.096C555.048 559.791 555.147 559.482 555.137 559.105C555.126 558.703 554.987 558.129 554.54 557.329C554.007 556.375 553.779 555.42 553.846 554.466C553.913 553.529 554.256 552.711 554.675 552.012C555.087 551.323 555.608 550.692 556.087 550.135C556.211 549.99 556.333 549.851 556.45 549.715L556.451 549.714C556.811 549.3 557.14 548.922 557.448 548.521C558.248 547.479 558.625 546.629 558.502 545.675C558.37 544.654 557.617 543.124 555.133 540.919L557.162 538.672C559.842 541.051 561.221 543.175 561.487 545.238C561.762 547.369 560.803 549.035 559.828 550.306C559.456 550.789 559.042 551.266 558.669 551.694C558.561 551.818 558.457 551.937 558.359 552.052C557.892 552.595 557.52 553.058 557.253 553.504C556.992 553.939 556.871 554.296 556.848 554.618ZM544.772 568.189C544.767 568.223 544.763 568.256 544.76 568.29C544.745 568.473 544.759 568.706 544.862 569.008C544.808 568.729 544.779 568.457 544.772 568.189Z" fill="#CAD1D9"/>
<path d="M700 658.5L628.964 610.825C626.819 609.386 624.819 607.742 622.991 605.916L605.452 588.402C600.802 583.759 595.081 580.333 588.794 578.427L569.802 572.668C564.011 570.912 557.896 570.493 551.919 571.443L513.326 577.575L470.303 580.802C467.212 581.034 464.159 581.624 461.205 582.56L380.439 608.167C376.383 609.453 372.148 610.084 367.893 610.035L334.317 609.652C330.557 609.609 326.809 610.097 323.184 611.101L287.952 620.859C282.693 622.315 277.192 622.68 271.788 621.932L195.483 611.364L158.772 601.546C151.715 599.658 144.277 599.74 137.263 601.78L111.329 609.326L63.2071 618.385C57.5831 619.443 52.2517 621.696 47.573 624.992L0 658.5H700Z" fill="url(#paint4_linear)"/>
<defs>
<linearGradient id="paint0_linear" x1="317.75" y1="0" x2="317.75" y2="699.345" gradientUnits="userSpaceOnUse">
<stop stop-color="#464647"/>
<stop offset="1" stop-color="#464647" stop-opacity="0"/>
</linearGradient>
<linearGradient id="paint1_linear" x1="228" y1="0" x2="228" y2="545.318" gradientUnits="userSpaceOnUse">
<stop stop-color="#464647"/>
<stop offset="1" stop-color="#464647" stop-opacity="0"/>
</linearGradient>
<linearGradient id="paint2_linear" x1="247" y1="0" x2="247" y2="346" gradientUnits="userSpaceOnUse">
<stop stop-color="#464647"/>
<stop offset="1" stop-color="#464647" stop-opacity="0"/>
</linearGradient>
<linearGradient id="paint3_linear" x1="553.5" y1="0" x2="553.5" y2="700" gradientUnits="userSpaceOnUse">
<stop stop-color="#464647"/>
<stop offset="1" stop-color="#464647" stop-opacity="0"/>
</linearGradient>
<linearGradient id="paint4_linear" x1="350" y1="570" x2="350" y2="658.5" gradientUnits="userSpaceOnUse">
<stop stop-color="#464647"/>
<stop offset="1" stop-color="#464647" stop-opacity="0"/>
</linearGradient>
</defs>
</svg>
