<svg width="161" height="35" viewBox="0 0 161 35" fill="none" xmlns="http://www.w3.org/2000/svg">
<g clip-path="url(#clip0)">
<path d="M56.2032 18.914L54.3971 20.825V25.788H51.6321V9.86301H54.3971V17.332L55.9302 15.442L60.5922 9.86301H63.9382L58.0232 16.919L64.2812 25.788H60.9982L56.2032 18.914Z" fill="white"/>
<path d="M71.9951 24.633C71.2181 25.55 70.1051 26.012 68.6701 26.012C67.3891 26.012 66.4161 25.634 65.7581 24.885C65.1001 24.136 64.7711 23.044 64.7711 21.623V13.958H67.4311V21.595C67.4311 23.1 68.0541 23.849 69.3001 23.849C70.5881 23.849 71.4631 23.387 71.9111 22.463V13.958H74.5711V25.795H72.0651L71.9951 24.633Z" fill="white"/>
<path d="M87.3251 19.992C87.3251 21.833 86.9121 23.289 86.0931 24.381C85.2741 25.466 84.1471 26.012 82.7051 26.012C81.3191 26.012 80.2411 25.515 79.4641 24.514L79.3311 25.795H76.9231V8.995H79.5831V15.099C80.3461 14.196 81.3821 13.741 82.6771 13.741C84.1191 13.741 85.2531 14.28 86.0791 15.351C86.9051 16.422 87.3181 17.92 87.3181 19.845V19.992H87.3251ZM84.6721 19.761C84.6721 18.48 84.4481 17.514 83.9931 16.87C83.5381 16.226 82.8871 15.904 82.0261 15.904C80.8711 15.904 80.0661 16.408 79.5971 17.416V22.295C80.0731 23.324 80.8851 23.835 82.0471 23.835C82.8801 23.835 83.5171 23.527 83.9721 22.904C84.4271 22.281 84.6581 21.35 84.6721 20.09V19.761Z" fill="white"/>
<path d="M94.4091 26.012C92.7221 26.012 91.3571 25.48 90.3141 24.423C89.2711 23.359 88.7462 21.952 88.7462 20.188V19.859C88.7462 18.676 88.9771 17.619 89.4321 16.695C89.8871 15.764 90.5242 15.043 91.3502 14.525C92.1762 14.007 93.0932 13.748 94.1082 13.748C95.7182 13.748 96.9642 14.259 97.8462 15.288C98.7282 16.317 99.1621 17.773 99.1621 19.649V20.72H91.4271C91.5041 21.7 91.8331 22.47 92.4071 23.037C92.9811 23.604 93.7022 23.891 94.5702 23.891C95.7881 23.891 96.7821 23.401 97.5451 22.414L98.9801 23.779C98.5041 24.486 97.8742 25.032 97.0832 25.424C96.2852 25.816 95.3961 26.012 94.4091 26.012ZM94.0941 15.869C93.3661 15.869 92.7782 16.121 92.3302 16.632C91.8822 17.143 91.5951 17.85 91.4691 18.767H96.5301V18.571C96.4741 17.682 96.2362 17.01 95.8162 16.555C95.4032 16.1 94.8291 15.869 94.0941 15.869Z" fill="white"/>
<path d="M107.163 16.387C106.813 16.331 106.449 16.296 106.078 16.296C104.86 16.296 104.041 16.765 103.614 17.696V25.788H100.954V13.958H103.495L103.558 15.281C104.202 14.252 105.091 13.741 106.225 13.741C106.603 13.741 106.918 13.79 107.163 13.895V16.387Z" fill="white"/>
<path d="M110.985 13.958L111.062 15.197C111.895 14.224 113.029 13.741 114.478 13.741C116.06 13.741 117.145 14.343 117.726 15.554C118.587 14.343 119.798 13.741 121.359 13.741C122.661 13.741 123.634 14.105 124.271 14.826C124.908 15.547 125.237 16.611 125.251 18.018V25.795H122.591V18.095C122.591 17.346 122.43 16.793 122.101 16.443C121.772 16.093 121.233 15.918 120.47 15.918C119.868 15.918 119.371 16.079 118.986 16.408C118.601 16.73 118.335 17.157 118.181 17.682L118.195 25.795H115.535V18.004C115.5 16.611 114.786 15.918 113.4 15.918C112.336 15.918 111.58 16.352 111.139 17.22V25.795H108.479V13.958H110.985Z" fill="white"/>
<path d="M134.568 25.788C134.449 25.564 134.351 25.193 134.26 24.682C133.413 25.564 132.377 26.005 131.152 26.005C129.962 26.005 128.996 25.669 128.24 24.99C127.491 24.311 127.113 23.471 127.113 22.477C127.113 21.217 127.582 20.251 128.52 19.572C129.458 18.9 130.795 18.557 132.538 18.557H134.169V17.78C134.169 17.164 134.001 16.674 133.658 16.31C133.315 15.939 132.797 15.757 132.097 15.757C131.495 15.757 130.998 15.911 130.606 16.212C130.221 16.513 130.025 16.898 130.025 17.367H127.365C127.365 16.716 127.582 16.114 128.009 15.547C128.436 14.98 129.024 14.539 129.766 14.217C130.508 13.895 131.334 13.734 132.244 13.734C133.63 13.734 134.736 14.084 135.555 14.777C136.381 15.47 136.801 16.45 136.822 17.717V23.058C136.822 24.122 136.969 24.969 137.27 25.606V25.795H134.568V25.788ZM131.649 23.877C132.174 23.877 132.671 23.751 133.133 23.492C133.595 23.24 133.945 22.897 134.176 22.463V20.23H132.741C131.754 20.23 131.019 20.398 130.522 20.741C130.025 21.084 129.78 21.567 129.78 22.197C129.78 22.708 129.948 23.114 130.291 23.415C130.627 23.723 131.082 23.877 131.649 23.877Z" fill="white"/>
<path d="M142.527 11.081V13.958H144.613V15.925H142.527V22.533C142.527 22.988 142.618 23.31 142.793 23.513C142.975 23.716 143.29 23.814 143.752 23.814C144.06 23.814 144.368 23.779 144.683 23.702V25.76C144.081 25.928 143.493 26.012 142.933 26.012C140.889 26.012 139.867 24.885 139.867 22.631V15.925H137.921V13.958H139.867V11.081H142.527Z" fill="white"/>
<path d="M146.062 10.885C146.062 10.479 146.188 10.136 146.447 9.86999C146.706 9.59699 147.077 9.46399 147.56 9.46399C148.043 9.46399 148.414 9.59699 148.673 9.86999C148.939 10.143 149.065 10.479 149.065 10.885C149.065 11.284 148.932 11.62 148.673 11.886C148.407 12.152 148.036 12.285 147.56 12.285C147.084 12.285 146.706 12.152 146.447 11.886C146.195 11.62 146.062 11.284 146.062 10.885ZM148.883 25.788H146.223V13.958H148.883V25.788Z" fill="white"/>
<path d="M156.142 23.891C156.807 23.891 157.353 23.695 157.794 23.31C158.235 22.925 158.466 22.449 158.494 21.875H161C160.972 22.61 160.741 23.296 160.314 23.94C159.887 24.577 159.299 25.081 158.564 25.452C157.829 25.823 157.031 26.012 156.177 26.012C154.525 26.012 153.209 25.473 152.236 24.402C151.263 23.331 150.78 21.847 150.78 19.964V19.691C150.78 17.892 151.263 16.45 152.222 15.365C153.181 14.28 154.497 13.741 156.163 13.741C157.57 13.741 158.718 14.154 159.6 14.973C160.482 15.792 160.951 16.87 160.993 18.207H158.487C158.459 17.528 158.228 16.968 157.794 16.534C157.36 16.093 156.807 15.876 156.135 15.876C155.274 15.876 154.609 16.191 154.147 16.814C153.678 17.437 153.44 18.382 153.433 19.649V20.076C153.433 21.357 153.664 22.316 154.126 22.946C154.602 23.569 155.267 23.891 156.142 23.891Z" fill="white"/>
<path d="M25.844 10.171C24.71 10.346 23.548 10.437 22.365 10.437C19.292 10.437 16.2891 9.78597 13.6151 8.67297C12.4601 9.52697 11.4591 10.577 10.5141 11.844C15.3161 14.056 19.25 17.927 21.546 22.708C27.363 23.121 32.683 25.809 36.484 30.002C38.423 28.91 39.501 27.37 39.641 25.564C39.305 25.606 38.962 25.627 38.619 25.641C38.682 25.235 38.731 24.731 38.801 24.031C38.577 24.556 38.318 25.081 37.975 25.655C37.373 25.655 36.785 25.613 36.204 25.529C36.302 25.018 36.372 24.402 36.463 23.534C36.204 24.136 35.903 24.738 35.483 25.41C35 25.319 34.524 25.2 34.055 25.06C34.188 24.5 34.265 23.814 34.377 22.785C34.104 23.436 33.775 24.066 33.306 24.808C32.823 24.626 32.354 24.423 31.899 24.192C32.004 23.674 32.074 23.044 32.172 22.148C31.934 22.708 31.661 23.254 31.29 23.863C27.965 21.966 25.508 18.711 24.654 14.847C26.537 18.214 29.778 20.706 33.635 21.567C33.46 22.323 33.257 22.953 33.019 23.548C33.67 22.743 34.09 22.204 34.391 21.714C34.811 21.784 35.238 21.833 35.665 21.861C35.476 22.75 35.252 23.457 34.986 24.129C35.812 23.1 36.274 22.512 36.582 21.896C36.596 21.896 36.61 21.896 36.624 21.896C37.114 21.896 37.59 21.868 38.066 21.819C37.856 22.876 37.618 23.674 37.317 24.43C38.367 23.121 38.829 22.519 39.137 21.665C39.585 21.581 40.019 21.476 40.453 21.35C40.222 22.666 39.956 23.59 39.613 24.458C40.95 22.799 41.328 22.274 41.65 20.937C41.657 20.937 41.664 20.93 41.671 20.93C41.769 20.503 41.846 20.062 41.902 19.614C41.65 19.6 41.391 19.579 41.139 19.551C34.622 18.928 29.127 15.302 25.844 10.171Z" fill="url(#paint0_linear)"/>
<path d="M36.239 5.66998C33.271 7.97998 29.722 9.56898 25.844 10.164C29.127 15.295 34.622 18.921 41.118 19.565C41.37 19.593 41.629 19.607 41.881 19.628C41.951 19.068 41.993 18.501 41.993 17.927C42 12.6 40.803 7.97298 36.239 5.66998Z" fill="url(#paint1_linear)"/>
<path d="M4.62704 17.29C2.59703 17.29 1.64503 15.764 0.504033 13.412C-0.902968 14.826 1.01503 17.08 1.01503 18.228C1.01503 19.488 -0.783967 22.134 0.511033 23.436C1.64503 20.902 2.49203 19.768 4.62704 19.768C6.60104 19.768 7.82604 19.754 8.98104 21.511C9.58304 22.652 10.255 23.667 10.969 24.556C12.817 23.737 14.812 23.163 16.905 22.869C18.473 22.652 20.027 22.603 21.546 22.715C19.25 17.934 15.337 14.063 10.535 11.844C10.066 12.474 9.62504 13.16 9.20504 13.916C8.06404 15.876 6.73404 17.29 4.62704 17.29Z" fill="url(#paint2_linear)"/>
<path d="M21.546 22.708C22.988 25.711 23.8 29.085 23.8 32.648C23.8 32.753 23.8 33.089 23.8 33.194C25.158 32.683 26.215 31.976 26.754 31.71C27.181 31.731 27.608 31.752 28.042 31.752C31.682 31.752 34.517 31.108 36.477 30.002C32.683 25.809 27.363 23.121 21.546 22.708Z" fill="url(#paint3_linear)"/>
<path d="M16.9051 22.869C14.8051 23.163 12.8171 23.737 10.9691 24.556C12.8731 26.908 15.1761 28.441 17.8431 29.554C17.8991 30.296 18.2141 33.138 13.4751 34.594C17.1851 35.749 21.0701 34.447 23.8071 33.201C23.8071 33.096 23.8001 32.76 23.8001 32.655C23.8001 29.092 22.9881 25.718 21.5461 22.715C20.0271 22.603 18.4731 22.645 16.9051 22.869Z" fill="url(#paint4_linear)"/>
<path d="M25.851 10.171C24.367 7.85399 23.163 4.26299 22.694 1.46999C19.474 -0.0140134 15.988 -0.406013 12.579 0.377987C17.598 1.77099 17.857 5.54399 17.535 6.55199C15.96 7.19599 14.931 7.69999 13.615 8.67999C16.289 9.79299 19.292 10.437 22.365 10.437C23.548 10.437 24.71 10.346 25.851 10.171Z" fill="url(#paint5_linear)"/>
<path d="M27.4261 4.09497C26.7961 3.78697 24.7101 2.14197 22.6941 1.46997C23.1631 4.26297 24.3531 7.84697 25.8371 10.164C29.7081 9.56197 33.2641 7.97297 36.2321 5.66997C34.2651 4.67597 31.6681 4.10897 28.2661 4.10897C27.8601 4.10897 27.8181 4.07397 27.4261 4.09497Z" fill="url(#paint6_linear)"/>
<path d="M32.5431 18.207C34.4915 18.207 36.0711 16.6149 36.0711 14.651C36.0711 12.6871 34.4915 11.095 32.5431 11.095C30.5946 11.095 29.0151 12.6871 29.0151 14.651C29.0151 16.6149 30.5946 18.207 32.5431 18.207Z" fill="white"/>
<path d="M32.5431 16.709C33.672 16.709 34.5871 15.7876 34.5871 14.651C34.5871 13.5144 33.672 12.593 32.5431 12.593C31.4142 12.593 30.4991 13.5144 30.4991 14.651C30.4991 15.7876 31.4142 16.709 32.5431 16.709Z" fill="#1C4671"/>
<path d="M33.1591 15.239C33.8202 15.239 34.3561 14.6999 34.3561 14.035C34.3561 13.37 33.8202 12.831 33.1591 12.831C32.498 12.831 31.9621 13.37 31.9621 14.035C31.9621 14.6999 32.498 15.239 33.1591 15.239Z" fill="white"/>
<path d="M31.6471 15.827C31.8017 15.827 31.9271 15.6985 31.9271 15.54C31.9271 15.3815 31.8017 15.253 31.6471 15.253C31.4924 15.253 31.3671 15.3815 31.3671 15.54C31.3671 15.6985 31.4924 15.827 31.6471 15.827Z" fill="white"/>
</g>
<defs>
<linearGradient id="paint0_linear" x1="12.7729" y1="13.4747" x2="46.8077" y2="25.5494" gradientUnits="userSpaceOnUse">
<stop offset="0.00177936" stop-color="#4FE5FF"/>
<stop offset="0.5" stop-color="#128FDE"/>
<stop offset="1" stop-color="#2F75BD"/>
</linearGradient>
<linearGradient id="paint1_linear" x1="33.9241" y1="4.85404" x2="33.9241" y2="22.6359" gradientUnits="userSpaceOnUse">
<stop offset="0.00177936" stop-color="#4FE5FF"/>
<stop offset="0.5" stop-color="#128FDE"/>
<stop offset="1" stop-color="#2F75BD"/>
</linearGradient>
<linearGradient id="paint2_linear" x1="-0.011643" y1="18.1956" x2="21.5434" y2="18.1956" gradientUnits="userSpaceOnUse">
<stop stop-color="#C2E1CE"/>
<stop offset="0.5" stop-color="#4FE5FF"/>
<stop offset="0.9964" stop-color="#128FDE"/>
</linearGradient>
<linearGradient id="paint3_linear" x1="21.5443" y1="27.9516" x2="36.4811" y2="27.9516" gradientUnits="userSpaceOnUse">
<stop offset="0.00355872" stop-color="#128FDE"/>
<stop offset="0.5" stop-color="#4FE5FF"/>
<stop offset="1" stop-color="#C2E1CE"/>
</linearGradient>
<linearGradient id="paint4_linear" x1="10.036" y1="28.8451" x2="25.6223" y2="28.8451" gradientUnits="userSpaceOnUse">
<stop offset="0.00355872" stop-color="#1690DE"/>
<stop offset="0.5" stop-color="#4FE5FF"/>
<stop offset="1" stop-color="#C2E1CE"/>
</linearGradient>
<linearGradient id="paint5_linear" x1="12.5797" y1="5.20809" x2="30.5751" y2="5.20809" gradientUnits="userSpaceOnUse">
<stop offset="0.00177936" stop-color="#4FE5FF"/>
<stop offset="0.5" stop-color="#128FDE"/>
<stop offset="1" stop-color="#2F75BD"/>
</linearGradient>
<linearGradient id="paint6_linear" x1="19.922" y1="5.81962" x2="41.6279" y2="5.81962" gradientUnits="userSpaceOnUse">
<stop offset="0.00177936" stop-color="#4FE5FF"/>
<stop offset="0.5" stop-color="#128FDE"/>
<stop offset="1" stop-color="#2F75BD"/>
</linearGradient>
<clipPath id="clip0">
<rect width="161" height="35" fill="white"/>
</clipPath>
</defs>
</svg>
